<svg width="1769" height="903" fill="none" xmlns="http://www.w3.org/2000/svg"><path d="M1583.76 427.493s14.09-5.109 23.2 9.165c9.1 14.275 4.18 12.909 8.61 20.064 4.43 7.154 6.56 27.428 8.09 38.394 15.62 111.866-171.19 120.936-98.24-21.66 6.84-13.371 12.63-21.409 18.78-35.69 6.15-14.281 32.18-13.718 39.56-10.273z" fill="#B75742"/><path d="M1543.8 532.015l-18.84-6.583s-7.47 9.552-9.72 33.468c-2.25 23.915 0 37.966 0 37.966h21.31l7.25-64.851z" fill="#355389"/><path d="M1581.51 519.16c-6.39.68-53.93-3.852-56.58 6.258-14.26 54.353 5.34 129.388 10.35 134.395 5 5.008 86.71-11.299 86.71-11.299s12.84-134.843-40.48-129.354z" fill="#466EB6"/><path d="M1646.43 463.448s-5.25-2.5-10.03-11.346c-3.06-5.674-12.16-12.909-8.37-14.119 3.79-1.209 9.6 8.412 10.68 5.667 1.09-2.745-9.75-23.515-6.32-24.582 3.43-1.066 12.42 19.14 13.4 16.68.97-2.459-9.18-20.111-4.32-21.619 4.85-1.508 10.09 21.741 12.7 20.919 2.61-.822-1.19-18.534 2.72-19.744 3.9-1.209 3.35 21.918 4.75 21.253.76-.361 4.23-11.551 6.35-10.722 2.39.945-4.08 23.943-1.21 29.018 2.88 5.075 25.9 68.091 18.03 75.959-8.58 8.581-63.17 28.25-74.57 24.867-11.4-3.384-17.97-14.669-15.21-21.606 2.75-6.937 56.69-22.536 57.56-24.717.86-2.181-6.16-45.908-6.16-45.908z" fill="#F7A491"/><path d="M1650.81 443.541c1.65-.031 3.29.267 4.83.877 1.72.632 3.29 1.621 4.61 2.9a13.138 13.138 0 013.02 4.526c-2.46-2.963-5.19-6.197-12.46-8.303z" fill="#F48C7F"/><path d="M352.329 850.763c-.911-6.488 1.127-17.664 6.202-35.105-10.054 0-18.512-4.43-28.79-4.274-2.806 16.422-7.154 43.381-7.154 43.381l-.468 21.307 71.568.543s-.598.306-21.691-13.031c-1.563-.985-18.798-6.55-19.667-12.821z" fill="#F7A491"/><path d="M321.779 881.555h73.878c2.717-.252 3.396-2.48 2.452-3.852-1.95-2.827-16.358-9.621-26.053-14.132-16.983 1.787-46.874-5.205-49.537-9.145-4.66 13.038-2.262 26.809-.74 27.129z" fill="#3C8F7C"/><path d="M263.172 850.764c-.903-6.489-2.445-14.608-.19-36.241-10.054 0-19.626-1.868-29.891-1.712 0 16.891.354 41.954.354 41.954l-.462 21.307 71.568.543s-.598.306-21.698-13.031c-1.59-.985-18.804-6.549-19.681-12.82z" fill="#F7A491"/><path d="M232.623 881.555H306.5c2.718-.252 3.397-2.48 2.453-3.852-1.95-2.827-16.359-9.621-26.046-14.132-16.983 1.787-46.874-5.205-49.544-9.145-4.66 13.038-2.255 26.809-.74 27.129z" fill="#3C8F7C"/><path d="M315.182 232.677l26.916-28.406s28.817 15.85 62.41 30.995c9.233-16.075 24.307-68.948 25.136-71.475.829-2.528-17.663-34.29-13.519-35.085 4.144-.795 9.511 16.985 13.858 15.158 4.348-1.828 15.625-43.001 18.22-40.765 4.919 4.212-5.903 25.627-3.315 27.176 2.588 1.549 9.164-23.739 14.171-22.665 5.007 1.073-8.451 23.039-6.977 25.138 1.475 2.1 15.544-18.487 18.451-13.717 1.576 2.595-12.975 17.936-9.986 19.655 2.989 1.719 16.107-7.949 17.663-4.817 1.555 3.132-12.228 6.394-16.067 14.316-3.838 7.922-10.801 11.006-13.118 25.987-2.316 14.982-8.627 95.044-24.952 101.471-14.252 5.667-108.891-42.966-108.891-42.966z" fill="#F7A491"/><path d="M332.573 385.886l-21.827 12.175-44.374 67.86 79.353 186.806s-8.933 28.094-11.847 42.124c-3.023 14.689-10.496 140.734-10.496 140.734l33.851.571s32.16-134.185 37.609-177.736c6.609-52.885-33.655-178.836-33.655-178.836-7.534-25.702-23.722-78.568-23.722-78.568s-3.961-12.875-4.892-15.13z" fill="#355389"/><path d="M256.59 360.401s2.255 15.959-6.794 34.168c-5.502 11.095-15.006 19.798-21.82 33.4-12.907 25.729-19.877 62.282-15.04 85.77 0 0 26.636 101.729 25.577 138.913-.394 13.704-5.095 38.408-8.105 55.108-2.656 14.764-1.725 124.286-1.725 124.286l35.971.679 28.973-179.618 12.228-159.663 26.705-107.551-75.97-25.492z" fill="#466EB6"/><path d="M340.637 123.087c-3.492-16.489-7.065-33.04-23.478-44.923-13.254-9.614-27.506-12.359-42.608-6.882-42.798 15.531-19.782 49.495-72.886 85.694-16.501 11.245-22.764 15.165-34.605 30.16-16.576 20.98-25.638 49.135-17.303 72.31 17.228 47.933 70.651 61.78 98.558 51.636 51.97-18.901 95.298-84.873 98.164-102.864 3.098-19.261-3.593-74.518-5.842-85.131z" fill="#13375B"/><path d="M344.605 250.525c12.044 5.565 33.865 13.928 33.865 13.928l12.411-39.263c-70.162-39.916-64.652-33.475-117.315-32.694-42.071.605-59.7-7.432-95.929 90.363 0 0 27.581 12.392 37.452 16.367 4.246-12.094 11.922-36.206 16.399-22.455a400.043 400.043 0 0115.034 63.315c2.106 12.794 6.698 29.174 4.287 42.212 0 0 28.647 5.898 50.529 6.856h.19c10.577-.272 21.406-1.203 31.046-3.282 0 0 4.293-90.729 6.582-94.514 2.541-4.198 13.261-17.739 4.144-37.993-1.616-3.567-1.182-3.988 1.305-2.84z" fill="#50BFA5"/><path d="M280.156 152.112s-3.349 27.061-5.326 36.451c-2.038 9.831-5.17 40.765 15.21 45.813 20.38 5.048 14.083-33.679 14.416-43.68.333-10.001 6.114-44.842 6.114-44.842l-30.414 6.258z" fill="#F7A491"/><path d="M279.049 160.747c.21.123.4.259.618.381 11.256 6.454 21.059 5.435 28.423.414 1.311-8.656 2.48-15.688 2.48-15.688l-30.414 6.258s-.442 3.608-1.107 8.635z" fill="#F47458"/><path d="M286.283 81.65a34.847 34.847 0 00-18.824 15.218c-6.889 11.863-10.326 45.929 15.027 60.468 25.353 14.54 43.342-8.75 42.574-30.573-.768-21.823-6.834-50.583-38.777-45.114z" fill="#F7A491"/><path d="M330.658 117.441c.285 5.66-2.14 10.389-5.435 10.552-3.295.163-6.148-4.288-6.427-9.954-.278-5.666 2.14-10.388 5.435-10.551 3.295-.163 6.148 4.287 6.427 9.953z" fill="#F7A491"/><path d="M289.877 80.752s-13.668 35.629-27.044 39.407c-13.376 3.777-12.303 21.32-12.303 21.32s-1.712-40.487 10.503-50.406c12.214-9.92 28.844-10.32 28.844-10.32z" fill="#13375B"/><path d="M268.573 127.15c2.038 5.571.679 11.224-3.023 12.63-3.702 1.407-8.43-1.97-10.489-7.534-2.058-5.565-.713-11.224 3.016-12.631 3.73-1.406 8.431 1.964 10.496 7.535zm23.363 280.858c.496.068 2.717-.231 4.558-.184 1.593.036 3.182.179 4.755.428a13.497 13.497 0 012.888-1.739c.788-.36 2.078-.496 2.955-.904.876-.407 1.671-1.195 2.527-1.576 2.235-.971 4.293-1.196 4.966 0 .564.965-11.868 8.574-11.868 8.574-11.515.068-23.566 5.939-50.271-11.468-15.238-6.658-89.224-43.204-90.712-51.174-.836-4.464 10.516-39.073 19.796-65.346 7.153 3.207 22.364 9.98 30.876 13.54-7.806 16.551-17.018 38.489-16.046 41.18.244.679 1.175 1.963 51.188 34.711 1.263.816 2.547 1.672 3.858 2.528 3.519 2.303 7.29 4.756 11.284 7.365l14.266-1.495s22.595 1.563 23.274 4.131c.293 1.175-1.582 1.766-3.885 2.099h-.068l-1.013.136h-.047c-2.48.292-5.102.34-5.734.564a15.12 15.12 0 00-3.396 1.671c14.089 5.755 13.002 3.703 17.662 3.398 1.176-.089 2.412.244 3.519.156 1.896-.156 3.397-1.284 4.878-1.359a6.354 6.354 0 014.266 1.284c.496.496-.428 1.216-2.235 2.038-10.869 4.716-19.884 2.908-22.771 3.608-1.943.476 1.596 1.203 7.126.611 1.359-.135 3.186.361 5.014-.067 1.216-.272 2.323-1.06 3.519-1.359 1.195-.299 2.235-.252 3.158-.428 1.223-.225 2.915-1.155 3.886-1.264 3.608-.408 5.374.224 5.775.564.835.74-15.571 7.039-15.571 7.039s-11.311 1.63-13.838 1.63c.014-.02-1.494.653 1.461 1.108z" fill="#F7A491"/><path d="M102.17 536.091s-7.568 93.312-7.568 101.417c0 8.105 32.2 10.395 32.2 10.395l9.837-95.757-34.469-16.055z" fill="#466EB6"/><path d="M150.185 513.365s-20.889-11.183-38.111-.931c-17.22 10.253-21.908 70.476-21.908 70.476l55.169 6.611 4.85-76.156z" fill="#86B1F2"/><path d="M277.744 820.557s-10.557 43.047-18.423 49.808c-7.867 6.76-33.519 19.703-26.807 21.062 6.712 1.358 56.385 2.547 55.026-5.741-1.358-8.289-2.792-13.589-2.792-13.589l13.139-30.75-20.143-20.79z" fill="#F47458"/><path d="M229.172 893.213c12.119 1.21 47.492 2.48 57.804 1.162 0 0 1.93-.38.571-8.669a197.198 197.198 0 00-.992-5.503c-9.347 2.452-29.707-2.772-37.771-3.846-8.763 4.199-18.641 10.463-21.827 10.986-4.613.761-4.606 5.191 2.215 5.87z" fill="#13375B"/><path d="M393.598 856.647s1.108 10.871 1.108 15.695-4.47 18.344-2.398 20.382c2.072 2.039 61.249 1.814 61.249-.136 0-1.95-10.462-7.854-24.674-11.916-14.212-4.063-19.021-19.805-15.353-28.849l-19.932 4.824z" fill="#F47458"/><path d="M454.494 892.786c0-1.821-9.701-7.399-22.269-11.238-13.396 4.525-31.996.795-38.966-.544-2.133 5.585-2.819 10.871-1.719 11.972 2.086 2.038 62.954 1.719 62.954-.19z" fill="#13375B"/><path d="M329.367 674.638l-10.611 9.417s-11.95 32.347-12.643 34.487c-.971 2.969-39.673 127.731-39.673 127.731l26.963 9.702s26.732-52.084 31.168-70.177c4.436-18.093 48.722-93.76 48.722-93.76l-43.926-17.4zm46.881 19.2l12.907 165.316h29.891s10.707-123.722 7.018-167.136l-49.816 1.82z" fill="#86B1F2"/><path d="M216.047 578.65s9.076 44.407 17.051 52.397c4.538 4.545 16.916 22.917 26.433 22.917 7.575 0 12.086.55 13.356.55 2.955 0-.367 18.093-3.139 20.865 0 0-.923 2.765-6.46 2.765s-34.884-20.117-43.743-28.984c-8.858-8.866-25.285-57.22-25.285-57.22l21.787-13.29z" fill="#F7A491"/><path d="M361.853 522.897s-11.447 13.296-26.583 35.812c-15.135 22.516-53.81 85.05-57.954 89.187a37.742 37.742 0 01-4.137 3.017s-5.435-1.169-8.356-.095c-2.921 1.073-6.705 6.583-5.346 7.935 1.358 1.352 6.576-3.166 8.152-3.118 1.576.047 1.739.047 1.739.903s-6.461 4.43-8.308 4.926c-1.848.496-6.712 7.97-5.781 10.456.93 2.487.862 3.33 3.199 3.33 2.337 0 2.718 1.841 4.674 1.841 1.957 0 2.459-2.46 4.674-1.475 2.215.986 2.833.741 9.721-3.444 6.889-4.185 19.755-19.758 26.209-26.212 6.454-6.455 65.481-70.755 65.481-70.755l-7.384-52.308z" fill="#F47458"/><path d="M386.893 423.892s-14.089-5.102-23.192 9.173c-9.103 14.274-4.185 12.908-8.614 20.056-4.43 7.147-15.999 5.66-15.999 16.741s5.17 12.793 5.17 12.793-4.68 8.615.489 17.482c5.17 8.866 18.037 16.489 28.838 15.259 0 0 16.202 8.88 32.438 4.682 16.237-4.199 10.585-4.192 17.228-4.192 6.644 0 24.613-9.105 21.658-22.421 0 0 10.951-13.004.326-23.624-10.625-10.619-12.629-21.394-18.784-35.662-6.155-14.268-32.173-13.731-39.558-10.287z" fill="#184655"/><path d="M186.509 517.869c2.093.72 10.645 6.794 15.625 16.415 4.98 9.62 18.152 49.72 18.152 49.72l-21.664 7.935-12.113-74.07z" fill="#50BFA5"/><path d="M77.462 848.623s-3.567 12.678-6.4 15.505c-2.832 2.826-12.227 13.812-9.904 19.261 2.323 5.449 59.483 13.242 61.65 11.075 2.167-2.168-9.878-11.353-16.705-16.986-6.827-5.632-11.719-12.549-8.831-20.946 2.887-8.398 2.86-7.569 2.86-8.398 0-.829-22.67.489-22.67.489z" fill="#F7A491"/><path d="M122.828 894.491c2.589-1.936-5.434-10.613-17.085-17.298-4.871 0-11.372-.34-16.875-1.712-8.62-2.154-15.224-9.621-17.187-12.046-.177.251-14.035 13.588-11.331 19.981 2.31 5.443 57.309 14.954 62.478 11.075z" fill="#355389"/><path d="M172.345 854.806s1.06 13.018-1.087 16.394c-2.146 3.377-9.646 16.775-5.434 20.96 3.77 3.771 56.147 1.359 57.784-1.243 1.637-2.602-7.317-10.32-15.21-14.329-7.894-4.008-14.178-9.688-13.214-18.514.965-8.825 1.142-8.01.958-8.832-.183-.822-23.797 5.564-23.797 5.564z" fill="#F7A491"/><path d="M230.082 893.003c2.717-1.733-9.341-12.651-22.16-16.639-4.755 1.053-11.168 2.154-16.841 2.038-8.879-.224-16.983-6.067-19.395-8.01-.122.285-12.051 17.57-6.705 21.979 4.192 3.411 60.95 3.261 65.101.632z" fill="#355389"/><path d="M176.17 670.453l-33.811 97.999-38.79 90.716-32.486-8.153s11.726-62.88 22.738-82.631c8.335-14.947 14.157-100.717 14.157-100.717l68.192 2.786z" fill="#F47458"/><path d="M159.934 686.922l11.711 172.212h27.69s12.092-180.426 7.663-197.588c-4.429-17.162-50.556-13.296-50.556-13.296l3.492 38.672z" fill="#B75742"/><path d="M186.509 517.869s-35.679-10.694-41.174-10.001c-6.019.754-20.639 8.5-20.639 8.5s.904 61.949-1.684 79.492c-2.589 17.542-20.673 73.635-20.673 73.635s25.475 14.77 68.294 9.967c42.819-4.804 39.87-15.138 39.87-15.138s-4.076-62.024-8.152-89.343c-4.076-27.319-15.842-57.112-15.842-57.112z" fill="#96D9C9"/><path d="M428.679 527.327a231.105 231.105 0 00-40.604-6.183c-11.181-.618-26.208 1.753-26.208 1.753s-13.662 30.649-17.717 55.753c-4.056 25.105-26.202 105.589-26.202 105.589s45.04 34.704 110.731 11.815V527.327z" fill="#F7A491"/><path d="M377.478 499.885s.591 19.601-1.25 21.443c-1.841 1.841-4.409 4.891-1.699 9.573 2.711 4.681 14.457 1.691 19.932-.986a25.812 25.812 0 008.648-7.351l-2.717-31.049-22.914 8.37z" fill="#F47458"/><path d="M385.29 508.011c3.777-1.325 10.374-3.873 15.462-12.148l-.387-4.348-22.887 8.37s.142 4.756.068 9.845a26.37 26.37 0 007.744-1.719z" fill="#B75742"/><path d="M68.339 430.958s-1.882 8.717 7.214 11.781c9.097 3.065 14.735-28.929 19.905-35.248 5.169-6.318 20.849-8.044 28.994 4.58 4.483 6.936 5.883 9.96 6.236 11.271.292 1.074-.122 1.006-.122 1.006l-2.459 4.599s-7.887-4.756-10.87 3.954c-2.982 8.711 5.802 23.053-1.725 34.929-7.527 11.876-21.318 3.479-21.318 3.479-11.44 7.691-24.605-4.077-28.838-15.165-4.232-11.088 2.983-25.186 2.983-25.186z" fill="#F7CC7F"/><path d="M158.072 475.236l-1.243 12.854-11.494 19.778s22.669 27.449 29.666 20.885c1.563-1.46 5.51-30.512 5.51-30.512l-22.439-23.005z" fill="#F7A491"/><path d="M156.829 488.09l-2.405 4.389a83.898 83.898 0 0024.708 15.342c.801-5.334 1.358-9.58 1.358-9.58l-22.418-23.005-1.243 12.854z" fill="#F48C7F"/><path d="M181.401 433.01s5.991 5.435 8.192 8.506c13.112 18.263 2.494 54.286-4.354 57.282-10.36 4.532-23.845-1.563-39.042-11.869-15.196-10.307-19.999-27-6.114-41.519 13.886-14.52 41.318-12.4 41.318-12.4z" fill="#F7A491"/><path d="M130.994 429.789l4.137-3.961c16.236 0 29.212-9.79 47.397.055 12.032 6.495 7.086 15.626 7.086 15.626-44.531 0-28.464 35.099-33.926 49.068-5.462 13.969-39.504-16.231-24.694-60.788z" fill="#F7CC7F"/><path d="M162.142 469.318s-.625-11.55-7.691-9.233c-7.065 2.317-1.562 19.635 4.301 19.024 5.862-.612 3.39-9.791 3.39-9.791z" fill="#F7A491"/><path d="M404.4 469.352s.557-11.55 7.629-9.287c7.072 2.262 1.684 19.635-4.178 19.023-5.863-.611-3.451-9.736-3.451-9.736z" fill="#F47458"/><path d="M129.825 421.107s6.712 4.165 9.416 3.818c2.704-.346-4.144 8.425-7.772 9.335-3.627.911-2.35-2.581-3.118-3.784-.767-1.202-3.593-.265-4.246-1.148-1.481-2.018 2.555-7.834 5.72-8.221z" fill="#50BFA5"/><path d="M254.959 674.638s6.209-9.6 8.241-10.062c2.031-.462-.462 6.557-.462 7.848 0 1.29 3.688-9.879 5.72-9.879 2.031 0 2.309 1.481 1.474 4.341-.836 2.861-2.765 6.55-1.841 6.55.924 0 3.553-12.413 5.074-10.871 1.522 1.543.938 11.679-1.936 14.553-2.873 2.874-11.338 1.06-16.27-2.48z" fill="#F7A491"/><path d="M365.318 600.276c2.513 1.311 5.692-.38 6.976-2.806 1.78-3.397.68-6.794-1.861-7.997-2.629-1.236-5.652-.047-7.262 3.146-1.488 2.962-.476 6.55 2.147 7.657zm-17.289-21.171c1.039-1.093 4.076-5.435 9.205-3.696 4.449 1.481 6.209 6.068 7.472 8.153-.367-2.085-1.209-5.686-.224-9.77 2.629-10.87 15.924-9.885 15.686.191-.095 3.954-1.522 6.366-3.519 10.612.815-.897 3.261-3.859 6.623-5.592 9.817-5.054 15.089 7.263 8.153 13.806-3.594 3.397-8.153 3.472-10.945 3.798 2.419.68 3.866.883 6.237 2.385 12.228 7.772-4.803 28.76-14.022 8.554h-.088c.421 2.86 1.236 6.359.054 10.408-3.193 10.959-17.771 9.037-15.244-3.397.788-3.879 3.397-7.99 3.526-8.309-1.76 1.875-4.348 4.987-8.098 6.455-9.66 3.777-14.266-9.859-5.367-15.627 3.981-2.575 7.935-2.201 9.334-2.575-3.301-.795-6.413-1.719-8.661-4.491-3.05-3.744-1.413-7.433-1.515-7.936.462-.992.924-1.983 1.393-2.969z" fill="#F7CC7F"/><path d="M382.158 431.712s-11.08-.251-16.739 8.364c-5.659 8.615-11.813 33.23-2.459 50.209 9.355 16.979 21.284 12.8 26.209 11.081 4.925-1.719 14.646-5.537 19.565-21.415 4.918-15.878 1.352-51.568-26.576-48.239z" fill="#F47458"/><path d="M130.45 513.501s8.023-1.209 14.912 24.846c7.799 29.521-.605 60.108-13.512 67.854-12.907 7.745-18.227 6.25-18.227 6.25l2.038 18.209s38.145-8.534 43.335-41.139c8.512-53.436-16.596-80.959-16.596-80.959s-4.755.754-6.189 1.358c-1.61.632-5.761 3.581-5.761 3.581z" fill="#466EB6"/><path d="M110.709 575.206v38.142c0 6.652 7.629 51.636 16.983 67.052 9.355 15.416 22.031 32.612 24.654 33.577 2.622.964 8.328 4.592 11.283 1.644 2.955-2.949 5.286-1.604 8.981-3.2 3.696-1.597-.496-6.896-5.659-12.06-5.163-5.164-6.277-6.4-5.434-7.263.842-.863 5.04 3.941 7.255 3.2 2.215-.74-1.359-8.493-7.133-11.197-5.774-2.704-15.013-8.003-15.876-10.83-.863-2.826-.863-2.092-.863-2.833 0-.74-6.522-45.412-6.522-54.149 0-8.738-2.581-37.164-2.581-37.164l-25.088-4.919z" fill="#F7A491"/><path d="M128.154 514.853c-3.356.414-12.466 3.736-15.665 14.566-3.2 10.83-11.624 41.601-10.15 56.609 0 0 35.931 4.682 35.931 3.2 0-1.481 7.86-39.99 3.94-56.853-3.424-14.709-8.22-18.249-14.056-17.522z" fill="#50BFA5"/><path d="M180.918 516.232l24.98 89.778c-1.101-11.727-2.31-22.923-3.519-31.056-4.076-27.319-15.87-57.071-15.87-57.071s-2.201-.673-5.591-1.651z" fill="#466EB6"/><path d="M326.527 697.202h69.116v-94.908l-69.116 3.703v91.205z" fill="#3C8F7C"/><path d="M326.527 598.598h66.045c1.699 0 3.071 1.657 3.071 3.696 0 2.038-1.359 3.702-3.071 3.702h-66.045.055c4.565-2.085 4.538-5.36-.055-7.398z" fill="#3C8F7C"/><path d="M328.416 599.691h61.881c1.195 0 2.167 1.169 2.167 2.603 0 1.44-.972 2.609-2.167 2.609h-61.881c2.099-1.617 2.092-3.588 0-5.212z" fill="#FAE0B2"/><path d="M428.679 527.327s-5.176 5.191-10.713 24.86c-5.537 19.669-8.356 65.72-13.159 70.517-4.803 4.796-36.174 29.785-41.833 28.923-5.659-.863-18.342-15.627-22.276-15.627-3.933 0-3.444 3.574-1.474 5.537 1.97 1.964 4.368 4.247 3.2 5.436l-1.169 1.175s-17.533-4.62-20.488-2.894c-2.955 1.725 2.832 5.782 2.832 8.737s-.726 2.901-.373 6.156c.353 3.254 1.168 5.843 2.717 7.378 1.549 1.535 20.917 7.141 39.864 4.559 18.946-2.582 42.119-11.693 59.19-32.864 17.072-21.17 13.675-87.692 13.288-94.33-1.005-16.822-9.606-17.563-9.606-17.563z" fill="#F47458"/><path d="M1374.73 166.563l14.39-2.86 3.5-14.526 16.36-2.073-1.06-16.632 18.39-3.152.93-15.436 17.18-5.925 2.27 6.509-12.85 4.43-.97 16.285-17.68 3.03 1.06 16.911-18.04 2.283-3.43 14.186-13.32 2.657-.3 9.79-6.88-.231.45-15.246z" fill="#50BFA5"/><path d="M1292.8 286.147l8.58-15.708-8.06-15.959a2.428 2.428 0 01.23-2.587 2.452 2.452 0 012.42-.939l17.57 3.301 12.68-12.603c.32-.323.73-.548 1.18-.651a2.467 2.467 0 012.46.844c.29.356.47.786.53 1.241l2.29 17.733 15.9 8.153c.41.209.75.529.99.922.23.393.36.845.35 1.303a2.47 2.47 0 01-.39 1.293c-.25.385-.6.694-1.02.891l-16.16 7.657-2.85 17.665c-.07.452-.27.875-.57 1.221a2.46 2.46 0 01-3.64.077l-12.28-13.004-17.66 2.717c-.45.069-.91.012-1.33-.164a2.405 2.405 0 01-1.04-.835 2.488 2.488 0 01-.46-1.258c-.03-.453.07-.907.28-1.31z" fill="#F47458"/><path d="M116.279 110.661l10.537-14.451-5.931-16.87a2.463 2.463 0 011.736-3.204 2.46 2.46 0 011.349.051l16.983 5.558 14.205-10.871a2.458 2.458 0 013.954 1.957l-.034 17.882 14.707 10.191a2.466 2.466 0 011.035 2.379 2.468 2.468 0 01-1.673 1.983l-17.004 5.51-5.115 17.135a2.473 2.473 0 01-.728 1.137 2.463 2.463 0 01-3.62-.403l-10.482-14.472-17.874.428a2.451 2.451 0 01-2.265-1.325 2.459 2.459 0 01.22-2.615zM495.472 325.56a18.007 18.007 0 019.934-17.364 18.006 18.006 0 0119.842 2.534 18.005 18.005 0 01-23.635 27.165 18.009 18.009 0 01-6.141-12.335zm30.529 50.868c-1.073-5.225-1.725-10.816-3.505-15.851-1.536-4.328-8.288-3.003-7.948 1.644.421 5.694 2.201 11.462 3.396 17.04.483 2.263 3.472 3.309 5.435 2.616 2.418-.849 3.084-3.18 2.615-5.435l.007-.014zm30.849-22.332c-5.965-3.52-11.168-7.875-16.671-12.04-4.3-3.247-8.94 2.344-5.435 6.21 5.082 5.544 11.746 9.879 18.186 13.677 2.038 1.203 4.871 0 5.87-1.984 1.114-2.249.061-4.661-1.984-5.863h.034zm-11.325-32.232a3.098 3.098 0 00-.788 4.158c2.038 3.656 7.14 3.479 10.775 3.357a38.984 38.984 0 0011.181-2.127c5.306-1.814 2.432-10.049-2.894-8.228-10.387 3.554-14.327-.305-18.274 2.84zm-5.706-35.004c-5.238 7.664-9.511 10.253-8.832 14.479.388 2.466 2.337 3.642 4.722 3.098 2.812-.632 4.341-3.621 6.032-5.714 1.692-2.092 3.207-4.022 4.647-6.162 1.311-1.943 1.495-4.45-.428-6.115-1.603-1.406-4.789-1.522-6.114.421l-.027-.007zm-20.414-1.324c-1.671-4.648-2.038-6.339-4.212-8.5-1.889-1.875-5.876-.679-6.114 2.086-.306 3.227.367 4.423 2.126 9.308a4.36 4.36 0 008.227-2.894h-.027zm-22.045 11.237c-7.554-5.734-9.089-7.351-12.058-7.038-1.739.183-3.689 1.854-3.308 3.804.679 3.628 2.812 4.614 9.755 9.682 1.868 1.359 4.422 1.427 6.026-.421 1.44-1.651 1.426-4.62-.415-6.027zm-30.339 26.308c-2.975 1.583-1.78 6.726 1.447 7.147 3.084.401 4.28-.095 19.273-2.833 2.317-.421 4.225-2.113 4.076-4.647-.149-2.154-2.323-4.471-4.653-4.077-15.598 2.84-17.154 2.826-20.143 4.41zm23.478 24.533c-8.22 7.949-9.423 6.55-12.663 11.407-1.488 2.229.958 5.776 3.546 5.3 3.315-.612 4.205-1.169 8.526-4.593 2.513-1.991 4.911-4.124 7.221-6.346 1.712-1.651 1.25-4.756-.428-6.203-1.922-1.671-4.49-1.223-6.202.435z" fill="#F7CC7F"/><path d="M332.648 127.429l14.293-9.471-5.597-11.394 13.777-9.838-3.73-11.843 9.389-8.71-3.682-3.573-12.568 11.652 3.539 11.224-14.334 10.232 5.503 11.203-12.948 8.588 6.358 1.93z" fill="#86B1F2"/><path d="M1473.51 216.82l-16.7-3.86-4.42 11.904-16.62-3.234-6.03 10.85-12.78-.822-.06 5.136 17.1 1.101 5.71-10.286 17.29 3.37 4.35-11.707 15.13 3.492-2.97-5.944z" fill="#F7CC7F"/><path d="M409.536 41.095a17.78 17.78 0 0114.388-4.987c8.152.788 13.159 7.82 12.432 15.375-.849 8.744-9.511 18.345-30.292 25.424-19.021-10.911-25.706-22-24.857-30.75.727-7.555 6.977-13.5 15.143-12.712a17.765 17.765 0 0113.186 7.65zm-67.812-3.065a182.906 182.906 0 0020.509 4.247c2.086.306 5.619 1.46 7.324-.116a2.215 2.215 0 00.475-3.003c-1.277-1.963-4.524-1.746-6.623-2.038a216.832 216.832 0 01-20.815-4.151 2.61 2.61 0 00-2.976 2.106 2.638 2.638 0 002.106 2.976v-.02zm104.503 32.368c3.057.51 6.114.958 9.191 1.42 2.928.435 6.318 1.474 9.246.883 2.16-.428 2.758-3.125.679-4.219-2.636-1.42-6.114-1.42-9.076-1.848-3.064-.455-6.114-.91-9.205-1.311-3.281-.435-4.151 4.532-.869 5.075h.034zM363.959 82.41c4.816-5.87 9.803-7.154 13.75-9.084a2.09 2.09 0 001.232-2.391 2.088 2.088 0 00-2.149-1.617c-6.576 0-12.908 4.966-16.821 9.858-2.038 2.575 1.882 5.796 3.988 3.234zm32.866 21.531a22.83 22.83 0 012.921-8.982c.992-1.698 5.435-6.182 1.95-7.677-3.254-1.406-5.924 3.893-7.092 6.115a26.96 26.96 0 00-2.881 9.661c-.339 3.302 4.756 4.192 5.102.876v.007zM425.738 88.6l4.545 4.484c1.508 1.495 2.866 3.54 5.176 3.397 1.298-.068 1.984-1.257 2.038-2.419.048-2.113-2.479-3.75-3.865-5.102l-4.572-4.457c-1.012-.985-2.853-.68-3.689.38a2.716 2.716 0 00.387 3.69l-.02.027zm-34.422-69.491c-4.076-16.646-3.974-16.7-5.088-18.188a2.287 2.287 0 00-2.347-.862 2.281 2.281 0 00-1.729 1.806c-.299 1.93-.218 1.617 4.184 19.112.347 1.393 2.181 2.039 3.397 1.55 1.467-.558 1.895-2.039 1.549-3.398l.034-.02zm27.982 4.083a39.066 39.066 0 003.396-7.704c.802-2.5 2.371-6.224.265-8.37a1.931 1.931 0 00-1.983-.32c-2.405 1.142-2.48 4.702-3.234 7.005a45.85 45.85 0 01-3.118 7.29 2.589 2.589 0 001.277 3.397 2.622 2.622 0 003.397-1.277v-.02zm39.055 8.575c.638-1.122-.15-2.392-1.108-2.956-1.983-1.155-5.067.469-7.004 1.244a44.442 44.442 0 00-6.467 3.267c-1.195.72-1.358 2.548-.57 3.615.903 1.243 2.384 1.25 3.614.57 8.009-4.443 9.959-2.968 11.535-5.74z" fill="#F48C7F"/><path d="M536.232 187.455l-10.639 24.296-27.01-.496.129-7.066 22.296.401L532 179.492l30.169 5.497 5.251-17.584 6.61 2.589-6.902 23.093-30.896-5.632z" fill="#F7CC7F"/><path d="M721.473 46.476c-1.854 14.655 13.404 26.287 26.977 25.37 15.006-1.013 27.737-13.324 29.931-28.067 2.371-15.967-7.214-28.733-22.051-29.895-14.442-1.134-23.681 11.72-19.51 24.69 2.989 9.302 11.48 12.773 15.753 10.192 3.336-1.998 3.132-7.046-.903-7.936a4.178 4.178 0 00-4.144 1.787c-3.533-1.4-6.888-7.834-4.613-14.777 2.915-8.873 14.13-9.383 21.094-5.245 8.831 5.265 10.258 16.605 7.01 25.64-3.396 9.513-12.73 16.986-22.873 17.666a21.262 21.262 0 01-22.52-19.445 2.079 2.079 0 00-4.151.02zm505.097 149.173c-1.44-14.709-18.9-22.672-31.93-18.765-14.41 4.307-24.1 19.132-22.97 33.97 1.22 16.089 13.4 26.416 28.12 24.269 14.34-2.086 20.5-16.673 13.59-28.399-4.98-8.405-14.03-9.906-17.66-6.455-2.81 2.684-1.5 7.562 2.64 7.535a4.14 4.14 0 002.21-.793 4.146 4.146 0 001.43-1.864c3.76.585 8.46 6.115 7.77 13.392-.87 9.294-11.69 12.27-19.4 9.776-9.81-3.172-13.69-13.921-12.52-23.453 1.23-10.008 8.66-19.357 18.4-22.305a21.24 21.24 0 0115.98 1.622 21.253 21.253 0 0110.28 12.346c.15.509.48.944.93 1.216a2.074 2.074 0 002.78-.601c.3-.435.43-.968.35-1.491z" fill="#86B1F2"/><path d="M1315.67 852.02s1.6 13.779 1.6 16.116v2.337l-1.15 2.385-.45.945 8.25 11.55s33.09.496 33.83.496c.74 0-4.43-8.004-4.43-8.004s-10.95-8.241-12.9-14.03c-1.96-5.789 1.67-17.841 1.67-17.841l-26.42 6.046zm-159.55-82.501s-11.79 7.31-13.59 8.771l-1.83 1.447-1.15 2.378-.45.944-14.19.734s-20.96-25.621-21.43-26.198c-.46-.578 6.04.87 6.04.87s13.23 1.786 18.99-.265c5.75-2.052 17.39-13.521 17.39-13.521l10.22 24.84z" fill="#F7A491"/><path d="M1263.25 640.199l-126.99 108.17 19.57 27.693s130.49-81.041 137.33-81.965c6.83-.924 12.36 2.215 13.65 7.202 1.29 4.987 4.58 154.527 4.58 154.527h33.9l17.67-188.274-99.71-27.353z" fill="#50BFA5"/><path d="M1446.2 485.916c9.4-6.162 31.47-29.847 38.94-37.911.08-.951.8-6.428 6.8-13.392 4.24-4.912 7.47-16.136 10.24-12.956 2.77 3.18-4.12 12.094-.96 12.155 3.17.061 18.87-17.597 21.39-14.71 2.52 2.888-13.42 18.569-10.59 18.623 2.82.055 15.77-15.837 19.34-11.767 3.56 4.069-16.99 17.284-15.05 19.472 1.94 2.188 14.64-6.475 17.51-3.193 2.88 3.281-17.94 11.006-16.3 11.033 1.64.027 13.68-.292 13.76 2.038.11 2.609-30.38 6.679-34.12 11.211-7.97 12.685-22.15 35.86-36.51 46.024-17.57 12.44-58.18 38.828-58.18 38.828l-20.17-26.062s52.76-32.089 63.9-39.393z" fill="#F7A491"/><path d="M1501.24 439.417a12.64 12.64 0 011.22 4.905c.13 1.836-.16 3.677-.85 5.385a12.127 12.127 0 01-3.11 4.474c1.81-3.37 3.8-7.093 2.74-14.764z" fill="#F48C7F"/><path d="M1260.04 457.401c-7.47-8.404-22.57-37.041-27.68-46.777.18-.938.92-6.407-3.06-14.703-2.81-5.857-2.98-17.529-6.5-15.185-3.52 2.344.81 12.753-2.25 11.978-3.07-.774-13.59-21.911-16.8-19.791-3.21 2.12 8.1 21.435 5.35 20.749-2.74-.686-11.09-19.418-15.62-16.415-4.54 3.003 11.85 21.124 9.43 22.727-2.43 1.603-12.44-10.076-16.06-7.664-3.63 2.412 14.44 15.321 12.82 14.947-1.61-.373-13.12-3.859-13.81-1.651-.79 2.501 27.58 14.404 30 19.744 4.38 14.329 12 40.405 23.21 53.98 13.71 16.598 46 52.695 46 52.695l26.29-19.886s-42.48-44.787-51.32-54.748z" fill="#F7A491"/><path d="M1219.08 398.129a12.468 12.468 0 00-2.46 4.409 12.084 12.084 0 00-.59 5.433c.21 1.832.84 3.591 1.83 5.146-.86-3.744-1.83-7.881 1.22-14.988z" fill="#F48C7F"/><path d="M1316.16 516.762a19.243 19.243 0 017.5-6.558 19.188 19.188 0 019.77-1.921c20.17 1.359 61.06 4.6 64.93 8.479 5.17 5.17 20.67 38.89 5.91 86.143-14.76 47.254-22.89 42.335-34.95 42.335-12.06 0-68.91-26.824-68.91-26.824l15.75-101.654z" fill="#355389"/><path d="M1281.34 476.643l-23.71 30.913 29.43 43.782s-2.76 32.537-7.02 42.688c-4.25 10.15-28.79 51.873-28.79 51.873s59.62 36.553 117.95 31.199c0 0 16.43-84.547 21.06-92.666 4.63-8.119 49.08-48.34 49.08-48.34l-21.6-34.895-37.31 20.674s-68.15-11.013-71.43-14.267c-3.28-3.255-27.66-30.961-27.66-30.961z" fill="#F7CC7F"/><path d="M1358.24 413.389s-23.01-12.182-30.88 8.003c0 0-20.67-2.092-17.11 19.316 0 0-20.79 10.463-7.62 37.416 0 0-5.79 25.349 23.87 26.952 0 0 4.43 8.982 17.97 6.889 13.54-2.092 16.98-5.659 16.98-5.659s23.99 7.011 31.25-14.648c0 0 16.49-3.941 5.43-25.139 0 0 14.4-27.442-10.95-35.69-.02.034-2.97-28.026-28.94-17.44z" fill="#F47458"/><path d="M1367.52 472.838c-1.87 5.218-.53 10.476 3 11.74 3.52 1.264 7.9-1.943 9.77-7.161 1.88-5.218.53-10.47-3-11.733-3.52-1.264-7.88 1.943-9.77 7.154zm-62.04-12.807c-.27 5.537 2.55 10.191 6.3 10.347 3.74.156 6.99-4.172 7.25-9.709.25-5.537-2.56-10.191-6.3-10.341-3.75-.149-6.99 4.165-7.25 9.703zm26.31 36.654c0 .36-2.99 13.208-4.57 20.002a5.431 5.431 0 003.05 6.21c6.33 2.888 18.77 6.917 27.37-.876a3.623 3.623 0 001.17-2.793l-1.06-30.668-25.96 8.125z" fill="#F7A491"/><path d="M1330.16 503.9c6.7 3.398 15.12 3.445 24.56-2.092a38.514 38.514 0 003.4-2.235l-.38-10.993-25.96 8.153c.01.149-.69 3.247-1.62 7.167z" fill="#F48C7F"/><path d="M1350.21 425.897a32.984 32.984 0 0117.99 14.023c6.66 11.027 10.33 42.898-13.44 56.84-23.78 13.941-41.08-7.65-40.63-28.074.45-20.423 9.52-46.533 36.08-42.789z" fill="#F7A491"/><path d="M1311.41 508.636c-10.95 8.282-22.42 50.705-26.75 61.786l-3.49 20.342 44.55-78.697s-11.95-5.191-14.31-3.431zm54.07 10.742s-1.35 52.274 2.61 70.238 14.26 24.248 14.26 24.248l5.06-20.905s-5.06-46.201-6.93-71.088c-.31-3.784-15-2.493-15-2.493z" fill="#466EB6"/><path d="M1309.64 893.805c-5.05-.639 3.68-18.168 6.48-20.974l37.2 5.001s17.91 8.309 22.15 12.555c1.01 1.006 1.14 2.772-3.23 3.397-14.04 2.113-51.39 1.441-62.6.021zm-182.89-93.291c4.37 2.622 12.31-14.451 12.77-18.399l-30.04-23.65s-23.18-6.652-27.85-1.971c-4.25 4.247 35.22 38.061 45.12 44.02z" fill="#13375B"/><path d="M679.266 108.969l-21.596 27.815 46.514 8.18-24.918-35.995z" fill="#96D9C9"/><path d="M478.047 44.064l53.525 73.472 35.441-38.767-88.966-34.705z" fill="#466EB6"/><path d="M571.809 58.468l-4.796 20.3-88.966-34.704 93.762 14.404z" fill="#9BC1F9"/><path d="M567.013 86.528l-88.966-42.464 82.689 73.472 6.277-31.008z" fill="#9BC1F9"/><path d="M621.047 174.567c-.679-.061-16.304-1.672-36.113-14.01-19.81-12.338-27.337-34.012-27.337-37.483a2.397 2.397 0 114.796-.048c.218 2.317 6.576 21.932 25.081 33.455 18.784 11.699 33.879 13.296 34.028 13.309a2.4 2.4 0 011.947 2.586 2.397 2.397 0 01-2.402 2.17v.021zm97.234 21.734a250.048 250.048 0 01-78.851-30.438c-20.251-12.053-36.582-30.431-57.241-40.636a2.4 2.4 0 012.126-4.301c21.386 10.558 37.588 28.916 57.574 40.813a245.148 245.148 0 0077.336 29.887c10 2.005 21.847 2.718 35.21 2.188a2.4 2.4 0 11.204 4.79c-11.875.496-24.653.041-36.358-2.303z" fill="#F7CC7F"/><path d="M555.573 517.299c1.195-.082 10.237 14.519 15.896 36.919 5.659 22.401 17.717 63.743 17.717 63.743s19.565 39.508 24.857 44.794c5.292 5.286 10.421-.177 15.754 1.481 1.644.51 6.719 4.919 6.719 4.919s9.15 19.805 7.798 21.164c-1.352 1.359-15.502 5.17-25.346 1.97-9.843-3.2-55.617-56.86-55.617-56.86s-37.316-116.146-7.778-118.13z" fill="#F48C7F"/><path d="M734.381 535.12l-4.429-4.593s-8.152 14.58-17.473 35.255c-9.32 20.674-20.55 46.153-24.368 49.964-3.818 3.812-35.93 47.987-45.651 52.315-9.721 4.328-6.712 2.426-14.518 1.488-5.862-.679-5.217 3.54-1.406 5.503a25.43 25.43 0 014.538 2.548c4.64 3.295 8.621 7.977 11.549 10.708 1.128 1.053-1.223 2.983-2.548 1.658-1.324-1.325-5.991-8.513-7.927-8.513-1.937 0-.68 4.891.183 6.461.863 1.569-1.012 1.107-2.677-2.765-1.664-3.873-2.86-7.759-5.258-7.202-1.936.448-.754 5.809-.217 7.867-.557-1.963-2.092-6.855-3.567-6.855-1.847 0-2.676.19-2.676 3.832s1.291 7.555 5.536 10.769c4.246 3.213 16.128 1.066 21.012-.877 3.343-1.359 6.665-6.753 10.007-8.554 14.945-8.057 30.271-17.664 49.272-43.007 23.254-31.015 32.323-58.701 32.323-58.701l-1.705-47.301zm-8.607 351.863a59.633 59.633 0 010-22.889c2.459-12.556 15.753-76.55 15.753-89.84 0-13.289 6.393-32.734 6.393-32.734l-39.13-9.845-3.933 38.15s-2.093 89.003-5.659 92.543c-3.567 3.54-18.661 8.833-23.383 8.833-5.285 0-13.661.36-13.661 3.023a12.1 12.1 0 00.74 4.382l62.88 8.377zm46.589-151.075l4.843 32.931s11.549 96.477 8.832 99.195c-2.718 2.718-14.722 10.436-20.258 11.047-5.537.612-13.329 4.362-13.329 7.311 0 5.972 62.261 1.128 62.261 1.128s1.97-4.45 0-10.973c-1.97-6.522-1.97-15.749-1.97-17.23 0-1.481.123-.244.123-2.582v-3.077s7.472-46.024-.489-75.069l-2.833-56.392-37.18 13.711z" fill="#F4C0B8"/><path d="M513.454 413.864s-14.402-.17-24.368 5.435c-9.966 5.606-12.595 18.976-12.785 29.426a59.336 59.336 0 0012.602 37.667c8.43 10.606 23.26 15.375 23.26 15.375l41.732-26.606s4.959-12.393 1.454-29.011c-3.506-16.619-2.582-34.875-41.895-32.286z" fill="#184655"/><path d="M583.772 844.126s13.784 19.812 14.769 22.516c.985 2.704 7.751 20.708 7.751 20.708l52.914-25.716-40.482-12.331-8.152-17.719-26.8 12.542z" fill="#F48C7F"/><path d="M514.378 703.86l43.185 90.084 28.424 56.854s25.23-9.716 31.5-15.994l-20.42-71.624-23.261-82.943-48.912-4.45-10.516 28.073z" fill="#355389"/><path d="M473.645 853.264s1.97 13.289 1.97 14.152c0 .863-2.955 13.656-3.445 17.101a21.096 21.096 0 000 6.156l50.142-11.999s-7.472-4.858-14.089-8.554c-6.617-3.696-7.629-21.286-7.629-21.286l-26.949 4.43z" fill="#F48C7F"/><path d="M466.634 680.237s8.587 54.027 7.377 72.113c-1.725 25.96-8.607 35.934-3.688 104.012h34.945s2.466-36.573 7.873-64.878c5.408-28.304 17.228-75.809 17.228-75.809l19.443-43.822-83.178 8.384z" fill="#86B1F2"/><path d="M486.851 477.091c1.685 5.279 5.944 8.635 9.511 7.473 3.566-1.161 5.095-6.338 3.396-11.624-1.698-5.286-5.944-8.636-9.51-7.474-3.567 1.162-5.082 6.346-3.397 11.625zm59.354-11.272c.468 5.524 3.879 9.743 7.608 9.424 3.73-.319 6.379-5.048 5.91-10.572-.468-5.523-3.872-9.743-7.608-9.43-3.737.312-6.393 5.055-5.91 10.578z" fill="#F48C7F"/><path d="M1059.1 482.716c7.9-8.547 24.53-44.162 30.15-54.244-.12-1.006-.57-6.903 3.85-15.532 3.12-6.115 3.92-18.555 7.31-15.851 3.39 2.704-1.5 13.589 1.6 12.909 3.11-.679 14.77-22.631 17.84-20.178 3.07 2.452-9.24 22.42-6.46 21.856 2.78-.564 12.11-20.104 16.45-16.639s-12.97 21.885-10.64 23.739c2.33 1.855 12.96-10.048 16.45-7.263 3.49 2.786-15.24 15.532-13.59 15.192 1.66-.34 13.31-3.397 13.88-.971.68 2.717-28.31 13.805-31.01 19.377-5.14 15.055-14.16 42.477-26.08 56.33-14.58 16.985-56.52 63.954-56.52 63.954l-17.42-33.054s44.84-39.488 54.19-49.625z" fill="#966259"/><path d="M1103.2 415.889a13.822 13.822 0 012.23 4.851c0 .299 1.86 5.836-1.82 11.203 1.06-3.927 2.23-8.289-.41-16.054z" fill="#6B4744"/><path d="M469.929 527.103s4.076 104.766 0 124.333c-4.076 19.567-5.924 32.266-5.924 32.266s56.127 10.931 110.052-3.465c0 0-8.152-36.553-11.806-74.58-3.655-38.027-6.644-88.324-6.644-88.324s-20.442-1.529-36.182-.082c-35.814 3.248-49.496 9.852-49.496 9.852z" fill="#FAE0B2"/><path d="M503.298 490.652l-1.576 28.664s2.717 15.824 18.376 16.748c15.658.924 11.073-32.857 11.073-32.857l-.924-12.555h-26.949z" fill="#F48C7F"/><path d="M530.668 512.251h1.121a83.108 83.108 0 00-.618-9.016l-.924-12.556h-26.949l-.231 4.308c3.376 5.727 13.328 17.264 27.601 17.264z" fill="#F27A6A"/><path d="M473.122 873.966s1.847-1.841 8.308-1.291c6.46.55 38.851 4.151 40.237 4.151 1.386 0 19.918 14.078 20.747 16.632.829 2.555-40.033.883-40.033.883H471.26s-2.935-9.301 1.862-20.375zm128.374-.68s-1.895 1.277-1.895 3.003c0 1.142 1.929 8.921 4.157 14.451a5.8 5.8 0 008.152 2.915l56.127-30.947s4.076-3.547-22.377-5.218l-44.164 15.796z" fill="#3C8F7C"/><path d="M469.929 527.103s-7.962 3.485-12.649 14.315c-4.688 10.83-19.701 59.789-9.6 89.099 0 0 4.545 22.264 27.928 37.524 23.383 15.26 64.143 18.928 66.453 16.625 2.31-2.303 2.398-6.312 2.398-8.88 0-2.568 5.353-3.859 5.353-7.365 0-3.505-9.042-4.124-19.443-4.124 0 0-1.841-.183.435-1.909s5.163-3.873 4.674-7.134c-.489-3.261-2.615-3.111-4.613-1.107-1.997 2.004-8.614 7.378-13.906 5.843-5.292-1.536-36.548-27.177-41.711-35.33 0 .007 2.058-95.818-5.319-97.557z" fill="#F48C7F"/><path d="M729.958 530.527s16.841-9.348 34.721-11.448c17.88-2.099 43.539 4.62 43.539 4.62l14.789 213.602s-66.439 31.566-116.275 0c0 0 13.383-89.683 13.383-102.3v-12.623l9.843-91.851z" fill="#50BFA5"/><path d="M662.188 876.086a3.847 3.847 0 00-4.076 2.527 4.561 4.561 0 001.066 5.116c2.643 2.643 48.817 10.191 64.938 9.852 1.712-.041 4.151-5.123 1.63-6.598-3.913-2.31-51.385-9.518-63.558-10.897z" fill="#13375B"/><path d="M675.815 871.207l3.818 7.773 8.485 2.344s-3.933-13.908-7.378-13.296a7.38 7.38 0 00-4.925 3.179zm76.657 15.654a3.76 3.76 0 00-3.58 2.561c-.408 1.244-.544 2.664.387 3.588 1.963 1.97 68.09.618 68.09.618s1.596-4.919-1.284-5.911c-1.902-.652-52.112-.822-63.613-.856z" fill="#13375B"/><path d="M772.424 876.269c-.598-1.074-5.156.068-6.59 2.786l5.863 8.431h6.895l-6.168-11.217z" fill="#13375B"/><path d="M919.589 833.574s-2.67 23.134-6.998 33.224c-4.327 10.089-18.6 16.462-31.147 18.935-12.548 2.473-8.376 4.457-6.535 6.292 1.841 1.834 56.242 3.084 65.841 1.358 0 0-3.689-18.942-3.689-21.897 0-2.956 15.013-49.469 15.013-49.469l-32.485 11.557z" fill="#966259"/><path d="M940.75 893.37s-.754-3.852-1.576-8.364c-10.496 1.413-34.511-1.046-46.535-2.446-3.689 1.359-8.152 1.808-11.841 2.535-12.554 2.473-11.61 5.761-8.464 8.051 2.106 1.535 58.817 1.963 68.416.224z" fill="#F47458"/><path d="M1026.62 828.152s-1.47 28.434 1.58 38.646c3.14 10.524 7.63 12.331 19.96 15.762 12.1 3.397 7.47 8.751 5.67 10.586-1.81 1.834-44.16 1.963-53.79.224 0 0 3.69-18.942 3.69-21.898 0-2.955-4.482-50.759-4.482-50.759l27.372 7.439z" fill="#966259"/><path d="M1000.04 893.37s.76-3.852 1.58-8.364c10.49 1.413 34.51-1.046 46.54-2.446 3.79.839 7.53 1.898 11.2 3.173 12.01 4.389 10.94 5.578 9.1 7.413-1.84 1.834-58.82 1.963-68.42.224z" fill="#F47458"/><path d="M808.218 523.699s-14.395 16.985-7.017 45.405c7.377 28.42 25.23 73.717 47.254 98.93 3.567 4.077 11.814 12.692 15.503 15.151 3.688 2.46 19.32 4.185 19.32 4.185s6.889-21.164 4.918-23.1c-1.97-1.936-18.518-2.154-23.009-6.645-4.49-4.491-48.11-133.926-56.969-133.926z" fill="#F4C0B8"/><path d="M947.469 523.325s-4.144 2.589-7.093 10.191c-2.948 7.603-18.274 70.388-20.489 79.492-1.712 7.032-17.248 27.68-24.958 37.626-2.276 2.936-4.029 5.381-5.129 5.381-6.794 0-18.003 3.758-18.003 6.564s2.656 3.098 7.086 2.113c4.429-.986 1.073 3.818-.53 5.435-1.603 1.617-8.411 10.728-5.999 13.14 2.412 2.412 8.213 4.076 10.924 4.076 1.467 0 4.456-.163 9.905-4.613 4.592-3.743 11.338-11.401 16.304-15.817 17.798-15.871 32.445-49.224 35.149-56.853 2.703-7.63 2.833-86.735 2.833-86.735z" fill="#966259"/><path d="M890.445 671.927s1.848.184 1.848 3.785-3.139 9.138-5.265 11.258c-2.127 2.119-21.556-3.037-21.556-3.037s7.072.176 9.511-2.82c1.08-1.359 3.125-7.616 5.156-7.616 2.032 0-.19 8.492-.19 8.492s3.879-11.169 5.91-11.169c2.032 0 2.215 2.038 1.291 5.435-.924 3.397 2.045-5.313 3.295-4.328z" fill="#F4C0B8"/><path d="M906.063 835.871s28.79 7.752 61.46 7.752c32.667 0 96.897-16.612 96.897-16.612s-17.72-42.803-23.78-75.68c-6.06-32.877-10.52-89.337-10.52-89.337h-97.502l-6.114 39.101-20.441 134.776z" fill="#466EB6"/><path d="M947.469 523.325s-6.359 7.385-6.359 30.275-1.107 57.227-2.928 69.042c-1.82 11.815-7.405 41.18-7.405 41.18s16.236 13.479 58.321 9.783c42.082-3.696 44.302-9.348 44.302-9.348s-5.91-95.119-5.91-105.099c0-9.981-9.03-38.802-9.03-38.802s-24.314-2.514-35.387-1.658c-11.074.856-35.604 4.627-35.604 4.627z" fill="#FAE0B2"/><path d="M928.345 433.5s-17.71 5.027-16.243 23.202c1.359 16.768 9.599 15.918 9.599 15.918s-6.032 23.78 12.181 30.656c17.173 6.502 23.627 0 23.627 0s7.473 19.737 32.921 12.121c25.45-7.617 23.19-23.101 23.19-23.101s10.86 4.274 23.4-15.667c12.53-19.941 5.39-34.297-11.2-43.129 0 0 5.53-25.384-19.87-29.44-25.405-4.056-31.627 9.872-31.627 9.872s-4.525-15.558-31.569-4.851c-17.731 6.998-14.409 24.419-14.409 24.419z" fill="#13375B"/><path d="M998.514 471.547c-1.868 5.218-.53 10.47 3.006 11.733 3.53 1.264 7.9-1.943 9.77-7.161 1.86-5.218.52-10.469-3.01-11.733-3.52-1.264-7.9 1.923-9.766 7.161zm-57.743 5.163c.849 5.476 4.544 9.444 8.247 8.833 3.702-.612 6.012-5.483 5.156-10.959-.856-5.476-4.545-9.451-8.247-8.873-3.703.577-6.012 5.523-5.156 10.999zm30.366 23.97l.985 21.538s.489 8.37 9.225 9.478c8.736 1.107 16.732-5.653 16.732-12.434 0-.856-4.3-30.39-4.3-30.39l-22.642 11.808z" fill="#966259"/><path d="M993.779 488.872l-22.642 11.808.346 7.664c4.076 0 10.19-.299 15.034-3.2 4.076-2.439 6.365-5.537 8.199-9.811-.55-3.777-.937-6.461-.937-6.461z" fill="#6B4744"/><path d="M626.543 668.958s5.516 3.567 8.791 2.786c3.274-.781 1.657-2.46.122-4.002-1.535-1.542-5.659-3.506-5.659-3.506l-3.254 4.722zM517.53 428.906c-8.934 1.318-15.482 7.651-20.238 15.376-9.409 15.32-1.759 37.877.829 43.048 2.588 5.17 12.907 18.459 28.24 18.459 15.333 0 26.026-14.03 27.316-27.686 1.726-18.29-3.165-41.084-20.57-47.444a32.725 32.725 0 00-15.577-1.753z" fill="#F48C7F"/><path d="M764.102 429.368a36.786 36.786 0 00-16.053 3.69c-8.491 4.076-17.35 22.325-17.35 38.563 0 9.893-4.375 13.969-7.806 15.627a3.104 3.104 0 00-1.685 2.173 3.091 3.091 0 00.707 2.658c3.349 3.804 6.834 7.983 11.23 10.544 16.65 9.689 33.423 9.981 52.145 6.55 15.055-2.759 29.266-9.512 39.952-20.655a4.405 4.405 0 00.409-5.591 4.417 4.417 0 00-1.502-1.332c-3.54-1.895-7.704-5.986-9.287-14.777-2.955-16.408-9.042-45.385-50.76-37.45z" fill="#13375B"/><path d="M786.69 474.189c-1.202 5.436.788 10.457 4.443 11.272 3.655.815 7.595-2.915 8.831-8.33 1.237-5.415-.788-10.456-4.443-11.264-3.655-.809-7.649 2.914-8.831 8.322zm-47.343 2.82c3.744 0 6.78-4.492 6.78-10.035 0-5.542-3.036-10.035-6.78-10.035s-6.78 4.493-6.78 10.035c0 5.543 3.036 10.035 6.78 10.035zm16.202 25.642l-1.841 25.356s.863 5.781 7.751 7.011c6.889 1.23 21.535-8.982 21.535-14.397l-3.444-29.289-24.001 11.319z" fill="#F4C0B8"/><path d="M754.652 515.029c10.87.544 19.64-4.368 26.114-13.303l-1.216-10.388-24.001 11.319-.897 12.372z" fill="#F7A491"/><path d="M738.634 479.945c1.657 9.416 4.429 25.987 19.198 27.693 14.768 1.705 25.814-6.278 32.852-20.675 7.038-14.397 5.353-33.414 1.474-42.803-3.077-7.474-16.372-7.127-22.9-7.019-21.888.347-34.306 21.959-30.624 42.804z" fill="#F4C0B8"/><path d="M760.23 434.104a33.198 33.198 0 009.843 22.183c10.075 10.076 30.326 15.334 30.326 15.334l2.405 5.687s3.199-18.099-4.43-30.159c-7.628-12.06-38.144-13.045-38.144-13.045z" fill="#13375B"/><path d="M982.774 430.87a32.287 32.287 0 0117.132 13.88c6.414 10.817 10.294 41.893-11.942 55.162-22.235 13.269-37.099-8.037-38.654-27.856-1.841-23.426 8.383-45.167 33.464-41.186z" fill="#966259"/><path d="M1692.93 824.164s10.55 43.055 18.42 49.815c7.87 6.76 33.52 19.703 26.81 21.062-6.72 1.359-56.39 2.548-55.03-5.741 1.36-8.289 2.79-13.588 2.79-13.588l-13.14-30.751 20.15-20.797z" fill="#F79C8D"/><path d="M1741.48 896.815c-12.12 1.202-47.5 2.48-57.8 1.161 0 0-1.94-.38-.57-8.669.33-2.038.68-3.873.98-5.503 9.36 2.452 29.72-2.779 37.78-3.846 8.77 4.192 18.64 10.457 21.82 10.986 4.61.755 4.61 5.191-2.21 5.871z" fill="#13375B"/><path d="M1577.06 860.248s-1.11 10.871-1.11 15.688 4.47 18.344 2.4 20.382c-2.07 2.039-61.25 1.815-61.25-.129 0-1.943 10.45-7.861 24.67-11.923 14.21-4.063 19.02-19.799 15.35-28.842l19.94 4.824z" fill="#F79C8D"/><path d="M1516.15 896.345c0-1.814 9.7-7.392 22.27-11.23 13.39 4.525 31.99.788 38.96-.544 2.14 5.578 2.82 10.871 1.72 11.972-2.07 2.072-62.95 1.752-62.95-.198z" fill="#13375B"/><path d="M1641.3 678.239l10.61 9.41s11.95 32.354 12.64 34.487c.97 2.969 39.67 127.731 39.67 127.731l-26.96 9.702s-26.74-52.091-31.17-70.177c-4.43-18.086-48.73-93.76-48.73-93.76l43.94-17.393zm-46.88 19.194l-12.91 165.316h-29.89s-10.7-123.722-7.01-167.137l49.81 1.821z" fill="#FAE0B2"/><path d="M1541.98 530.928a230.633 230.633 0 0140.61-6.183c11.19-.618 26.21 1.753 26.21 1.753s13.66 30.642 17.72 55.713c4.06 25.07 26.21 105.588 26.21 105.588s-45.03 34.704-110.73 11.815l-.02-168.686z" fill="#50BFA5"/><path d="M1593.18 503.479s-.59 19.601 1.24 21.443c1.84 1.841 4.42 4.892 1.71 9.566s-14.46 1.692-19.94-.978a25.867 25.867 0 01-8.64-7.352l2.71-31.049 22.92 8.37z" fill="#F79C8D"/><path d="M1585.36 511.633c-3.77-1.319-10.37-3.866-15.46-12.142l.39-4.348 22.89 8.337s-.15 4.755-.08 9.844c-2.65-.17-5.26-.74-7.74-1.691z" fill="#B75742"/><path d="M1566.26 472.953s-.56-11.55-7.64-9.288c-7.08 2.263-1.68 19.629 4.18 19.058 5.87-.571 3.46-9.77 3.46-9.77z" fill="#F79C8D"/><path d="M1588.5 435.306s11.07-.244 16.74 8.371c5.66 8.615 11.8 33.223 2.46 50.209-9.35 16.985-21.3 12.8-26.21 11.074-4.92-1.725-14.65-5.537-19.57-21.415s-1.36-51.561 26.58-48.239z" fill="#F79C8D"/><path d="M1544.1 530.405c5.05 11.4 17.48 35.948 16.9 63.023-.59 28.365-21.92 46.771-21.92 46.771v14.016s23.53-3.71 32.53-40.351c8.99-36.641-12.65-86.421-12.65-86.421s-3.09-2.202-9.21-.496c-4.08 1.141-5.65 3.458-5.65 3.458zm51.68-5.762s17.66 95.2 40.62 101.369l-3.94-16.231s-23.63-77.019-23.63-83.283c0-6.264-13.05-1.855-13.05-1.855z" fill="#355389"/><path d="M1643.65 687.54h-68.62v-78.207l68.62 3.05v75.157z" fill="#F47458"/><path d="M1643.66 606.282h-65.54c-.81 0-1.59.322-2.16.894a3.056 3.056 0 000 4.314c.57.572 1.35.893 2.16.893h65.57-.06c-4.56-1.719-4.54-4.409.03-6.101z" fill="#B75742"/><path d="M1641.78 607.186h-61.44a2.148 2.148 0 00-2.15 2.146c0 .283.06.562.16.823.11.261.27.498.47.698a2.14 2.14 0 001.52.626h61.44c-2.08-1.331-2.08-2.962 0-4.293z" fill="#FAE0B2"/><path d="M1613.58 607.627h-4.32c-.45 0-.88.177-1.19.492-.32.314-.49.741-.5 1.187v.163h6.01v-1.842z" fill="#13375B"/><path d="M1609.43 607.634c1.36.18 2.6.879 3.45 1.95l10.25 12.712h6.02l-9.75-12.094c-1.15-1.42-3.18-2.575-4.54-2.575l-5.43.007z" fill="#355389"/><path d="M1541.98 530.928s5.18 5.19 10.72 24.853c5.53 19.662 8.36 65.72 13.16 70.523 4.79 4.804 36.18 29.779 41.84 28.916 5.65-.863 18.34-15.626 22.26-15.626 3.93 0 3.46 3.567 1.49 5.537-1.97 1.97-4.37 4.246-3.2 5.435l1.16 1.169s17.54-4.613 20.49-2.894c2.96 1.718-2.83 5.788-2.83 8.744 0 2.955.72 2.894.37 6.148-.36 3.255-1.17 5.85-2.72 7.386-1.55 1.535-20.92 7.14-39.87 4.552-18.95-2.589-42.09-11.693-59.18-32.857-17.1-21.164-13.67-87.699-13.28-94.351.99-16.795 9.59-17.535 9.59-17.535z" fill="#F79C8D"/><path d="M1529.82 315.07a33.37 33.37 0 0011.82 15.336 33.344 33.344 0 0049.77-13.458 33.337 33.337 0 00-6.11-36.55 33.382 33.382 0 00-16.79-9.645 33.363 33.363 0 00-19.32 1.31 33.514 33.514 0 00-11.04 6.895 33.363 33.363 0 00-7.55 10.596 33.455 33.455 0 00-2.93 12.681c-.13 4.378.6 8.739 2.15 12.835z" fill="#F7CC7F"/><path d="M1579.54 301.876a17.848 17.848 0 01-.41 13.64 17.885 17.885 0 01-4.04 5.664 17.854 17.854 0 01-5.9 3.687 17.844 17.844 0 01-13.64-.415 17.814 17.814 0 01-5.66-4.039 17.757 17.757 0 01-3.69-5.9l33.34-12.637z" fill="#EFEFEF"/></svg>