<svg width="16" height="16" fill="none" xmlns="http://www.w3.org/2000/svg"><path d="M15.898 7.689C15.755 7.493 12.35 2.9 8 2.9S.244 7.493.102 7.688a.528.528 0 000 .623C.244 8.507 3.65 13.099 8 13.099s7.755-4.593 7.898-4.788a.527.527 0 000-.622zM8 12.044c-3.204 0-5.98-3.048-6.8-4.045.82-.997 3.589-4.043 6.8-4.043 3.204 0 5.979 3.047 6.8 4.044-.82.997-3.59 4.044-6.8 4.044z" fill="#AFB8D6"/><path d="M8 4.835A3.168 3.168 0 004.835 8 3.169 3.169 0 008 11.165 3.169 3.169 0 0011.165 8 3.168 3.168 0 008 4.835zm0 5.275A2.112 2.112 0 015.89 8c0-1.164.947-2.11 2.11-2.11 1.163 0 2.11.946 2.11 2.11 0 1.163-.947 2.11-2.11 2.11z" fill="#AFB8D6"/></svg>