<?xml version="1.0" encoding="utf-8"?><svg viewBox="0 0 72 33" xmlns="http://www.w3.org/2000/svg" xmlns:xlink="http://www.w3.org/1999/xlink"><style>:root>svg{display:none}:root>svg:target{display:block}</style><svg fill="none" viewBox="0 0 16 16" id="arrow-back" xmlns="http://www.w3.org/2000/svg"><g clip-path="url(#aaclip0)"><path d="M4.388 12.388l.713-.713-3.172-3.171H16V7.496H1.93L5.1 4.324l-.712-.712L0 8l4.388 4.388z" fill="#000"/></g><defs><clipPath id="aaclip0"><path fill="#fff" transform="rotate(-180 8 8)" d="M0 0h16v16H0z"/></clipPath></defs></svg><svg fill="none" viewBox="0 0 11 16" id="arrow-dropdown" xmlns="http://www.w3.org/2000/svg"><path d="M10.875 8.187a.563.563 0 01-.563.563H3.939a.75.75 0 00-.75.75v4.08l1.102-1.103a.562.562 0 01.795.796l-2.062 2.062a.562.562 0 01-.796 0L.165 13.273a.562.562 0 11.795-.796l1.103 1.102V9.5a1.875 1.875 0 011.874-1.875h6.376a.562.562 0 01.562.562z" fill="#000"/></svg><svg fill="none" viewBox="0 0 18 19" id="arrow-reference" xmlns="http://www.w3.org/2000/svg"><path d="M7.422 1.326c-.39.39-.352.977 0 1.367l4.726 4.453H.938A.925.925 0 000 8.084v1.25c0 .547.39.938.938.938h11.21l-4.726 4.492c-.352.39-.352.976 0 1.367l.86.86c.39.35.976.35 1.327 0l7.618-7.618c.351-.352.351-.937 0-1.328L9.609.467c-.351-.352-.937-.352-1.328 0l-.86.86z" fill="#000"/></svg><svg fill="none" viewBox="0 0 16 19" id="icon-calendar" xmlns="http://www.w3.org/2000/svg"><path d="M14.188 2.5H12.5V.672c0-.211-.21-.422-.422-.422h-.281a.428.428 0 00-.422.422V2.5h-6.75V.672c0-.211-.21-.422-.422-.422h-.281A.427.427 0 003.5.672V2.5H1.812C.864 2.5.125 3.273.125 4.188v12.375c0 .949.738 1.687 1.688 1.687h12.374c.915 0 1.688-.738 1.688-1.688V4.188c0-.914-.773-1.687-1.688-1.687zM1.812 3.625h12.376c.28 0 .562.281.562.563v1.687H1.25V4.187c0-.28.246-.562.563-.562zm12.376 13.5H1.812a.555.555 0 01-.562-.563V7h13.5v9.563a.578.578 0 01-.563.562zM5.328 11.5c.211 0 .422-.176.422-.422V9.672c0-.211-.21-.422-.422-.422H3.922a.427.427 0 00-.422.422v1.406c0 .246.176.422.422.422h1.406zm3.375 0c.211 0 .422-.176.422-.422V9.672c0-.211-.21-.422-.422-.422H7.297a.427.427 0 00-.422.422v1.406c0 .246.176.422.422.422h1.406zm3.375 0a.427.427 0 00.422-.422V9.672c0-.211-.21-.422-.422-.422h-1.406a.428.428 0 00-.422.422v1.406c0 .246.176.422.422.422h1.406zm-3.375 3.375c.211 0 .422-.176.422-.422v-1.406a.454.454 0 00-.422-.422H7.297a.427.427 0 00-.422.422v1.406c0 .246.176.422.422.422h1.406zm-3.375 0c.211 0 .422-.176.422-.422v-1.406a.454.454 0 00-.422-.422H3.922a.427.427 0 00-.422.422v1.406c0 .246.176.422.422.422h1.406zm6.75 0a.427.427 0 00.422-.422v-1.406a.454.454 0 00-.422-.422h-1.406a.427.427 0 00-.422.422v1.406c0 .246.176.422.422.422h1.406z" fill="#000"/></svg><svg fill="none" viewBox="0 0 26 17" id="icon-chairman" xmlns="http://www.w3.org/2000/svg"><path d="M21.794 7.54a2.875 2.875 0 00-1.65-5.23 2.875 2.875 0 00-1.651 5.23 4.985 4.985 0 00-1.7.997 6.45 6.45 0 00-2.334-1.271 3.653 3.653 0 001.76-3.121A3.643 3.643 0 0012.575.5a3.646 3.646 0 00-1.885 6.766c-.858.26-1.64.693-2.309 1.256a5.025 5.025 0 00-1.68-.977 2.875 2.875 0 00-1.65-5.23 2.875 2.875 0 00-1.65 5.23A5.05 5.05 0 000 12.317v.329c0 .01.01.02.02.02h6.098a6.706 6.706 0 00-.055.842v.34A2.651 2.651 0 008.715 16.5h7.729a2.651 2.651 0 002.652-2.652v-.34c0-.284-.02-.568-.055-.842h6.138c.01 0 .02-.01.02-.02v-.33a5.07 5.07 0 00-3.405-4.776zm-3.73-2.358c0-1.147.933-2.08 2.08-2.08 1.146 0 2.079.933 2.079 2.08a2.086 2.086 0 01-2.04 2.079h-.08a2.076 2.076 0 01-2.039-2.08zM9.718 4.145a2.85 2.85 0 012.847-2.847 2.85 2.85 0 012.847 2.847 2.851 2.851 0 01-2.683 2.842H12.4a2.851 2.851 0 01-2.682-2.842zM2.957 5.182c0-1.147.932-2.08 2.079-2.08 1.147 0 2.079.933 2.079 2.08a2.086 2.086 0 01-2.04 2.079h-.08a2.08 2.08 0 01-2.038-2.08zm3.3 6.681H.807a4.26 4.26 0 014.199-3.804h.06A4.216 4.216 0 017.783 9.07a6.547 6.547 0 00-1.526 2.792zm12.032 1.985a1.858 1.858 0 01-1.855 1.854H8.706a1.858 1.858 0 01-1.855-1.854v-.34A5.727 5.727 0 0112.4 7.79c.054.004.114.004.169.004.054 0 .114 0 .17-.004a5.727 5.727 0 015.549 5.718v.34zm.593-1.985a6.53 6.53 0 00-1.51-2.772 4.236 4.236 0 012.741-1.032h.06a4.26 4.26 0 014.199 3.804h-5.49z" fill="#D5DAEA"/></svg><svg fill="none" viewBox="0 0 22 22" id="icon-chat" xmlns="http://www.w3.org/2000/svg"><g clip-path="url(#afclip0)" fill="#000"><path d="M11.995 8.587c2.021 0 3.96-1.554 3.96-4.128A3.964 3.964 0 0011.994.5H4.46C2.439.5.5 2.055.5 4.628A3.965 3.965 0 003.845 8.54v2.63c0 .565.701.83 1.075.41l2.666-2.993h4.409zM6.85 7.563L5.076 9.555V7.972a.615.615 0 00-.615-.615 2.732 2.732 0 01-2.73-2.729c0-1.815 1.312-2.898 2.73-2.898h7.534a2.732 2.732 0 012.729 2.73c0 1.814-1.312 2.897-2.73 2.897H7.31a.616.616 0 00-.46.206z"/><path d="M4.477 5.306a.762.762 0 100-1.524.762.762 0 000 1.524zM8.936 4.836a.762.762 0 10-1.409-.584.762.762 0 001.409.584zM11.98 5.306a.762.762 0 100-1.524.762.762 0 000 1.524zM17.538 10.214h-7.534c-2.011 0-3.96 1.545-3.96 4.128a3.964 3.964 0 003.96 3.959h4.41l2.665 2.993a.616.616 0 001.075-.41v-2.63a3.965 3.965 0 003.343-3.912c0-2.555-1.922-4.128-3.959-4.128zm2.73 4.128a2.732 2.732 0 01-2.73 2.729.615.615 0 00-.615.615v1.583l-1.774-1.992a.615.615 0 00-.46-.206h-4.685a2.732 2.732 0 01-2.729-2.73c0-1.814 1.311-2.897 2.73-2.897h7.533c1.376 0 2.73 1.038 2.73 2.898z"/><path d="M18.233 14.552a.762.762 0 10-1.408-.584.762.762 0 001.408.584zM13.771 15.02a.762.762 0 100-1.525.762.762 0 000 1.525zM10.139 15.01a.762.762 0 10-.244-1.505.762.762 0 00.244 1.505z"/></g><defs><clipPath id="afclip0"><path fill="#fff" transform="translate(.5 .5)" d="M0 0h21v21H0z"/></clipPath></defs></svg><svg fill="none" viewBox="0 0 12 13" id="icon-checked" xmlns="http://www.w3.org/2000/svg"><g clip-path="url(#agclip0)"><path d="M11.824 2.27a.6.6 0 00-.848 0L3.787 9.457 1.024 6.695a.6.6 0 00-.848.848l3.187 3.188a.6.6 0 00.849 0l7.612-7.613a.6.6 0 000-.849z" fill="#D5DAEA"/></g><defs><clipPath id="agclip0"><path fill="#fff" transform="translate(0 .5)" d="M0 0h12v12H0z"/></clipPath></defs></svg><svg fill="none" viewBox="0 0 8 6" id="icon-checked-active" xmlns="http://www.w3.org/2000/svg"><path d="M2.674 5.18a.437.437 0 00.618 0l3.743-3.742a.437.437 0 10-.618-.619L2.983 4.253l-1.4-1.4a.437.437 0 10-.619.618l1.71 1.71z" fill="#fff"/></svg><svg fill="none" viewBox="0 0 14 15" id="icon-copy" xmlns="http://www.w3.org/2000/svg"><g clip-path="url(#aiclip0)" fill="#E4E4E4"><path d="M1.33 7.5c0-1.197.973-2.17 2.17-2.17h2.8V4H3.5A3.501 3.501 0 000 7.5C0 9.432 1.568 11 3.5 11h2.8V9.67H3.5A2.172 2.172 0 011.33 7.5z"/><path d="M9.8 6.8H4.2v1.4h5.6V6.8z"/><path d="M10.5 4H7.7v1.33h2.8c1.197 0 2.17.973 2.17 2.17s-.973 2.17-2.17 2.17H7.7V11h2.8c1.932 0 3.5-1.568 3.5-3.5S12.432 4 10.5 4z"/></g><defs><clipPath id="aiclip0"><path fill="#fff" transform="translate(0 .5)" d="M0 0h14v14H0z"/></clipPath></defs></svg><svg fill="none" viewBox="0 0 16 16" id="icon-data" xmlns="http://www.w3.org/2000/svg"><g clip-path="url(#ajclip0)" fill="#000"><path d="M14.843 1.542H1.157a.965.965 0 00-.964.964v12.53c0 .532.432.964.964.964h13.686a.965.965 0 00.964-.964V2.506a.965.965 0 00-.964-.964zm-.192 13.302H1.349V2.699h13.302v12.145z"/><path d="M15.229 5.397H.77v1.157h14.458V5.397zM4.24 0a.578.578 0 00-.577.578v3.085a.578.578 0 101.156 0V.578A.578.578 0 004.241 0zM11.952 0a.578.578 0 00-.579.578v3.085a.578.578 0 101.157 0V.578A.578.578 0 0011.952 0zM10.217 11.566H5.976a.578.578 0 100 1.157h4.24a.578.578 0 100-1.157zM10.217 8.867H5.976a.578.578 0 100 1.157h4.24a.578.578 0 000-1.157z"/></g><defs><clipPath id="ajclip0"><path fill="#fff" d="M0 0h16v16H0z"/></clipPath></defs></svg><svg fill="none" viewBox="0 0 14 15" id="icon-delete" xmlns="http://www.w3.org/2000/svg"><g clip-path="url(#akclip0)" fill="#E4E4E4"><path d="M11.953 2.55C9.223-.18 4.78-.18 2.05 2.55A6.958 6.958 0 000 7.5c0 1.87.728 3.628 2.05 4.95A6.98 6.98 0 007.003 14.5a6.98 6.98 0 004.95-2.047c2.73-2.73 2.73-7.172 0-9.902zm-.767 9.135a5.924 5.924 0 01-8.369 0A5.879 5.879 0 011.085 7.5a5.88 5.88 0 011.732-4.184 5.925 5.925 0 018.369 0 5.924 5.924 0 010 8.368z"/><path d="M9.339 9L7.803 7.465 9.34 5.933a.543.543 0 00-.767-.768L7.035 6.7 5.5 5.165a.542.542 0 10-.767.768l1.535 1.533L4.732 9a.542.542 0 10.767.768l1.536-1.535 1.537 1.535a.54.54 0 00.767 0 .542.542 0 000-.768z"/></g><defs><clipPath id="akclip0"><path fill="#fff" transform="translate(0 .5)" d="M0 0h14v14H0z"/></clipPath></defs></svg><svg fill="none" viewBox="0 0 14 15" id="icon-edit" xmlns="http://www.w3.org/2000/svg"><g clip-path="url(#alclip0)" fill="#E4E4E4"><path d="M13.364 13.227H.636V14.5h12.728v-1.273zM9.762.5L1.909 8.353v3.602h3.602l7.853-7.853L9.761.5zm-4.78 10.182h-1.8V8.88l6.58-6.58 1.8 1.8-6.58 6.58z"/></g><defs><clipPath id="alclip0"><path fill="#fff" transform="translate(0 .5)" d="M0 0h14v14H0z"/></clipPath></defs></svg><svg fill="none" viewBox="0 0 16 16" id="icon-email" xmlns="http://www.w3.org/2000/svg"><path d="M14.594 2.519H1.406C.631 2.519 0 3.149 0 3.925v8.15c0 .775.63 1.406 1.406 1.406h13.188c.775 0 1.406-.63 1.406-1.406v-8.15c0-.775-.63-1.406-1.406-1.406zm-.184.938l-.188.156L8.559 8.33a.872.872 0 01-1.116 0L1.777 3.613l-.187-.156h12.82zM.937 4.133l4.616 3.844-4.615 3.071V4.133zm13.657 8.41H1.406a.47.47 0 01-.46-.375l5.359-3.566.537.448a1.806 1.806 0 002.316 0l.537-.448 5.358 3.566a.47.47 0 01-.46.376zm.469-1.495l-4.616-3.071 4.616-3.844v6.915z" fill="#D5DAEA"/></svg><svg fill="none" viewBox="0 0 16 16" id="icon-eye-password" xmlns="http://www.w3.org/2000/svg"><path d="M15.898 7.689C15.755 7.493 12.35 2.9 8 2.9S.244 7.493.102 7.688a.528.528 0 000 .623C.244 8.507 3.65 13.099 8 13.099s7.755-4.593 7.898-4.788a.527.527 0 000-.622zM8 12.044c-3.204 0-5.98-3.048-6.8-4.045.82-.997 3.589-4.043 6.8-4.043 3.204 0 5.979 3.047 6.8 4.044-.82.997-3.59 4.044-6.8 4.044z" fill="#AFB8D6"/><path d="M8 4.835A3.168 3.168 0 004.835 8 3.169 3.169 0 008 11.165 3.169 3.169 0 0011.165 8 3.168 3.168 0 008 4.835zm0 5.275A2.112 2.112 0 015.89 8c0-1.164.947-2.11 2.11-2.11 1.163 0 2.11.946 2.11 2.11 0 1.163-.947 2.11-2.11 2.11z" fill="#AFB8D6"/></svg><svg fill="none" viewBox="0 0 17 16" id="icon-fundraising" xmlns="http://www.w3.org/2000/svg"><g clip-path="url(#aoclip0)" fill="#AFB8D6"><path d="M8.75 12.063a.313.313 0 100 .625.313.313 0 000-.626z"/><path d="M15.409 1.918c-.769-.31-1.769-.48-2.815-.48-1.047 0-2.046.17-2.815.48-.455.183-.802.407-1.029.658-.227-.251-.574-.475-1.029-.658-.769-.31-1.768-.48-2.815-.48-1.046 0-2.046.17-2.815.48C1.226 2.266.75 2.76.75 3.313v7.5c0 .55.476 1.046 1.341 1.394.715.288 1.63.456 2.596.478v.002c0 1.07 1.747 1.876 4.063 1.876s4.063-.807 4.063-1.876v-.002c.966-.022 1.88-.19 2.596-.478.865-.348 1.341-.843 1.341-1.395v-7.5c0-.55-.476-1.046-1.341-1.394zm.716 7.02c0 .266-.364.579-.95.814-.633.256-1.485.41-2.363.432V8.938v-.003c.967-.022 1.882-.19 2.597-.478.28-.113.52-.242.716-.382v.863zm-7.688-3.75c0 .266-.363.579-.949.814-.687.277-1.628.436-2.582.436s-1.895-.16-2.581-.436c-.586-.235-.95-.548-.95-.814v-.863c.196.14.435.27.716.382.769.31 1.769.48 2.815.48 1.047 0 2.046-.17 2.815-.48.281-.113.52-.242.716-.382v.862zM2.091 6.582c.769.31 1.769.48 2.815.48 1.047 0 2.046-.17 2.815-.48.281-.113.52-.242.716-.382v.868c-.808.027-1.583.16-2.21.38-.63.222-1.082.518-1.328.864-.952 0-1.89-.159-2.574-.435-.586-.235-.95-.548-.95-.814V6.2c.196.14.435.27.716.382zm-.716 1.493c.196.14.435.27.716.382.715.288 1.63.456 2.597.478v1.249c-.878-.022-1.73-.176-2.363-.432-.586-.235-.95-.548-.95-.815v-.862zm3.97.709c.232-.539 1.569-1.097 3.405-1.097 1.836 0 3.173.558 3.404 1.096a.387.387 0 01.034.155c0 .274-.34.58-.907.816-.67.28-1.57.434-2.531.434-.961 0-1.86-.155-2.531-.434-.568-.237-.907-.542-.907-.816 0-.052.011-.102.034-.154zm10.78-1.722c0 .267-.364.58-.95.815-.684.276-1.622.435-2.574.435-.246-.346-.699-.641-1.328-.863-.627-.22-1.402-.354-2.21-.381V6.2c.195.14.435.27.716.382.768.31 1.768.48 2.815.48 1.046 0 2.046-.17 2.815-.48.28-.113.52-.242.716-.382v.862zm0-1.875c0 .267-.364.58-.95.815-.686.277-1.627.436-2.581.436s-1.896-.16-2.582-.436c-.586-.235-.95-.548-.95-.814v-.863c.196.14.436.27.717.382.768.31 1.768.48 2.815.48 1.046 0 2.046-.17 2.815-.48.28-.113.52-.242.716-.382v.862zm-6.113-2.69c.686-.276 1.627-.434 2.582-.434.954 0 1.895.158 2.582.435.585.235.949.548.949.814 0 .267-.364.58-.95.815-.686.277-1.627.436-2.581.436s-1.896-.16-2.582-.436c-.586-.235-.95-.548-.95-.814 0-.267.364-.58.95-.815zm-7.687 0c.686-.276 1.627-.434 2.581-.434.955 0 1.896.158 2.582.435.586.235.95.548.95.814 0 .267-.364.58-.95.815-.687.277-1.628.436-2.582.436s-1.895-.16-2.581-.436c-.586-.235-.95-.548-.95-.814 0-.267.364-.58.95-.815zm0 9.13c-.586-.236-.95-.548-.95-.815V9.95c.196.14.435.27.716.382.715.288 1.63.456 2.596.478v1.25c-.878-.023-1.729-.177-2.362-.433zm8.956 1.877c-.67.28-1.57.434-2.531.434-.961 0-1.86-.155-2.531-.434-.568-.237-.907-.542-.907-.816v-.845c.071.051.15.102.236.152.486.28 1.146.489 1.91.6a.313.313 0 00.09-.618c-1.452-.213-2.235-.759-2.235-1.165v-.847c.707.518 1.955.848 3.437.848 1.482 0 2.73-.33 3.438-.848v.848c0 .405-.784.951-2.237 1.164a.312.312 0 10.091.619c.764-.112 1.424-.32 1.91-.6.087-.051.165-.102.236-.153v.845c0 .274-.34.58-.907.816zm3.894-1.877c-.633.256-1.485.41-2.363.432v-1.25c.967-.021 1.882-.189 2.597-.477.28-.113.52-.242.716-.382v.863c0 .266-.364.579-.95.814z"/></g><defs><clipPath id="aoclip0"><path fill="#fff" transform="translate(.75)" d="M0 0h16v16H0z"/></clipPath></defs></svg><svg fill="none" viewBox="0 0 12 12" id="icon-hard-drive" xmlns="http://www.w3.org/2000/svg"><path d="M11.875 6.664L10.336 1.93a1.295 1.295 0 00-.492-.672A1.324 1.324 0 009.054 1H2.946c-.286 0-.55.086-.789.258-.24.172-.403.396-.492.672L.125 6.664C.042 6.924 0 7.12 0 7.25v2.5c0 .344.122.638.367.883s.54.367.883.367h9.5c.344 0 .638-.123.883-.367.245-.245.367-.54.367-.883v-2.5c0-.13-.041-.326-.125-.586zm-9.258-4.43a.317.317 0 01.125-.168A.344.344 0 012.945 2h6.11c.073 0 .14.022.203.066.062.044.104.1.125.168L10.609 6H1.391l1.226-3.766zM11 9.75a.24.24 0 01-.074.176.24.24 0 01-.176.074h-9.5a.24.24 0 01-.176-.074A.24.24 0 011 9.75v-2.5a.24.24 0 01.074-.176A.24.24 0 011.25 7h9.5a.24.24 0 01.176.074.24.24 0 01.074.176v2.5z" fill="#000"/><path d="M7.5 7.875a.601.601 0 00-.442.183.602.602 0 00-.183.442c0 .172.061.319.183.441.123.123.27.184.442.184s.32-.061.441-.184a.602.602 0 00.184-.441.601.601 0 00-.184-.442.602.602 0 00-.441-.183zM9.5 7.875a.602.602 0 00-.441.183.602.602 0 00-.184.442c0 .172.061.319.184.441.122.123.27.184.441.184.172 0 .32-.061.442-.184a.602.602 0 00.183-.441.602.602 0 00-.183-.442.602.602 0 00-.442-.183z" fill="#000"/></svg><svg fill="none" viewBox="0 0 12 9" id="icon-hyphen" xmlns="http://www.w3.org/2000/svg"><path d="M11.254 3.9H1.376a.6.6 0 00-.001 1.2h9.88a.6.6 0 10-.001-1.2z" fill="#000" stroke="#000" stroke-width=".2"/></svg><svg fill="none" viewBox="0 0 72 15" id="icon-imoney" xmlns="http://www.w3.org/2000/svg"><g clip-path="url(#arclip0)" fill="#fff"><path d="M69.446 4.13l-1.661 4.082c-.048.047-.048.142-.048.19l-.047.095-.048-.095c0-.048-.047-.143-.047-.19L65.934 4.13h-2.136l2.8 6.978-1.187 2.658h2.137l3.94-9.636h-2.042zM53.687 4.51a2.71 2.71 0 00-1.424-.523 3.055 3.055 0 00-2.469.855v-.76h-1.946v6.978h1.946V7.405c0-.807.143-1.044.285-1.234.237-.38.664-.57 1.187-.57.522 0 .997.238 1.234.617.142.285.19.665.19.855v3.987h1.946V6.835c0-1.091-.285-1.85-.95-2.326zM44.193 4.177a3.957 3.957 0 00-2.943.143c-.617.284-1.187.76-1.519 1.376-.332.522-.475 1.187-.475 1.899s.143 1.377.475 1.899c.332.522.76.997 1.33 1.281.569.285 1.233.475 1.85.475.333 0 .665-.047.997-.142.285-.095.57-.19.855-.333.57-.332 1.044-.76 1.329-1.281.332-.522.475-1.187.475-1.899 0-1.566-.902-2.896-2.374-3.418zm.522 3.513c-.047.617-.237 1.14-.617 1.471-.285.238-.712.38-1.234.428-.522 0-.902-.143-1.234-.428-.38-.332-.57-.854-.617-1.471-.048-.712.237-1.282.76-1.661.284-.19.664-.333 1.044-.333.427 0 .76.143 1.091.333.57.332.855.949.807 1.66zM36.978 4.51a2.71 2.71 0 00-1.424-.523h-.333c-.76 0-1.424.333-1.993.997l-.095.143h-.19a2.022 2.022 0 00-.522-.57 2.708 2.708 0 00-1.424-.522c-.902-.095-1.614.19-2.231.854v-.712H26.82v6.978h1.946v-3.75c0-.76.095-.95.237-1.187a1.2 1.2 0 011.14-.57c.474 0 .901.238 1.139.618.19.285.19.617.19.95v3.892h1.945v-3.75c0-.712.096-.95.238-1.187.237-.38.664-.57 1.14-.57.474 0 .853.238 1.09.617.143.238.19.522.19.712v4.13h1.947V6.788c0-.38-.048-.76-.142-1.092-.19-.474-.475-.902-.902-1.187zM61.946 8.972c-.285.284-.95.806-1.851.854-.76.047-1.33-.19-1.757-.617-.19-.19-.332-.475-.427-.76h5.364v-.047c.048-.285.095-.522.095-.807 0-.237-.047-.57-.142-.997-.238-.807-.712-1.424-1.33-1.899-.712-.522-1.376-.664-1.566-.664-1.377-.238-2.943.38-3.75 1.661-.57.902-.522 1.804-.522 2.089 0 .332.047 1.376.902 2.326.997 1.091 2.373 1.139 2.8 1.186 1.9.048 3.18-1.139 3.466-1.376l-1.282-.95zm-3.323-2.944c.285-.19.617-.332 1.045-.332.427 0 .76.143 1.091.332.285.238.523.523.665.855h-3.418c.095-.332.285-.665.617-.855zM13.623 0c-4.177 0-7.5 3.37-7.5 7.5 0 4.177 3.37 7.5 7.5 7.5s7.5-3.37 7.5-7.5-3.37-7.5-7.5-7.5zm0 10.253c-1.518 0-2.8-1.281-2.8-2.8 0-1.52 1.282-2.801 2.8-2.801 1.52 0 2.801 1.282 2.801 2.8-.047 1.567-1.281 2.801-2.8 2.801zM6.076 2.136v10.918H3.418L0 2.136h6.076z"/></g><defs><clipPath id="arclip0"><path fill="#fff" d="M0 0h71.667v15H0z"/></clipPath></defs></svg><svg fill="none" viewBox="0 0 16 17" id="icon-info" xmlns="http://www.w3.org/2000/svg"><g clip-path="url(#asclip0)"><g clip-path="url(#asclip1)" fill="#000"><path d="M8 .5c-4.422 0-8 3.578-8 8 0 4.422 3.578 8 8 8 4.422 0 8-3.578 8-8 0-4.422-3.578-8-8-8zm0 14.75A6.746 6.746 0 011.25 8.5c0-3.731 3.02-6.75 6.75-6.75 3.731 0 6.75 3.02 6.75 6.75 0 3.731-3.02 6.75-6.75 6.75z"/><path d="M8 4.527a.625.625 0 00-.625.625v4.025a.625.625 0 101.25 0V5.152A.625.625 0 008 4.527zM8 12.255a.844.844 0 100-1.688.844.844 0 000 1.688z"/></g></g><defs><clipPath id="asclip0"><path fill="#fff" transform="translate(0 .5)" d="M0 0h16v16H0z"/></clipPath><clipPath id="asclip1"><path fill="#fff" transform="translate(0 .5)" d="M0 0h16v16H0z"/></clipPath></defs></svg><svg fill="none" viewBox="0 0 17 16" id="icon-information" xmlns="http://www.w3.org/2000/svg"><g clip-path="url(#atclip0)" fill="#AFB8D6"><path d="M16.415 8.318h-4.037c-.162 0-.3.115-.329.273a3.306 3.306 0 01-.53 1.285.334.334 0 00.038.426l2.856 2.855a.333.333 0 00.236.098h.014a.334.334 0 00.242-.119 7.956 7.956 0 001.843-4.456.335.335 0 00-.333-.362zm-1.794 4.103l-2.402-2.402c.19-.323.334-.669.427-1.033h3.396a7.278 7.278 0 01-1.42 3.435z"/><path d="M11.085 10.774a.334.334 0 00-.426-.04 3.322 3.322 0 01-1.892.59 3.344 3.344 0 01-3.34-3.34c0-1.611 1.149-2.991 2.732-3.283a.334.334 0 00.274-.328V.335A.334.334 0 008.07.002C3.966.356.75 3.862.75 7.983.75 12.404 4.347 16 8.767 16c1.88 0 3.71-.667 5.152-1.879a.334.334 0 00.022-.492l-2.856-2.855zm-2.318 4.558c-4.052 0-7.349-3.296-7.349-7.349 0-3.655 2.76-6.782 6.347-7.275v3.396a4.004 4.004 0 00-3.006 3.88 4.013 4.013 0 004.008 4.008c.72 0 1.419-.192 2.035-.556l2.402 2.402a7.353 7.353 0 01-4.437 1.494z"/><path d="M9.375 4.701a3.35 3.35 0 012.674 2.675.334.334 0 00.329.274h4.038a.334.334 0 00.332-.363A7.988 7.988 0 009.464.002.335.335 0 009.1.335v4.038c0 .161.115.3.274.328zM9.769.708a7.318 7.318 0 016.274 6.273h-3.397a4.03 4.03 0 00-2.877-2.876V.708z"/></g><defs><clipPath id="atclip0"><path fill="#fff" transform="translate(.75)" d="M0 0h16v16H0z"/></clipPath></defs></svg><svg fill="none" viewBox="0 0 16 17" id="icon-kindergarten" xmlns="http://www.w3.org/2000/svg"><g clip-path="url(#auclip0)" fill="#D5DAEA"><path d="M15.967 10.431l-1.25-2.5a.312.312 0 00-.28-.173H12.99L8.663 3.431a.932.932 0 00-.35-.221v-.679h1.562a.312.312 0 00.262-.483l-.346-.532.346-.533A.312.312 0 009.875.5H8a.313.313 0 00-.312.312V3.21a.932.932 0 00-.35.22L3.01 7.759H1.563a.312.312 0 00-.28.173l-1.25 2.5a.312.312 0 00.28.452h.312v4.68c0 .172.14.312.313.312H3.71v.313c0 .172.14.312.312.312h7.954c.173 0 .313-.14.313-.313v-.312h2.773c.172 0 .312-.14.312-.313v-4.679h.313a.313.313 0 00.28-.452zM8.313 1.125h.986l-.143.22a.313.313 0 000 .34l.143.221h-.986v-.781zm6.869 9.133H12.29v-.817a.932.932 0 00.792-.266.931.931 0 00.265-.792h.897l.938 1.875zM1.756 8.383h.897a.931.931 0 00.266.792.931.931 0 00.792.266v.817H.818l.938-1.875zm1.955 2.5V14H1.25v-3.117h2.46zM1.25 15.25v-.625h2.46v.625H1.25zm4.874 0h3.75v.625h-3.75v-.625zm.781-3.125h.782v2.5h-.782v-2.5zm2.188 2.5h-.781v-2.5h.78v2.5zm1.406 1.25v-.625a.626.626 0 00-.625-.625h-.156v-2.5a.626.626 0 00-.625-.625H6.906a.626.626 0 00-.625.625v2.5h-.156a.626.626 0 00-.625.625v.625H4.335V9.084l.903-.903a.313.313 0 00-.442-.442l-.994.995a.31.31 0 01-.442 0 .31.31 0 010-.442l4.42-4.42a.31.31 0 01.44 0l4.42 4.42a.31.31 0 010 .442.31.31 0 01-.442 0L8.221 4.757a.313.313 0 00-.442 0l-.994.994a.313.313 0 00.442.442L8 5.419l3.665 3.665v6.791H10.5zm4.25-.625h-2.46v-.625h2.46v.625zm0-4.367V14h-2.46v-3.117h2.46z"/><path d="M8 8.739a1.017 1.017 0 000-2.031 1.017 1.017 0 000 2.03zm0-1.406a.391.391 0 110 .782.391.391 0 010-.782zM9.406 10.258H6.594a.313.313 0 000 .625h2.812a.313.313 0 000-.625zM6.012 6.654a.312.312 0 10-.001.624.312.312 0 000-.624z"/></g><defs><clipPath id="auclip0"><path fill="#fff" transform="translate(0 .5)" d="M0 0h16v16H0z"/></clipPath></defs></svg><svg fill="none" viewBox="0 0 16 17" id="icon-link-chairman" xmlns="http://www.w3.org/2000/svg"><g clip-path="url(#avclip0)"><g clip-path="url(#avclip1)" fill="#D5DAEA"><path d="M1.52 8.5A2.482 2.482 0 014 6.02h3.2V4.5H4c-2.208 0-4 1.792-4 4s1.792 4 4 4h3.2v-1.52H4A2.482 2.482 0 011.52 8.5z"/><path d="M11.2 7.7H4.8v1.6h6.4V7.7z"/><path d="M12 4.5H8.8v1.52H12a2.482 2.482 0 012.48 2.48A2.482 2.482 0 0112 10.98H8.8v1.52H12c2.208 0 4-1.792 4-4s-1.792-4-4-4z"/></g></g><defs><clipPath id="avclip0"><path fill="#fff" transform="translate(0 .5)" d="M0 0h16v16H0z"/></clipPath><clipPath id="avclip1"><path fill="#fff" transform="translate(0 .5)" d="M0 0h16v16H0z"/></clipPath></defs></svg><svg fill="none" viewBox="0 0 18 19" id="icon-location" xmlns="http://www.w3.org/2000/svg"><g clip-path="url(#awclip0)" fill="#000"><path d="M9 3.23a3.928 3.928 0 00-3.923 3.923A3.928 3.928 0 009 11.076a3.928 3.928 0 003.923-3.923A3.928 3.928 0 009 3.23zm0 6.791a2.871 2.871 0 01-2.868-2.868A2.871 2.871 0 019 4.285a2.871 2.871 0 012.868 2.868A2.871 2.871 0 019 10.021z"/><path d="M9 .5a6.66 6.66 0 00-6.653 6.653c0 2.116 1.774 5.268 2.832 6.958.696 1.112 1.444 2.17 2.105 2.98C8.347 18.392 8.727 18.5 9 18.5c.277 0 .636-.109 1.695-1.41a31.103 31.103 0 002.107-2.978c1.065-1.695 2.85-4.852 2.85-6.96A6.66 6.66 0 009 .5zm3.07 12.79c-1.364 2.215-2.617 3.712-3.076 4.094-.462-.37-1.694-1.832-3.078-4.087-1.597-2.604-2.514-4.843-2.514-6.144A5.604 5.604 0 019 1.555a5.604 5.604 0 015.598 5.598c0 1.293-.922 3.53-2.528 6.137z"/></g><defs><clipPath id="awclip0"><path fill="#fff" transform="translate(0 .5)" d="M0 0h18v18H0z"/></clipPath></defs></svg><svg fill="none" viewBox="0 0 41 25" id="icon-mastercard" xmlns="http://www.w3.org/2000/svg"><path d="M26.243 2.674H15.306v19.652h10.937V2.674z" fill="#FF5F00"/><path d="M16 12.5c0-3.993 1.875-7.535 4.757-9.826A12.423 12.423 0 0013.05 0C6.139 0 .549 5.59.549 12.5S6.139 25 13.049 25c2.917 0 5.59-1.007 7.708-2.674A12.482 12.482 0 0116 12.5z" fill="#EB001B"/><path d="M41 12.5C41 19.41 35.41 25 28.5 25c-2.917 0-5.59-1.007-7.708-2.674a12.429 12.429 0 004.757-9.826c0-3.993-1.875-7.535-4.757-9.826A12.424 12.424 0 0128.5 0C35.41 0 41 5.625 41 12.5z" fill="#F79E1B"/></svg><svg fill="none" viewBox="0 0 8 2" id="icon-minus" xmlns="http://www.w3.org/2000/svg"><path fill="#fff" d="M0 0h8v2H0z"/></svg><svg fill="none" viewBox="0 0 22 22" id="icon-notification" xmlns="http://www.w3.org/2000/svg"><g clip-path="url(#azclip0)"><g clip-path="url(#azclip1)"><path d="M18.581 15.387a6.68 6.68 0 01-1.956-4.723V9.007a5.627 5.627 0 00-4.26-5.458V1.865a1.365 1.365 0 00-2.73 0V3.55a5.627 5.627 0 00-4.26 5.458v1.657a6.68 6.68 0 01-1.957 4.723 1.925 1.925 0 001.362 3.287h3.394a2.826 2.826 0 005.652 0h3.394a1.925 1.925 0 001.361-3.287zM11 20.113a1.44 1.44 0 01-1.439-1.44h2.878a1.44 1.44 0 01-1.44 1.44zm6.717-3.158a.536.536 0 01-.497.332H4.78a.536.536 0 01-.38-.919 8.014 8.014 0 002.362-5.704V9.007A4.243 4.243 0 0111 4.77a4.243 4.243 0 014.238 4.238v1.657c0 2.155.839 4.18 2.363 5.704.154.155.2.385.116.587z" fill="#000"/><g clip-path="url(#azclip2)"><path d="M42.914-72.734c73.931 0 144.794-56.852 144.794-150.973.001-79.839-64.953-144.793-144.794-144.793h-275.536c-73.931 0-144.794 56.851-144.794 150.972 0 72.189 53.1 132.208 122.293 143.049V21.74c0 20.649 25.622 30.323 39.301 14.966l97.489-109.44H42.914zM-145.223-110.2l-64.901 72.857v-57.891c0-12.427-10.074-22.501-22.5-22.501-55.028 0-99.795-44.767-99.795-99.795 0-66.379 47.946-105.973 99.795-105.973H42.912c55.028 0 99.796 44.767 99.796 99.795 0 66.379-47.948 105.973-99.796 105.973h-171.334a22.515 22.515 0 00-16.801 7.535z" fill="#000"/></g></g></g><defs><clipPath id="azclip0"><path fill="#fff" transform="translate(.5 .5)" d="M0 0h21v21H0z"/></clipPath><clipPath id="azclip1"><path fill="#fff" transform="translate(.5 .5)" d="M0 0h21v21H0z"/></clipPath><clipPath id="azclip2"><path fill="#fff" transform="translate(-377.5 -368.5)" d="M0 0h768v768H0z"/></clipPath></defs></svg><svg fill="none" viewBox="0 0 16 17" id="icon-parent" xmlns="http://www.w3.org/2000/svg"><g clip-path="url(#baclip0)" fill="#D5DAEA"><path d="M7.886 8.207c1.059 0 1.976-.38 2.725-1.129a3.73 3.73 0 001.129-2.724 3.73 3.73 0 00-1.13-2.725A3.73 3.73 0 007.887.5C6.827.5 5.91.88 5.161 1.629a3.729 3.729 0 00-1.129 2.725 3.73 3.73 0 001.13 2.724 3.73 3.73 0 002.724 1.13zM5.824 2.292a2.785 2.785 0 012.062-.854c.812 0 1.487.279 2.062.854.575.575.854 1.25.854 2.062 0 .812-.28 1.486-.854 2.061a2.786 2.786 0 01-2.062.855c-.812 0-1.487-.28-2.062-.855a2.785 2.785 0 01-.854-2.061c0-.813.28-1.487.854-2.062zM14.629 12.803a9.526 9.526 0 00-.13-1.01 7.973 7.973 0 00-.248-1.017 5.014 5.014 0 00-.418-.948 3.573 3.573 0 00-.63-.821 2.778 2.778 0 00-.905-.57c-.351-.138-.74-.208-1.156-.208-.163 0-.321.067-.626.265-.188.123-.408.264-.653.421a3.74 3.74 0 01-.844.372c-.342.11-.69.167-1.033.167-.342 0-.69-.056-1.032-.167a3.728 3.728 0 01-.844-.372 89.19 89.19 0 01-.653-.42c-.305-.2-.463-.266-.626-.266-.416 0-.805.07-1.155.209-.352.14-.657.33-.906.569-.237.227-.45.504-.63.82a5.028 5.028 0 00-.417.949c-.1.313-.184.654-.249 1.016a9.458 9.458 0 00-.13 1.012 13.69 13.69 0 00-.032.944c0 .836.266 1.512.79 2.01.517.492 1.2.742 2.033.742h7.704c.832 0 1.516-.25 2.033-.742.524-.498.79-1.174.79-2.01 0-.322-.012-.64-.033-.945zm-1.403 2.276c-.342.325-.796.483-1.387.483H4.135c-.592 0-1.045-.158-1.387-.483-.335-.319-.498-.754-.498-1.33 0-.3.01-.596.03-.88.02-.28.058-.586.117-.911a7.04 7.04 0 01.219-.896c.083-.262.198-.521.34-.771a2.65 2.65 0 01.463-.607c.16-.154.363-.28.602-.374.22-.088.469-.136.738-.143.033.018.092.051.186.113l.66.426c.278.176.634.335 1.06.473.436.14.88.213 1.322.213.44 0 .885-.072 1.32-.213a4.65 4.65 0 001.06-.474c.252-.16.468-.3.66-.425.096-.062.154-.095.187-.113.27.007.518.055.739.143.238.094.44.22.602.374.171.165.327.369.463.607.141.25.256.509.34.77.087.274.16.576.218.897.059.326.098.632.118.91.02.284.03.58.03.88 0 .577-.163 1.012-.498 1.331z"/></g><defs><clipPath id="baclip0"><path fill="#fff" transform="translate(0 .5)" d="M0 0h16v16H0z"/></clipPath></defs></svg><svg fill="none" viewBox="0 0 16 17" id="icon-password" xmlns="http://www.w3.org/2000/svg"><g clip-path="url(#bbclip0)" fill="#D5DAEA"><path d="M11.563 11.938a.625.625 0 100-1.25.625.625 0 000 1.25z"/><path d="M14.375 11.813c.345 0 .625-.28.625-.626V8.876c0-1.378-1.121-2.5-2.5-2.5h-.751V4.171C11.749 2.147 10.067.5 7.999.5s-3.75 1.647-3.75 3.67v2.205H3.5a2.503 2.503 0 00-2.5 2.5V14c0 1.379 1.122 2.5 2.5 2.5h9c1.379 0 2.5-1.121 2.5-2.5a.625.625 0 10-1.25 0c0 .69-.56 1.25-1.25 1.25h-9c-.69 0-1.25-.56-1.25-1.25V8.875c0-.69.56-1.25 1.25-1.25h9c.69 0 1.25.56 1.25 1.25v2.313c0 .345.28.624.625.624zm-3.876-5.438h-5V4.171c0-1.335 1.121-2.421 2.5-2.421 1.378 0 2.5 1.086 2.5 2.42v2.205z"/><path d="M6.844 11.938a.625.625 0 100-1.25.625.625 0 000 1.25zM4.5 11.938a.625.625 0 100-1.25.625.625 0 000 1.25zM9.188 11.938a.625.625 0 100-1.25.625.625 0 000 1.25z"/></g><defs><clipPath id="bbclip0"><path fill="#fff" transform="translate(0 .5)" d="M0 0h16v16H0z"/></clipPath></defs></svg><svg fill="none" viewBox="0 0 16 16" id="icon-phone" xmlns="http://www.w3.org/2000/svg"><g clip-path="url(#bcclip0)" fill="#D5DAEA"><path d="M8 14.528a.544.544 0 100-1.088.544.544 0 000 1.088z"/><path d="M11.138 0H4.861C3.95 0 3.208.742 3.208 1.654v12.692c0 .912.742 1.654 1.653 1.654h6.277c.912 0 1.654-.742 1.654-1.654V1.654C12.792.742 12.05 0 11.138 0zM4.274 3.236h7.451v8.881h-7.45V3.236zm.587-2.17h6.277c.324 0 .587.264.587.588v.515h-7.45v-.515c0-.324.263-.587.586-.587zm6.277 13.867H4.861a.588.588 0 01-.587-.587v-1.162h7.451v1.162a.588.588 0 01-.587.587z"/></g><defs><clipPath id="bcclip0"><path fill="#fff" d="M0 0h16v16H0z"/></clipPath></defs></svg><svg fill="none" viewBox="0 0 18 19" id="icon-price" xmlns="http://www.w3.org/2000/svg"><g clip-path="url(#bdclip0)"><path d="M14.26.5h-2.857a.527.527 0 00-.481.311A2.111 2.111 0 019 2.055 2.111 2.111 0 017.078.811.527.527 0 006.597.5H3.74a.527.527 0 00-.527.527v16.946c0 .29.236.527.527.527h2.857a.527.527 0 00.48-.311A2.111 2.111 0 019 16.945c.828 0 1.582.488 1.922 1.244.085.19.273.311.48.311h2.857a.527.527 0 00.528-.527V1.027A.527.527 0 0014.259.5zM4.267 1.555h2.01A3.168 3.168 0 009 3.11c1.124 0 2.159-.6 2.723-1.555h2.009V4.88H4.268V1.555zm9.464 15.89h-2.01A3.168 3.168 0 009 15.89c-1.124 0-2.159.6-2.723 1.555h-2.01V5.936h9.465v11.51z" fill="#000"/></g><defs><clipPath id="bdclip0"><path fill="#fff" transform="translate(0 .5)" d="M0 0h18v18H0z"/></clipPath></defs></svg><svg fill="none" viewBox="0 0 16 17" id="icon-school" xmlns="http://www.w3.org/2000/svg"><path d="M15.733 6.9H11.2v-.8a.267.267 0 00-.11-.216L8.267 3.831V2.9H11.2c.147 0 .267-.12.267-.267v-1.6A.267.267 0 0011.2.767H8.267a.267.267 0 00-.534 0V3.83L4.91 5.884a.267.267 0 00-.11.216v.8H.267A.267.267 0 000 7.167v9.066c0 .148.12.267.267.267h15.466c.148 0 .267-.12.267-.267V7.167a.267.267 0 00-.267-.267zM8.267 1.3h2.666v1.067H8.267V1.3zM4.8 15.967H.533V7.433H4.8v8.534zm4.267 0H6.933V13.3h2.134v2.667zm1.6 0H9.6v-2.934a.267.267 0 00-.267-.266H6.667a.267.267 0 00-.267.266v2.934H5.333V6.236L8 4.296l2.667 1.94v9.73zm4.8 0H11.2V7.433h4.267v8.534z" fill="#D5DAEA"/><path d="M2.4 8.233H1.333v.534H2.4v-.534zM4 8.233H2.933v.534H4v-.534zM2.4 9.3H1.333v.533H2.4V9.3zM4 9.3H2.933v.533H4V9.3zM2.4 10.367H1.333v.533H2.4v-.533zM4 10.367H2.933v.533H4v-.533zM2.4 11.433H1.333v.534H2.4v-.534zM4 11.433H2.933v.534H4v-.534zM2.4 12.5H1.333v.533H2.4V12.5zM4 12.5H2.933v.533H4V12.5zM13.067 8.233H12v.534h1.067v-.534zM14.667 8.233H13.6v.534h1.067v-.534zM13.067 9.3H12v.533h1.067V9.3zM14.667 9.3H13.6v.533h1.067V9.3zM13.067 10.367H12v.533h1.067v-.533zM14.667 10.367H13.6v.533h1.067v-.533zM13.067 11.433H12v.534h1.067v-.534zM14.667 11.433H13.6v.534h1.067v-.534zM13.067 12.5H12v.533h1.067V12.5zM14.667 12.5H13.6v.533h1.067V12.5zM6.133 8.5a1.867 1.867 0 103.733 0 1.867 1.867 0 00-3.733 0zm3.2 0a1.333 1.333 0 11-2.666 0 1.333 1.333 0 012.666 0z" fill="#D5DAEA"/><path d="M7.733 8.233H7.2v.534h1.067V7.433h-.534v.8z" fill="#D5DAEA"/></svg><svg fill="none" viewBox="0 0 18 18" id="icon-search" xmlns="http://www.w3.org/2000/svg"><path d="M17.425 16.395L13.14 11.94a7.244 7.244 0 001.705-4.673C14.846 3.26 11.586 0 7.578 0 3.571 0 .311 3.26.311 7.267c0 4.008 3.26 7.268 7.267 7.268a7.19 7.19 0 004.164-1.315l4.317 4.49a.94.94 0 00.683.29.95.95 0 00.683-1.605zm-9.847-14.5a5.378 5.378 0 015.372 5.372 5.378 5.378 0 01-5.372 5.372 5.378 5.378 0 01-5.371-5.372 5.378 5.378 0 015.371-5.371z" fill="#979797"/></svg><svg fill="none" viewBox="0 0 10 11" id="icon-sort" xmlns="http://www.w3.org/2000/svg"><g clip-path="url(#bgclip0)" fill="#C0C3CB"><path d="M8.39 7.465c.322-.322.363-.847.056-1.186a.862.862 0 00-1.251-.04L5.573 7.86a.804.804 0 01-1.138 0L2.796 6.23a.862.862 0 00-1.25.04c-.3.347-.259.872.064 1.194l2.784 2.785c.17.17.388.25.606.25.218 0 .436-.08.605-.25l2.784-2.785zM4.394.743L1.61 3.527c-.323.323-.363.847-.056 1.186a.861.861 0 001.25.04l1.63-1.63a.804.804 0 011.139 0l1.63 1.639c.347.347.92.33 1.25-.04.3-.34.26-.864-.056-1.187L5.613.751A.849.849 0 005.008.5a.815.815 0 00-.614.242z"/></g><defs><clipPath id="bgclip0"><path fill="#fff" transform="rotate(-90 5.25 5.25)" d="M0 0h10v10H0z"/></clipPath></defs></svg><svg fill="none" viewBox="0 0 17 18" id="icon-swap" xmlns="http://www.w3.org/2000/svg"><g clip-path="url(#bhclip0)" fill="#000"><path d="M13.564 4.331a.517.517 0 01-.342-.129A7.162 7.162 0 008.5 2.42c-1.633 0-3.23.573-4.498 1.614a.52.52 0 01-.66-.803A8.15 8.15 0 018.5 1.38a8.2 8.2 0 015.406 2.041.52.52 0 01-.342.91z"/><path d="M5.21 4.151H3.478a.52.52 0 01-.52-.52V1.9a.52.52 0 01.887-.367l1.732 1.731a.52.52 0 01-.367.887zM8.583 16.62a8.198 8.198 0 01-5.407-2.04.52.52 0 11.686-.782 7.158 7.158 0 004.721 1.783c1.633 0 3.23-.573 4.498-1.614a.519.519 0 11.66.803 8.15 8.15 0 01-5.158 1.85z"/><path d="M13.522 16.62a.517.517 0 01-.367-.153l-1.732-1.731a.52.52 0 01.367-.887h1.732a.52.52 0 01.52.52V16.1a.52.52 0 01-.52.52zM3.651 9a1.732 1.732 0 100-3.464 1.732 1.732 0 000 3.464zM5.21 9.693H2.092c-1.05 0-1.905.854-1.905 1.905v.346c0 .287.233.52.52.52h5.888a.52.52 0 00.52-.52v-.346c0-1.051-.855-1.905-1.905-1.905zM13.349 9a1.732 1.732 0 100-3.463 1.732 1.732 0 000 3.463zM14.908 9.693H11.79c-1.05 0-1.904.854-1.904 1.905v.346c0 .287.232.52.519.52h5.888a.52.52 0 00.52-.52v-.346c0-1.051-.854-1.905-1.905-1.905z"/></g><defs><clipPath id="bhclip0"><path fill="#fff" transform="translate(.188 .688)" d="M0 0h16.625v16.625H0z"/></clipPath></defs></svg><svg fill="none" viewBox="0 0 18 19" id="icon-time" xmlns="http://www.w3.org/2000/svg"><g clip-path="url(#biclip0)" fill="#000"><path d="M12.207 11.09l-2.51-1.883V5.373a.697.697 0 10-1.394 0v4.183c0 .22.103.426.279.558l2.788 2.09a.692.692 0 00.976-.14.696.696 0 00-.14-.975z"/><path d="M9 .5c-4.963 0-9 4.037-9 9s4.037 9 9 9 9-4.037 9-9-4.037-9-9-9zm0 16.606c-4.193 0-7.606-3.413-7.606-7.606S4.807 1.894 9 1.894c4.194 0 7.606 3.413 7.606 7.606S13.193 17.106 9 17.106z"/></g><defs><clipPath id="biclip0"><path fill="#fff" transform="translate(0 .5)" d="M0 0h18v18H0z"/></clipPath></defs></svg><svg fill="none" viewBox="0 0 33 33" id="icon-upload-file" xmlns="http://www.w3.org/2000/svg"><g clip-path="url(#bjclip0)" fill="#AAB1C6"><path d="M29.5.497h-26a3 3 0 00-3 3v26a3 3 0 003 3h26a3 3 0 003-3v-26a3 3 0 00-3-3zm1 29a1 1 0 01-1 1h-26a1 1 0 01-1-1v-26a1 1 0 011-1h26a1 1 0 011 1v26z"/><path d="M22.21 17.787a1 1 0 00-1.41 0l-2.3 2.3-4.29-4.29a1 1 0 00-1.41 0l-7 7a1 1 0 00.7 1.7h20a1 1 0 00.71-1.71l-5-5zM19.5 14.497a3 3 0 100-6 3 3 0 000 6z"/></g><defs><clipPath id="bjclip0"><path fill="#fff" transform="translate(.5 .497)" d="M0 0h32v32H0z"/></clipPath></defs></svg><svg fill="none" viewBox="0 0 16 17" id="icon-user" xmlns="http://www.w3.org/2000/svg"><g clip-path="url(#bkclip0)" fill="#D5DAEA"><path d="M7.886 8.207c1.059 0 1.976-.38 2.725-1.129a3.73 3.73 0 001.129-2.724 3.73 3.73 0 00-1.13-2.725A3.73 3.73 0 007.887.5C6.827.5 5.91.88 5.161 1.629a3.729 3.729 0 00-1.129 2.725 3.73 3.73 0 001.13 2.724 3.73 3.73 0 002.724 1.13zM5.824 2.292a2.785 2.785 0 012.062-.854c.812 0 1.487.279 2.062.854.575.575.854 1.25.854 2.062 0 .812-.28 1.486-.854 2.061a2.786 2.786 0 01-2.062.855c-.812 0-1.487-.28-2.062-.855a2.785 2.785 0 01-.854-2.061c0-.813.28-1.487.854-2.062zM14.629 12.803a9.522 9.522 0 00-.13-1.01 7.979 7.979 0 00-.248-1.017 5.017 5.017 0 00-.418-.948 3.573 3.573 0 00-.63-.822 2.778 2.778 0 00-.905-.568c-.351-.14-.74-.21-1.156-.21-.163 0-.321.068-.626.266-.188.123-.408.264-.653.42-.21.134-.493.26-.844.373-.342.11-.69.167-1.033.167-.342 0-.69-.056-1.032-.167a3.728 3.728 0 01-.844-.372 89.19 89.19 0 01-.653-.42c-.305-.2-.463-.266-.626-.266-.416 0-.805.07-1.155.209-.352.14-.657.33-.906.569-.237.227-.45.503-.63.82a5.03 5.03 0 00-.417.949c-.1.312-.184.654-.249 1.016a9.455 9.455 0 00-.13 1.011 13.69 13.69 0 00-.032.945c0 .836.266 1.512.79 2.01.517.492 1.2.742 2.033.742h7.704c.832 0 1.516-.25 2.033-.742.524-.498.79-1.174.79-2.01 0-.322-.012-.64-.033-.945zm-1.403 2.276c-.342.325-.796.483-1.387.483H4.135c-.592 0-1.045-.158-1.387-.483-.335-.319-.498-.754-.498-1.33 0-.3.01-.597.03-.88.02-.28.058-.586.117-.911.058-.322.131-.623.219-.896.083-.262.198-.521.34-.771.135-.238.29-.442.463-.607.16-.154.363-.28.602-.374.22-.088.469-.136.738-.143a2.5 2.5 0 01.186.113c.193.125.415.269.66.425.278.177.634.336 1.06.474.436.14.88.212 1.322.212.44 0 .885-.071 1.32-.212a4.65 4.65 0 001.06-.474c.252-.16.468-.3.66-.425.096-.062.154-.095.187-.113.27.007.518.055.739.143.238.094.44.22.602.374.171.164.327.369.463.607.141.25.256.509.34.77.087.274.16.575.218.897.059.326.098.632.118.91.02.284.03.58.03.88 0 .577-.163 1.012-.498 1.331z"/></g><defs><clipPath id="bkclip0"><path fill="#fff" transform="translate(0 .5)" d="M0 0h16v16H0z"/></clipPath></defs></svg><svg fill="none" viewBox="0 0 9 11" id="icon-yandex-passport" xmlns="http://www.w3.org/2000/svg"><path d="M8.862.7v9.8H7.07V7.77H4.452l-1.82 2.73H.714l2.1-3.024c-.681-.252-1.209-.649-1.582-1.19-.364-.55-.546-1.213-.546-1.988 0-.747.168-1.39.504-1.932a3.184 3.184 0 011.428-1.232C3.234.844 3.958.7 4.788.7h4.074zM4.844 2.24c-.747 0-1.32.173-1.722.518-.392.345-.588.85-.588 1.512 0 .644.191 1.143.574 1.498.383.345.938.518 1.666.518H7.07V2.24H4.844z" fill="#D5DAEA"/></svg><svg fill="none" viewBox="0 0 18 18" id="nav-calendar" xmlns="http://www.w3.org/2000/svg"><g clip-path="url(#bmclip0)"><g clip-path="url(#bmclip1)" fill="#000"><path d="M16.699 1.735H1.3c-.598 0-1.084.486-1.084 1.084v14.097C.217 17.514.703 18 1.3 18H16.7c.598 0 1.084-.486 1.084-1.084V2.819c0-.598-.486-1.084-1.084-1.084zm-.217 14.964H1.518V3.036h14.964V16.7z"/><path d="M17.133 6.072H.867v1.301h16.265v-1.3zM4.771 0a.65.65 0 00-.65.65v3.47a.65.65 0 101.3 0V.65a.65.65 0 00-.65-.65zM13.446 0a.65.65 0 00-.651.65v3.47a.65.65 0 001.301 0V.65a.65.65 0 00-.65-.65zM11.494 13.012H6.723a.65.65 0 100 1.301h4.77a.65.65 0 100-1.301zM11.494 9.976H6.723a.65.65 0 100 1.301h4.77a.65.65 0 100-1.301z"/></g></g><defs><clipPath id="bmclip0"><path fill="#fff" d="M0 0h18v18H0z"/></clipPath><clipPath id="bmclip1"><path fill="#fff" d="M0 0h18v18H0z"/></clipPath></defs></svg><svg fill="none" viewBox="0 0 18 18" id="nav-chat" xmlns="http://www.w3.org/2000/svg"><g clip-path="url(#bnclip0)"><g clip-path="url(#bnclip1)" fill="#000"><path d="M9.853 6.932c1.733 0 3.394-1.332 3.394-3.538A3.397 3.397 0 009.853 0H3.395C1.663 0 .002 1.332.002 3.538a3.399 3.399 0 002.866 3.353v2.255c0 .484.6.71.921.351l2.285-2.565h3.78zm-4.41-.878L3.924 7.76V6.405a.527.527 0 00-.528-.528 2.342 2.342 0 01-2.339-2.339c0-1.555 1.124-2.483 2.34-2.483h6.457c1.29 0 2.34 1.049 2.34 2.339 0 1.555-1.125 2.483-2.34 2.483H5.838a.528.528 0 00-.394.177z"/><path d="M3.41 4.12a.653.653 0 100-1.307.653.653 0 000 1.306zM7.23 3.716a.653.653 0 10-1.207-.5.653.653 0 001.208.5zM9.84 4.12a.653.653 0 100-1.307.653.653 0 000 1.306zM14.604 8.326H8.147c-1.725 0-3.394 1.325-3.394 3.538a3.397 3.397 0 003.394 3.394h3.779l2.285 2.565a.528.528 0 00.92-.35v-2.256a3.399 3.399 0 002.867-3.353c0-2.19-1.648-3.538-3.394-3.538zm2.34 3.538c0 1.29-1.05 2.34-2.34 2.34a.527.527 0 00-.527.527v1.357l-1.521-1.708a.528.528 0 00-.394-.177H8.147a2.342 2.342 0 01-2.34-2.338c0-1.556 1.124-2.484 2.34-2.484h6.457c1.18 0 2.34.89 2.34 2.483z"/><path d="M15.2 12.044a.653.653 0 10-1.207-.5.653.653 0 001.207.5zM11.375 12.445a.653.653 0 100-1.306.653.653 0 000 1.306zM8.262 12.437a.653.653 0 10-.209-1.29.653.653 0 00.209 1.29z"/></g></g><defs><clipPath id="bnclip0"><path fill="#fff" d="M0 0h18v18H0z"/></clipPath><clipPath id="bnclip1"><path fill="#fff" d="M0 0h18v18H0z"/></clipPath></defs></svg><svg fill="none" viewBox="0 0 18 18" id="nav-class-data" xmlns="http://www.w3.org/2000/svg"><g clip-path="url(#boclip0)" fill="#000"><path d="M17.269 10.416V.528A.527.527 0 0016.74 0H1.26A.527.527 0 00.73.528v9.888a.88.88 0 00-.731.867v1.594a.88.88 0 00.879.88h1.958l-1.209 3.545a.528.528 0 00.5.698H4.41a.528.528 0 00.5-.358l1.324-3.886h5.53l1.324 3.886a.528.528 0 00.5.358h2.283c.36 0 .616-.355.5-.698l-1.209-3.546h1.958a.88.88 0 00.879-.879v-1.594a.88.88 0 00-.731-.867zM1.786 1.055h14.428v6.873h-4.331a.88.88 0 00-.88.879v1.597H1.787v-9.35zm14.428 7.928v1.42H12.06v-1.42h4.155zm-12.18 7.962h-1.17l1.087-3.189h1.17l-1.087 3.189zm9.932 0l-1.087-3.189h1.17l1.087 3.189h-1.17zm2.98-4.243H1.054v-1.243h15.89v1.243z"/><path d="M3.865 3.913h10.27a.527.527 0 000-1.055H3.864a.527.527 0 000 1.055zM10.158 5.766H3.865a.527.527 0 000 1.055h6.293a.527.527 0 100-1.055z"/></g><defs><clipPath id="boclip0"><path fill="#fff" d="M0 0h18v18H0z"/></clipPath></defs></svg><svg fill="none" viewBox="0 0 18 18" id="nav-file-manager" xmlns="http://www.w3.org/2000/svg"><g clip-path="url(#bpclip0)"><path d="M15.782 4.157h-5.697a.86.86 0 01-.613-.256L7.694 2.03a2.253 2.253 0 00-1.604-.645H2.218A2.22 2.22 0 000 3.6V14.4a2.22 2.22 0 002.218 2.217h13.574A2.22 2.22 0 0018 14.392V6.375a2.22 2.22 0 00-2.218-2.218zm.861 10.238a.862.862 0 01-.854.865H2.218a.862.862 0 01-.862-.861V3.6c0-.474.387-.861.862-.862H6.13c.227 0 .447.09.595.237L8.493 4.84c.415.428.995.674 1.592.674h5.697c.475 0 .861.386.861.861v8.02z" fill="#000"/></g><defs><clipPath id="bpclip0"><path fill="#fff" d="M0 0h18v18H0z"/></clipPath></defs></svg><svg fill="none" viewBox="0 0 18 18" id="nav-finance" xmlns="http://www.w3.org/2000/svg"><g clip-path="url(#bqclip0)" fill="#000"><path d="M16.031 2.813H1.97A1.971 1.971 0 000 4.78v8.438c0 1.085.883 1.969 1.969 1.969H16.03A1.971 1.971 0 0018 13.217V4.782a1.971 1.971 0 00-1.969-1.968zM1.97 3.937H16.03c.466 0 .844.379.844.844v1.125H1.125V4.781c0-.465.379-.843.844-.843zM16.03 14.063H1.97a.845.845 0 01-.844-.844V7.03h15.75v6.188a.845.845 0 01-.844.844z"/><path d="M3.938 12.375h-.563a.563.563 0 01-.563-.563v-.562c0-.31.252-.563.563-.563h.563c.31 0 .562.252.562.563v.563c0 .31-.252.562-.563.562z"/></g><defs><clipPath id="bqclip0"><path fill="#fff" d="M0 0h18v18H0z"/></clipPath></defs></svg><svg fill="none" viewBox="0 0 18 16" id="nav-main" xmlns="http://www.w3.org/2000/svg"><path d="M1.5 5.1h15a.6.6 0 000-1.2h-15a.6.6 0 000 1.2zM16.5 7.4h-15a.6.6 0 000 1.2h15a.6.6 0 000-1.2zM16.656 10.9H6.344a.4.4 0 00-.326.19.73.73 0 00-.118.41.73.73 0 00.118.41.4.4 0 00.326.19h10.312a.4.4 0 00.326-.19.729.729 0 00.118-.41.729.729 0 00-.118-.41.4.4 0 00-.326-.19z" fill="#000" stroke="#000" stroke-width=".2"/></svg><svg fill="none" viewBox="0 0 18 18" id="nav-profile" xmlns="http://www.w3.org/2000/svg"><path d="M8.872 8.67a4.195 4.195 0 003.065-1.27 4.195 4.195 0 001.27-3.065c0-1.19-.427-2.222-1.27-3.065A4.196 4.196 0 008.872 0a4.195 4.195 0 00-3.066 1.27 4.195 4.195 0 00-1.27 3.065c0 1.192.428 2.223 1.27 3.066a4.196 4.196 0 003.066 1.27zm-2.32-6.654c.647-.647 1.406-.961 2.32-.961.914 0 1.672.314 2.32.96.646.648.96 1.406.96 2.32 0 .914-.314 1.673-.96 2.32-.648.646-1.406.96-2.32.96-.914 0-1.673-.314-2.32-.96-.646-.647-.96-1.406-.96-2.32 0-.914.314-1.672.96-2.32zM16.458 13.841c-.025-.35-.074-.733-.146-1.137a8.954 8.954 0 00-.28-1.144 5.645 5.645 0 00-.47-1.066 4.02 4.02 0 00-.709-.924 3.127 3.127 0 00-1.018-.64 3.52 3.52 0 00-1.3-.235c-.184 0-.362.075-.705.299-.211.137-.458.297-.734.473-.236.15-.555.29-.95.418a3.772 3.772 0 01-1.161.188c-.386 0-.777-.063-1.162-.188a4.193 4.193 0 01-.949-.418l-.735-.473c-.343-.224-.52-.3-.704-.3-.468 0-.905.08-1.3.236a3.123 3.123 0 00-1.018.64 4.021 4.021 0 00-.709.924 5.661 5.661 0 00-.47 1.066 8.983 8.983 0 00-.28 1.144 10.64 10.64 0 00-.145 1.137c-.024.344-.036.702-.036 1.063 0 .94.298 1.7.887 2.262.582.553 1.352.834 2.288.834h8.667c.936 0 1.705-.28 2.287-.834.59-.56.888-1.322.888-2.262 0-.362-.012-.72-.036-1.063zm-1.58 2.56c-.383.366-.894.544-1.56.544H4.653c-.666 0-1.176-.178-1.56-.543-.377-.36-.56-.85-.56-1.498 0-.337.01-.67.033-.99.021-.313.066-.658.132-1.024.065-.362.147-.7.246-1.008.094-.295.223-.586.382-.867a2.98 2.98 0 01.521-.683c.18-.173.409-.315.677-.421.249-.098.528-.152.831-.16.037.02.103.057.21.126.216.142.466.303.743.48.311.198.712.377 1.192.532.49.158.99.239 1.486.239s.996-.08 1.486-.239c.48-.155.88-.334 1.193-.533.283-.18.525-.337.742-.479.107-.07.173-.107.21-.126.303.008.582.062.83.16.269.106.497.248.678.421.193.185.368.415.52.683.16.28.29.572.383.867.099.307.182.647.247 1.008.065.367.11.711.131 1.025.023.318.034.651.034.99 0 .648-.183 1.138-.56 1.496z" fill="#000"/></svg><svg fill="none" viewBox="0 0 18 18" id="nav-vote" xmlns="http://www.w3.org/2000/svg"><g clip-path="url(#btclip0)" fill="#000"><path d="M5.8 15.89h6.364a.527.527 0 00.527-.527v-2.11a.527.527 0 00-.527-.526H5.801a.527.527 0 00-.528.527v2.11c0 .29.237.527.528.527zm.528-2.109h5.309v1.055H6.328V13.78z"/><path d="M17.944 8.8l-2.11-4.22a.527.527 0 00-.47-.29h-1.618V.526A.527.527 0 0013.22 0H4.746a.527.527 0 00-.527.527V4.29H2.637c-.2 0-.383.113-.472.292L.055 8.799A.552.552 0 000 9.035v2.11c0 .29.236.527.527.527h.528v5.8c0 .292.236.528.527.528h14.836a.527.527 0 00.527-.527v-5.801h.528a.527.527 0 00.527-.527v-2.11a.546.546 0 00-.056-.236zM5.274 1.054h7.417v5.343H5.273V1.055zM2.962 5.344h1.256v1.054H3.69a.527.527 0 000 1.055h10.582a.527.527 0 100-1.055h-.527V5.344h1.291l1.582 3.164H1.381l1.582-3.164zM15.89 16.945H2.109v-5.273h13.782v5.273zm1.054-6.328H1.055V9.562h15.89v1.055z"/><path d="M8.1 5.19a.525.525 0 00.746 0l2.45-2.45a.527.527 0 00-.746-.746L8.473 4.07l-1.21-1.21a.527.527 0 10-.745.746L8.1 5.19z"/></g><defs><clipPath id="btclip0"><path fill="#fff" d="M0 0h18v18H0z"/></clipPath></defs></svg></svg>