<?xml version="1.0" encoding="utf-8"?><svg viewBox="0 0 32 33" xmlns="http://www.w3.org/2000/svg" xmlns:xlink="http://www.w3.org/1999/xlink"><style>:root>svg{display:none}:root>svg:target{display:block}</style><svg fill="none" viewBox="0 0 16 19" id="calendar" xmlns="http://www.w3.org/2000/svg"><path d="M14.188 2.5H12.5V.672c0-.211-.21-.422-.422-.422h-.281a.428.428 0 00-.422.422V2.5h-6.75V.672c0-.211-.21-.422-.422-.422h-.281A.427.427 0 003.5.672V2.5H1.812C.864 2.5.125 3.273.125 4.188v12.375c0 .949.738 1.687 1.688 1.687h12.374c.915 0 1.688-.738 1.688-1.688V4.188c0-.914-.773-1.687-1.688-1.687zM1.812 3.625h12.376c.28 0 .562.281.562.563v1.687H1.25V4.187c0-.28.246-.562.563-.562zm12.376 13.5H1.812a.555.555 0 01-.562-.563V7h13.5v9.563a.578.578 0 01-.563.562zM5.328 11.5c.211 0 .422-.176.422-.422V9.672c0-.211-.21-.422-.422-.422H3.922a.427.427 0 00-.422.422v1.406c0 .246.176.422.422.422h1.406zm3.375 0c.211 0 .422-.176.422-.422V9.672c0-.211-.21-.422-.422-.422H7.297a.427.427 0 00-.422.422v1.406c0 .246.176.422.422.422h1.406zm3.375 0a.427.427 0 00.422-.422V9.672c0-.211-.21-.422-.422-.422h-1.406a.428.428 0 00-.422.422v1.406c0 .246.176.422.422.422h1.406zm-3.375 3.375c.211 0 .422-.176.422-.422v-1.406a.454.454 0 00-.422-.422H7.297a.427.427 0 00-.422.422v1.406c0 .246.176.422.422.422h1.406zm-3.375 0c.211 0 .422-.176.422-.422v-1.406a.454.454 0 00-.422-.422H3.922a.427.427 0 00-.422.422v1.406c0 .246.176.422.422.422h1.406zm6.75 0a.427.427 0 00.422-.422v-1.406a.454.454 0 00-.422-.422h-1.406a.427.427 0 00-.422.422v1.406c0 .246.176.422.422.422h1.406z" fill="#000"/></svg><svg fill="none" viewBox="0 0 26 17" id="chairman" xmlns="http://www.w3.org/2000/svg"><path d="M21.794 7.54a2.875 2.875 0 00-1.65-5.23 2.875 2.875 0 00-1.651 5.23 4.985 4.985 0 00-1.7.997 6.45 6.45 0 00-2.334-1.271 3.653 3.653 0 001.76-3.121A3.643 3.643 0 0012.575.5a3.646 3.646 0 00-1.885 6.766c-.858.26-1.64.693-2.309 1.256a5.025 5.025 0 00-1.68-.977 2.875 2.875 0 00-1.65-5.23 2.875 2.875 0 00-1.65 5.23A5.05 5.05 0 000 12.317v.329c0 .01.01.02.02.02h6.098a6.706 6.706 0 00-.055.842v.34A2.651 2.651 0 008.715 16.5h7.729a2.651 2.651 0 002.652-2.652v-.34c0-.284-.02-.568-.055-.842h6.138c.01 0 .02-.01.02-.02v-.33a5.07 5.07 0 00-3.405-4.776zm-3.73-2.358c0-1.147.933-2.08 2.08-2.08 1.146 0 2.079.933 2.079 2.08a2.086 2.086 0 01-2.04 2.079h-.08a2.076 2.076 0 01-2.039-2.08zM9.718 4.145a2.85 2.85 0 012.847-2.847 2.85 2.85 0 012.847 2.847 2.851 2.851 0 01-2.683 2.842H12.4a2.851 2.851 0 01-2.682-2.842zM2.957 5.182c0-1.147.932-2.08 2.079-2.08 1.147 0 2.079.933 2.079 2.08a2.086 2.086 0 01-2.04 2.079h-.08a2.08 2.08 0 01-2.038-2.08zm3.3 6.681H.807a4.26 4.26 0 014.199-3.804h.06A4.216 4.216 0 017.783 9.07a6.547 6.547 0 00-1.526 2.792zm12.032 1.985a1.858 1.858 0 01-1.855 1.854H8.706a1.858 1.858 0 01-1.855-1.854v-.34A5.727 5.727 0 0112.4 7.79c.054.004.114.004.169.004.054 0 .114 0 .17-.004a5.727 5.727 0 015.549 5.718v.34zm.593-1.985a6.53 6.53 0 00-1.51-2.772 4.236 4.236 0 012.741-1.032h.06a4.26 4.26 0 014.199 3.804h-5.49z" fill="#D5DAEA"/></svg><svg fill="none" viewBox="0 0 12 13" id="checked" xmlns="http://www.w3.org/2000/svg"><g clip-path="url(#acclip0)"><path d="M11.824 2.27a.6.6 0 00-.848 0L3.787 9.457 1.024 6.695a.6.6 0 00-.848.848l3.187 3.188a.6.6 0 00.849 0l7.612-7.613a.6.6 0 000-.849z" fill="#D5DAEA"/></g><defs><clipPath id="acclip0"><path fill="#fff" transform="translate(0 .5)" d="M0 0h12v12H0z"/></clipPath></defs></svg><svg fill="none" viewBox="0 0 12 13" id="checked-active" xmlns="http://www.w3.org/2000/svg"><g clip-path="url(#adclip0)"><path d="M11.824 2.27a.6.6 0 00-.848 0L3.787 9.457 1.024 6.695a.6.6 0 00-.848.848l3.187 3.188a.6.6 0 00.849 0l7.612-7.613a.6.6 0 000-.849z" fill="#fff"/></g><defs><clipPath id="adclip0"><path fill="#fff" transform="translate(0 .5)" d="M0 0h12v12H0z"/></clipPath></defs></svg><svg fill="none" viewBox="0 0 20 21" id="comment" xmlns="http://www.w3.org/2000/svg"><path d="M15.75 2.22H2.25A2.243 2.243 0 000 4.47v10.126c0 1.265.984 2.25 2.25 2.25h3.375v2.953c0 .281.176.422.422.422.07 0 .14 0 .246-.07l4.394-3.305h5.063c1.23 0 2.25-.985 2.25-2.25V4.47c0-1.23-1.02-2.25-2.25-2.25zm1.125 12.376c0 .633-.527 1.125-1.125 1.125H10.3l-.316.246-3.234 2.426V15.72h-4.5a1.11 1.11 0 01-1.125-1.125V4.47c0-.598.492-1.125 1.125-1.125h13.5c.598 0 1.125.527 1.125 1.125v10.125zM4.5 8.689a.833.833 0 00-.844.844c0 .492.352.844.844.844a.833.833 0 00.844-.844.855.855 0 00-.844-.844zm4.5 0a.833.833 0 00-.844.844c0 .492.352.844.844.844a.833.833 0 00.844-.844A.855.855 0 009 8.69zm4.5 0a.833.833 0 00-.844.844c0 .492.352.844.844.844a.833.833 0 00.844-.844.856.856 0 00-.844-.844z" fill="#202224"/><path fill-rule="evenodd" clip-rule="evenodd" d="M16.5 7.005c1.933 0 3.5-1.568 3.5-3.502a3.501 3.501 0 10-7 0 3.501 3.501 0 003.5 3.502z" fill="#fff"/><path fill-rule="evenodd" clip-rule="evenodd" d="M16.5 6.616a3.112 3.112 0 003.111-3.114A3.112 3.112 0 1016.5 6.616z" fill="#007AFF"/></svg><svg fill="none" viewBox="0 0 16 16" id="email" xmlns="http://www.w3.org/2000/svg"><path d="M14.594 2.519H1.406C.631 2.519 0 3.149 0 3.925v8.15c0 .775.63 1.406 1.406 1.406h13.188c.775 0 1.406-.63 1.406-1.406v-8.15c0-.775-.63-1.406-1.406-1.406zm-.184.938l-.188.156L8.559 8.33a.872.872 0 01-1.116 0L1.777 3.613l-.187-.156h12.82zM.937 4.133l4.616 3.844-4.615 3.071V4.133zm13.657 8.41H1.406a.47.47 0 01-.46-.375l5.359-3.566.537.448a1.806 1.806 0 002.316 0l.537-.448 5.358 3.566a.47.47 0 01-.46.376zm.469-1.495l-4.616-3.071 4.616-3.844v6.915z" fill="#D5DAEA"/></svg><svg fill="none" viewBox="0 0 16 16" id="eye-password" xmlns="http://www.w3.org/2000/svg"><path d="M15.898 7.689C15.755 7.493 12.35 2.9 8 2.9S.244 7.493.102 7.688a.528.528 0 000 .623C.244 8.507 3.65 13.099 8 13.099s7.755-4.593 7.898-4.788a.527.527 0 000-.622zM8 12.044c-3.204 0-5.98-3.048-6.8-4.045.82-.997 3.589-4.043 6.8-4.043 3.204 0 5.979 3.047 6.8 4.044-.82.997-3.59 4.044-6.8 4.044z" fill="#AFB8D6"/><path d="M8 4.835A3.168 3.168 0 004.835 8 3.169 3.169 0 008 11.165 3.169 3.169 0 0011.165 8 3.168 3.168 0 008 4.835zm0 5.275A2.112 2.112 0 015.89 8c0-1.164.947-2.11 2.11-2.11 1.163 0 2.11.946 2.11 2.11 0 1.163-.947 2.11-2.11 2.11z" fill="#AFB8D6"/></svg><svg fill="none" viewBox="0 0 23 22" id="info" xmlns="http://www.w3.org/2000/svg"><path d="M11.5 1.469c5.07 0 9.281 4.168 9.281 9.281a9.27 9.27 0 01-9.281 9.281 9.243 9.243 0 01-9.281-9.281A9.27 9.27 0 0111.5 1.469zm0-1.375C5.613.094.844 4.906.844 10.75c0 5.887 4.77 10.656 10.656 10.656 5.844 0 10.656-4.77 10.656-10.656C22.156 4.906 17.344.094 11.5.094zM9.953 14.875c-.3 0-.516.258-.516.516v.343c0 .301.215.516.516.516h3.094a.522.522 0 00.515-.516v-.343c0-.258-.257-.516-.515-.516h-.516V8.859c0-.257-.258-.515-.515-.515H9.953c-.3 0-.516.258-.516.515v.344c0 .3.215.516.516.516h.516v5.156h-.516zM11.5 4.562c-.774 0-1.375.645-1.375 1.375 0 .774.601 1.375 1.375 1.375.73 0 1.375-.601 1.375-1.375 0-.73-.645-1.375-1.375-1.375z" fill="#fff"/></svg><svg fill="none" viewBox="0 0 16 17" id="kindergarten" xmlns="http://www.w3.org/2000/svg"><g clip-path="url(#aiclip0)" fill="#D5DAEA"><path d="M15.967 10.431l-1.25-2.5a.312.312 0 00-.28-.173H12.99L8.663 3.431a.932.932 0 00-.35-.221v-.679h1.562a.312.312 0 00.262-.483l-.346-.532.346-.533A.312.312 0 009.875.5H8a.313.313 0 00-.312.312V3.21a.932.932 0 00-.35.22L3.01 7.759H1.563a.312.312 0 00-.28.173l-1.25 2.5a.312.312 0 00.28.452h.312v4.68c0 .172.14.312.313.312H3.71v.313c0 .172.14.312.312.312h7.954c.173 0 .313-.14.313-.313v-.312h2.773c.172 0 .312-.14.312-.313v-4.679h.313a.313.313 0 00.28-.452zM8.313 1.125h.986l-.143.22a.313.313 0 000 .34l.143.221h-.986v-.781zm6.869 9.133H12.29v-.817a.932.932 0 00.792-.266.931.931 0 00.265-.792h.897l.938 1.875zM1.756 8.383h.897a.931.931 0 00.266.792.931.931 0 00.792.266v.817H.818l.938-1.875zm1.955 2.5V14H1.25v-3.117h2.46zM1.25 15.25v-.625h2.46v.625H1.25zm4.874 0h3.75v.625h-3.75v-.625zm.781-3.125h.782v2.5h-.782v-2.5zm2.188 2.5h-.781v-2.5h.78v2.5zm1.406 1.25v-.625a.626.626 0 00-.625-.625h-.156v-2.5a.626.626 0 00-.625-.625H6.906a.626.626 0 00-.625.625v2.5h-.156a.626.626 0 00-.625.625v.625H4.335V9.084l.903-.903a.313.313 0 00-.442-.442l-.994.995a.31.31 0 01-.442 0 .31.31 0 010-.442l4.42-4.42a.31.31 0 01.44 0l4.42 4.42a.31.31 0 010 .442.31.31 0 01-.442 0L8.221 4.757a.313.313 0 00-.442 0l-.994.994a.313.313 0 00.442.442L8 5.419l3.665 3.665v6.791H10.5zm4.25-.625h-2.46v-.625h2.46v.625zm0-4.367V14h-2.46v-3.117h2.46z"/><path d="M8 8.739a1.017 1.017 0 000-2.031 1.017 1.017 0 000 2.03zm0-1.406a.391.391 0 110 .782.391.391 0 010-.782zM9.406 10.258H6.594a.313.313 0 000 .625h2.812a.313.313 0 000-.625zM6.012 6.654a.312.312 0 10-.001.624.312.312 0 000-.624z"/></g><defs><clipPath id="aiclip0"><path fill="#fff" transform="translate(0 .5)" d="M0 0h16v16H0z"/></clipPath></defs></svg><svg fill="none" viewBox="0 0 16 17" id="link-chairman" xmlns="http://www.w3.org/2000/svg"><g clip-path="url(#ajclip0)"><g clip-path="url(#ajclip1)" fill="#D5DAEA"><path d="M1.52 8.5A2.482 2.482 0 014 6.02h3.2V4.5H4c-2.208 0-4 1.792-4 4s1.792 4 4 4h3.2v-1.52H4A2.482 2.482 0 011.52 8.5z"/><path d="M11.2 7.7H4.8v1.6h6.4V7.7z"/><path d="M12 4.5H8.8v1.52H12a2.482 2.482 0 012.48 2.48A2.482 2.482 0 0112 10.98H8.8v1.52H12c2.208 0 4-1.792 4-4s-1.792-4-4-4z"/></g></g><defs><clipPath id="ajclip0"><path fill="#fff" transform="translate(0 .5)" d="M0 0h16v16H0z"/></clipPath><clipPath id="ajclip1"><path fill="#fff" transform="translate(0 .5)" d="M0 0h16v16H0z"/></clipPath></defs></svg><svg fill="none" viewBox="0 0 18 19" id="location" xmlns="http://www.w3.org/2000/svg"><g clip-path="url(#akclip0)" fill="#000"><path d="M9 3.23a3.928 3.928 0 00-3.923 3.923A3.928 3.928 0 009 11.076a3.928 3.928 0 003.923-3.923A3.928 3.928 0 009 3.23zm0 6.791a2.871 2.871 0 01-2.868-2.868A2.871 2.871 0 019 4.285a2.871 2.871 0 012.868 2.868A2.871 2.871 0 019 10.021z"/><path d="M9 .5a6.66 6.66 0 00-6.653 6.653c0 2.116 1.774 5.268 2.832 6.958.696 1.112 1.444 2.17 2.105 2.98C8.347 18.392 8.727 18.5 9 18.5c.277 0 .636-.109 1.695-1.41a31.103 31.103 0 002.107-2.978c1.065-1.695 2.85-4.852 2.85-6.96A6.66 6.66 0 009 .5zm3.07 12.79c-1.364 2.215-2.617 3.712-3.076 4.094-.462-.37-1.694-1.832-3.078-4.087-1.597-2.604-2.514-4.843-2.514-6.144A5.604 5.604 0 019 1.555a5.604 5.604 0 015.598 5.598c0 1.293-.922 3.53-2.528 6.137z"/></g><defs><clipPath id="akclip0"><path fill="#fff" transform="translate(0 .5)" d="M0 0h18v18H0z"/></clipPath></defs></svg><svg fill="none" viewBox="0 0 18 19" id="nav-chat" xmlns="http://www.w3.org/2000/svg"><path d="M15.75.25H2.25A2.243 2.243 0 000 2.5v10.125c0 1.266.984 2.25 2.25 2.25h3.375v2.953c0 .281.176.422.422.422.07 0 .14 0 .246-.07l4.394-3.305h5.063c1.23 0 2.25-.984 2.25-2.25V2.5C18 1.27 16.98.25 15.75.25zm1.125 12.375c0 .633-.527 1.125-1.125 1.125H10.3l-.316.246-3.234 2.426V13.75h-4.5a1.11 1.11 0 01-1.125-1.125V2.5c0-.598.492-1.125 1.125-1.125h13.5c.598 0 1.125.527 1.125 1.125v10.125zM4.5 6.719a.833.833 0 00-.844.843c0 .493.352.844.844.844a.833.833 0 00.844-.844.855.855 0 00-.844-.843zm4.5 0a.833.833 0 00-.844.843c0 .493.352.844.844.844a.833.833 0 00.844-.844A.855.855 0 009 6.72zm4.5 0a.833.833 0 00-.844.843c0 .493.352.844.844.844a.833.833 0 00.844-.844.856.856 0 00-.844-.843z" fill="#202224"/></svg><svg fill="none" viewBox="0 0 23 19" id="nav-events" xmlns="http://www.w3.org/2000/svg"><path d="M22.434 2.5h-3.411c.211-.316.317-.703.317-1.125 0-.598-.527-1.125-1.125-1.125h-3.902a4.504 4.504 0 00-4.5 4.36C8.546 4.292 7.598 3.413 6.93 1.936a.986.986 0 00-.809-.562.999.999 0 00-.809.527c-.386.809-.562 1.723-.562 2.637 0 2.637 1.969 5.027 4.64 5.66.176.07.317-.035.352-.21l.106-.563c.035-.14-.07-.281-.211-.317-2.18-.527-3.762-2.46-3.762-4.57 0-.598.07-1.16.281-1.687 1.02 2.003 2.672 3.023 4.746 3.023l.036-1.125a3.354 3.354 0 013.374-3.375h3.903c0 .492-.281.879-.703 1.055l.703.879.035 3.304a.571.571 0 01-.387.528l-.914.316a.533.533 0 01-.633-.246l-.878-1.336-1.688-.563v3.551c0 .914-.457 1.758-1.125 2.285v5.977h-2.25v-5.66l-3.691-.809-1.125 3.13.843 3.339H4.398l-.773-3.059c0-.105-.035-.175-.035-.28 0-.106.035-.212.07-.317l.95-3.27a2.348 2.348 0 01-.985-1.933c0-.563.176-1.055.492-1.477a4.753 4.753 0 01-.387-1.195 3.63 3.63 0 00-.738.879C1.48 6.473.25 7.738.25 9.25v1.969c0 .176.105.281.281.281h.563c.14 0 .281-.105.281-.281V9.25c0-.738.492-1.371 1.16-1.582-.035.176-.035.387-.035.598 0 .843.281 1.652.844 2.285l-.774 2.601a2.589 2.589 0 00-.035 1.16l.738 3.094c.141.492.598.844 1.125.844h2.004c.739 0 1.266-.668 1.09-1.371l-.773-3.024.703-1.898 1.828.422v4.746a1.11 1.11 0 001.125 1.125h2.25c.598 0 1.125-.492 1.125-1.125v-5.484a4.03 4.03 0 001.125-2.778V7.07l.492.774c.668 1.02 1.758.738 1.969.668l.879-.317c.668-.246 1.16-.879 1.16-1.582l-.035-2.285 3.27-1.3c.245-.141.105-.528-.176-.528zm-5.872 1.125c0-.281-.28-.563-.562-.563a.578.578 0 00-.563.563c0 .316.247.563.563.563a.578.578 0 00.563-.563z" fill="#202224"/></svg><svg fill="none" viewBox="0 0 23 17" id="nav-finance" xmlns="http://www.w3.org/2000/svg"><path d="M22.188.375H.813A.578.578 0 00.25.938V15a1.11 1.11 0 001.125 1.125h20.25c.598 0 1.125-.492 1.125-1.125V.937c0-.28-.281-.562-.563-.562zM21.625 15H1.375V4.875h20.25V15zm0-11.25H1.375V1.5h20.25v2.25zm-17.719 9H8.97c.14 0 .281-.105.281-.281v-.563c0-.14-.14-.281-.281-.281H3.906a.277.277 0 00-.281.281v.563c0 .176.105.281.281.281zm10.125 0h5.063c.14 0 .281-.105.281-.281v-.563c0-.14-.14-.281-.281-.281H14.03a.277.277 0 00-.281.281v.563c0 .176.105.281.281.281zM3.906 9.375h7.313c.14 0 .281-.105.281-.281V8.53c0-.14-.14-.281-.281-.281H3.906a.277.277 0 00-.281.281v.563c0 .176.105.281.281.281zm10.406 0h4.5a.578.578 0 00.563-.563v-2.25c0-.28-.281-.562-.563-.562h-4.5a.578.578 0 00-.562.563v2.25c0 .316.246.562.563.562zm.563-2.25h3.375V8.25h-3.375V7.125z" fill="#202224"/></svg><svg fill="none" viewBox="0 0 23 15" id="nav-invite" xmlns="http://www.w3.org/2000/svg"><path d="M.813 9.5a.578.578 0 00.562-.563.578.578 0 00-.563-.562.555.555 0 00-.562.563c0 .316.246.562.563.562zm21.656-6.75l-4.008.035-1.793-1.758a1.674 1.674 0 00-1.195-.492h-3.551c-.352 0-.703.14-.985.352C10.621.64 10.27.5 9.883.5H7.457C7 .5 6.578.676 6.262.992L4.504 2.75H.53a.277.277 0 00-.281.281v.563c0 .176.105.281.281.281H2.5v6.75H.531a.277.277 0 00-.281.281v.563c0 .176.105.281.281.281H2.5c.598 0 1.09-.492 1.09-1.09h1.195l2.848 2.742a2.807 2.807 0 003.55-.035l.247.246c.351.246.773.422 1.195.422.563 0 1.09-.246 1.441-.703l.774-.95c.598.317 1.512.317 2.11-.421l.35-.422c.212-.246.317-.562.352-.879h1.723c0 .598.492 1.09 1.125 1.09h1.969c.14 0 .281-.105.281-.281v-.563c0-.14-.14-.281-.281-.281H20.5V3.91l1.969-.035c.14 0 .281-.105.281-.281V3.03c0-.14-.14-.281-.281-.281zm-6.047 8.086l-.352.422a.55.55 0 01-.773.07l-.633-.492-1.476 1.793a.727.727 0 01-1.02.105l-1.09-.914-.351.457c-.598.704-1.653.809-2.356.282L5.242 9.535H3.625v-5.66h1.336l2.074-2.074a.649.649 0 01.422-.176h2.426c.035.105.035.035.035.105L7.844 3.63c-.985.914-1.02 2.46-.14 3.41.491.563 2.073 1.406 3.41.176l.808-.738 4.394 3.585c.247.176.282.528.106.774zm2.953-1.3h-2.04a1.375 1.375 0 00-.28-.352l-4.29-3.48.985-.915c.246-.21.246-.562.035-.809a.595.595 0 00-.808-.035L10.34 6.371c-.492.457-1.336.422-1.793-.07a1.285 1.285 0 01.07-1.828L11.535 1.8a.528.528 0 01.387-.14h3.55c.141 0 .282.034.387.14l2.145 2.074h1.371v5.66zm2.813-1.161a.578.578 0 00-.563.563c0 .316.246.562.563.562a.578.578 0 00.562-.563.578.578 0 00-.563-.562z" fill="#202224"/></svg><svg fill="none" viewBox="0 0 19 18" id="nav-list" xmlns="http://www.w3.org/2000/svg"><path d="M3.145 14.348l.632-.704a.668.668 0 00.176-.457v-.14c0-.281-.14-.422-.387-.422H1.563a.277.277 0 00-.282.281v.563c0 .176.106.281.282.281h.773c-.14.14-.246.281-.387.457l-.176.246c-.14.176-.21.352-.105.527l.035.07c.106.177.211.247.422.247h.176c.351 0 .562.105.562.351 0 .141-.14.282-.492.282-.21 0-.387-.035-.562-.106-.211-.14-.422-.14-.563.106l-.176.316c-.14.211-.105.422.106.563.246.175.703.316 1.3.316 1.196 0 1.688-.773 1.688-1.547 0-.492-.316-1.02-1.02-1.23zM1.422 11.5h2.39c.141 0 .282-.105.282-.281v-.563c0-.14-.14-.281-.282-.281h-1.37c.105-.352 1.687-.633 1.687-1.969C4.129 7.386 3.25 7 2.582 7c-.773 0-1.195.352-1.441.668-.141.21-.106.387.105.562l.317.211c.175.176.386.106.562-.07.07-.07.176-.14.316-.14.141 0 .317.07.317.316C2.793 9.004 1 9.32 1 10.973v.14c0 .246.176.387.422.387zm.14-5.625h2.25c.141 0 .282-.105.282-.281V5.03c0-.14-.14-.281-.282-.281H3.25V1.656c0-.14-.14-.281-.281-.281h-.844c-.14.035-.21.07-.281.176l-.282.562v.106c0 .176.106.281.282.281h.281v2.25h-.563a.277.277 0 00-.28.281v.563c0 .176.105.281.28.281zM18.72 3.062H6.906a.277.277 0 00-.281.282v.562c0 .176.105.281.281.281H18.72c.14 0 .281-.105.281-.28v-.563c0-.14-.14-.281-.281-.281zm0 11.25H6.906a.277.277 0 00-.281.282v.562c0 .176.105.281.281.281H18.72c.14 0 .281-.105.281-.28v-.563c0-.14-.14-.281-.281-.281zm0-5.624H6.906a.277.277 0 00-.281.28v.563c0 .176.105.281.281.281H18.72c.14 0 .281-.105.281-.28v-.563c0-.14-.14-.281-.281-.281z" fill="#202224"/></svg><svg fill="none" viewBox="0 0 16 15" id="nav-main" xmlns="http://www.w3.org/2000/svg"><path d="M.688 2.89h14.624a.578.578 0 00.563-.562V.922c0-.281-.281-.563-.563-.563H.688a.578.578 0 00-.563.563v1.406c0 .317.246.563.563.563zm0 5.626h14.624a.578.578 0 00.563-.563V6.547c0-.281-.281-.563-.563-.563H.688a.578.578 0 00-.563.563v1.406c0 .317.246.563.563.563zm0 5.625h14.624a.578.578 0 00.563-.563v-1.406c0-.281-.281-.563-.563-.563H.688a.578.578 0 00-.563.563v1.406c0 .317.246.563.563.563z" fill="#000"/></svg><svg fill="none" viewBox="0 0 19 19" id="nav-rating" xmlns="http://www.w3.org/2000/svg"><path d="M17.938 6.297l-5.133-.738-2.32-4.676c-.387-.809-1.583-.844-2.005 0L6.195 5.559l-5.168.738C.113 6.437-.238 7.563.43 8.23l3.691 3.622-.879 5.097c-.14.914.844 1.617 1.653 1.195L9.5 15.72l4.57 2.426c.809.421 1.793-.282 1.653-1.196l-.88-5.097 3.692-3.622c.668-.668.317-1.793-.598-1.933zm-4.325 5.133l.985 5.695L9.5 14.453l-5.133 2.672.985-5.695-4.149-4.008 5.73-.844L9.5 1.375l2.531 5.203 5.73.844-4.148 4.008z" fill="#202224"/></svg><svg fill="none" viewBox="0 0 23 17" id="nav-vote" xmlns="http://www.w3.org/2000/svg"><path d="M14.629 4.137c-.07-.07-.14-.07-.211-.07a.5.5 0 00-.211.07l-3.762 3.797L8.758 6.21c-.07-.07-.14-.07-.211-.07-.07 0-.14 0-.211.07l-.387.387c-.105.105-.105.28 0 .422l2.285 2.285c.07.07.141.07.211.07s.14 0 .211-.07l4.36-4.36c.105-.14.105-.316 0-.422l-.387-.386zm6.996 5.238h-2.25v-7.91c0-.598-.527-1.09-1.125-1.09H4.75c-.633 0-1.125.492-1.125 1.09v7.91h-2.25C.742 9.375.25 9.902.25 10.5V15a1.11 1.11 0 001.125 1.125h20.25c.598 0 1.125-.492 1.125-1.125v-4.5c0-.598-.527-1.125-1.125-1.125zM4.75 1.5h13.5v10.688H4.75V1.5zM21.625 15H1.375v-4.5h2.25v1.688h-.809c-.175 0-.316.14-.316.28v.563c0 .176.14.281.316.281h17.332c.176 0 .352-.105.352-.28v-.563c0-.14-.176-.281-.352-.281h-.773V10.5h2.25V15z" fill="#202224"/></svg><svg fill="none" viewBox="0 0 20 25" id="notification" xmlns="http://www.w3.org/2000/svg"><path fill-rule="evenodd" clip-rule="evenodd" d="M15.5 8.034c1.933 0 3.5-1.569 3.5-3.503a3.501 3.501 0 00-3.5-3.502A3.501 3.501 0 0012 4.53a3.501 3.501 0 003.5 3.503z" fill="#fff"/><path d="M10 21.375A1.357 1.357 0 018.625 20H7.25A2.715 2.715 0 0010 22.75 2.742 2.742 0 0012.75 20h-1.375c0 .773-.645 1.375-1.375 1.375zm8.98-6.23c-1.203-1.118-2.105-2.32-2.105-6.403 0-3.394-2.75-6.187-6.188-6.531v-.773c0-.344-.343-.688-.687-.688a.707.707 0 00-.688.688v.773c-3.48.344-6.23 3.137-6.23 6.531 0 4.082-.902 5.285-2.105 6.402a2.065 2.065 0 00-.473 2.235c.3.773 1.074 1.246 1.933 1.246h15.126c.816 0 1.59-.473 1.89-1.246.3-.774.129-1.633-.473-2.235zm-1.418 2.105H2.438c-.644 0-.945-.688-.515-1.117 1.504-1.418 2.535-3.008 2.535-7.39C4.457 5.862 6.949 3.5 10 3.5c3.008 0 5.5 2.363 5.5 5.242 0 4.383 1.031 5.973 2.535 7.39.43.43.13 1.118-.473 1.118z" fill="#202224"/><path fill-rule="evenodd" clip-rule="evenodd" d="M15.5 7.644a3.112 3.112 0 003.111-3.113A3.112 3.112 0 1015.5 7.644z" fill="#007AFF"/></svg><svg fill="none" viewBox="0 0 16 17" id="parent" xmlns="http://www.w3.org/2000/svg"><g clip-path="url(#auclip0)" fill="#D5DAEA"><path d="M7.886 8.207c1.059 0 1.976-.38 2.725-1.129a3.73 3.73 0 001.129-2.724 3.73 3.73 0 00-1.13-2.725A3.73 3.73 0 007.887.5C6.827.5 5.91.88 5.161 1.629a3.729 3.729 0 00-1.129 2.725 3.73 3.73 0 001.13 2.724 3.73 3.73 0 002.724 1.13zM5.824 2.292a2.785 2.785 0 012.062-.854c.812 0 1.487.279 2.062.854.575.575.854 1.25.854 2.062 0 .812-.28 1.486-.854 2.061a2.786 2.786 0 01-2.062.855c-.812 0-1.487-.28-2.062-.855a2.785 2.785 0 01-.854-2.061c0-.813.28-1.487.854-2.062zM14.629 12.803a9.526 9.526 0 00-.13-1.01 7.973 7.973 0 00-.248-1.017 5.014 5.014 0 00-.418-.948 3.573 3.573 0 00-.63-.821 2.778 2.778 0 00-.905-.57c-.351-.138-.74-.208-1.156-.208-.163 0-.321.067-.626.265-.188.123-.408.264-.653.421a3.74 3.74 0 01-.844.372c-.342.11-.69.167-1.033.167-.342 0-.69-.056-1.032-.167a3.728 3.728 0 01-.844-.372 89.19 89.19 0 01-.653-.42c-.305-.2-.463-.266-.626-.266-.416 0-.805.07-1.155.209-.352.14-.657.33-.906.569-.237.227-.45.504-.63.82a5.028 5.028 0 00-.417.949c-.1.313-.184.654-.249 1.016a9.458 9.458 0 00-.13 1.012 13.69 13.69 0 00-.032.944c0 .836.266 1.512.79 2.01.517.492 1.2.742 2.033.742h7.704c.832 0 1.516-.25 2.033-.742.524-.498.79-1.174.79-2.01 0-.322-.012-.64-.033-.945zm-1.403 2.276c-.342.325-.796.483-1.387.483H4.135c-.592 0-1.045-.158-1.387-.483-.335-.319-.498-.754-.498-1.33 0-.3.01-.596.03-.88.02-.28.058-.586.117-.911a7.04 7.04 0 01.219-.896c.083-.262.198-.521.34-.771a2.65 2.65 0 01.463-.607c.16-.154.363-.28.602-.374.22-.088.469-.136.738-.143.033.018.092.051.186.113l.66.426c.278.176.634.335 1.06.473.436.14.88.213 1.322.213.44 0 .885-.072 1.32-.213a4.65 4.65 0 001.06-.474c.252-.16.468-.3.66-.425.096-.062.154-.095.187-.113.27.007.518.055.739.143.238.094.44.22.602.374.171.165.327.369.463.607.141.25.256.509.34.77.087.274.16.576.218.897.059.326.098.632.118.91.02.284.03.58.03.88 0 .577-.163 1.012-.498 1.331z"/></g><defs><clipPath id="auclip0"><path fill="#fff" transform="translate(0 .5)" d="M0 0h16v16H0z"/></clipPath></defs></svg><svg fill="none" viewBox="0 0 16 17" id="password-icon" xmlns="http://www.w3.org/2000/svg"><g clip-path="url(#avclip0)" fill="#D5DAEA"><path d="M11.563 11.938a.625.625 0 100-1.25.625.625 0 000 1.25z"/><path d="M14.375 11.813c.345 0 .625-.28.625-.626V8.876c0-1.378-1.121-2.5-2.5-2.5h-.751V4.171C11.749 2.147 10.067.5 7.999.5s-3.75 1.647-3.75 3.67v2.205H3.5a2.503 2.503 0 00-2.5 2.5V14c0 1.379 1.122 2.5 2.5 2.5h9c1.379 0 2.5-1.121 2.5-2.5a.625.625 0 10-1.25 0c0 .69-.56 1.25-1.25 1.25h-9c-.69 0-1.25-.56-1.25-1.25V8.875c0-.69.56-1.25 1.25-1.25h9c.69 0 1.25.56 1.25 1.25v2.313c0 .345.28.624.625.624zm-3.876-5.438h-5V4.171c0-1.335 1.121-2.421 2.5-2.421 1.378 0 2.5 1.086 2.5 2.42v2.205z"/><path d="M6.844 11.938a.625.625 0 100-1.25.625.625 0 000 1.25zM4.5 11.938a.625.625 0 100-1.25.625.625 0 000 1.25zM9.188 11.938a.625.625 0 100-1.25.625.625 0 000 1.25z"/></g><defs><clipPath id="avclip0"><path fill="#fff" transform="translate(0 .5)" d="M0 0h16v16H0z"/></clipPath></defs></svg><svg fill="none" viewBox="0 0 16 16" id="phone" xmlns="http://www.w3.org/2000/svg"><g clip-path="url(#awclip0)" fill="#D5DAEA"><path d="M8 14.528a.544.544 0 100-1.088.544.544 0 000 1.088z"/><path d="M11.138 0H4.861C3.95 0 3.208.742 3.208 1.654v12.692c0 .912.742 1.654 1.653 1.654h6.277c.912 0 1.654-.742 1.654-1.654V1.654C12.792.742 12.05 0 11.138 0zM4.274 3.236h7.451v8.881h-7.45V3.236zm.587-2.17h6.277c.324 0 .587.264.587.588v.515h-7.45v-.515c0-.324.263-.587.586-.587zm6.277 13.867H4.861a.588.588 0 01-.587-.587v-1.162h7.451v1.162a.588.588 0 01-.587.587z"/></g><defs><clipPath id="awclip0"><path fill="#fff" d="M0 0h16v16H0z"/></clipPath></defs></svg><svg fill="none" viewBox="0 0 18 19" id="price" xmlns="http://www.w3.org/2000/svg"><g clip-path="url(#axclip0)"><path d="M14.26.5h-2.857a.527.527 0 00-.481.311A2.111 2.111 0 019 2.055 2.111 2.111 0 017.078.811.527.527 0 006.597.5H3.74a.527.527 0 00-.527.527v16.946c0 .29.236.527.527.527h2.857a.527.527 0 00.48-.311A2.111 2.111 0 019 16.945c.828 0 1.582.488 1.922 1.244.085.19.273.311.48.311h2.857a.527.527 0 00.528-.527V1.027A.527.527 0 0014.259.5zM4.267 1.555h2.01A3.168 3.168 0 009 3.11c1.124 0 2.159-.6 2.723-1.555h2.009V4.88H4.268V1.555zm9.464 15.89h-2.01A3.168 3.168 0 009 15.89c-1.124 0-2.159.6-2.723 1.555h-2.01V5.936h9.465v11.51z" fill="#000"/></g><defs><clipPath id="axclip0"><path fill="#fff" transform="translate(0 .5)" d="M0 0h18v18H0z"/></clipPath></defs></svg><svg fill="none" viewBox="0 0 18 19" id="reference-arrow" xmlns="http://www.w3.org/2000/svg"><path d="M7.422 1.326c-.39.39-.352.977 0 1.367l4.726 4.453H.938A.925.925 0 000 8.084v1.25c0 .547.39.938.938.938h11.21l-4.726 4.492c-.352.39-.352.976 0 1.367l.86.86c.39.35.976.35 1.327 0l7.618-7.618c.351-.352.351-.937 0-1.328L9.609.467c-.351-.352-.937-.352-1.328 0l-.86.86z" fill="#000"/></svg><svg fill="none" viewBox="0 0 16 17" id="school" xmlns="http://www.w3.org/2000/svg"><path d="M15.733 6.9H11.2v-.8a.267.267 0 00-.11-.216L8.267 3.831V2.9H11.2c.147 0 .267-.12.267-.267v-1.6A.267.267 0 0011.2.767H8.267a.267.267 0 00-.534 0V3.83L4.91 5.884a.267.267 0 00-.11.216v.8H.267A.267.267 0 000 7.167v9.066c0 .148.12.267.267.267h15.466c.148 0 .267-.12.267-.267V7.167a.267.267 0 00-.267-.267zM8.267 1.3h2.666v1.067H8.267V1.3zM4.8 15.967H.533V7.433H4.8v8.534zm4.267 0H6.933V13.3h2.134v2.667zm1.6 0H9.6v-2.934a.267.267 0 00-.267-.266H6.667a.267.267 0 00-.267.266v2.934H5.333V6.236L8 4.296l2.667 1.94v9.73zm4.8 0H11.2V7.433h4.267v8.534z" fill="#D5DAEA"/><path d="M2.4 8.233H1.333v.534H2.4v-.534zM4 8.233H2.933v.534H4v-.534zM2.4 9.3H1.333v.533H2.4V9.3zM4 9.3H2.933v.533H4V9.3zM2.4 10.367H1.333v.533H2.4v-.533zM4 10.367H2.933v.533H4v-.533zM2.4 11.433H1.333v.534H2.4v-.534zM4 11.433H2.933v.534H4v-.534zM2.4 12.5H1.333v.533H2.4V12.5zM4 12.5H2.933v.533H4V12.5zM13.067 8.233H12v.534h1.067v-.534zM14.667 8.233H13.6v.534h1.067v-.534zM13.067 9.3H12v.533h1.067V9.3zM14.667 9.3H13.6v.533h1.067V9.3zM13.067 10.367H12v.533h1.067v-.533zM14.667 10.367H13.6v.533h1.067v-.533zM13.067 11.433H12v.534h1.067v-.534zM14.667 11.433H13.6v.534h1.067v-.534zM13.067 12.5H12v.533h1.067V12.5zM14.667 12.5H13.6v.533h1.067V12.5zM6.133 8.5a1.867 1.867 0 103.733 0 1.867 1.867 0 00-3.733 0zm3.2 0a1.333 1.333 0 11-2.666 0 1.333 1.333 0 012.666 0z" fill="#D5DAEA"/><path d="M7.733 8.233H7.2v.534h1.067V7.433h-.534v.8z" fill="#D5DAEA"/></svg><svg fill="none" viewBox="0 0 18 18" id="search" xmlns="http://www.w3.org/2000/svg"><path d="M17.425 16.395L13.14 11.94a7.244 7.244 0 001.705-4.673C14.846 3.26 11.586 0 7.578 0 3.571 0 .311 3.26.311 7.267c0 4.008 3.26 7.268 7.267 7.268a7.19 7.19 0 004.164-1.315l4.317 4.49a.94.94 0 00.683.29.95.95 0 00.683-1.605zm-9.847-14.5a5.378 5.378 0 015.372 5.372 5.378 5.378 0 01-5.372 5.372 5.378 5.378 0 01-5.371-5.372 5.378 5.378 0 015.371-5.371z" fill="#979797"/></svg><svg fill="none" viewBox="0 0 18 19" id="time" xmlns="http://www.w3.org/2000/svg"><g clip-path="url(#bbclip0)" fill="#000"><path d="M12.207 11.09l-2.51-1.883V5.373a.697.697 0 10-1.394 0v4.183c0 .22.103.426.279.558l2.788 2.09a.693.693 0 00.976-.14.696.696 0 00-.14-.975z"/><path d="M9 .5c-4.963 0-9 4.037-9 9s4.037 9 9 9 9-4.037 9-9-4.037-9-9-9zm0 16.606c-4.193 0-7.606-3.413-7.606-7.606S4.807 1.894 9 1.894c4.194 0 7.606 3.413 7.606 7.606S13.193 17.106 9 17.106z"/></g><defs><clipPath id="bbclip0"><path fill="#fff" transform="translate(0 .5)" d="M0 0h18v18H0z"/></clipPath></defs></svg><svg fill="none" viewBox="0 0 32 33" id="upload-file" xmlns="http://www.w3.org/2000/svg"><g clip-path="url(#bcclip0)" fill="#AAB1C6"><path d="M29 .497H3a3 3 0 00-3 3v26a3 3 0 003 3h26a3 3 0 003-3v-26a3 3 0 00-3-3zm1 29a1 1 0 01-1 1H3a1 1 0 01-1-1v-26a1 1 0 011-1h26a1 1 0 011 1v26z"/><path d="M21.71 17.787a1 1 0 00-1.41 0l-2.3 2.3-4.29-4.29a1 1 0 00-1.41 0l-7 7a1 1 0 00.7 1.7h20a1 1 0 00.71-1.71l-5-5zM19 14.497a3 3 0 100-6 3 3 0 000 6z"/></g><defs><clipPath id="bcclip0"><path fill="#fff" transform="translate(0 .497)" d="M0 0h32v32H0z"/></clipPath></defs></svg><svg fill="none" viewBox="0 0 16 17" id="user-icon" xmlns="http://www.w3.org/2000/svg"><g clip-path="url(#bdclip0)" fill="#D5DAEA"><path d="M7.886 8.207c1.059 0 1.976-.38 2.725-1.129a3.73 3.73 0 001.129-2.724 3.73 3.73 0 00-1.13-2.725A3.73 3.73 0 007.887.5C6.827.5 5.91.88 5.161 1.629a3.729 3.729 0 00-1.129 2.725 3.73 3.73 0 001.13 2.724 3.73 3.73 0 002.724 1.13zM5.824 2.292a2.785 2.785 0 012.062-.854c.812 0 1.487.279 2.062.854.575.575.854 1.25.854 2.062 0 .812-.28 1.486-.854 2.061a2.786 2.786 0 01-2.062.855c-.812 0-1.487-.28-2.062-.855a2.785 2.785 0 01-.854-2.061c0-.813.28-1.487.854-2.062zM14.629 12.803a9.522 9.522 0 00-.13-1.01 7.979 7.979 0 00-.248-1.017 5.017 5.017 0 00-.418-.948 3.573 3.573 0 00-.63-.822 2.778 2.778 0 00-.905-.568c-.351-.14-.74-.21-1.156-.21-.163 0-.321.068-.626.266-.188.123-.408.264-.653.42-.21.134-.493.26-.844.373-.342.11-.69.167-1.033.167-.342 0-.69-.056-1.032-.167a3.728 3.728 0 01-.844-.372 89.19 89.19 0 01-.653-.42c-.305-.2-.463-.266-.626-.266-.416 0-.805.07-1.155.209-.352.14-.657.33-.906.569-.237.227-.45.503-.63.82a5.03 5.03 0 00-.417.949c-.1.312-.184.654-.249 1.016a9.455 9.455 0 00-.13 1.011 13.69 13.69 0 00-.032.945c0 .836.266 1.512.79 2.01.517.492 1.2.742 2.033.742h7.704c.832 0 1.516-.25 2.033-.742.524-.498.79-1.174.79-2.01 0-.322-.012-.64-.033-.945zm-1.403 2.276c-.342.325-.796.483-1.387.483H4.135c-.592 0-1.045-.158-1.387-.483-.335-.319-.498-.754-.498-1.33 0-.3.01-.597.03-.88.02-.28.058-.586.117-.911.058-.322.131-.623.219-.896.083-.262.198-.521.34-.771.135-.238.29-.442.463-.607.16-.154.363-.28.602-.374.22-.088.469-.136.738-.143a2.5 2.5 0 01.186.113c.193.125.415.269.66.425.278.177.634.336 1.06.474.436.14.88.212 1.322.212.44 0 .885-.071 1.32-.212a4.65 4.65 0 001.06-.474c.252-.16.468-.3.66-.425.096-.062.154-.095.187-.113.27.007.518.055.739.143.238.094.44.22.602.374.171.164.327.369.463.607.141.25.256.509.34.77.087.274.16.575.218.897.059.326.098.632.118.91.02.284.03.58.03.88 0 .577-.163 1.012-.498 1.331z"/></g><defs><clipPath id="bdclip0"><path fill="#fff" transform="translate(0 .5)" d="M0 0h16v16H0z"/></clipPath></defs></svg></svg>