<svg width="528" height="789" fill="none" xmlns="http://www.w3.org/2000/svg"><g clip-path="url(#clip0)"><path d="M-148.437 788.491s-137.895-121.173-111.112-320.65c27.753-206.554 173.657-316.446 364.047-274.756 155.597 34.101 255.843 12.205 416.745-85.226C785.096-51.98 1125.22 121.037 1036.24 430.714c-43.052 149.839 137.64 223.887-13.62 358.085l-1171.057-.308z" fill="#ECF1FF"/><path d="M267.665 398.87c7.499-24.461 48.719-15.333 48.719-15.333s26.682 44.203 34.844 45.485c8.163 1.333-15.458-42.254-15.458-42.254 15.917-.975 55.709 19.947 55.709 19.947s-4.285 50.357 3.928 49.588c8.214-.769 1.531-44.767 1.531-44.767 15.203 5.179 28.926 23.691 28.926 23.691 16.937 29.947-22.243 50.254-22.243 50.254s-1.122 17.486 8.979 37.895c0 0 2.295 3.795 4.54 10.154l-4.183-.154a49.854 49.854 0 00-1.02-3.282v-.051c-.256-.667-.664-1.59-1.123-2.769-1.173-2.564-1.989-4.462-2.5-5.795-3.571-8.051-8.723-18.512-12.345-20.819 0 0 .51-.616.969-1.898a68.053 68.053 0 01-.969 1.898c-7.704 15.178-43.619 16.511-63.464 11.742-19.845-4.82-10.917-10.153.153-18.973 11.071-8.82 33.518-5.641 40.303-8.974 6.785-3.384-2.806-7.333-16.172-6.717-13.366.564-20.457 13.742-42.037 15.024-21.58 1.334-36.578-39.895-36.578-39.895 14.692 5.128 41.577-2.154 42.802-7.282 1.224-5.128-38.262-5.948-44.333-7.692-6.173-1.846-16.478-14.563-8.978-39.023z" fill="#CDE0FB"/><path d="M290.571 167.394c19.437-37.947 84.379-10.82 84.379-10.82s30.916 80.355 43.925 84.919c13.009 4.564-13.111-73.894-13.111-73.894 26.426 3.026 85.604 49.126 85.604 49.126s-21.682 81.381-7.959 82.56c13.723 1.179 15.509-73.022 15.509-73.022 23.467 12.922 40.557 47.331 40.557 47.331 19.029 54.1-51.066 75.894-51.066 75.894s-6.887 28.357 3.673 64.868c0 0 2.653 6.872 4.489 18.051l-6.836-1.488a67.924 67.924 0 00-.714-5.743v-.154c-.255-1.179-.612-2.82-1.02-4.82-1.225-4.564-1.99-7.897-2.398-10.256-3.52-14.256-8.928-32.973-14.182-37.793 0 0 .969-.923 2.142-2.82a82.949 82.949 0 01-2.142 2.82c-17.04 22.666-76.371 14.307-107.541.564-31.12-13.691-14.999-19.896 5.765-31.126 20.712-11.231 56.627.615 68.718-2.923 12.09-3.539-2.5-12.82-24.59-15.794-22.09-2.975-37.547 16.512-73.36 12.307-35.762-4.205-48.414-76.253-48.414-76.253 22.6 12.769 68.871 8.666 72.34.615 3.469-8.051-61.015-21.024-70.503-25.691-9.438-4.615-22.702-28.511-3.265-66.458z" fill="#AFCDFB"/><path d="M805.266 222.981h-415.98v565.408h415.98V222.981z" fill="#F4F5F8"/><path d="M788.686 234.006H402.295v540.281h386.391V234.006z" fill="#E7EDFF"/><path d="M529.884 270.825H428.67v101.738h101.214V270.825z" fill="#F4F5F8"/><path d="M512.896 470.969h-80.043l57.392-129.327 19.845 44.715 7.245 43.486-4.439 41.126z" fill="#88A0E2"/><path d="M450.402 344.975l12.805-3.333 12.448-4.462s7.244 3.487 12.397 4.462c5.612 1.025 24.334 32.46 24.334 33.793 0 1.333-14.641 94.867-14.641 94.867h-70.657l23.314-125.327z" fill="#F4F5F8"/><path d="M485.501 346.77c-6.326 1.077-15.611-.462-22.294-5.128 3.214-7.282 4.643-13.076 5.153-16.82.051-.205.051-.41.102-.564.255-1.949.255-3.282.153-3.897l16.325.359s4.438 2.153 4.387 3.589c0 .77-.051 1.487-.051 2.154 0 1.897.051 3.538.102 4.974.204 4.615.867 10.205.867 10.205s1.633 4-4.744 5.128z" fill="#FFB27D"/><path d="M489.378 331.437c-12.448 2.103-19.437-4.871-21.018-6.615-.204-.256-.357-.41-.357-.41.153-.051.255-.103.408-.154 4.642-1.743 15.253-.82 21.018 1.487.051 1.846-.102 4.308-.051 5.692z" fill="#E2915A"/><path d="M463.819 319.181c4.184 11.384 19.284 8.41 25.661 6.513 1.786-.513 2.908-.974 2.908-.974 1.99-.923 2.551-4.41 2.347-8.82-.408-8.718-3.877-20.974-5.867-23.897-2.959-4.41-7.907-8.922-22.498-2.512-14.59 6.409-7.958 15.076-2.551 29.69z" fill="#FFB27D"/><path d="M487.491 281.901c-5.153-3.846-9.795-4.666-13.162-4.718-9.948-.153-17.652 4.923-17.703 4.923-11.478 7.641-13.111 17.794-3.928 31.537 9.693 14.564 15.611 11.333 15.611 11.333s-1.123-.359-1.837-5.282c-.051-.256-.051-.513-.102-.718-.102-1.025-.612-1.948-1.479-2.512-1.786-1.129-3.265-5.18-2.143-6.564 1.327-1.692 3.826-.359 4.745.82.765.821 1.938.975 2.856.154 3.47-3.128.102-7.641 3.265-11.281 3.163-3.641 22.243-2 23.519-12.82-.051.102-4.847-1.282-9.642-4.872z" fill="#233862"/><path d="M490.245 341.642s20.049 41.587 22.651 73.688c2.602 32.101 0 55.639 0 55.639s13.06-31.332 14.284-68.458c.562-16.512-2.091-46.357-7.652-51.639-2.755-2.615-10.917-5.077-29.283-9.23zm-22.344 54.971c-.051 4.769-.255 9.692-.561 14.871-1.174 18.051-4.235 38.204-10.612 58.869h-65.606s8.112-19.845 17.958-41.434c1.734-3.794 3.469-7.64 5.305-11.384 7.245-15.383 14.795-29.998 20.305-37.382 14.641-19.64 28.568-38.409 28.568-38.409s5.102 22.409 4.643 54.869z" fill="#AEC3FF"/><path d="M449.892 426.407s-13.468 5.384-40.863 2.461c1.734-3.794 3.469-7.64 5.305-11.384l35.558 8.923zm18.009-29.794c-.051 4.769-.256 9.692-.562 14.871-8.825-.461-40.404-2.205-40.251-2.666.153-.513 2.908-12.615 2.908-12.615s26.528 6.461 37.854 0l.051.41z" fill="#9DB0F4"/><path d="M455.555 410.92s9.387-5.64 13.774-5.333c4.336.257 11.325 1.693 12.397 5.333 1.02 3.693-1.582 1.898-7.397 3.026-3.418.667-5.561 5.641-9.999 6.102-1.735.154-8.724-1.231-8.724-1.231v-7.897h-.051z" fill="#FFB27D"/><path d="M463.207 341.642s-24.079 2.871-30.354 8.82c-10.611 10.051-38.517 48.151-35.762 64.868 1.837 11.077 52.801 11.077 52.801 11.077s6.275-4.103 8.622-7.795c4.693-7.538 3.061-13.076 3.061-13.076l-31.528-10.769s15.356-14.973 27.242-15.742c8.673-.565 5.918-37.383 5.918-37.383z" fill="#AEC3FF"/><path d="M529.884 559.887H428.669v101.739h101.215V559.887z" fill="#F4F5F8"/><path d="M449.076 634.038l12.805-3.334 12.447-4.461s7.245 3.487 12.397 4.461c5.612 1.026 24.335 32.46 24.335 33.793 0 1.334.51 95.534.51 95.534l-85.808-.615 23.314-125.378z" fill="#AEC3FF"/><path d="M484.175 635.832c-6.326 1.077-15.611-.461-22.294-5.128 3.214-7.281 4.642-13.076 5.152-16.819.051-.205.051-.411.102-.564.255-1.949.255-3.282.153-3.898l16.325.359s4.439 2.154 4.388 3.59c0 .769-.051 1.487-.051 2.154 0 1.897 0 3.538.102 4.974.204 4.615.867 10.204.867 10.204s1.632 4-4.744 5.128z" fill="#FFB27D"/><path d="M488.051 620.5c-12.447 2.102-19.436-4.872-21.018-6.615-.204-.257-.357-.411-.357-.411.153-.051.255-.102.408-.153 4.643-1.744 15.254-.821 21.019 1.487.051 1.846-.103 4.307-.052 5.692z" fill="#E2915A"/><path d="M462.493 608.244c4.183 11.384 19.284 8.41 25.661 6.512 1.785-.512 2.908-.974 2.908-.974 1.989-.923 2.55-4.41 2.346-8.82-.408-8.718-3.877-20.973-5.867-23.896-2.958-4.41-7.907-8.923-22.497-2.513-14.591 6.41-7.959 15.076-2.551 29.691z" fill="#FFB27D"/><path d="M486.164 571.015c-5.153-3.846-9.795-4.666-13.162-4.718-9.948-.154-17.651 4.923-17.702 4.923-11.479 7.641-13.111 17.794-3.929 31.537 9.693 14.563 15.611 11.333 15.611 11.333s-1.122-.359-1.836-5.282c-.051-.256-.051-.513-.102-.718-.102-1.026-.613-1.949-1.48-2.513-1.785-1.128-3.265-5.179-2.143-6.563 1.327-1.693 3.827-.359 4.745.82.765.821 1.938.974 2.857.154 3.469-3.128.102-7.641 3.265-11.282 3.163-3.64 22.243-1.999 23.518-12.819-.051.051-4.847-1.334-9.642-4.872z" fill="#A9453D"/><path d="M488.919 630.704s20.049 41.588 22.651 73.689c2.601 32.101 0 55.638 0 55.638s13.06-31.332 14.284-68.458c.561-16.512-2.092-46.357-7.652-51.638-2.755-2.616-10.918-5.077-29.283-9.231zm-27.038 0s-24.08 2.872-30.355 8.82c-10.611 10.051-38.516 48.152-35.762 64.869.613 3.692 14.897 15.025 22.753 16.666 1.99 15.743-2.958 38.972-2.958 38.972l39.792-.615c6.377-20.615 9.437-40.819 10.611-58.869.357-5.128.51-10.102.561-14.871.51-32.46-4.642-54.972-4.642-54.972z" fill="#AEC3FF"/><path d="M465.044 626.397s10.101 8.307 16.07 9.743c0 0-5.561 2.923-22.957-4.923-.052 0 2.499-4.256 6.887-4.82z" fill="#F99746"/><path d="M488.409 625.576s1.122 3.436 2.908 5.692c0 0-1.531 5.539-10.203 4.872-.051 0 7.601-5.538 7.295-10.564z" fill="#F99746"/><path d="M474.226 632.909l11.938-1.487s-.357 7.025-3.979 9.846c-1.276 1.077-8.112-7.077-7.959-8.359z" fill="#F99746"/><path d="M479.583 637.217s2.755 50.305 1.429 72.56c-.715 12.307-2.5 29.999-2.194 31.742.306 1.693 8.417 9.744 8.417 9.744s8.01-7.487 8.163-10.718c.204-3.231 2.449-50.305-11.734-103.79-.459-1.897-4.081.462-4.081.462z" fill="#F99746"/><path d="M463.972 625.576s-3.061.206-8.468 6.513c0 0 8.723 7.538 16.682 9.435 0 0-.306-5.846 2.04-8.563l-10.254-7.385zm24.437 0l-4.184 6.256s4.286 3.231 5.663 7.077c0 0 2.908-4.82 2.653-7.333.051-.051-1.939-5.23-4.132-6z" fill="#C5D7FF"/><path d="M529.884 412.92H428.67v101.739h101.214V412.92z" fill="#F4F5F8"/><path d="M489.786 421.638c-6.224-1.744-14.794-.308-16.172-.154-16.937 1.333-21.681 27.588-20.712 35.024 1.837 13.691-4.795 17.281-12.958 27.845-8.877 11.538-9.948 22.255-7.091 30.357h43.057c9.234-8.153 21.835-19.332 29.742-26.306a13.88 13.88 0 003.01-1.539c17.345-11.999-3.826-61.074-18.876-65.227z" fill="#233862"/><path d="M491.113 483.942c.102.052-7.04 4.359-12.652 3.18-5.306-1.077-10.662-8.308-10.611-8.308 2.193-.564 4.183-3.025 3.316-16.153l1.02.154 16.988 2.257s-.051 5.333.255 10.307c.204 4.205.715 8.153 1.684 8.563z" fill="#FFB27D"/><path d="M489.123 465.072s-.051 5.333.255 10.307c-9.387.307-14.896-7.949-17.243-12.615l16.988 2.308z" fill="#ED975D"/><path d="M492.592 469.584s-22.192 1.795-23.059-12.102c-.867-13.897-4.336-23.024 9.795-24.768 14.131-1.743 17.192 3.385 18.621 7.949 1.377 4.563.357 28.101-5.357 28.921z" fill="#FFB27D"/><path d="M495.551 433.483s-11.223 14.974-20.406 17.948c-9.183 3.026-13.366.769-13.366.769s4.54-5.794 6.275-13.999c.51-2.41 2.244-4.359 4.591-5.077 6.53-2.051 19.182-5.128 22.906.359z" fill="#233862"/><path d="M486.674 434.253s5.561 3.487 7.755 6.512c2.091 2.923 4.183 10.512 3.724 13.794 0 0 4.183-15.64-1.378-21.537-5.866-6.359-10.101 1.231-10.101 1.231z" fill="#233862"/><path d="M511.213 490.711c-.408-1.436-1.276-2.718-2.5-3.897-5.816-5.436-18.927-7.692-18.927-7.692s0 .051-.051.154c-.204.718-1.173 3.538-5.611 3.538-2.959 0-7.5-1.282-14.438-5.384-.051 0-.051-.051-.102-.051 0 0-18.11 1.128-24.385 9.897-3.418 4.769-8.112 15.537-11.989 27.383h84.482c-2.908-10.666-5.561-20.563-6.479-23.948zM630.64 714.854H497.438v2.256H630.64v-2.256zm0 10.717H497.438v2.257H630.64v-2.257zm0 12.974H497.438v2.256H630.64v-2.256zm-188.655-18.922c1.785-2.513 3.673-6.974 2.244-10.102-1.326-2.872-3.877-1.538-5.611.102-2.602 2.462-4.082 5.898-5.204 9.282-1.377 4.102-2.449 8.41-2.908 12.717-.357 3.487-.612 8.821 1.633 11.795 1.887 2.512 4.948.461 7.04-.718 6.632-3.744 12.142-9.692 13.672-17.333.204-.974-1.02-1.897-1.786-1.025-1.53 1.641-2.55 3.692-2.601 5.999-.051 1.282.102 3.282 1.581 3.641 1.786.411 3.163-2.051 3.928-3.23 1.531-2.359 2.5-5.026 2.959-7.846-.663-.205-1.377-.359-2.04-.564-.306 2.051.051 5.641 3.061 5.025 2.856-.615 3.06-5.487 3.162-7.692.052-1.179-1.836-1.487-2.091-.307-.408 1.999-.357 3.948.255 5.845.306.975.765 1.847 1.275 2.77.459.717.817 1.487 1.174 2.307.663 1.641.102 2.359-1.735 2.103a51.693 51.693 0 00-.612 1.589c5-2 10.509-4.717 10.764-10.871.051-1.385-2.091-1.385-2.142 0-.204 5.025-5.153 7.179-9.183 8.769-.663.256-.969.923-.612 1.589 1.173 2.308 4.387 2.103 5.458-.205.714-1.538.357-3.179-.306-4.666-1.377-2.974-2.857-5.179-2.193-8.615-.715-.103-1.378-.205-2.092-.308-.051 1.18-.153 2.308-.459 3.436-.102.41-.204.769-.408 1.179-.357 1.334-.715.872-1.174-1.333.204-1.333-1.836-1.948-2.04-.564-.408 2.615-1.276 5.077-2.704 7.333-.663 1.026-1.633 3.026-1.531.718.051-1.743.817-3.231 1.99-4.461-.612-.359-1.173-.718-1.786-1.026-1.02 5.025-3.775 9.23-7.652 12.564-1.836 1.589-4.234 3.538-6.53 4.307-.918.308-2.347.41-3.163-.41-.306-.308-.408-1.487-.51-1.949-.357-1.692-.459-3.435-.459-5.179.102-5.487 1.632-11.179 3.571-16.307.918-2.461 2.194-4.871 4.081-6.718 2.449-2.307 2.449 1.334 2.092 3.026-.357 1.59-1.123 3.025-2.041 4.359-.969 1.025.867 2.102 1.633.974z" fill="#AEC3FF"/><path d="M340.719 534.812H147.166V766.8h193.553V534.812z" fill="#C3D2FF"/><path d="M258.787 722.821l42.329-20.498-25.329-52.85-42.329 20.497 25.329 52.851zm81.881-67.041v67.74l-8.367-4.871-9.744-5.641-7.856-4.564-2.449-1.436-4.999-2.871 3.163-5.539 17.6-30.665 8.418-14.614 4.234 2.461z" fill="#B0C3F4"/><path d="M297.233 744.178l17.756-43.724-54.032-22.169-17.756 43.724 54.032 22.169z" fill="#B0C3F4"/><path d="M223.201 752.947l38.114-27.619-34.13-47.588-38.114 27.619 34.13 47.588zm117.467-65.271v60.356l-9.234 7.384-25.661-32.409-1.071-1.384-2.347-2.974-.153-.205 8.061-6.41 4.438-3.59 23.671-18.922 2.296-1.846z" fill="#B0C3F4"/><path d="M340.668 694.393v9.846l-18.111 8.769-11.682 5.64-4.133 2-2.04.975-2.5 1.23-2.041-4.205-6.172-12.871-8.265-17.332-8.877-18.461 7.092-3.436 35.251-17.024 8.826 18.409 10.356 21.589 2.296 4.871z" fill="#B0C3F4"/><path d="M340.668 718.649H189.05v47.843h151.618v-47.843z" fill="#B0C3F4"/><path d="M99.84 766.813h188.043V534.824H99.84v231.989z" fill="#D7E1FF"/><path d="M169.527 722.821l42.329-20.497-25.329-52.85-42.329 20.497 25.329 52.85z" fill="#E3EBFF"/><path d="M208.039 702.749l36.545 29.683 36.68-45.629-36.545-29.683-36.68 45.629z" fill="#E3EBFF"/><path d="M207.966 744.178l17.756-43.724-54.031-22.169-17.756 43.724 54.031 22.169z" fill="#E9EFFF"/><path d="M133.943 752.941l38.114-27.62-34.13-47.588-38.114 27.62 34.13 47.588zm78.994-34.507l29.262 36.952 45.662-36.536-29.262-36.952-45.662 36.536z" fill="#E9EFFF"/><path d="M212.936 722.82l42.329-20.497-25.329-52.85-42.329 20.497 25.329 52.85z" fill="#E9EFFF"/><path d="M99.84 766.516h188.043v-47.844H99.84v47.844z" fill="#E9EFFF"/><path d="M287.867 664.651l-11.02 5.333 11.02 22.974v-28.307z" fill="#E3EBFF"/><path d="M287.816 534.812H99.773v40.254h188.043v-40.254z" fill="#F99746"/><path d="M341.382 534.812h-53.515v40.254h53.515v-40.254z" fill="#ED7D2B"/><path d="M152.192 563.402c-1.744 0-3.32-.378-4.728-1.133-1.392-.756-2.488-1.793-3.288-3.112-.784-1.335-1.176-2.831-1.176-4.487 0-1.656.392-3.144 1.176-4.463a8.478 8.478 0 013.288-3.136c1.408-.755 2.984-1.133 4.728-1.133 1.744 0 3.312.378 4.704 1.133a8.478 8.478 0 013.288 3.136c.8 1.319 1.2 2.807 1.2 4.463 0 1.656-.4 3.152-1.2 4.487-.8 1.319-1.896 2.356-3.288 3.112-1.392.755-2.96 1.133-4.704 1.133zm0-3.329c.992 0 1.888-.225 2.688-.675a4.921 4.921 0 001.872-1.93c.464-.82.696-1.753.696-2.798 0-1.045-.232-1.978-.696-2.798a4.757 4.757 0 00-1.872-1.906c-.8-.466-1.696-.699-2.688-.699-.992 0-1.888.233-2.688.699a4.92 4.92 0 00-1.896 1.906c-.448.82-.672 1.753-.672 2.798 0 1.045.224 1.978.672 2.798a5.093 5.093 0 001.896 1.93c.8.45 1.696.675 2.688.675zm27.499-13.846v16.886h-3.864v-13.702h-7.584v13.702h-3.864v-16.886h15.312zm11.437 0c1.488 0 2.776.249 3.864.748 1.104.498 1.952 1.206 2.544 2.123.592.916.888 2.002.888 3.256 0 1.239-.296 2.324-.888 3.257-.592.916-1.44 1.624-2.544 2.123-1.088.482-2.376.723-3.864.723h-3.384v4.656h-3.888v-16.886h7.272zm-.216 9.046c1.168 0 2.056-.249 2.664-.748.608-.514.912-1.238.912-2.171 0-.949-.304-1.672-.912-2.171-.608-.514-1.496-.772-2.664-.772h-3.168v5.862h3.168zm18.327 8.129c-1.744 0-3.32-.378-4.728-1.133-1.392-.756-2.488-1.793-3.288-3.112-.784-1.335-1.176-2.831-1.176-4.487 0-1.656.392-3.144 1.176-4.463a8.478 8.478 0 013.288-3.136c1.408-.755 2.984-1.133 4.728-1.133 1.744 0 3.312.378 4.704 1.133a8.478 8.478 0 013.288 3.136c.8 1.319 1.2 2.807 1.2 4.463 0 1.656-.4 3.152-1.2 4.487-.8 1.319-1.896 2.356-3.288 3.112-1.392.755-2.96 1.133-4.704 1.133zm0-3.329c.992 0 1.888-.225 2.688-.675a4.921 4.921 0 001.872-1.93c.464-.82.696-1.753.696-2.798 0-1.045-.232-1.978-.696-2.798a4.757 4.757 0 00-1.872-1.906c-.8-.466-1.696-.699-2.688-.699-.992 0-1.888.233-2.688.699a4.92 4.92 0 00-1.896 1.906c-.448.82-.672 1.753-.672 2.798 0 1.045.224 1.978.672 2.798a5.093 5.093 0 001.896 1.93c.8.45 1.696.675 2.688.675zm20.131 3.329c-1.712 0-3.264-.37-4.656-1.109a8.573 8.573 0 01-3.264-3.112c-.784-1.335-1.176-2.838-1.176-4.511 0-1.672.392-3.168 1.176-4.487a8.342 8.342 0 013.264-3.112c1.392-.755 2.952-1.133 4.68-1.133 1.456 0 2.768.257 3.936.772a7.882 7.882 0 012.976 2.219l-2.496 2.316c-1.136-1.319-2.544-1.978-4.224-1.978-1.04 0-1.968.233-2.784.699a4.874 4.874 0 00-1.92 1.906c-.448.82-.672 1.753-.672 2.798 0 1.045.224 1.978.672 2.798a5.042 5.042 0 001.92 1.93c.816.45 1.744.675 2.784.675 1.68 0 3.088-.667 4.224-2.002l2.496 2.316a7.777 7.777 0 01-2.976 2.243c-1.184.515-2.504.772-3.96.772z" fill="#fff"/><path d="M287.867 766.492h-9.54v20.102h9.54v-20.102zm52.852 0h-9.54v20.102h9.54v-20.102zm-231.355 0h-9.54v20.102h9.54v-20.102z" fill="#2B478B"/><path d="M172.977 515.046l66.044-5.472-7.166-87.39-66.044 5.472 7.166 87.39z" fill="#fff"/><path d="M175.795 511.687l59.994-4.97-6.679-81.461-59.994 4.97 6.679 81.461z" fill="#E7EDFF"/><path d="M177.237 468.823l31.268-2.59-.042-.511-31.267 2.59.041.511zm.191 2.406l31.268-2.59-.042-.511-31.268 2.59.042.511zm.198 2.464l31.268-2.591-.042-.511-31.267 2.591.041.511zm-.271-12.803l16.828-1.394-.092-1.124-16.829 1.394.093 1.124zm0 2.948l20.489-1.697-.092-1.124-20.489 1.697.092 1.124z" fill="#AEC3FF"/><path d="M214.948 470.64l14.388-1.192-1.186-14.463-14.388 1.192 1.186 14.463z" fill="#fff"/><path d="M225.679 460.867l-3.418 5.692-5.357-8.205 5.765 4.461 3.01-1.948z" fill="#233862"/><path d="M179.562 497.543l31.268-2.59-.042-.511-31.268 2.59.042.511zm.241 2.402l31.268-2.591-.042-.511-31.267 2.591.041.511zm.198 2.463l31.268-2.59-.042-.512-31.268 2.591.042.511zm-.323-12.799l16.829-1.394-.093-1.125-16.828 1.395.092 1.124zm.001 2.949l20.489-1.698-.092-1.124-20.489 1.698.092 1.124z" fill="#AEC3FF"/><path d="M217.323 499.355l14.388-1.192-1.186-14.462-14.388 1.192 1.186 14.462z" fill="#fff"/><path d="M228.026 489.583l-3.469 5.692-5.306-8.205 5.765 4.462 3.01-1.949z" fill="#233862"/><path d="M174.333 445.513l31.268-2.59-.042-.511-31.268 2.59.042.511zm.191 2.406l31.268-2.59-.042-.511-31.268 2.59.042.511zm.193 2.412l31.267-2.591-.042-.511-31.267 2.591.042.511zm-.271-12.802l16.828-1.394-.092-1.124-16.828 1.394.092 1.124zm.004 2.999l20.489-1.697-.092-1.125-20.489 1.698.092 1.124z" fill="#AEC3FF"/><path d="M212.043 447.33l14.388-1.192-1.186-14.463-14.388 1.192 1.186 14.463z" fill="#fff"/><path d="M222.771 437.534l-3.418 5.692-5.357-8.204 5.765 4.461 3.01-1.949z" fill="#233862"/><path d="M160.532 439.739c1.123-.82 2.041-2.615 3.214-3.948.867-1.026 2.551-1.949 2.551-1.949s.153 2.359.357 4.257c3.469-1.282 8.673-2.513 17.039-.872a6.13 6.13 0 014.081 2.718c.868 1.333 1.174 2.974-.969 4.307-4.234 2.667-3.01 1.077-8.928 4.923-5.917 3.846-13.162 4.871-17.447 2.154l-5.816-.975-.714-9.589c0-.102 3.316-.513 6.632-1.026zM8.608 359.282s13.672 16.307 31.068 9.487c0 0 3.724-9.128 3.776-15.794 0-.821 0-1.641.05-2.411.102-7.538.358-11.794.358-11.794-.817-.308-26.63-10.974-26.58-10.102.409 20.461-8.672 30.614-8.672 30.614z" fill="#FFB27D"/><path d="M19.831 333.54c2.5 4.615 11.02 13.691 23.671 17.024.103-7.538.358-11.794.358-11.794-.766-.205-24.794-6.615-24.029-5.23z" fill="#ED975D"/><path d="M49.267 338.001s-29.028 6.871-33.007-11.384c-3.98-18.256-10.407-29.64 7.959-34.819 18.365-5.128 23.518 1.026 26.324 6.769 2.754 5.795 6.172 37.178-1.276 39.434z" fill="#FFB27D"/><path d="M17.23 331.591c-.409.256-6.632 2.205-18.468-21.537-1.837-3.744-3.112-11.743 1.224-18.871 4.337-7.128 19.692-12.717 32.446-15.128 12.754-2.41 15.815 4.769 18.825 12.051 3.163 7.589 12.244 13.897 12.244 13.897-11.02 6.153-24.233-2.667-28.824-1.231-4.591 1.436-6.224 8.718-6.581 11.076-.357 2.308-.867 4.257-6.632 2.205-5.765-2.102-2.602 8.205-1.684 10.205-.05-.051.766 5.179-2.55 7.333z" fill="#A9453D"/><path d="M64.827 786.543H18.199c-.46-.103-.765-.205-.97-.308-3.111-1.59-2.142-13.538-1.785-17.23a25.28 25.28 0 01.102-1.077s16.376-13.179 18.672-3.077c.05.308.153.616.255.923 2.857 9.436 15.56 13.743 22.906 14.923 5.611.923 7.09 4.205 7.448 5.846z" fill="#2C3A64"/><path d="M55.44 516.351s-2.5 31.229-5.407 68.766c-3.98 50.972-8.775 113.584-9.234 125.429-.817 20.615-4.082 53.536-4.082 53.536s-7.805 7.846-23.365 4.513c0 0-13.876-47.023-17.855-96.816-.051-.82-.102-1.641-.204-2.461-3.673-50.664-9.438-157.326-9.438-157.326l69.585 4.359z" fill="#F99746"/><path d="M55.44 516.351s-2.5 31.229-5.407 68.766L-4.504 671.83c-.051-.82-.102-1.641-.204-2.461-3.673-50.664-9.438-157.325-9.438-157.325l69.585 4.307z" fill="#ED7D2B"/><path d="M44.064 520.094S-.83 633.166-30.317 686.291c-29.487 53.126-38.72 67.946-38.72 67.946s-16.887-6.821-18.417-11.436c0 0 11.274-102.559 31.017-127.583 11.172-14.153 24.283-56.51 24.896-71.381.612-14.82 3.979-44.152 3.979-44.152l71.626 20.409z" fill="#F99746"/><path d="M-63.477 504.813c4.948 1.59 5.765 1.231 5.765 1.231s24.181-44.254 26.63-48.305c2.449-4.052 51.321-49.588 51.321-49.588L7.69 361.077s-55.606 72.355-61.575 82.714c-9.897 17.178-15.713 57.022-15.713 57.022s2.245 2.769 6.122 4z" fill="#1E3D70"/><path d="M64.93 426.663c-.154 9.692-.715 20.512-1.48 31.588-.051.667-.102 1.334-.153 1.949-.46 6.82-2.551 30.665-2.653 31.639-2.449 25.025-5 44.819-5.51 45.126-.561.359-1.224.565-1.888.513-6.53-.82-26.017.667-41.985-2.82-13.468-2.872-25.049-8.256-37.343-15.538-1.633-.974-5.357-3.538-5.051-5.435.306-2.103.867-5.128 1.53-8.974 2.398-13.333 6.581-36.204 8.01-63.023.255-4.974.663-9.948 1.224-14.768 1.378-12.615 3.571-24.615 6.53-35.281 5.459-19.794 13.52-34.972 23.57-40.869 1.326-.718 8.417 3.794 14.896 7.999 6.02 3.897 12.346 4.923 18.518 4.41l5.408 6c6.581 7.692 13.57 17.896 15.458 32.409.153 1.076.255 2.205.357 3.435.561 5.795.714 13.282.561 21.64z" fill="#2A4E96"/><path d="M64.93 426.663c-.154 9.692-.715 20.512-1.48 31.588-.051.667-.102 1.334-.153 1.949-37.344-23.486-43.057-66.407-43.057-66.407 18.365.821 32.956 5.025 44.179 11.128.51 5.897.663 13.384.51 21.742z" fill="#1E3D70"/><path d="M159.155 445.124c.408-5.538-2.5-6.513-2.5-6.513s-56.27-10.256-61.015-11.743c-4.795-1.487-45.659-44.254-45.659-44.254s-15.661-17.743-28.517-13.845c-11.172 3.384-15.509 12.153-16.988 20.46-1.786 9.948 2.806 19.897 11.325 25.178 19.182 11.846 57.648 35.178 66.677 37.845 20.152 5.948 74.279.461 74.279.461s2.143-3.179 2.398-7.589z" fill="#2A4E96"/><path d="M169.307 368.256h-49.944v-50.203h49.944v50.203zm-47.853-2.103h45.812v-46.049h-45.812v46.049z" fill="#AFCDFB"/><path d="M127.729 337.181l16.274 22.511 19.335-35.998-22.447 20.512-13.162-7.025zm115.295-29.64H193.08v-50.203h49.944v50.203zm-47.852-2.103h45.812V259.39h-45.812v46.048z" fill="#AFCDFB"/><path d="M201.447 276.466l16.273 22.511 19.335-35.947-22.446 20.512-13.162-7.076z" fill="#AFCDFB"/></g><defs><clipPath id="clip0"><path fill="#fff" transform="translate(.5)" d="M0 0h527.5v789H0z"/></clipPath></defs></svg>