<svg width="528" height="789" fill="none" xmlns="http://www.w3.org/2000/svg"><g clip-path="url(#clip0)"><path d="M-384.437 788.491s-137.895-121.173-111.112-320.65c27.753-206.554 173.657-316.446 364.047-274.756 155.597 34.101 255.843 12.205 416.745-85.226C549.096-51.98 889.216 121.037 800.245 430.714c-43.057 149.839 137.64 223.887-13.621 358.085l-1171.061-.308z" fill="#ECF1FF"/><path d="M469.99 250.467s85.655-87.021 111.009-68.202c25.355 18.871-111.009 68.202-111.009 68.202zm-5.867 16.409s161.872-78.868 201.919-41.023c39.997 37.844-44.026 35.588-75.196 32.203-31.222-3.435-126.723 8.82-126.723 8.82zm-7.448-17.896s.663-4.154 1.53-10.307c1.684-11.897 4.235-31.23 4.49-41.229.357-15.128 12.141-26.255 25.865-11.282 13.723 14.974-26.886 58.459-26.886 58.459l-4.999 4.359z" fill="#AFCDFB"/><path d="M31.665 398.87c7.499-24.461 48.72-15.333 48.72-15.333s26.68 44.203 34.843 45.485c8.162 1.333-15.458-42.254-15.458-42.254 15.917-.975 55.709 19.947 55.709 19.947s-4.285 50.357 3.928 49.588c8.214-.769 1.531-44.767 1.531-44.767 15.202 5.179 28.926 23.691 28.926 23.691 16.937 29.947-22.243 50.254-22.243 50.254s-1.123 17.486 8.979 37.895c0 0 2.295 3.795 4.54 10.154l-4.183-.154a49.254 49.254 0 00-1.021-3.282v-.051c-.255-.667-.663-1.59-1.122-2.769-1.173-2.564-1.99-4.462-2.5-5.795-3.571-8.051-8.723-18.512-12.345-20.819 0 0 .51-.616.969-1.898a68.053 68.053 0 01-.969 1.898c-7.704 15.178-43.619 16.511-63.464 11.742-19.845-4.82-10.917-10.153.153-18.973 11.071-8.82 33.517-5.641 40.303-8.974 6.785-3.384-2.806-7.333-16.172-6.717-13.366.564-20.458 13.742-42.037 15.024-21.58 1.334-36.578-39.895-36.578-39.895 14.692 5.128 41.577-2.154 42.802-7.282 1.224-5.128-38.262-5.948-44.333-7.692-6.173-1.846-16.478-14.563-8.979-39.023zm628.663 30.716c-7.601-19.742-41.016-9.794-41.016-9.794s-19.437 37.998-26.069 39.536c-6.632 1.539 10.305-35.742 10.305-35.742-13.162.103-44.74 19.692-44.74 19.692s6.428 41.228-.409 41.126c-6.836-.154-3.826-36.819-3.826-36.819-12.243 5.128-22.498 21.179-22.498 21.179-12.243 25.691 21.223 40.1 21.223 40.1s1.939 14.359-5.204 31.794c0 0-1.683 3.281-3.163 8.666l3.418-.359c.204-.974.409-1.897.664-2.769v-.052a60.07 60.07 0 00.765-2.307c.816-2.205 1.377-3.795 1.734-4.923 2.5-6.82 6.122-15.794 8.979-17.845 0 0-.459-.513-.918-1.487.306.461.612.974.918 1.487 7.193 12.05 36.884 11.076 52.954 5.948s8.418-9.025-1.224-15.64-27.957-2.667-33.721-5.077c-5.765-2.41 1.887-6.205 12.957-6.512 11.02-.308 17.652 10.102 35.507 9.948 17.856-.154 27.855-35.024 27.855-35.024-11.836 5.077-34.385.615-35.711-3.487-1.276-4.154 31.17-7.128 36.068-8.923 4.948-1.897 12.754-12.973 5.152-32.716z" fill="#CDE0FB"/><path d="M54.57 167.394c19.437-37.947 84.38-10.82 84.38-10.82s30.916 80.355 43.925 84.919c13.009 4.564-13.111-73.894-13.111-73.894 26.426 3.026 85.604 49.126 85.604 49.126s-21.682 81.381-7.959 82.56c13.723 1.179 15.509-73.022 15.509-73.022 23.467 12.922 40.557 47.331 40.557 47.331 19.029 54.1-51.066 75.894-51.066 75.894s-6.887 28.357 3.673 64.868c0 0 2.653 6.872 4.489 18.051l-6.836-1.488a67.924 67.924 0 00-.714-5.743v-.154c-.255-1.179-.612-2.82-1.02-4.82-1.225-4.564-1.99-7.897-2.398-10.256-3.52-14.256-8.928-32.973-14.182-37.793 0 0 .969-.923 2.142-2.82a82.949 82.949 0 01-2.142 2.82c-17.04 22.666-76.371 14.307-107.541.564-31.12-13.691-14.999-19.896 5.765-31.126 20.712-11.231 56.627.615 68.718-2.923 12.09-3.539-2.5-12.82-24.59-15.794-22.09-2.975-37.547 16.512-73.36 12.307-35.762-4.205-48.414-76.253-48.414-76.253 22.6 12.769 68.871 8.666 72.34.615 3.469-8.051-61.014-21.024-70.503-25.691-9.438-4.615-22.702-28.511-3.265-66.458z" fill="#AFCDFB"/><path d="M569.266 222.981h-415.98v565.408h415.98V222.981z" fill="#F4F5F8"/><path d="M552.686 234.006H166.295v540.281h386.391V234.006z" fill="#E7EDFF"/><path d="M293.884 270.825H192.67v101.738h101.214V270.825z" fill="#F4F5F8"/><path d="M276.896 470.969h-80.043l57.392-129.327 19.845 44.715 7.244 43.486-4.438 41.126z" fill="#88A0E2"/><path d="M214.402 344.975l12.805-3.333 12.448-4.462s7.244 3.487 12.397 4.462c5.611 1.025 24.334 32.46 24.334 33.793 0 1.333-14.641 94.867-14.641 94.867h-70.657l23.314-125.327z" fill="#F4F5F8"/><path d="M249.501 346.77c-6.326 1.077-15.611-.462-22.294-5.128 3.214-7.282 4.642-13.076 5.153-16.82.051-.205.051-.41.102-.564.255-1.949.255-3.282.153-3.897l16.325.359s4.438 2.153 4.387 3.589c0 .77-.051 1.487-.051 2.154 0 1.897.051 3.538.102 4.974.204 4.615.867 10.205.867 10.205s1.633 4-4.744 5.128z" fill="#FFB27D"/><path d="M253.378 331.437c-12.448 2.103-19.437-4.871-21.018-6.615a5.354 5.354 0 00-.358-.41c.153-.051.256-.103.409-.154 4.642-1.743 15.253-.82 21.018 1.487.051 1.846-.102 4.308-.051 5.692z" fill="#E2915A"/><path d="M227.819 319.181c4.183 11.384 19.284 8.41 25.661 6.513 1.786-.513 2.908-.974 2.908-.974 1.989-.923 2.551-4.41 2.347-8.82-.409-8.718-3.878-20.974-5.867-23.897-2.959-4.41-7.908-8.922-22.498-2.512-14.59 6.409-7.958 15.076-2.551 29.69z" fill="#FFB27D"/><path d="M251.49 281.901c-5.152-3.846-9.795-4.666-13.162-4.718-9.948-.153-17.651 4.923-17.702 4.923-11.478 7.641-13.111 17.794-3.928 31.537 9.693 14.564 15.611 11.333 15.611 11.333s-1.123-.359-1.837-5.282c-.051-.256-.051-.513-.102-.718-.102-1.025-.612-1.948-1.479-2.512-1.786-1.129-3.265-5.18-2.143-6.564 1.326-1.692 3.826-.359 4.744.82.766.821 1.939.975 2.857.154 3.469-3.128.102-7.641 3.265-11.281 3.163-3.641 22.243-2 23.518-12.82-.051.102-4.846-1.282-9.642-4.872z" fill="#233862"/><path d="M254.245 341.642s20.049 41.587 22.651 73.688c2.602 32.101 0 55.639 0 55.639s13.06-31.332 14.284-68.458c.561-16.512-2.091-46.357-7.652-51.639-2.755-2.615-10.917-5.077-29.283-9.23zM231.9 396.613c-.051 4.769-.255 9.692-.561 14.871-1.173 18.051-4.234 38.204-10.611 58.869h-65.606s8.112-19.845 17.958-41.434c1.734-3.794 3.469-7.64 5.305-11.384 7.244-15.383 14.795-29.998 20.304-37.382 14.642-19.64 28.569-38.409 28.569-38.409s5.102 22.409 4.642 54.869z" fill="#AEC3FF"/><path d="M213.892 426.407s-13.468 5.384-40.863 2.461c1.734-3.794 3.469-7.64 5.305-11.384l35.558 8.923zm18.008-29.794c-.051 4.769-.255 9.692-.561 14.871-8.825-.461-40.404-2.205-40.251-2.666.153-.513 2.908-12.615 2.908-12.615s26.528 6.461 37.853 0l.051.41z" fill="#9DB0F4"/><path d="M219.555 410.92s9.387-5.64 13.774-5.333c4.336.257 11.325 1.693 12.397 5.333 1.02 3.693-1.582 1.898-7.398 3.026-3.418.667-5.56 5.641-9.999 6.102-1.734.154-8.723-1.231-8.723-1.231v-7.897h-.051z" fill="#FFB27D"/><path d="M227.207 341.642s-24.079 2.871-30.354 8.82c-10.611 10.051-38.517 48.151-35.762 64.868 1.836 11.077 52.801 11.077 52.801 11.077s6.275-4.103 8.621-7.795c4.694-7.538 3.061-13.076 3.061-13.076l-31.527-10.769s15.356-14.973 27.242-15.742c8.673-.565 5.918-37.383 5.918-37.383zm220.285-8.359H320.667v2.564h126.825v-2.564zm0 11.948H320.667v2.564h126.825v-2.564zm0 12.102H320.667v2.564h126.825v-2.564z" fill="#AEC3FF"/><path d="M359.49 263.184h-38.823v39.024h38.823v-39.024z" fill="#F4F5F8"/><path d="M447.492 293.695h-49.179v4.513h49.179v-4.513zm0 10.513H387.6v4.512h59.892v-4.512z" fill="#AEC3FF"/><path d="M293.884 559.887H192.67v101.739h101.214V559.887z" fill="#F4F5F8"/><path d="M213.076 634.038l12.805-3.334 12.447-4.461s7.245 3.487 12.397 4.461c5.612 1.026 24.335 32.46 24.335 33.793 0 1.334.51 95.534.51 95.534l-85.808-.615 23.314-125.378z" fill="#AEC3FF"/><path d="M248.175 635.832c-6.326 1.077-15.611-.461-22.294-5.128 3.214-7.281 4.642-13.076 5.152-16.819.051-.205.051-.411.102-.564.255-1.949.255-3.282.153-3.898l16.325.359s4.439 2.154 4.388 3.59c0 .769-.051 1.487-.051 2.154 0 1.897 0 3.538.102 4.974.204 4.615.867 10.204.867 10.204s1.632 4-4.744 5.128z" fill="#FFB27D"/><path d="M252.051 620.5c-12.447 2.102-19.436-4.872-21.018-6.615-.204-.257-.357-.411-.357-.411.153-.051.255-.102.408-.153 4.643-1.744 15.254-.821 21.018 1.487.051 1.846-.102 4.307-.051 5.692z" fill="#E2915A"/><path d="M226.493 608.244c4.183 11.384 19.284 8.41 25.661 6.512 1.785-.512 2.908-.974 2.908-.974 1.989-.923 2.55-4.41 2.346-8.82-.408-8.718-3.877-20.973-5.867-23.896-2.958-4.41-7.907-8.923-22.497-2.513-14.591 6.41-7.959 15.076-2.551 29.691z" fill="#FFB27D"/><path d="M250.164 571.015c-5.153-3.846-9.795-4.666-13.162-4.718-9.948-.154-17.651 4.923-17.702 4.923-11.479 7.641-13.111 17.794-3.929 31.537 9.693 14.563 15.611 11.333 15.611 11.333s-1.122-.359-1.836-5.282c-.051-.256-.051-.513-.102-.718-.102-1.026-.613-1.949-1.48-2.513-1.785-1.128-3.265-5.179-2.143-6.563 1.327-1.693 3.827-.359 4.745.82.765.821 1.938.974 2.857.154 3.469-3.128.102-7.641 3.265-11.282 3.163-3.64 22.243-1.999 23.518-12.819-.051.051-4.847-1.334-9.642-4.872z" fill="#A9453D"/><path d="M252.919 630.704s20.049 41.588 22.651 73.689c2.601 32.101 0 55.638 0 55.638s13.06-31.332 14.284-68.458c.561-16.512-2.092-46.357-7.652-51.638-2.755-2.616-10.918-5.077-29.283-9.231zm-27.038 0s-24.08 2.872-30.355 8.82c-10.611 10.051-38.516 48.152-35.762 64.869.613 3.692 14.897 15.025 22.753 16.666 1.99 15.743-2.958 38.972-2.958 38.972l39.792-.615c6.377-20.615 9.437-40.819 10.611-58.869.357-5.128.51-10.102.561-14.871.51-32.46-4.642-54.972-4.642-54.972z" fill="#AEC3FF"/><path d="M229.044 626.397s10.101 8.307 16.07 9.743c0 0-5.561 2.923-22.957-4.923-.052 0 2.499-4.256 6.887-4.82z" fill="#F99746"/><path d="M252.409 625.576s1.122 3.436 2.908 5.692c0 0-1.531 5.539-10.203 4.872-.051 0 7.601-5.538 7.295-10.564z" fill="#F99746"/><path d="M238.226 632.909l11.938-1.487s-.357 7.025-3.979 9.846c-1.276 1.077-8.112-7.077-7.959-8.359z" fill="#F99746"/><path d="M243.583 637.217s2.755 50.305 1.429 72.56c-.715 12.307-2.5 29.999-2.194 31.742.306 1.693 8.417 9.744 8.417 9.744s8.01-7.487 8.163-10.718c.204-3.231 2.449-50.305-11.734-103.79-.459-1.897-4.081.462-4.081.462z" fill="#F99746"/><path d="M227.972 625.576s-3.061.206-8.468 6.513c0 0 8.723 7.538 16.682 9.435 0 0-.306-5.846 2.04-8.563l-10.254-7.385zm24.437 0l-4.184 6.256s4.286 3.231 5.663 7.077c0 0 2.908-4.82 2.653-7.333.051-.051-1.939-5.23-4.132-6z" fill="#C5D7FF"/><path d="M454.787 632.499h-134.12v2.564h134.12v-2.564zm0 11.948h-134.12v2.564h134.12v-2.564zm0 12.102h-134.12v2.564h134.12v-2.564z" fill="#AEC3FF"/><path d="M359.49 562.4h-38.823v39.024h38.823V562.4z" fill="#F4F5F8"/><path d="M454.787 592.911h-51.985v4.513h51.985v-4.513zm-.051 10.513h-63.31v4.512h63.31v-4.512z" fill="#AEC3FF"/><path d="M293.884 412.92H192.669v101.739h101.215V412.92z" fill="#F4F5F8"/><path d="M253.786 421.638c-6.224-1.744-14.794-.308-16.172-.154-16.937 1.333-21.681 27.588-20.712 35.024 1.836 13.691-4.796 17.281-12.958 27.845-8.877 11.538-9.948 22.255-7.091 30.357h43.057c9.234-8.153 21.834-19.332 29.742-26.306a13.902 13.902 0 003.01-1.539c17.345-11.999-3.826-61.074-18.876-65.227z" fill="#233862"/><path d="M255.112 483.942c.102.052-7.04 4.359-12.651 3.18-5.306-1.077-10.663-8.308-10.612-8.308 2.194-.564 4.184-3.025 3.316-16.153l1.021.154 16.988 2.257s-.051 5.333.255 10.307c.204 4.205.714 8.153 1.683 8.563z" fill="#FFB27D"/><path d="M253.123 465.072s-.051 5.333.255 10.307c-9.387.307-14.897-7.949-17.243-12.615l16.988 2.308z" fill="#ED975D"/><path d="M256.592 469.584s-22.192 1.795-23.059-12.102c-.867-13.897-4.336-23.024 9.795-24.768 14.131-1.743 17.192 3.385 18.621 7.949 1.377 4.563.357 28.101-5.357 28.921z" fill="#FFB27D"/><path d="M259.551 433.483s-11.224 14.974-20.406 17.948c-9.183 3.026-13.366.769-13.366.769s4.54-5.794 6.275-13.999c.51-2.41 2.244-4.359 4.591-5.077 6.53-2.051 19.182-5.128 22.906.359z" fill="#233862"/><path d="M250.674 434.253s5.561 3.487 7.755 6.512c2.091 2.923 4.183 10.512 3.724 13.794 0 0 4.183-15.64-1.378-21.537-5.867-6.359-10.101 1.231-10.101 1.231z" fill="#233862"/><path d="M275.213 490.711c-.408-1.436-1.276-2.718-2.5-3.897-5.816-5.436-18.927-7.692-18.927-7.692s0 .051-.051.154c-.204.718-1.173 3.538-5.612 3.538-2.958 0-7.499-1.282-14.437-5.384-.051 0-.051-.051-.102-.051 0 0-18.11 1.128-24.385 9.897-3.418 4.769-8.112 15.537-11.989 27.383h84.482c-2.908-10.666-5.561-20.563-6.479-23.948zm177.074-6.153h-131.62v2.564h131.62v-2.564zm0 11.897h-131.62v2.564h131.62v-2.564zm0 12.102h-131.62v2.564h131.62v-2.564z" fill="#AEC3FF"/><path d="M359.49 414.407h-38.823v39.024h38.823v-39.024z" fill="#F4F5F8"/><path d="M447.543 444.919H392.65v4.512h54.893v-4.512zm0 10.512h-66.83v4.513h66.83v-4.513z" fill="#AEC3FF"/><path d="M328.014 430.56l12.09 16.718 14.336-26.717-16.682 15.281-9.744-5.282z" fill="#233862"/><path d="M394.64 714.854H261.438v2.256H394.64v-2.256zm0 10.717H261.438v2.257H394.64v-2.257zm0 12.974H261.438v2.256H394.64v-2.256zm-188.655-18.922c1.785-2.513 3.673-6.974 2.244-10.102-1.326-2.872-3.877-1.538-5.611.102-2.602 2.462-4.082 5.898-5.204 9.282-1.377 4.102-2.449 8.41-2.908 12.717-.357 3.487-.612 8.821 1.633 11.795 1.887 2.512 4.948.461 7.04-.718 6.632-3.744 12.141-9.692 13.672-17.333.204-.974-1.02-1.897-1.786-1.025-1.53 1.641-2.55 3.692-2.601 5.999-.051 1.282.102 3.282 1.581 3.641 1.786.411 3.163-2.051 3.928-3.23 1.531-2.359 2.5-5.026 2.959-7.846-.663-.205-1.377-.359-2.04-.564-.307 2.051.051 5.641 3.06 5.025 2.857-.615 3.061-5.487 3.163-7.692.051-1.179-1.836-1.487-2.091-.307-.408 1.999-.357 3.948.255 5.845.306.975.765 1.847 1.275 2.77.459.717.816 1.487 1.174 2.307.663 1.641.102 2.359-1.735 2.103a51.693 51.693 0 00-.612 1.589c4.999-2 10.509-4.717 10.764-10.871.051-1.385-2.092-1.385-2.143 0-.204 5.025-5.152 7.179-9.182 8.769-.664.256-.97.923-.612 1.589 1.173 2.308 4.387 2.103 5.458-.205.714-1.538.357-3.179-.306-4.666-1.377-2.974-2.857-5.179-2.194-8.615-.714-.103-1.377-.205-2.091-.308-.051 1.18-.153 2.308-.459 3.436-.102.41-.204.769-.408 1.179-.358 1.334-.715.872-1.174-1.333.204-1.333-1.836-1.948-2.04-.564-.409 2.615-1.276 5.077-2.704 7.333-.663 1.026-1.633 3.026-1.531.718.051-1.743.817-3.231 1.99-4.461-.612-.359-1.173-.718-1.786-1.026-1.02 5.025-3.775 9.23-7.652 12.564-1.837 1.589-4.234 3.538-6.53 4.307-.918.308-2.347.41-3.163-.41-.306-.308-.408-1.487-.51-1.949-.357-1.692-.459-3.435-.459-5.179.102-5.487 1.632-11.179 3.571-16.307.918-2.461 2.194-4.871 4.081-6.718 2.449-2.307 2.449 1.334 2.092 3.026-.357 1.59-1.123 3.025-2.041 4.359-.969 1.025.867 2.102 1.633.974z" fill="#AEC3FF"/><path d="M446.676 780.953c-.408 5.231-7.755 5.282-16.121 4.308-8.367-.975-6.122 1.128-17.856 1.333-11.733.154-15.763-3.743-16.325-5.384-.51-1.487 5.153-2.769 11.173-4.205.765-.205 1.53-.359 2.295-.564 6.786-1.744 11.326-6.872 17.142-11.333 5.509-4.256 12.6-19.538 12.6-19.538l16.019-.717s-6.734 13.742-9.284 19.64c-1.48 3.487-.868 7.743-.205 11.025.358 1.743.715 3.589.562 5.435z" fill="#FFB27D"/><path d="M430.555 785.261c-8.367-.975-6.122 1.128-17.856 1.333-11.733.154-15.764-3.743-16.325-5.384-.51-1.487 5.153-2.769 11.173-4.205l.051.102s7.55 4.051 17.192 3.077c7.856-.769 15.866-4.102 21.324-4.666.357 1.794.715 3.589.562 5.487-.358 5.179-7.755 5.23-16.121 4.256z" fill="#233862"/><path d="M557.175 782.03c-.357 5.231-7.754 5.333-16.121 4.359-8.366-.974-6.122 1.179-17.855 1.333-11.734.154-15.764-3.692-16.325-5.384-.51-1.487 5.152-2.769 11.172-4.256.765-.206 1.531-.359 2.296-.565 6.785-1.743 11.325-6.871 17.141-11.332 5.51-4.256 0-29.332 0-29.332l17.601-1.744s-.868 21.128-.817 30.717c0 3.794 1.735 7.435 2.398 10.717.306 1.795.612 3.641.51 5.487z" fill="#FFB27D"/><path d="M541.054 786.389c-8.366-.974-6.122 1.179-17.855 1.333-11.734.154-15.764-3.692-16.325-5.384-.51-1.487 5.152-2.769 11.172-4.256l.051.102s7.551 4.051 17.193 3.077c7.856-.821 15.865-4.102 21.273-4.718.357 1.795.714 3.59.561 5.436-.357 5.333-7.703 5.384-16.07 4.41z" fill="#233862"/><path d="M505.803 348.308c-3.01-12.512 1.377-18.358 5.305-21.435 1.888-4.615 4.03-7.948 6.224-9.179 3.979-2.307 8.775-2.512 12.142-2.359-.868-.871-2.551-1.23-2.551-1.23 2.092-.308 6.734 1.743 6.734 1.743 28.926-11.179 33.466 31.588 32.854 41.537-.612 9.948-.51 21.64 14.539 29.485 28.722 14.923-9.54 71.279-9.54 71.279.715-8.051-36.118-50.408-55.402-63.125-4.694-6.923-6.326-19.179-6.479-20.153.816 9.692 2.448 15.127 3.928 18.204-8.775-8.051-10.05-27.537-7.754-44.767z" fill="#A9453D"/><path d="M517.23 395.69c-.102.052 9.285 4.923 16.325 3.026 6.632-1.795 10.968-10.461 10.866-10.512-2.806-.564-3.622-4.462-3.571-21.128l-1.275.257-21.376 4.256s.51 6.769.51 13.128c.051 5.281-.255 10.358-1.479 10.973z" fill="#FFB27D"/><path d="M518.25 371.538s.511 6.769.511 13.127c11.937-.359 18.263-11.281 20.865-17.383l-21.376 4.256z" fill="#ED975D"/><path d="M431.269 754.032c-1.071 3.281 1.326 6.717 4.744 6.871l8.367.41 8.826.257c2.193.051 4.336-.923 5.713-2.616 7.041-8.717 28.773-37.69 41.935-79.79.357-1.18.765-2.359 1.174-3.59 8.672-25.486 26.732-57.484 36.221-86.457 1.53-4.615 2.856-8.974 4.081-13.077.408-1.333.765-2.615 1.122-3.897 6.989-24.46 9.03-40.511 10.917-57.638l-68.615.564c.051 0-14.387 112.815-54.485 238.963z" fill="#2A4E96"/><path d="M495.395 475.43c.153 32.819-4.795 46.869-4.795 46.869s29.385 15.025 64.279 3.949c.409-.154 24.998-7.128 24.998-7.128-.561-1.333-5.459-23.281-6.02-24.511-7.346-15.897-9.387-22.615-10.254-27.486-1.632-9.128-1.632-18.563-.867-27.486 2.142-23.589 8.468-43.177 8.468-43.177-9.489-2.154-18.416-6-28.313-9.744-2.296 2.872-9.234 5.846-15.254 5.692-6.938-.153-9.234-3.128-8.825-6.409-7.398 4.153-13.316 8.05-13.316 8.05-6.274 10.974-19.079 21.692-19.998 38.563-.255 4.205 9.897 41.895 9.897 42.818z" fill="#fff"/><path d="M514.271 377.589s28.314.461 28.314-17.23c0-17.743 3.673-29.588-14.387-30.665-18.059-1.026-21.579 5.692-23.008 11.64-1.428 5.897 1.735 35.639 9.081 36.255z" fill="#FFB27D"/><path d="M515.292 329.232s7.754 20.768 19.64 23.845c11.887 3.077 17.04-.154 17.04-.154s-9.132-7.281-11.02-19.999c.051.052-19.794-13.589-25.66-3.692z" fill="#A9453D"/><path d="M517.23 330.924s-5.765 4.667-7.193 9.179c-1.429 4.513-2.041 13.795-4.745 13.487 0 0-5.815-14.153.715-22.102 6.989-8.512 11.223-.564 11.223-.564z" fill="#A9453D"/><path d="M469.735 498.198l-13.366 40.973 7.652 3.076 22.09-36.203-16.376-7.846z" fill="#FFB27D"/><path d="M505.751 391.691s-15.763 6.307-20.304 16.101c-4.54 9.795-11.478 75.535-14.233 82.304a689.93 689.93 0 00-4.796 12.102s7.959 6.717 15.917 7.23c8.01.462 23.416-117.737 23.416-117.737z" fill="#F99746"/><path d="M518.76 386.05s-16.375 40.665-16.835 48.869c-.459 8.205-1.938 134.558-1.938 134.558s.969 5.794-10.101 3.384c-11.071-2.41-13.979-4.82-13.979-4.82s10.612-77.945 7.704-105.021c-2.908-27.126 22.141-71.329 22.141-71.329l13.008-5.641z" fill="#F99746"/><path d="M444.38 761.262l9.591.308c1.734.051 3.367-.667 4.438-2 6.428-7.846 28.926-37.229 42.445-80.407.357-1.179.765-2.358 1.173-3.589 8.673-25.486 26.733-57.484 36.222-86.457 1.53-4.616 2.856-8.974 4.081-13.077.408-1.333.765-2.615 1.122-3.897l-10.101-7.692s-30.354 49.382-39.741 95.842c-8.112 40.357-40.762 88.918-49.23 100.969z" fill="#1E3D70"/><path d="M532.331 664.6c-.154 21.384.867 69.022 3.418 92.303.255 2.154 2.04 3.744 4.183 3.744h7.142c3.01 0 5.255 0 6.785-.052 1.275 0 2.398-.974 2.653-2.256 7.142-36.408 12.193-66.663 15.968-92.816 3.112-21.896 5.918-40.613 8.009-56.766 2.143-16.256 3.622-29.845 4.183-41.331.102-1.795.153-3.59.153-5.282.051-1.744.051-3.385.051-5.026l-59.28-5.794c.766 39.639 6.837 100.149 6.735 113.276z" fill="#2A4E96"/><path d="M544.319 567.066s4.184 15.179 18.621 13.231c14.437-1.949 34.997-10.667 34.997-10.667s-6.173-19.588-13.826-45.382c-9.284-31.178-20.814-71.381-26.222-96.764-1.53-7.128-2.55-13.025-2.958-17.281l-11.989-23.384s-17.856 40.306-18.825 50.459c-1.02 10.256 20.202 129.788 20.202 129.788z" fill="#F99746"/><path d="M558.706 435.842l-15.815-48.972c.051 0 19.998 5.949 29.997 11.077 0 0 6.275 8.102 10.152 26.87 0 0 4.081 44.972-5.05 61.433 0 0-28.875 5.795-75.095-10.153v-10.666s50.556 2.666 60.912 3.897l-5.101-33.486z" fill="#FFB27D"/><path d="M469.377 472.046l.868 2.769 48.107-15.025s.663-.718.306-1.692c-.357-1.077-1.173-1.077-1.173-1.077l-48.108 15.025z" fill="#A9453D"/><path d="M465.908 474.661l3.47-2.615.867 2.769-4.337-.154z" fill="#A9453D"/><path d="M458.256 538.042s-12.193 6.769-13.825 11.948c-1.582 5.18-.51 16 1.428 15.846 1.939-.154 4.847-11.641 6.428-12.41 1.582-.82 3.877-3.23 3.877-1.436 0 1.795-1.581 5.026-.816 5.487.816.462 3.367-4.512 5.153-5.487 1.785-.974 2.5-8.974 4.234-11.076 1.735-2.205-6.479-2.872-6.479-2.872zm44.639-72.612s-10.918-6.768-15.509-5.692c-4.591 1.026-16.274 9.538-10.611 11.385 5.612 1.846 10.152-.103 12.295 1.23 2.142 1.334 3.775 3.795 13.825 3.744 10.05-.052 0-10.667 0-10.667z" fill="#FFB27D"/><path d="M104.719 534.812H-88.834V766.8h193.553V534.812z" fill="#C3D2FF"/><path d="M22.787 722.821l42.329-20.498-25.33-52.85-42.328 20.497 25.328 52.851zm81.881-67.041v67.74l-8.367-4.871-9.744-5.641-7.856-4.564-2.449-1.436-5-2.871 3.164-5.539 17.6-30.665 8.417-14.614 4.235 2.461z" fill="#B0C3F4"/><path d="M61.233 744.178l17.756-43.724-54.032-22.169-17.756 43.724 54.032 22.169z" fill="#B0C3F4"/><path d="M-12.8 752.947l38.115-27.619-34.13-47.588-38.114 27.619 34.13 47.588zm117.468-65.271v60.356l-9.234 7.384-25.66-32.409-1.072-1.384-2.347-2.974-.153-.205 8.06-6.41 4.439-3.59 23.671-18.922 2.296-1.846z" fill="#B0C3F4"/><path d="M104.668 694.393v9.846l-18.11 8.769-11.683 5.64-4.133 2-2.04.975-2.5 1.23-2.04-4.205-6.174-12.871-8.264-17.332-8.877-18.461 7.091-3.436 35.252-17.024 8.826 18.409 10.356 21.589 2.296 4.871z" fill="#B0C3F4"/><path d="M104.668 718.649H-46.95v47.843h151.618v-47.843z" fill="#B0C3F4"/><path d="M-136.16 766.813H51.883V534.824H-136.16v231.989z" fill="#D7E1FF"/><path d="M-27.961 702.749l36.545 29.683 36.68-45.629L8.72 657.12l-36.68 45.629z" fill="#E3EBFF"/><path d="M-23.063 718.434l29.262 36.952 45.662-36.536L22.6 681.898l-45.662 36.536z" fill="#E9EFFF"/><path d="M-23.064 722.82l42.329-20.497-25.33-52.85-42.328 20.497 25.329 52.85z" fill="#E9EFFF"/><path d="M-136.16 766.516H51.883v-47.844H-136.16v47.844z" fill="#E9EFFF"/><path d="M51.867 664.651l-11.02 5.333 11.02 22.974v-28.307z" fill="#E3EBFF"/><path d="M51.816 534.812h-188.043v40.254H51.816v-40.254z" fill="#F99746"/><path d="M105.382 534.812H51.867v40.254h53.515v-40.254z" fill="#ED7D2B"/><path d="M51.867 766.492h-9.54v20.102h9.54v-20.102zm52.852 0h-9.54v20.102h9.54v-20.102z" fill="#2B478B"/><path d="M-63.023 515.046l66.044-5.472-7.166-87.39-66.044 5.472 7.166 87.39z" fill="#fff"/><path d="M7.024 307.541H-42.92v-50.203H7.024v50.203zm-47.852-2.103H4.984V259.39h-45.812v46.048z" fill="#AFCDFB"/><path d="M-34.553 276.466l16.273 22.511L1.055 263.03l-22.447 20.512-13.162-7.076z" fill="#AFCDFB"/></g><defs><clipPath id="clip0"><path fill="#fff" transform="translate(.5)" d="M0 0h527.5v789H0z"/></clipPath></defs></svg>