<svg width="528" height="789" fill="none" xmlns="http://www.w3.org/2000/svg"><g clip-path="url(#clip0)"><path d="M132.563 788.491S-5.332 667.318 21.451 467.841c27.753-206.554 173.657-316.446 364.047-274.756 155.597 34.101 255.843 12.205 416.745-85.226C1066.1-51.98 1406.22 121.037 1317.24 430.714c-43.05 149.839 137.64 223.887-13.62 358.085l-1171.057-.308z" fill="#ECF1FF"/><path d="M621.719 534.812H428.166V766.8h193.553V534.812z" fill="#C3D2FF"/><path d="M539.787 722.821l42.329-20.498-25.329-52.85-42.329 20.497 25.329 52.851z" fill="#B0C3F4"/><path d="M578.233 744.178l17.756-43.724-54.032-22.169-17.755 43.724 54.031 22.169z" fill="#B0C3F4"/><path d="M504.201 752.947l38.114-27.619-34.13-47.588-38.114 27.619 34.13 47.588z" fill="#B0C3F4"/><path d="M621.668 718.649H470.05v47.843h151.618v-47.843z" fill="#B0C3F4"/><path d="M380.84 766.813h188.043V534.824H380.84v231.989z" fill="#D7E1FF"/><path d="M450.527 722.821l42.329-20.497-25.329-52.85-42.329 20.497 25.329 52.85z" fill="#E3EBFF"/><path d="M489.039 702.749l36.545 29.683 36.68-45.629-36.545-29.683-36.68 45.629z" fill="#E3EBFF"/><path d="M488.966 744.178l17.756-43.724-54.032-22.169-17.755 43.724 54.031 22.169z" fill="#E9EFFF"/><path d="M414.943 752.941l38.115-27.62-34.13-47.588-38.115 27.62 34.13 47.588zm78.994-34.507l29.262 36.952 45.662-36.536-29.262-36.952-45.662 36.536z" fill="#E9EFFF"/><path d="M493.936 722.82l42.329-20.497-25.329-52.85-42.329 20.497 25.329 52.85z" fill="#E9EFFF"/><path d="M380.84 766.516h188.043v-47.844H380.84v47.844z" fill="#E9EFFF"/><path d="M568.816 534.812H380.772v40.254h188.044v-40.254z" fill="#F99746"/><path d="M433.192 563.402c-1.744 0-3.32-.378-4.728-1.133-1.392-.756-2.488-1.793-3.288-3.112-.784-1.335-1.176-2.831-1.176-4.487 0-1.656.392-3.144 1.176-4.463a8.478 8.478 0 013.288-3.136c1.408-.755 2.984-1.133 4.728-1.133 1.744 0 3.312.378 4.704 1.133a8.478 8.478 0 013.288 3.136c.8 1.319 1.2 2.807 1.2 4.463 0 1.656-.4 3.152-1.2 4.487-.8 1.319-1.896 2.356-3.288 3.112-1.392.755-2.96 1.133-4.704 1.133zm0-3.329c.992 0 1.888-.225 2.688-.675a4.921 4.921 0 001.872-1.93c.464-.82.696-1.753.696-2.798 0-1.045-.232-1.978-.696-2.798a4.757 4.757 0 00-1.872-1.906c-.8-.466-1.696-.699-2.688-.699-.992 0-1.888.233-2.688.699a4.92 4.92 0 00-1.896 1.906c-.448.82-.672 1.753-.672 2.798 0 1.045.224 1.978.672 2.798a5.093 5.093 0 001.896 1.93c.8.45 1.696.675 2.688.675zm27.499-13.846v16.886h-3.864v-13.702h-7.584v13.702h-3.864v-16.886h15.312zm11.437 0c1.488 0 2.776.249 3.864.748 1.104.498 1.952 1.206 2.544 2.123.592.916.888 2.002.888 3.256 0 1.239-.296 2.324-.888 3.257-.592.916-1.44 1.624-2.544 2.123-1.088.482-2.376.723-3.864.723h-3.384v4.656h-3.888v-16.886h7.272zm-.216 9.046c1.168 0 2.056-.249 2.664-.748.608-.514.912-1.238.912-2.171 0-.949-.304-1.672-.912-2.171-.608-.514-1.496-.772-2.664-.772h-3.168v5.862h3.168zm18.327 8.129c-1.744 0-3.32-.378-4.728-1.133-1.392-.756-2.488-1.793-3.288-3.112-.784-1.335-1.176-2.831-1.176-4.487 0-1.656.392-3.144 1.176-4.463a8.478 8.478 0 013.288-3.136c1.408-.755 2.984-1.133 4.728-1.133 1.744 0 3.312.378 4.704 1.133a8.478 8.478 0 013.288 3.136c.8 1.319 1.2 2.807 1.2 4.463 0 1.656-.4 3.152-1.2 4.487-.8 1.319-1.896 2.356-3.288 3.112-1.392.755-2.96 1.133-4.704 1.133zm0-3.329c.992 0 1.888-.225 2.688-.675a4.921 4.921 0 001.872-1.93c.464-.82.696-1.753.696-2.798 0-1.045-.232-1.978-.696-2.798a4.757 4.757 0 00-1.872-1.906c-.8-.466-1.696-.699-2.688-.699-.992 0-1.888.233-2.688.699a4.92 4.92 0 00-1.896 1.906c-.448.82-.672 1.753-.672 2.798 0 1.045.224 1.978.672 2.798a5.093 5.093 0 001.896 1.93c.8.45 1.696.675 2.688.675zm20.131 3.329c-1.712 0-3.264-.37-4.656-1.109a8.573 8.573 0 01-3.264-3.112c-.784-1.335-1.176-2.838-1.176-4.511 0-1.672.392-3.168 1.176-4.487a8.342 8.342 0 013.264-3.112c1.392-.755 2.952-1.133 4.68-1.133 1.456 0 2.768.257 3.936.772a7.882 7.882 0 012.976 2.219l-2.496 2.316c-1.136-1.319-2.544-1.978-4.224-1.978-1.04 0-1.968.233-2.784.699a4.874 4.874 0 00-1.92 1.906c-.448.82-.672 1.753-.672 2.798 0 1.045.224 1.978.672 2.798a5.042 5.042 0 001.92 1.93c.816.45 1.744.675 2.784.675 1.68 0 3.088-.667 4.224-2.002l2.496 2.316a7.777 7.777 0 01-2.976 2.243c-1.184.515-2.504.772-3.96.772z" fill="#fff"/><path d="M390.363 766.492h-9.54v20.102h9.54v-20.102z" fill="#2B478B"/><path d="M453.977 515.046l66.044-5.472-7.166-87.39-66.044 5.472 7.166 87.39z" fill="#fff"/><path d="M456.795 511.687l59.994-4.97-6.679-81.461-59.994 4.97 6.679 81.461z" fill="#E7EDFF"/><path d="M458.238 468.823l31.268-2.59-.042-.511-31.268 2.59.042.511zm.19 2.406l31.268-2.59-.042-.511-31.268 2.59.042.511zm.199 2.464l31.268-2.591-.042-.511-31.268 2.591.042.511zm-.273-12.803l16.829-1.394-.092-1.124-16.829 1.394.092 1.124zm.001 2.948l20.489-1.697-.092-1.124-20.489 1.697.092 1.124z" fill="#AEC3FF"/><path d="M495.948 470.64l14.388-1.192-1.186-14.463-14.388 1.192 1.186 14.463z" fill="#fff"/><path d="M506.679 460.867l-3.418 5.692-5.357-8.205 5.765 4.461 3.01-1.948z" fill="#233862"/><path d="M460.562 497.543l31.268-2.59-.042-.511-31.268 2.59.042.511zm.241 2.402l31.268-2.591-.042-.511-31.267 2.591.041.511zm.198 2.463l31.268-2.59-.042-.512-31.268 2.591.042.511zm-.323-12.799l16.829-1.394-.092-1.125-16.829 1.395.092 1.124zm.001 2.949l20.489-1.698-.092-1.124-20.489 1.698.092 1.124z" fill="#AEC3FF"/><path d="M498.323 499.355l14.388-1.192-1.186-14.462-14.388 1.192 1.186 14.462z" fill="#fff"/><path d="M509.026 489.583l-3.469 5.692-5.306-8.205 5.765 4.462 3.01-1.949z" fill="#233862"/><path d="M455.334 445.513l31.268-2.59-.042-.511-31.268 2.59.042.511zm.19 2.406l31.268-2.59-.042-.511-31.268 2.59.042.511zm.193 2.412l31.268-2.591-.042-.511-31.268 2.591.042.511zm-.271-12.802l16.828-1.394-.092-1.124-16.828 1.394.092 1.124zm.004 2.999l20.489-1.697-.092-1.125-20.489 1.698.092 1.124z" fill="#AEC3FF"/><path d="M493.043 447.33l14.388-1.192-1.186-14.463-14.388 1.192 1.186 14.463z" fill="#fff"/><path d="M503.771 437.534l-3.418 5.692-5.357-8.204 5.765 4.461 3.01-1.949z" fill="#233862"/><path d="M441.532 439.739c1.123-.82 2.041-2.615 3.214-3.948.868-1.026 2.551-1.949 2.551-1.949s.153 2.359.357 4.257c3.469-1.282 8.673-2.513 17.039-.872a6.134 6.134 0 014.082 2.718c.867 1.333 1.173 2.974-.97 4.307-4.234 2.667-3.01 1.077-8.927 4.923-5.918 3.846-13.162 4.871-17.448 2.154l-5.815-.975-.715-9.589c0-.102 3.316-.513 6.632-1.026zm-151.924-80.457s13.673 16.307 31.069 9.487c0 0 3.724-9.128 3.775-15.794 0-.821 0-1.641.051-2.411.102-7.538.357-11.794.357-11.794-.816-.308-26.63-10.974-26.579-10.102.408 20.461-8.673 30.614-8.673 30.614z" fill="#FFB27D"/><path d="M300.831 333.54c2.5 4.615 11.02 13.691 23.672 17.024.102-7.538.357-11.794.357-11.794-.766-.205-24.794-6.615-24.029-5.23z" fill="#ED975D"/><path d="M330.268 338.001s-29.028 6.871-33.007-11.384c-3.98-18.256-10.408-29.64 7.958-34.819 18.366-5.128 23.518 1.026 26.324 6.769 2.755 5.795 6.173 37.178-1.275 39.434z" fill="#FFB27D"/><path d="M298.23 331.591c-.408.256-6.632 2.205-18.468-21.537-1.836-3.744-3.112-11.743 1.225-18.871 4.336-7.128 19.692-12.717 32.445-15.128 12.754-2.41 15.815 4.769 18.825 12.051 3.163 7.589 12.244 13.897 12.244 13.897-11.019 6.153-24.232-2.667-28.824-1.231-4.591 1.436-6.224 8.718-6.581 11.076-.357 2.308-.867 4.257-6.632 2.205-5.765-2.102-2.602 8.205-1.683 10.205-.051-.051.765 5.179-2.551 7.333z" fill="#A9453D"/><path d="M223.39 786.543h-17.549c-3.673 0-7.806-3.692-8.826-10.513-1.02-6.82-8.622-10.512-10.254-16.05-1.633-5.538 6.785-13.384 6.785-13.384l1.428-1.795 1.48-1.897 13.927 3.282s.357 3.333.561 7.589c.153 3.077.255 6.615.051 9.743-.408 7.436 2.092 15.384 8.622 16.82 6.53 1.436 3.775 6.205 3.775 6.205zm122.437 0h-46.628c-.459-.103-.765-.205-.969-.308-3.112-1.59-2.143-13.538-1.786-17.23.051-.667.102-1.077.102-1.077s16.376-13.179 18.672-3.077c.051.308.153.616.255.923 2.857 9.436 15.56 13.743 22.906 14.923 5.612.923 7.091 4.205 7.448 5.846z" fill="#2C3A64"/><path d="M336.441 516.351s-2.5 31.229-5.408 68.766c-3.979 50.972-8.775 113.584-9.234 125.429-.816 20.615-4.081 53.536-4.081 53.536s-7.805 7.846-23.365 4.513c0 0-13.876-47.023-17.856-96.816-.051-.82-.102-1.641-.204-2.461-3.673-50.664-9.438-157.326-9.438-157.326l69.586 4.359z" fill="#F99746"/><path d="M336.441 516.351s-2.5 31.229-5.408 68.766l-54.536 86.713c-.051-.82-.102-1.641-.204-2.461-3.673-50.664-9.438-157.325-9.438-157.325l69.586 4.307z" fill="#ED7D2B"/><path d="M325.064 520.094s-44.894 113.072-74.381 166.197c-29.487 53.126-38.721 67.946-38.721 67.946s-16.886-6.821-18.416-11.436c0 0 11.274-102.559 31.017-127.583 11.173-14.153 24.284-56.51 24.896-71.381.612-14.82 3.979-44.152 3.979-44.152l71.626 20.409z" fill="#F99746"/><path d="M222.727 499.531l-.46 7.282s4.796 12.922-8.621 19.538c0 0-5.714 2.307-5.969-2.154-.255-4.462.51-2.769.051-9.077-.459-6.307 1.99-12.256 6.173-14.255l3.418-3.949 5.408 2.615z" fill="#FFB27D"/><path d="M217.523 504.813c4.949 1.59 5.765 1.231 5.765 1.231s24.181-44.254 26.63-48.305c2.449-4.052 51.322-49.588 51.322-49.588l-12.55-47.074s-55.607 72.355-61.576 82.714c-9.897 17.178-15.713 57.022-15.713 57.022s2.245 2.769 6.122 4z" fill="#1E3D70"/><path d="M345.929 426.663c-.153 9.692-.714 20.512-1.479 31.588-.051.667-.102 1.334-.153 1.949-.46 6.82-2.551 30.665-2.653 31.639-2.449 25.025-5 44.819-5.51 45.126-.561.359-1.224.565-1.887.513-6.53-.82-26.018.667-41.986-2.82-13.468-2.872-25.049-8.256-37.344-15.538-1.632-.974-5.356-3.538-5.05-5.435.306-2.103.867-5.128 1.53-8.974 2.398-13.333 6.581-36.204 8.01-63.023.255-4.974.663-9.948 1.224-14.768 1.378-12.615 3.571-24.615 6.53-35.281 5.459-19.794 13.519-34.972 23.569-40.869 1.327-.718 8.418 3.794 14.897 7.999 6.02 3.897 12.346 4.923 18.518 4.41l5.408 6c6.581 7.692 13.57 17.896 15.458 32.409.153 1.076.255 2.205.357 3.435.561 5.795.714 13.282.561 21.64z" fill="#2A4E96"/><path d="M345.929 426.663c-.153 9.692-.714 20.512-1.479 31.588-.051.667-.102 1.334-.153 1.949-37.343-23.486-43.057-66.407-43.057-66.407 18.365.821 32.956 5.025 44.179 11.128.51 5.897.663 13.384.51 21.742z" fill="#1E3D70"/><path d="M440.155 445.124c.408-5.538-2.5-6.513-2.5-6.513s-56.27-10.256-61.015-11.743c-4.795-1.487-45.658-44.254-45.658-44.254s-15.662-17.743-28.518-13.845c-11.173 3.384-15.509 12.153-16.988 20.46-1.786 9.948 2.806 19.897 11.325 25.178 19.182 11.846 57.648 35.178 66.677 37.845 20.152 5.948 74.279.461 74.279.461s2.143-3.179 2.398-7.589z" fill="#2A4E96"/><path d="M450.306 368.256h-49.944v-50.203h49.944v50.203zm-47.852-2.103h45.812v-46.049h-45.812v46.049z" fill="#AFCDFB"/><path d="M408.729 337.181l16.274 22.511 19.335-35.998-22.447 20.512-13.162-7.025zm115.295-29.64H474.08v-50.203h49.944v50.203zm-47.852-2.103h45.812V259.39h-45.812v46.048z" fill="#AFCDFB"/><path d="M482.447 276.466l16.274 22.511 19.335-35.947-22.447 20.512-13.162-7.076z" fill="#AFCDFB"/></g><defs><clipPath id="clip0"><path fill="#fff" transform="translate(.5)" d="M0 0h527.5v789H0z"/></clipPath></defs></svg>