<svg width="528" height="789" fill="none" xmlns="http://www.w3.org/2000/svg"><g clip-path="url(#clip0)"><path d="M-789.437 788.491s-137.895-121.173-111.112-320.65c27.753-206.554 173.657-316.446 364.047-274.756 155.597 34.101 255.843 12.205 416.745-85.226C144.096-51.98 484.216 121.037 395.245 430.714c-43.057 149.839 137.64 223.887-13.621 358.085l-1171.061-.308z" fill="#ECF1FF"/><path d="M64.99 250.467s85.655-87.021 111.01-68.202c25.354 18.871-111.01 68.202-111.01 68.202zm-5.867 16.409s161.872-78.868 201.919-41.023c39.996 37.844-44.026 35.588-75.196 32.203-31.222-3.435-126.723 8.82-126.723 8.82zm-7.448-17.896s.663-4.154 1.53-10.307c1.684-11.897 4.235-31.23 4.49-41.229.357-15.128 12.141-26.255 25.864-11.282 13.724 14.974-26.885 58.459-26.885 58.459l-5 4.359z" fill="#AFCDFB"/><path d="M255.328 429.586c-7.601-19.742-41.016-9.794-41.016-9.794s-19.437 37.998-26.069 39.536c-6.632 1.539 10.305-35.742 10.305-35.742-13.162.103-44.74 19.692-44.74 19.692s6.428 41.228-.408 41.126c-6.837-.154-3.827-36.819-3.827-36.819-12.243 5.128-22.497 21.179-22.497 21.179-12.244 25.691 21.222 40.1 21.222 40.1s1.939 14.359-5.204 31.794c0 0-1.683 3.281-3.163 8.666l3.419-.359c.204-.974.408-1.897.663-2.769v-.052a60.07 60.07 0 00.765-2.307c.816-2.205 1.377-3.795 1.734-4.923 2.5-6.82 6.122-15.794 8.979-17.845 0 0-.459-.513-.918-1.487.306.461.612.974.918 1.487 7.193 12.05 36.884 11.076 52.954 5.948s8.418-9.025-1.224-15.64-27.957-2.667-33.721-5.077c-5.765-2.41 1.887-6.205 12.958-6.512 11.019-.308 17.651 10.102 35.506 9.948 17.856-.154 27.855-35.024 27.855-35.024-11.836 5.077-34.385.615-35.711-3.487-1.275-4.154 31.17-7.128 36.068-8.923 4.948-1.897 12.754-12.973 5.152-32.716z" fill="#CDE0FB"/><path d="M164.266 222.981h-415.98v565.408h415.98V222.981z" fill="#F4F5F8"/><path d="M147.686 234.006h-386.391v540.281h386.391V234.006z" fill="#E7EDFF"/><path d="M42.492 333.283H-84.333v2.564H42.492v-2.564zm0 11.948H-84.333v2.564H42.492v-2.564zm0 12.102H-84.333v2.564H42.492v-2.564zm0-63.638h-49.18v4.513h49.18v-4.513zm0 10.513H-17.4v4.512h59.892v-4.512zm7.295 328.291h-134.12v2.564h134.12v-2.564zm0 11.948h-134.12v2.564h134.12v-2.564zm0 12.102h-134.12v2.564h134.12v-2.564zm0-63.638H-2.198v4.513h51.985v-4.513zm-.051 10.513h-63.31v4.512h63.31v-4.512zm-2.449-118.866h-131.62v2.564h131.62v-2.564zm0 11.897h-131.62v2.564h131.62v-2.564zm0 12.102h-131.62v2.564h131.62v-2.564zm-4.744-63.638H-12.35v4.512h54.893v-4.512zm0 10.512h-66.83v4.513h66.83v-4.513z" fill="#AEC3FF"/><path d="M41.676 780.953c-.408 5.231-7.755 5.282-16.121 4.308-8.367-.975-6.122 1.128-17.856 1.333-11.733.154-15.763-3.743-16.325-5.384-.51-1.487 5.153-2.769 11.173-4.205.765-.205 1.53-.359 2.296-.564 6.785-1.744 11.325-6.872 17.14-11.333 5.51-4.256 12.601-19.538 12.601-19.538l16.02-.717s-6.735 13.742-9.285 19.64c-1.48 3.487-.868 7.743-.205 11.025.358 1.743.715 3.589.562 5.435z" fill="#FFB27D"/><path d="M25.555 785.261c-8.367-.975-6.122 1.128-17.856 1.333-11.733.154-15.763-3.743-16.325-5.384-.51-1.487 5.153-2.769 11.173-4.205l.05.102s7.551 4.051 17.193 3.077c7.856-.769 15.866-4.102 21.324-4.666.358 1.794.715 3.589.562 5.487-.358 5.179-7.755 5.23-16.121 4.256z" fill="#233862"/><path d="M152.175 782.03c-.357 5.231-7.754 5.333-16.121 4.359-8.366-.974-6.122 1.179-17.855 1.333-11.734.154-15.764-3.692-16.325-5.384-.51-1.487 5.152-2.769 11.172-4.256.766-.206 1.531-.359 2.296-.565 6.785-1.743 11.325-6.871 17.141-11.332 5.51-4.256 0-29.332 0-29.332l17.601-1.744s-.868 21.128-.817 30.717c0 3.794 1.735 7.435 2.398 10.717.306 1.795.612 3.641.51 5.487z" fill="#FFB27D"/><path d="M136.054 786.389c-8.366-.974-6.122 1.179-17.855 1.333-11.734.154-15.764-3.692-16.325-5.384-.51-1.487 5.152-2.769 11.172-4.256l.051.102s7.551 4.051 17.193 3.077c7.856-.821 15.865-4.102 21.273-4.718.357 1.795.714 3.59.561 5.436-.357 5.333-7.703 5.384-16.07 4.41z" fill="#233862"/><path d="M100.803 348.308c-3.01-12.512 1.377-18.358 5.305-21.435 1.888-4.615 4.03-7.948 6.224-9.179 3.979-2.307 8.775-2.512 12.142-2.359-.867-.871-2.551-1.23-2.551-1.23 2.092-.308 6.734 1.743 6.734 1.743 28.926-11.179 33.466 31.588 32.854 41.537-.612 9.948-.51 21.64 14.539 29.485 28.722 14.923-9.54 71.279-9.54 71.279.715-8.051-36.118-50.408-55.402-63.125-4.694-6.923-6.326-19.179-6.479-20.153.816 9.692 2.448 15.127 3.928 18.204-8.775-8.051-10.05-27.537-7.754-44.767z" fill="#A9453D"/><path d="M112.23 395.69c-.102.052 9.285 4.923 16.325 3.026 6.632-1.795 10.968-10.461 10.866-10.512-2.806-.564-3.622-4.462-3.571-21.128l-1.275.257-21.376 4.256s.51 6.769.51 13.128c.051 5.281-.255 10.358-1.479 10.973z" fill="#FFB27D"/><path d="M113.25 371.538s.511 6.769.511 13.127c11.937-.359 18.263-11.281 20.865-17.383l-21.376 4.256z" fill="#ED975D"/><path d="M26.269 754.032c-1.071 3.281 1.326 6.717 4.744 6.871l8.367.41 8.826.257c2.193.051 4.336-.923 5.713-2.616 7.04-8.717 28.773-37.69 41.935-79.79.357-1.18.765-2.359 1.174-3.59 8.672-25.486 26.732-57.484 36.221-86.457 1.53-4.615 2.856-8.974 4.081-13.077.408-1.333.765-2.615 1.122-3.897 6.989-24.46 9.03-40.511 10.917-57.638l-68.615.564c.05 0-14.387 112.815-54.485 238.963z" fill="#2A4E96"/><path d="M90.395 475.43c.154 32.819-4.795 46.869-4.795 46.869s29.385 15.025 64.28 3.949c.408-.154 24.997-7.128 24.997-7.128-.561-1.333-5.459-23.281-6.02-24.511-7.346-15.897-9.387-22.615-10.254-27.486-1.632-9.128-1.632-18.563-.867-27.486 2.143-23.589 8.468-43.177 8.468-43.177-9.488-2.154-18.416-6-28.313-9.744-2.296 2.872-9.234 5.846-15.254 5.692-6.938-.153-9.234-3.128-8.825-6.409-7.398 4.153-13.315 8.05-13.315 8.05-6.275 10.974-19.08 21.692-19.999 38.563-.255 4.205 9.897 41.895 9.897 42.818z" fill="#fff"/><path d="M149.42 479.071c3.01 4.256 8.724 30.203 23.059 33.434-7.346-18.461-12.957-26.563-13.825-32.255-1.632-10.615-1.632-21.588-.867-31.947-4.796-8.461-8.367-14.204-8.367-14.204-.357-1.385-7.601-23.845-9.948-3.744-2.295 20.102 6.581 43.947 9.948 48.716z" fill="#5F9AA8"/><path d="M109.271 377.589s28.314.461 28.314-17.23c0-17.743 3.673-29.588-14.386-30.665-18.06-1.026-21.58 5.692-23.009 11.64-1.428 5.897 1.735 35.639 9.081 36.255z" fill="#FFB27D"/><path d="M110.292 329.232s7.754 20.768 19.641 23.845c11.886 3.077 17.039-.154 17.039-.154s-9.132-7.281-11.02-19.999c.051.052-19.794-13.589-25.66-3.692z" fill="#A9453D"/><path d="M112.23 330.924s-5.765 4.667-7.193 9.179c-1.429 4.513-2.041 13.795-4.745 13.487 0 0-5.815-14.153.715-22.102 6.989-8.512 11.223-.564 11.223-.564z" fill="#A9453D"/><path d="M64.735 498.198l-13.366 40.973 7.652 3.076 22.09-36.203-16.376-7.846z" fill="#FFB27D"/><path d="M100.752 391.691s-15.764 6.307-20.305 16.101c-4.54 9.795-11.478 75.535-14.233 82.304-2.755 6.769-4.795 12.102-4.795 12.102s7.958 6.717 15.916 7.23c8.01.462 23.417-117.737 23.417-117.737z" fill="#F99746"/><path d="M113.761 386.05s-16.376 40.665-16.836 48.869c-.459 8.205-1.938 134.558-1.938 134.558s.97 5.794-10.101 3.384c-11.07-2.41-13.978-4.82-13.978-4.82s10.61-77.945 7.703-105.021c-2.908-27.126 22.141-71.329 22.141-71.329l13.009-5.641z" fill="#F99746"/><path d="M39.38 761.262l9.59.308c1.735.051 3.368-.667 4.44-2 6.427-7.846 28.925-37.229 42.444-80.407.357-1.179.765-2.358 1.174-3.589 8.672-25.486 26.732-57.484 36.221-86.457 1.53-4.616 2.856-8.974 4.081-13.077.408-1.333.765-2.615 1.122-3.897l-10.101-7.692s-30.354 49.382-39.741 95.842c-8.112 40.357-40.761 88.918-49.23 100.969z" fill="#1E3D70"/><path d="M127.331 664.6c-.153 21.384.867 69.022 3.418 92.303.255 2.154 2.04 3.744 4.183 3.744h7.142c3.01 0 5.255 0 6.785-.052 1.276 0 2.398-.974 2.653-2.256 7.142-36.408 12.193-66.663 15.968-92.816 3.112-21.896 5.918-40.613 8.009-56.766 2.143-16.256 3.622-29.845 4.184-41.331.102-1.795.153-3.59.153-5.282.051-1.744.051-3.385.051-5.026l-59.28-5.794c.765 39.639 6.836 100.149 6.734 113.276z" fill="#2A4E96"/><path d="M142.074 760.647c2.704 0 4.796 0 6.275-.052 1.582 0 2.908-1.179 3.214-2.717 7.091-36.204 12.142-66.305 15.866-92.304 3.112-21.896 5.918-40.613 8.009-56.766 2.143-16.256 3.622-29.845 4.184-41.331l-21.733 12.871s13.876 4.923 8.571 42.203c-5.306 37.28-16.989 132.814-24.386 138.096z" fill="#1E3D70"/><path d="M139.319 567.066s4.184 15.179 18.621 13.231c14.437-1.949 34.997-10.667 34.997-10.667s-6.173-19.588-13.825-45.382c-9.285-31.178-20.815-71.381-26.222-96.764-1.531-7.128-2.551-13.025-2.959-17.281l-11.989-23.384s-17.855 40.306-18.825 50.459c-1.02 10.256 20.202 129.788 20.202 129.788z" fill="#F99746"/><path d="M153.706 435.842l-15.815-48.972c.051 0 19.998 5.949 29.997 11.077 0 0 6.275 8.102 10.152 26.87 0 0 4.081 44.972-5.05 61.433 0 0-28.875 5.795-75.095-10.153v-10.666s50.556 2.666 60.912 3.897l-5.101-33.486z" fill="#FFB27D"/><path d="M139.932 458.662c.663 16.46 4.489 48.407 38.822 65.483.102.052.204.103.255.154-9.284-31.178-20.814-71.381-26.222-96.764-6.274 9.487-13.213 22.05-12.855 31.127z" fill="#ED7D2B"/><path d="M137.891 386.87s29.334 2.052 36.374 17.897c7.04 15.794 9.285 68.407.306 83.893 0 0-12.397 3.538-34.282-.564-.255-.051-.562-.102-.817-.154 0 0-6.989-17.178-.714-20.563 0 0 18.468.974 16.529-5.179-1.887-6.102-17.396-75.33-17.396-75.33z" fill="#F99746"/><path d="M64.377 472.046l.868 2.769 48.107-15.025s.664-.718.306-1.692c-.357-1.077-1.173-1.077-1.173-1.077l-48.108 15.025z" fill="#A9453D"/><path d="M60.908 474.661l3.47-2.615.867 2.769-4.337-.154z" fill="#A9453D"/><path d="M53.256 538.042s-12.193 6.769-13.825 11.948c-1.581 5.18-.51 16 1.428 15.846 1.939-.154 4.847-11.641 6.428-12.41 1.582-.82 3.878-3.23 3.878-1.436 0 1.795-1.582 5.026-.817 5.487.817.462 3.367-4.512 5.153-5.487 1.785-.974 2.5-8.974 4.234-11.076 1.735-2.205-6.479-2.872-6.479-2.872zm44.639-72.612s-10.918-6.768-15.509-5.692c-4.591 1.026-16.274 9.538-10.611 11.385 5.611 1.846 10.152-.103 12.294 1.23 2.143 1.334 3.776 3.795 13.826 3.744 10.05-.052 0-10.667 0-10.667zm272.831 3.539s-1.123-11.436 4.795-11.077c5.969.411 7.55 3.128 6.887 5.333-.663 2.205-6.479 9.487-6.479 9.487l-5.203-3.743z" fill="#FFB27D"/><path d="M361.39 529.838c-10.407.41-31.222-5.692-39.078-8.974-7.448-3.077-13.927-6.359-19.437-9.59a223.728 223.728 0 01-4.234-2.564c-14.183-8.973-20.764-16.768-20.764-16.768s26.58-23.076 37.293-17.025c12.601 7.077 34.282 30.05 37.904 27.691 4.132-2.666 15.611-35.178 15.611-35.178 7.601-1.435 9.234 4.308 9.234 4.308s-1.735 57.484-16.529 58.1z" fill="#F99746"/><path d="M317.517 772.543s-1.072 12.666 1.581 14l34.078-.052s0-3.948-5.458-4.82c-5.459-.872-15.101-4.102-16.733-11.281-1.633-7.231-13.468 2.153-13.468 2.153z" fill="#233862"/><path d="M342.514 619.218c-.153 8.307-.561 16.819-1.326 24.511-3.674 36.46-5 80.458-5.51 88.97-.918 14.717-3.826 38.255-3.826 38.255s-5.765 5.487-16.937 2.871c0 0-9.285-33.895-11.326-69.586-.051-.564-.051-1.179-.102-1.743-.255-4.718-.51-10.103-.765-15.948-1.684-38.973-3.571-96.867-3.571-96.867l42.802-10.102c0-.052 1.02 18.973.561 39.639z" fill="#2A4E96"/><path d="M342.514 619.218c-10.866 18.819-31.528 53.433-39.792 67.278-1.684-38.972-3.571-96.867-3.571-96.867l42.802-10.102s1.02 19.025.561 39.691z" fill="#233862"/><path d="M253.288 613.116s-2.653 10.461-2.245 12.768c.459 2.308 3.01 10.205 4.643 12.153 1.632 1.949 1.683-8.512 2.754-10.153 1.072-1.641.511 3.897 1.378 4.359.867.461 2.296-4.205 2.959-5.846.663-1.641-2.296-7.384-2.551-11.487-.306-4.102-6.938-1.794-6.938-1.794z" fill="#FFB27D"/><path d="M232.576 758.134s-6.071 5.589-4.898 9.538c1.174 3.948 6.683 6.615 7.397 11.435.766 4.82 3.725 7.487 6.377 7.487h12.703s1.939-3.384-2.755-4.41c-4.744-1.026-6.53-6.718-6.224-11.999.307-5.282-.459-12.308-.459-12.308l-10.05-2.358-2.091 2.615z" fill="#233862"/><path d="M335.219 590.501s-40.047 86.15-61.372 123.943c-21.324 37.793-27.956 48.356-27.956 48.356s-12.193-4.82-13.315-8.153c0 0 8.162-72.971 22.446-90.765 8.061-10.051 17.55-40.203 17.958-50.767.459-10.563 9.795-35.741 9.795-35.741l52.444 13.127z" fill="#2A4E96"/><path d="M342.718 586.04s-13.06 14.102-35.2 18.358c-9.744 1.846-29.488 3.692-34.385-3.282-1.173-1.641-1.173-4.051-.918-7.846.663-9.794 3.112-28.819-7.959-66.919-1.02-3.539-1.734-6.974-2.142-10.205-2.398-19.537 5.764-33.383 15.355-39.536 23.467-15.077 34.895-4.667 34.895-4.667s13.417 6.307 19.539 24.666c12.295 36.767 10.815 89.431 10.815 89.431z" fill="#F99746"/><path d="M284.458 472.661s13.418 4.359 25.661-.667c0 0 2.347-1.23.409-3.897.204-2.564.153-2.359.204-4.205.153-4.359-.051-6.82-.051-6.82l-9.03-5.897-8.571-5.641c2.245 17.794-8.622 27.127-8.622 27.127z" fill="#FFB27D"/><path d="M293.59 452.303s6.428 9.641 17.192 11.487c.153-4.359-.153-8.821-.153-8.821l-8.927-3.897-8.112 1.231z" fill="#ED985F"/><path d="M318.69 454.713s-21.733 8.154-26.579-5.282c-4.847-13.435-10.917-21.486 2.755-27.229 13.672-5.795 18.212-1.59 20.916 2.513 2.806 4.051 8.468 27.537 2.908 29.998z" fill="#FFB27D"/><path d="M278.592 423.689c-.255-.205-.766-.308-1.837-.154 0 0 .714-.666 1.837-.923-.051-1.487.204-4.256 2.601-5.384 0 0-1.224.974-1.071 2.564 2.296-3.59 8.112-6.974 25.559-9.025 23.008-2.718 18.416 13.384 15.815 15.691-2.602 2.308-10.918-.974-16.325.564-5.408 1.539-4.847 9.692-6.479 11.128-1.633 1.436-1.276-.616-4.031-1.282-2.754-.667-2.142 3.589-.867 6.153 1.276 2.564-1.479 6.872-1.479 6.872l-4.234-3.077c-4.235-3.077-10.663-18.409-9.744-22.153.102-.307.204-.615.255-.974z" fill="#2C3A64"/><path d="M272.215 593.27c.663-9.794 3.112-28.819-7.959-66.919-1.02-3.539-1.734-6.974-2.142-10.205 8.264-2.718 23.263 3.333 23.263 3.333s3.52 50.459-13.162 73.791z" fill="#ED7D2B"/><path d="M278.49 475.994s-16.989 9.692-22.855 31.281c-4.745 17.691-12.142 44.049-13.009 52.253-.868 8.256 8.979 56.459 8.979 56.459s1.377 1.026 4.795.359c3.265-.667 4.795-2.872 4.795-2.872s2.347-32.152 1.735-47.331c-.255-6.307 29.028-46.151 44.843-51.33 6.224-2-29.283-38.819-29.283-38.819z" fill="#F99746"/><path d="M290.274 464.507s-2.857 1.385-8.366 8.769c0 0 10.254 12.923 25.048 11.231 0 0-1.836-6.718-1.734-10.974.051 0-12.346-1.385-14.948-9.026zm14.999 9.026s7.907 2.051 9.795 7.794c0 0 1.683-4.923.204-7.692-1.48-2.769-4.694-5.589-4.694-5.589s1.072 3.538-5.305 5.487z" fill="#ED7D2B"/><path d="M414.089 441.637s-29.334-.821-63.157 5.435l-3.52-8.973-3.878-9.795s33.977-14.717 54.383-35.178l16.172 48.511z" fill="#fff"/><path d="M397.458 392.665l16.835 49.946c2.448-.718 3.826-3.384 2.959-5.846l-14.795-41.946c-.765-2-3.01-3.026-4.999-2.154z" fill="#F99746"/><path d="M414.089 441.637s-29.334-.821-63.157 5.435l-3.52-8.973c31.782-6.513 66.677 3.538 66.677 3.538z" fill="#D7E1FF"/><path d="M360.318 445.278l-9.182 1.641c.153 0-8.52 1.692-11.326-6-.255-.513-.408-1.026-.561-1.641-2.194-9.589 3.061-11.384 3.061-11.384l11.784-4.615 3.725 13.332v.052l2.499 8.615z" fill="#F99746"/><path d="M360.318 445.278l-9.182 1.641c.153 0-8.52 1.692-11.326-6 5.204-3.795 18.009-4.308 18.009-4.308v.052l2.499 8.615z" fill="#ED7D2B"/><path d="M381.388 478.814c-3.265.667-6.479-1.487-7.143-4.769l-5.815-29.126c-.663-3.282 1.479-6.513 4.744-7.179 3.265-.667 6.479 1.487 7.142 4.769l5.816 29.126c.663 3.282-1.479 6.513-4.744 7.179z" fill="#D7E1FF"/><path d="M380.623 450.611s-4.49 1.795-3.673 3.794c.816 2 6.53 4.718 7.397 3.128.918-1.589-.918-8.615-3.724-6.922zm-9.999 16.563s-.868-4.615-.919-6.718c-.051-2.102-.663-3.692-.153-3.794.51-.052.766.307.97.974.204.667 1.428 4.769 1.428 4.769l-.408 4.051-.918.718z" fill="#FFB27D"/></g><defs><clipPath id="clip0"><path fill="#fff" transform="translate(.5)" d="M0 0h527.5v789H0z"/></clipPath></defs></svg>