<svg width="1769" height="903" viewBox="0 0 1769 903" fill="none" xmlns="http://www.w3.org/2000/svg">
<path d="M1583.76 427.493C1583.76 427.493 1597.85 422.384 1606.96 436.658C1616.06 450.933 1611.14 449.567 1615.57 456.722C1620 463.876 1622.13 484.15 1623.66 495.116C1639.28 606.982 1452.47 616.052 1525.42 473.456C1532.26 460.085 1538.05 452.047 1544.2 437.766C1550.35 423.485 1576.38 424.048 1583.76 427.493Z" fill="#B75742"/>
<path d="M1543.8 532.015L1524.96 525.432C1524.96 525.432 1517.49 534.984 1515.24 558.9C1512.99 582.815 1515.24 596.866 1515.24 596.866H1536.55L1543.8 532.015Z" fill="#355389"/>
<path d="M1581.51 519.16C1575.12 519.84 1527.58 515.308 1524.93 525.418C1510.67 579.771 1530.27 654.806 1535.28 659.813C1540.28 664.821 1621.99 648.514 1621.99 648.514C1621.99 648.514 1634.83 513.671 1581.51 519.16Z" fill="#466EB6"/>
<path d="M1646.43 463.448C1646.43 463.448 1641.18 460.948 1636.4 452.102C1633.34 446.428 1624.24 439.193 1628.03 437.983C1631.82 436.774 1637.63 446.395 1638.71 443.65C1639.8 440.905 1628.96 420.135 1632.39 419.068C1635.82 418.002 1644.81 438.208 1645.79 435.748C1646.76 433.289 1636.61 415.637 1641.47 414.129C1646.32 412.621 1651.56 435.87 1654.17 435.048C1656.78 434.226 1652.98 416.514 1656.89 415.304C1660.79 414.095 1660.24 437.222 1661.64 436.557C1662.4 436.196 1665.87 425.006 1667.99 425.835C1670.38 426.78 1663.91 449.778 1666.78 454.853C1669.66 459.928 1692.68 522.944 1684.81 530.812C1676.23 539.393 1621.64 559.062 1610.24 555.679C1598.84 552.295 1592.27 541.01 1595.03 534.073C1597.78 527.136 1651.72 511.537 1652.59 509.356C1653.45 507.175 1646.43 463.448 1646.43 463.448Z" fill="#F7A491"/>
<path d="M1650.81 443.541C1652.46 443.51 1654.1 443.808 1655.64 444.418C1657.36 445.05 1658.93 446.039 1660.25 447.318C1661.56 448.598 1662.59 450.14 1663.27 451.844C1660.81 448.881 1658.08 445.647 1650.81 443.541Z" fill="#F48C7F"/>
<path d="M352.329 850.763C351.418 844.275 353.456 833.099 358.531 815.658C348.477 815.658 340.019 811.228 329.741 811.384C326.935 827.806 322.587 854.765 322.587 854.765L322.119 876.072L393.687 876.615C393.687 876.615 393.089 876.921 371.996 863.584C370.433 862.599 353.198 857.034 352.329 850.763Z" fill="#F7A491"/>
<path d="M321.779 881.555H395.657C398.374 881.303 399.053 879.075 398.109 877.703C396.159 874.876 381.751 868.082 372.056 863.571C355.073 865.358 325.182 858.366 322.519 854.426C317.859 867.464 320.257 881.235 321.779 881.555Z" fill="#3C8F7C"/>
<path d="M263.172 850.764C262.269 844.275 260.727 836.156 262.982 814.523C252.928 814.523 243.356 812.655 233.091 812.811C233.091 829.702 233.445 854.765 233.445 854.765L232.983 876.072L304.551 876.615C304.551 876.615 303.953 876.921 282.853 863.584C281.263 862.599 264.049 857.035 263.172 850.764Z" fill="#F7A491"/>
<path d="M232.623 881.555H306.5C309.218 881.303 309.897 879.075 308.953 877.703C307.003 874.876 292.594 868.082 282.907 863.571C265.924 865.358 236.033 858.366 233.363 854.426C228.703 867.464 231.108 881.235 232.623 881.555Z" fill="#3C8F7C"/>
<path d="M315.182 232.677L342.098 204.271C342.098 204.271 370.915 220.121 404.508 235.266C413.741 219.191 428.815 166.318 429.644 163.791C430.473 161.263 411.981 129.501 416.125 128.706C420.269 127.911 425.636 145.691 429.983 143.864C434.331 142.036 445.608 100.863 448.203 103.099C453.122 107.311 442.3 128.726 444.888 130.275C447.476 131.824 454.052 106.536 459.059 107.61C464.066 108.683 450.608 130.649 452.082 132.748C453.557 134.848 467.626 114.261 470.533 119.031C472.109 121.626 457.558 136.967 460.547 138.686C463.536 140.405 476.654 130.737 478.21 133.869C479.765 137.001 465.982 140.263 462.143 148.185C458.305 156.107 451.342 159.191 449.025 174.172C446.709 189.154 440.398 269.216 424.073 275.643C409.821 281.31 315.182 232.677 315.182 232.677Z" fill="#F7A491"/>
<path d="M332.573 385.886L310.746 398.061L266.372 465.921L345.725 652.727C345.725 652.727 336.792 680.821 333.878 694.851C330.855 709.54 323.382 835.585 323.382 835.585L357.233 836.156C357.233 836.156 389.393 701.971 394.842 658.42C401.451 605.535 361.187 479.584 361.187 479.584C353.653 453.882 337.465 401.016 337.465 401.016C337.465 401.016 333.504 388.141 332.573 385.886Z" fill="#355389"/>
<path d="M256.59 360.401C256.59 360.401 258.845 376.36 249.796 394.569C244.294 405.664 234.79 414.367 227.976 427.969C215.069 453.698 208.099 490.251 212.936 513.739C212.936 513.739 239.572 615.468 238.513 652.652C238.119 666.356 233.418 691.06 230.408 707.76C227.752 722.524 228.683 832.046 228.683 832.046L264.654 832.725L293.627 653.107L305.855 493.444L332.56 385.893L256.59 360.401Z" fill="#466EB6"/>
<path d="M340.637 123.087C337.145 106.598 333.572 90.0471 317.159 78.1641C303.905 68.5503 289.653 65.8055 274.551 71.2816C231.753 86.813 254.769 120.777 201.665 156.976C185.164 168.221 178.901 172.141 167.06 187.136C150.484 208.116 141.422 236.271 149.757 259.446C166.985 307.379 220.408 321.226 248.315 311.082C300.285 292.181 343.613 226.209 346.479 208.218C349.577 188.957 342.886 133.7 340.637 123.087Z" fill="#13375B"/>
<path d="M344.605 250.525C356.649 256.09 378.47 264.453 378.47 264.453L390.881 225.19C320.719 185.274 326.229 191.715 273.566 192.496C231.495 193.101 213.866 185.064 177.637 282.859C177.637 282.859 205.218 295.251 215.089 299.226C219.335 287.132 227.011 263.02 231.488 276.771C238.211 297.433 243.238 318.608 246.522 340.086C248.628 352.88 253.22 369.26 250.809 382.298C250.809 382.298 279.456 388.196 301.338 389.154H301.528C312.105 388.882 322.934 387.951 332.574 385.872C332.574 385.872 336.867 295.143 339.156 291.358C341.697 287.16 352.417 273.619 343.3 253.365C341.684 249.798 342.118 249.377 344.605 250.525Z" fill="#50BFA5"/>
<path d="M280.156 152.112C280.156 152.112 276.807 179.173 274.83 188.563C272.792 198.394 269.66 229.328 290.04 234.376C310.42 239.424 304.123 200.697 304.456 190.696C304.789 180.695 310.57 145.854 310.57 145.854L280.156 152.112Z" fill="#F7A491"/>
<path d="M279.049 160.747C279.259 160.87 279.449 161.006 279.667 161.128C290.923 167.582 300.726 166.563 308.09 161.542C309.401 152.886 310.57 145.854 310.57 145.854L280.156 152.112C280.156 152.112 279.714 155.72 279.049 160.747Z" fill="#F47458"/>
<path d="M286.283 81.6493C278.392 84.3094 271.714 89.7084 267.459 96.8683C260.57 108.731 257.133 142.797 282.486 157.336C307.839 171.876 325.828 148.586 325.06 126.763C324.292 104.94 318.226 76.18 286.283 81.6493Z" fill="#F7A491"/>
<path d="M330.658 117.441C330.943 123.101 328.518 127.83 325.223 127.993C321.928 128.156 319.075 123.705 318.796 118.039C318.518 112.373 320.936 107.651 324.231 107.488C327.526 107.325 330.379 111.775 330.658 117.441Z" fill="#F7A491"/>
<path d="M289.877 80.7524C289.877 80.7524 276.209 116.381 262.833 120.159C249.457 123.936 250.53 141.479 250.53 141.479C250.53 141.479 248.818 100.992 261.033 91.0728C273.247 81.1533 289.877 80.7524 289.877 80.7524Z" fill="#13375B"/>
<path d="M268.573 127.15C270.611 132.721 269.252 138.374 265.55 139.78C261.848 141.187 257.12 137.81 255.061 132.246C253.003 126.681 254.348 121.022 258.077 119.615C261.807 118.209 266.508 121.579 268.573 127.15Z" fill="#F7A491"/>
<path d="M291.936 408.008C292.432 408.076 294.653 407.777 296.494 407.824C298.087 407.86 299.676 408.003 301.249 408.252C302.135 407.554 303.105 406.97 304.137 406.513C304.925 406.153 306.215 406.017 307.092 405.609C307.968 405.202 308.763 404.414 309.619 404.033C311.854 403.062 313.912 402.837 314.585 404.033C315.149 404.998 302.717 412.607 302.717 412.607C291.202 412.675 279.151 418.546 252.446 401.139C237.208 394.481 163.222 357.935 161.734 349.965C160.898 345.501 172.25 310.892 181.53 284.619C188.683 287.826 203.894 294.599 212.406 298.159C204.6 314.71 195.388 336.648 196.36 339.339C196.604 340.018 197.535 341.302 247.548 374.05C248.811 374.866 250.095 375.722 251.406 376.578C254.925 378.881 258.696 381.334 262.69 383.943L276.956 382.448C276.956 382.448 299.551 384.011 300.23 386.579C300.523 387.754 298.648 388.345 296.345 388.678H296.277L295.264 388.814H295.217C292.737 389.106 290.115 389.154 289.483 389.378C288.285 389.791 287.144 390.352 286.087 391.049C300.176 396.804 299.089 394.752 303.749 394.447C304.925 394.358 306.161 394.691 307.268 394.603C309.164 394.447 310.665 393.319 312.146 393.244C313.676 393.143 315.191 393.599 316.412 394.528C316.908 395.024 315.984 395.744 314.177 396.566C303.308 401.282 294.293 399.474 291.406 400.174C289.463 400.65 293.002 401.377 298.532 400.785C299.891 400.65 301.718 401.146 303.546 400.718C304.762 400.446 305.869 399.658 307.065 399.359C308.26 399.06 309.3 399.107 310.223 398.931C311.446 398.706 313.138 397.776 314.109 397.667C317.717 397.259 319.483 397.891 319.884 398.231C320.719 398.971 304.313 405.27 304.313 405.27C304.313 405.27 293.002 406.9 290.475 406.9C290.489 406.88 288.981 407.553 291.936 408.008Z" fill="#F7A491"/>
<path d="M102.17 536.091C102.17 536.091 94.6018 629.403 94.6018 637.508C94.6018 645.613 126.802 647.903 126.802 647.903L136.639 552.146L102.17 536.091Z" fill="#466EB6"/>
<path d="M150.185 513.365C150.185 513.365 129.296 502.182 112.074 512.434C94.8532 522.687 90.1658 582.91 90.1658 582.91L145.335 589.521L150.185 513.365Z" fill="#86B1F2"/>
<path d="M277.744 820.557C277.744 820.557 267.187 863.604 259.321 870.365C251.454 877.125 225.802 890.068 232.514 891.427C239.226 892.785 288.899 893.974 287.54 885.686C286.182 877.397 284.748 872.097 284.748 872.097L297.887 841.347L277.744 820.557Z" fill="#F47458"/>
<path d="M229.172 893.213C241.291 894.423 276.664 895.693 286.976 894.375C286.976 894.375 288.906 893.995 287.547 885.706C287.214 883.668 286.868 881.833 286.555 880.203C277.208 882.655 256.848 877.431 248.784 876.357C240.021 880.556 230.143 886.82 226.957 887.343C222.344 888.104 222.351 892.534 229.172 893.213Z" fill="#13375B"/>
<path d="M393.598 856.647C393.598 856.647 394.706 867.518 394.706 872.342C394.706 877.166 390.236 890.686 392.308 892.724C394.38 894.763 453.557 894.538 453.557 892.588C453.557 890.638 443.095 884.734 428.883 880.672C414.671 876.609 409.862 860.867 413.53 851.823L393.598 856.647Z" fill="#F47458"/>
<path d="M454.494 892.786C454.494 890.965 444.793 885.387 432.225 881.548C418.829 886.073 400.229 882.343 393.259 881.004C391.126 886.589 390.44 891.875 391.54 892.976C393.626 895.014 454.494 894.695 454.494 892.786Z" fill="#13375B"/>
<path d="M329.367 674.638L318.756 684.055C318.756 684.055 306.806 716.402 306.113 718.542C305.142 721.511 266.44 846.273 266.44 846.273L293.403 855.975C293.403 855.975 320.135 803.891 324.571 785.798C329.007 767.705 373.293 692.038 373.293 692.038L329.367 674.638Z" fill="#86B1F2"/>
<path d="M376.248 693.838L389.155 859.154H419.046C419.046 859.154 429.753 735.432 426.064 692.018L376.248 693.838Z" fill="#86B1F2"/>
<path d="M216.047 578.65C216.047 578.65 225.123 623.057 233.098 631.047C237.636 635.592 250.014 653.964 259.531 653.964C267.106 653.964 271.617 654.514 272.887 654.514C275.842 654.514 272.52 672.607 269.748 675.379C269.748 675.379 268.825 678.144 263.288 678.144C257.751 678.144 228.404 658.027 219.545 649.16C210.687 640.294 194.26 591.94 194.26 591.94L216.047 578.65Z" fill="#F7A491"/>
<path d="M361.853 522.897C361.853 522.897 350.406 536.193 335.27 558.709C320.135 581.225 281.46 643.759 277.316 647.896C276.007 648.994 274.625 650.002 273.179 650.913C273.179 650.913 267.744 649.744 264.823 650.818C261.902 651.891 258.118 657.401 259.477 658.753C260.835 660.105 266.053 655.587 267.629 655.635C269.205 655.682 269.368 655.682 269.368 656.538C269.368 657.394 262.907 660.968 261.06 661.464C259.212 661.96 254.348 669.434 255.279 671.92C256.209 674.407 256.141 675.25 258.478 675.25C260.815 675.25 261.196 677.091 263.152 677.091C265.109 677.091 265.611 674.631 267.826 675.616C270.041 676.602 270.659 676.357 277.547 672.172C284.436 667.987 297.302 652.414 303.756 645.96C310.21 639.505 369.237 575.205 369.237 575.205L361.853 522.897Z" fill="#F47458"/>
<path d="M386.893 423.892C386.893 423.892 372.804 418.79 363.701 433.065C354.598 447.339 359.516 445.973 355.087 453.121C350.657 460.268 339.088 458.781 339.088 469.862C339.088 480.943 344.258 482.655 344.258 482.655C344.258 482.655 339.578 491.27 344.747 500.137C349.917 509.003 362.784 516.626 373.585 515.396C373.585 515.396 389.787 524.276 406.023 520.078C422.26 515.879 416.608 515.886 423.251 515.886C429.895 515.886 447.864 506.781 444.909 493.465C444.909 493.465 455.86 480.461 445.235 469.841C434.61 459.222 432.606 448.447 426.451 434.179C420.296 419.911 394.278 420.448 386.893 423.892Z" fill="#184655"/>
<path d="M186.509 517.869C188.602 518.589 197.154 524.663 202.134 534.284C207.114 543.904 220.286 584.004 220.286 584.004L198.622 591.939L186.509 517.869Z" fill="#50BFA5"/>
<path d="M77.4621 848.623C77.4621 848.623 73.8955 861.301 71.0627 864.128C68.2299 866.954 58.8346 877.94 61.158 883.389C63.4813 888.838 120.641 896.631 122.808 894.464C124.975 892.296 112.93 883.111 106.103 877.478C99.2756 871.846 94.3843 864.929 97.2715 856.532C100.159 848.134 100.132 848.963 100.132 848.134C100.132 847.305 77.4621 848.623 77.4621 848.623Z" fill="#F7A491"/>
<path d="M122.828 894.491C125.417 892.555 117.394 883.878 105.743 877.193C100.872 877.193 94.3708 876.853 88.8682 875.481C80.2474 873.327 73.6443 865.86 71.681 863.435C71.5044 863.686 57.6459 877.023 60.3497 883.416C62.6594 888.859 117.659 898.37 122.828 894.491Z" fill="#355389"/>
<path d="M172.345 854.806C172.345 854.806 173.405 867.824 171.258 871.2C169.112 874.577 161.612 887.975 165.824 892.16C169.594 895.931 221.971 893.519 223.608 890.917C225.245 888.315 216.291 880.597 208.398 876.588C200.504 872.58 194.22 866.9 195.184 858.074C196.149 849.249 196.326 850.064 196.142 849.242C195.959 848.42 172.345 854.806 172.345 854.806Z" fill="#F7A491"/>
<path d="M230.082 893.003C232.799 891.27 220.741 880.352 207.922 876.364C203.167 877.417 196.754 878.518 191.081 878.402C182.202 878.178 174.098 872.335 171.686 870.392C171.564 870.677 159.635 887.962 164.981 892.371C169.173 895.782 225.931 895.632 230.082 893.003Z" fill="#355389"/>
<path d="M176.17 670.453L142.359 768.452L103.569 859.168L71.0833 851.015C71.0833 851.015 82.8086 788.135 93.8207 768.384C102.156 753.437 107.978 667.667 107.978 667.667L176.17 670.453Z" fill="#F47458"/>
<path d="M159.934 686.922L171.645 859.134H199.335C199.335 859.134 211.427 678.708 206.998 661.546C202.569 644.384 156.442 648.25 156.442 648.25L159.934 686.922Z" fill="#B75742"/>
<path d="M186.509 517.869C186.509 517.869 150.83 507.175 145.335 507.868C139.316 508.622 124.696 516.368 124.696 516.368C124.696 516.368 125.6 578.317 123.012 595.86C120.423 613.402 102.339 669.495 102.339 669.495C102.339 669.495 127.814 684.265 170.633 679.462C213.452 674.658 210.503 664.324 210.503 664.324C210.503 664.324 206.427 602.3 202.351 574.981C198.275 547.662 186.509 517.869 186.509 517.869Z" fill="#96D9C9"/>
<path d="M428.679 527.327C415.355 524.065 401.767 521.996 388.075 521.144C376.894 520.526 361.867 522.897 361.867 522.897C361.867 522.897 348.205 553.546 344.15 578.65C340.094 603.755 317.948 684.239 317.948 684.239C317.948 684.239 362.988 718.943 428.679 696.054V527.327Z" fill="#F7A491"/>
<path d="M377.478 499.885C377.478 499.885 378.069 519.486 376.228 521.328C374.387 523.169 371.819 526.219 374.529 530.901C377.24 535.582 388.986 532.592 394.461 529.915C397.853 528.137 400.807 525.626 403.109 522.564L400.392 491.515L377.478 499.885Z" fill="#F47458"/>
<path d="M385.29 508.011C389.067 506.686 395.664 504.138 400.752 495.863L400.365 491.515L377.478 499.885C377.478 499.885 377.62 504.641 377.546 509.73C380.199 509.551 382.81 508.971 385.29 508.011Z" fill="#B75742"/>
<path d="M68.3386 430.958C68.3386 430.958 66.4568 439.675 75.5532 442.739C84.6495 445.804 90.288 413.81 95.4577 407.491C100.627 401.173 116.307 399.447 124.452 412.071C128.935 419.007 130.335 422.031 130.688 423.342C130.98 424.416 130.566 424.348 130.566 424.348L128.107 428.947C128.107 428.947 120.22 424.191 117.237 432.901C114.255 441.612 123.039 455.954 115.512 467.83C107.985 479.706 94.1942 471.309 94.1942 471.309C82.7541 479 69.5886 467.232 65.3563 456.144C61.1241 445.056 68.3386 430.958 68.3386 430.958Z" fill="#F7CC7F"/>
<path d="M158.072 475.236L156.829 488.09L145.335 507.868C145.335 507.868 168.004 535.317 175.001 528.753C176.564 527.293 180.511 498.241 180.511 498.241L158.072 475.236Z" fill="#F7A491"/>
<path d="M156.829 488.09L154.424 492.479C161.704 498.993 170.066 504.184 179.132 507.821C179.933 502.487 180.49 498.241 180.49 498.241L158.072 475.236L156.829 488.09Z" fill="#F48C7F"/>
<path d="M181.401 433.01C181.401 433.01 187.392 438.445 189.593 441.516C202.705 459.779 192.087 495.802 185.239 498.798C174.879 503.33 161.394 497.235 146.197 486.929C131.001 476.622 126.198 459.929 140.083 445.41C153.969 430.89 181.401 433.01 181.401 433.01Z" fill="#F7A491"/>
<path d="M130.994 429.789L135.131 425.828C151.367 425.828 164.343 416.038 182.528 425.883C194.56 432.378 189.614 441.509 189.614 441.509C145.083 441.509 161.15 476.608 155.688 490.577C150.226 504.546 116.184 474.346 130.994 429.789Z" fill="#F7CC7F"/>
<path d="M162.142 469.318C162.142 469.318 161.517 457.768 154.451 460.085C147.386 462.402 152.889 479.72 158.752 479.109C164.614 478.497 162.142 469.318 162.142 469.318Z" fill="#F7A491"/>
<path d="M404.4 469.352C404.4 469.352 404.957 457.802 412.029 460.065C419.101 462.327 413.713 479.7 407.851 479.088C401.988 478.477 404.4 469.352 404.4 469.352Z" fill="#F47458"/>
<path d="M129.825 421.107C129.825 421.107 136.537 425.272 139.241 424.925C141.945 424.579 135.097 433.35 131.469 434.26C127.842 435.171 129.119 431.679 128.351 430.476C127.584 429.274 124.758 430.211 124.105 429.328C122.624 427.31 126.66 421.494 129.825 421.107Z" fill="#50BFA5"/>
<path d="M254.959 674.638C254.959 674.638 261.168 665.038 263.2 664.576C265.231 664.114 262.738 671.133 262.738 672.424C262.738 673.714 266.426 662.545 268.458 662.545C270.489 662.545 270.767 664.026 269.932 666.886C269.096 669.747 267.167 673.436 268.091 673.436C269.015 673.436 271.644 661.023 273.165 662.565C274.687 664.108 274.103 674.244 271.229 677.118C268.356 679.992 259.891 678.178 254.959 674.638Z" fill="#F7A491"/>
<path d="M365.318 600.276C367.831 601.587 371.01 599.896 372.294 597.47C374.074 594.073 372.974 590.676 370.433 589.473C367.804 588.237 364.781 589.426 363.171 592.619C361.683 595.581 362.695 599.169 365.318 600.276ZM348.029 579.105C349.068 578.012 352.105 573.67 357.234 575.409C361.683 576.89 363.443 581.477 364.706 583.562C364.339 581.477 363.497 577.876 364.482 573.792C367.111 562.922 380.406 563.907 380.168 573.983C380.073 577.937 378.646 580.349 376.649 584.595C377.464 583.698 379.91 580.736 383.272 579.003C393.089 573.949 398.361 586.266 391.425 592.809C387.831 596.206 383.272 596.281 380.48 596.607C382.899 597.287 384.346 597.49 386.717 598.992C398.945 606.764 381.914 627.752 372.695 607.546C372.695 607.546 372.634 607.546 372.607 607.546C373.028 610.406 373.843 613.905 372.661 617.954C369.468 628.913 354.89 626.991 357.417 614.557C358.205 610.678 360.814 606.567 360.943 606.248C359.183 608.123 356.595 611.235 352.845 612.703C343.185 616.48 338.579 602.844 347.478 597.076C351.459 594.501 355.413 594.875 356.812 594.501C353.511 593.706 350.399 592.782 348.151 590.01C345.101 586.266 346.738 582.577 346.636 582.074C347.098 581.082 347.56 580.091 348.029 579.105Z" fill="#F7CC7F"/>
<path d="M382.158 431.712C382.158 431.712 371.078 431.461 365.419 440.076C359.76 448.691 353.606 473.306 362.96 490.285C372.315 507.264 384.244 503.085 389.169 501.366C394.094 499.647 403.815 495.829 408.734 479.951C413.652 464.073 410.086 428.383 382.158 431.712Z" fill="#F47458"/>
<path d="M130.45 513.501C130.45 513.501 138.473 512.292 145.362 538.347C153.161 567.868 144.757 598.455 131.85 606.201C118.943 613.946 113.623 612.451 113.623 612.451L115.661 630.66C115.661 630.66 153.806 622.126 158.996 589.521C167.508 536.085 142.4 508.562 142.4 508.562C142.4 508.562 137.645 509.316 136.211 509.92C134.601 510.552 130.45 513.501 130.45 513.501Z" fill="#466EB6"/>
<path d="M110.709 575.206V613.348C110.709 620 118.338 664.984 127.692 680.4C137.047 695.816 149.723 713.012 152.346 713.977C154.968 714.941 160.674 718.569 163.629 715.621C166.584 712.672 168.915 714.017 172.61 712.421C176.306 710.824 172.114 705.525 166.951 700.361C161.788 695.197 160.674 693.961 161.517 693.098C162.359 692.235 166.557 697.039 168.772 696.298C170.987 695.558 167.413 687.805 161.639 685.101C155.865 682.397 146.626 677.098 145.763 674.271C144.9 671.445 144.9 672.179 144.9 671.438C144.9 670.698 138.378 626.026 138.378 617.289C138.378 608.551 135.797 580.125 135.797 580.125L110.709 575.206Z" fill="#F7A491"/>
<path d="M128.154 514.853C124.798 515.267 115.688 518.589 112.489 529.419C109.289 540.249 100.865 571.02 102.339 586.028C102.339 586.028 138.27 590.71 138.27 589.228C138.27 587.747 146.13 549.238 142.21 532.375C138.786 517.666 133.99 514.126 128.154 514.853Z" fill="#50BFA5"/>
<path d="M180.918 516.232L205.898 606.01C204.797 594.283 203.588 583.087 202.379 574.954C198.303 547.635 186.509 517.883 186.509 517.883C186.509 517.883 184.308 517.21 180.918 516.232Z" fill="#466EB6"/>
<path d="M326.527 697.202H395.643V602.294L326.527 605.997V697.202Z" fill="#3C8F7C"/>
<path d="M326.527 598.598H392.572C394.271 598.598 395.643 600.255 395.643 602.294C395.643 604.332 394.284 605.996 392.572 605.996H326.527H326.582C331.147 603.911 331.12 600.636 326.527 598.598Z" fill="#3C8F7C"/>
<path d="M328.416 599.691H390.297C391.492 599.691 392.464 600.86 392.464 602.294C392.464 603.734 391.492 604.903 390.297 604.903H328.416C330.515 603.286 330.508 601.315 328.416 599.691Z" fill="#FAE0B2"/>
<path d="M428.679 527.327C428.679 527.327 423.503 532.518 417.966 552.187C412.429 571.856 409.61 617.907 404.807 622.704C400.004 627.5 368.633 652.489 362.974 651.627C357.315 650.764 344.632 636 340.698 636C336.765 636 337.254 639.574 339.224 641.537C341.194 643.501 343.592 645.784 342.424 646.973L341.255 648.148C341.255 648.148 323.722 643.528 320.767 645.254C317.812 646.979 323.599 651.036 323.599 653.991C323.599 656.946 322.873 656.892 323.226 660.147C323.579 663.401 324.394 665.99 325.943 667.525C327.492 669.06 346.86 674.666 365.807 672.084C384.753 669.502 407.926 660.391 424.997 639.22C442.069 618.05 438.672 551.528 438.285 544.89C437.28 528.068 428.679 527.327 428.679 527.327Z" fill="#F47458"/>
<path d="M1374.73 166.563L1389.12 163.703L1392.62 149.177L1408.98 147.104L1407.92 130.472L1426.31 127.32L1427.24 111.884L1444.42 105.959L1446.69 112.468L1433.84 116.898L1432.87 133.183L1415.19 136.213L1416.25 153.124L1398.21 155.407L1394.78 169.593L1381.46 172.25L1381.16 182.04L1374.28 181.809L1374.73 166.563Z" fill="#50BFA5"/>
<path d="M1292.8 286.147L1301.38 270.439L1293.32 254.48C1293.11 254.07 1293.02 253.611 1293.06 253.154C1293.1 252.697 1293.27 252.26 1293.55 251.893C1293.82 251.526 1294.2 251.244 1294.62 251.078C1295.05 250.912 1295.52 250.869 1295.97 250.954L1313.54 254.255L1326.22 241.652C1326.54 241.329 1326.95 241.104 1327.4 241.001C1327.85 240.899 1328.32 240.923 1328.75 241.072C1329.18 241.222 1329.57 241.489 1329.86 241.845C1330.15 242.201 1330.33 242.631 1330.39 243.086L1332.68 260.819L1348.58 268.972C1348.99 269.181 1349.33 269.501 1349.57 269.894C1349.8 270.287 1349.93 270.739 1349.92 271.197C1349.91 271.656 1349.78 272.104 1349.53 272.49C1349.28 272.875 1348.93 273.184 1348.51 273.381L1332.35 281.038L1329.5 298.703C1329.43 299.155 1329.23 299.578 1328.93 299.924C1328.63 300.269 1328.23 300.524 1327.8 300.659C1327.36 300.794 1326.89 300.804 1326.45 300.687C1326.01 300.571 1325.6 300.333 1325.29 300.001L1313.01 286.997L1295.35 289.714C1294.9 289.783 1294.44 289.726 1294.02 289.55C1293.6 289.374 1293.24 289.085 1292.98 288.715C1292.71 288.346 1292.56 287.91 1292.52 287.457C1292.49 287.004 1292.59 286.55 1292.8 286.147Z" fill="#F47458"/>
<path d="M116.279 110.661L126.816 96.2095L120.885 79.3395C120.733 78.9066 120.706 78.4398 120.805 77.9919C120.904 77.5439 121.127 77.1328 121.448 76.8048C121.769 76.4769 122.175 76.2452 122.621 76.136C123.066 76.0269 123.533 76.0445 123.97 76.187L140.953 81.7447L155.158 70.874C155.522 70.595 155.958 70.4236 156.415 70.3792C156.872 70.3348 157.332 70.4192 157.743 70.6228C158.155 70.8264 158.501 71.1411 158.743 71.5313C158.984 71.9215 159.112 72.3716 159.112 72.8307L159.078 90.713L173.785 100.904C174.162 101.165 174.459 101.526 174.642 101.946C174.824 102.367 174.886 102.83 174.82 103.283C174.753 103.737 174.561 104.163 174.266 104.513C173.97 104.864 173.583 105.124 173.147 105.266L156.143 110.776L151.028 127.911C150.896 128.35 150.643 128.744 150.3 129.048C149.956 129.351 149.534 129.552 149.082 129.629C148.629 129.705 148.165 129.653 147.74 129.479C147.316 129.306 146.949 129.017 146.68 128.645L136.198 114.173L118.324 114.601C117.86 114.617 117.401 114.501 117 114.266C116.599 114.032 116.273 113.688 116.059 113.276C115.845 112.864 115.752 112.399 115.791 111.937C115.83 111.474 115.999 111.031 116.279 110.661Z" fill="#F7CC7F"/>
<path d="M495.472 325.56C495.225 322.008 496.037 318.462 497.805 315.371C499.574 312.28 502.219 309.783 505.406 308.196C508.593 306.609 512.18 306.002 515.712 306.453C519.244 306.904 522.562 308.393 525.248 310.73C527.935 313.068 529.867 316.15 530.802 319.586C531.737 323.022 531.632 326.658 530.5 330.035C529.368 333.411 527.261 336.376 524.444 338.555C521.628 340.733 518.229 342.028 514.677 342.274C509.914 342.604 505.215 341.029 501.613 337.895C498.012 334.76 495.803 330.324 495.472 325.56Z" fill="#F7CC7F"/>
<path d="M526.001 376.428C524.928 371.203 524.276 365.612 522.496 360.577C520.96 356.249 514.208 357.574 514.548 362.221C514.969 367.915 516.749 373.683 517.944 379.261C518.427 381.524 521.416 382.57 523.379 381.877C525.797 381.028 526.463 378.697 525.994 376.442L526.001 376.428Z" fill="#F7CC7F"/>
<path d="M556.85 354.096C550.885 350.576 545.682 346.221 540.179 342.056C535.879 338.809 531.239 344.4 534.744 348.266C539.826 353.81 546.49 358.145 552.93 361.943C554.968 363.146 557.801 361.943 558.8 359.959C559.914 357.71 558.861 355.298 556.816 354.096H556.85Z" fill="#F7CC7F"/>
<path d="M545.525 321.864C544.891 322.328 544.457 323.016 544.311 323.788C544.164 324.56 544.317 325.358 544.737 326.022C546.775 329.678 551.877 329.501 555.512 329.379C559.323 329.221 563.09 328.504 566.693 327.252C571.999 325.438 569.125 317.203 563.799 319.024C553.412 322.578 549.472 318.719 545.525 321.864Z" fill="#F7CC7F"/>
<path d="M539.819 286.86C534.581 294.524 530.308 297.113 530.987 301.339C531.375 303.805 533.324 304.981 535.709 304.437C538.521 303.805 540.05 300.816 541.741 298.723C543.433 296.631 544.948 294.701 546.388 292.561C547.699 290.618 547.883 288.111 545.96 286.446C544.357 285.04 541.171 284.924 539.846 286.867L539.819 286.86Z" fill="#F7CC7F"/>
<path d="M519.405 285.536C517.734 280.888 517.367 279.197 515.193 277.036C513.304 275.161 509.317 276.357 509.079 279.122C508.773 282.349 509.446 283.545 511.205 288.43C511.605 289.499 512.409 290.369 513.443 290.852C514.477 291.336 515.66 291.394 516.737 291.015C517.814 290.636 518.699 289.85 519.203 288.826C519.707 287.801 519.789 286.62 519.432 285.536H519.405Z" fill="#F7CC7F"/>
<path d="M497.36 296.773C489.806 291.039 488.271 289.422 485.302 289.735C483.563 289.918 481.613 291.589 481.994 293.539C482.673 297.167 484.806 298.153 491.749 303.221C493.617 304.58 496.171 304.648 497.775 302.8C499.215 301.149 499.201 298.18 497.36 296.773Z" fill="#F7CC7F"/>
<path d="M467.021 323.081C464.046 324.664 465.241 329.807 468.468 330.228C471.552 330.629 472.748 330.133 487.741 327.395C490.058 326.974 491.966 325.282 491.817 322.748C491.668 320.594 489.494 318.277 487.164 318.671C471.566 321.511 470.01 321.497 467.021 323.081Z" fill="#F7CC7F"/>
<path d="M490.499 347.614C482.279 355.563 481.076 354.164 477.836 359.021C476.348 361.25 478.794 364.797 481.382 364.321C484.697 363.709 485.587 363.152 489.908 359.728C492.421 357.737 494.819 355.604 497.129 353.382C498.841 351.731 498.379 348.626 496.701 347.179C494.779 345.508 492.211 345.956 490.499 347.614Z" fill="#F7CC7F"/>
<path d="M332.648 127.429L346.941 117.958L341.344 106.564L355.121 96.7257L351.391 84.8835L360.78 76.1733L357.098 72.5996L344.53 84.2516L348.069 95.4756L333.735 105.708L339.238 116.911L326.29 125.499L332.648 127.429Z" fill="#86B1F2"/>
<path d="M1473.51 216.82L1456.81 212.96L1452.39 224.864L1435.77 221.63L1429.74 232.48L1416.96 231.658L1416.9 236.794L1434 237.895L1439.71 227.609L1457 230.979L1461.35 219.272L1476.48 222.764L1473.51 216.82Z" fill="#F7CC7F"/>
<path d="M409.536 41.095C411.415 39.2502 413.681 37.8459 416.169 36.9835C418.657 36.1211 421.306 35.8221 423.924 36.1081C432.076 36.8962 437.083 43.9282 436.356 51.4833C435.507 60.2274 426.845 69.8276 406.064 76.9071C387.043 65.9957 380.358 54.9076 381.207 46.1567C381.934 38.6015 388.184 32.6566 396.35 33.4448C398.977 33.6613 401.524 34.4602 403.805 35.7835C406.085 37.1067 408.043 38.9211 409.536 41.095Z" fill="#F48C7F"/>
<path d="M341.724 38.0306C348.474 39.8367 355.322 41.2545 362.233 42.2769C364.319 42.5827 367.852 43.7377 369.557 42.1614C370.004 41.8161 370.303 41.3127 370.391 40.7544C370.479 40.1961 370.351 39.6251 370.032 39.1584C368.755 37.1949 365.508 37.4123 363.409 37.1201C357.003 36.169 349.822 34.7897 342.594 32.9689C341.921 32.8619 341.233 33.0224 340.677 33.4159C340.121 33.8095 339.741 34.405 339.618 35.0751C339.518 35.7469 339.682 36.4314 340.074 36.9858C340.466 37.5402 341.057 37.9218 341.724 38.0509V38.0306Z" fill="#F48C7F"/>
<path d="M446.227 70.3981C449.284 70.9076 452.341 71.3561 455.418 71.8181C458.346 72.2529 461.736 73.2924 464.664 72.7013C466.824 72.2733 467.422 69.576 465.343 68.4821C462.707 67.0621 459.229 67.0621 456.267 66.6341C453.203 66.1789 450.153 65.7237 447.062 65.3228C443.781 64.888 442.911 69.8545 446.193 70.3981H446.227Z" fill="#F48C7F"/>
<path d="M363.959 82.4101C368.775 76.5399 373.762 75.2558 377.709 73.3263C378.163 73.1373 378.536 72.7935 378.762 72.3559C378.987 71.9183 379.051 71.415 378.941 70.935C378.831 70.4551 378.555 70.0295 378.162 69.7335C377.768 69.4375 377.283 69.2902 376.792 69.3177C370.216 69.3177 363.884 74.2842 359.971 79.1761C357.933 81.751 361.853 84.9715 363.959 82.4101Z" fill="#F48C7F"/>
<path d="M396.825 103.941C397.162 100.776 398.157 97.7169 399.746 94.9593C400.738 93.2608 405.181 88.7766 401.696 87.2819C398.442 85.8755 395.772 91.175 394.604 93.3966C393.045 96.4072 392.067 99.685 391.723 103.058C391.384 106.36 396.479 107.25 396.825 103.934V103.941Z" fill="#F48C7F"/>
<path d="M425.738 88.5996L430.283 93.0838C431.791 94.5785 433.149 96.6235 435.459 96.4808C436.757 96.4129 437.443 95.2239 437.497 94.0621C437.545 91.9491 435.018 90.3117 433.632 88.9597L429.06 84.5027C428.048 83.5176 426.207 83.8233 425.371 84.8832C424.956 85.4328 424.765 86.1193 424.837 86.8042C424.909 87.489 425.238 88.121 425.758 88.5724L425.738 88.5996Z" fill="#F48C7F"/>
<path d="M391.316 19.109C387.24 2.46329 387.342 2.40894 386.228 0.921011C385.963 0.564525 385.599 0.293084 385.183 0.139953C384.766 -0.0131783 384.313 -0.0413468 383.881 0.0588994C383.448 0.159146 383.054 0.383452 382.747 0.704329C382.44 1.02521 382.233 1.42871 382.152 1.8654C381.853 3.79495 381.934 3.48241 386.336 20.9774C386.683 22.3702 388.517 23.0157 389.733 22.5265C391.2 21.9694 391.628 20.4882 391.282 19.1294L391.316 19.109Z" fill="#F48C7F"/>
<path d="M419.298 23.1925C420.704 20.7543 421.843 18.1711 422.694 15.4879C423.496 12.9877 425.065 9.26448 422.959 7.11752C422.69 6.88788 422.362 6.73667 422.012 6.68037C421.662 6.62406 421.304 6.66482 420.976 6.79819C418.571 7.93961 418.496 11.4998 417.742 13.803C416.915 16.3185 415.872 18.7577 414.624 21.0931C414.349 21.7138 414.329 22.4176 414.567 23.053C414.806 23.6884 415.285 24.2046 415.901 24.4902C416.523 24.7564 417.223 24.7721 417.856 24.5341C418.489 24.2961 419.005 23.8228 419.298 23.2129V23.1925Z" fill="#F48C7F"/>
<path d="M458.353 31.7666C458.991 30.6455 458.203 29.375 457.245 28.8111C455.262 27.6561 452.178 29.2799 450.241 30.0545C448 30.966 445.837 32.059 443.774 33.3225C442.579 34.0426 442.416 35.8703 443.204 36.937C444.107 38.1803 445.588 38.1871 446.818 37.5077C454.827 33.0643 456.777 34.5386 458.353 31.7666Z" fill="#F48C7F"/>
<path d="M536.232 187.455L525.593 211.751L498.583 211.255L498.712 204.189L521.008 204.59L532 179.492L562.169 184.989L567.42 167.405L574.03 169.994L567.128 193.087L536.232 187.455Z" fill="#F7CC7F"/>
<path d="M721.473 46.4761C719.619 61.1311 734.877 72.7627 748.45 71.8455C763.456 70.8332 776.187 58.5221 778.381 43.7788C780.752 27.8125 771.167 15.0462 756.33 13.8844C741.888 12.7498 732.649 25.6044 736.82 38.5745C739.809 47.8757 748.3 51.3475 752.573 48.7657C755.909 46.7682 755.705 41.7202 751.67 40.8301C750.881 40.6999 750.071 40.7991 749.336 41.1159C748.601 41.4326 747.973 41.9536 747.526 42.617C743.993 41.2174 740.638 34.7833 742.913 27.8397C745.828 18.9665 757.043 18.4569 764.007 22.5946C772.838 27.86 774.265 39.1995 771.017 48.2358C767.621 57.7476 758.287 65.2212 748.144 65.9006C742.593 66.2506 737.126 64.4106 732.916 60.7753C728.706 57.1401 726.088 51.9992 725.624 46.4557C725.591 45.9258 725.357 45.4286 724.969 45.0659C724.582 44.7032 724.07 44.5026 723.539 44.5053C723.008 44.5079 722.499 44.7135 722.115 45.0799C721.73 45.4464 721.501 45.9459 721.473 46.4761Z" fill="#86B1F2"/>
<path d="M1226.57 195.649C1225.13 180.94 1207.67 172.977 1194.64 176.884C1180.23 181.191 1170.54 196.016 1171.67 210.854C1172.89 226.943 1185.07 237.27 1199.79 235.123C1214.13 233.037 1220.29 218.45 1213.38 206.724C1208.4 198.319 1199.35 196.818 1195.72 200.269C1192.91 202.953 1194.22 207.831 1198.36 207.804C1199.16 207.757 1199.93 207.482 1200.57 207.011C1201.22 206.54 1201.71 205.893 1202 205.147C1205.76 205.732 1210.46 211.262 1209.77 218.539C1208.9 227.833 1198.08 230.809 1190.37 228.315C1180.56 225.143 1176.68 214.394 1177.85 204.862C1179.08 194.854 1186.51 185.505 1196.25 182.557C1201.58 180.985 1207.32 181.567 1212.23 184.179C1217.14 186.79 1220.83 191.223 1222.51 196.525C1222.66 197.034 1222.99 197.469 1223.44 197.741C1223.89 198.013 1224.43 198.103 1224.95 197.991C1225.47 197.879 1225.92 197.575 1226.22 197.14C1226.52 196.705 1226.65 196.172 1226.57 195.649Z" fill="#86B1F2"/>
<path d="M1315.67 852.02C1315.67 852.02 1317.27 865.799 1317.27 868.136V870.473L1316.12 872.858L1315.67 873.803L1323.92 885.353C1323.92 885.353 1357.01 885.849 1357.75 885.849C1358.49 885.849 1353.32 877.845 1353.32 877.845C1353.32 877.845 1342.37 869.604 1340.42 863.815C1338.46 858.026 1342.09 845.974 1342.09 845.974L1315.67 852.02Z" fill="#F7A491"/>
<path d="M1156.12 769.519C1156.12 769.519 1144.33 776.829 1142.53 778.29L1140.7 779.737L1139.55 782.115L1139.1 783.059L1124.91 783.793C1124.91 783.793 1103.95 758.172 1103.48 757.595C1103.02 757.017 1109.52 758.465 1109.52 758.465C1109.52 758.465 1122.75 760.251 1128.51 758.2C1134.26 756.148 1145.9 744.679 1145.9 744.679L1156.12 769.519Z" fill="#F7A491"/>
<path d="M1263.25 640.199L1136.26 748.369L1155.83 776.062C1155.83 776.062 1286.32 695.021 1293.16 694.097C1299.99 693.173 1305.52 696.312 1306.81 701.299C1308.1 706.286 1311.39 855.826 1311.39 855.826H1345.29L1362.96 667.552L1263.25 640.199Z" fill="#50BFA5"/>
<path d="M1446.2 485.916C1455.6 479.754 1477.67 456.069 1485.14 448.005C1485.22 447.054 1485.94 441.577 1491.94 434.613C1496.18 429.701 1499.41 418.477 1502.18 421.657C1504.95 424.837 1498.06 433.751 1501.22 433.812C1504.39 433.873 1520.09 416.215 1522.61 419.102C1525.13 421.99 1509.19 437.671 1512.02 437.725C1514.84 437.78 1527.79 421.888 1531.36 425.958C1534.92 430.027 1514.37 443.242 1516.31 445.43C1518.25 447.618 1530.95 438.955 1533.82 442.237C1536.7 445.518 1515.88 453.243 1517.52 453.27C1519.16 453.297 1531.2 452.978 1531.28 455.308C1531.39 457.917 1500.9 461.987 1497.16 466.519C1489.19 479.204 1475.01 502.379 1460.65 512.543C1443.08 524.983 1402.47 551.371 1402.47 551.371L1382.3 525.309C1382.3 525.309 1435.06 493.22 1446.2 485.916Z" fill="#F7A491"/>
<path d="M1501.24 439.417C1501.97 440.952 1502.39 442.621 1502.46 444.322C1502.59 446.158 1502.3 447.999 1501.61 449.707C1500.93 451.414 1499.86 452.944 1498.5 454.181C1500.31 450.811 1502.3 447.088 1501.24 439.417Z" fill="#F48C7F"/>
<path d="M1260.04 457.401C1252.57 448.997 1237.47 420.36 1232.36 410.624C1232.54 409.686 1233.28 404.217 1229.3 395.921C1226.49 390.064 1226.32 378.392 1222.8 380.736C1219.28 383.08 1223.61 393.489 1220.55 392.714C1217.48 391.94 1206.96 370.803 1203.75 372.923C1200.54 375.043 1211.85 394.358 1209.1 393.672C1206.36 392.986 1198.01 374.254 1193.48 377.257C1188.94 380.26 1205.33 398.381 1202.91 399.984C1200.48 401.587 1190.47 389.908 1186.85 392.32C1183.22 394.732 1201.29 407.641 1199.67 407.267C1198.06 406.894 1186.55 403.408 1185.86 405.616C1185.07 408.117 1213.44 420.02 1215.86 425.36C1220.24 439.689 1227.86 465.765 1239.07 479.34C1252.78 495.938 1285.07 532.035 1285.07 532.035L1311.36 512.149C1311.36 512.149 1268.88 467.362 1260.04 457.401Z" fill="#F7A491"/>
<path d="M1219.08 398.129C1217.97 399.414 1217.13 400.915 1216.62 402.538C1216.01 404.282 1215.81 406.139 1216.03 407.971C1216.24 409.803 1216.87 411.562 1217.86 413.117C1217 409.373 1216.03 405.236 1219.08 398.129Z" fill="#F48C7F"/>
<path d="M1316.16 516.762C1318.04 513.955 1320.63 511.693 1323.66 510.204C1326.69 508.715 1330.06 508.053 1333.43 508.283C1353.6 509.642 1394.49 512.883 1398.36 516.762C1403.53 521.932 1419.03 555.652 1404.27 602.905C1389.51 650.159 1381.38 645.24 1369.32 645.24C1357.26 645.24 1300.41 618.416 1300.41 618.416L1316.16 516.762Z" fill="#355389"/>
<path d="M1281.34 476.643L1257.63 507.556L1287.06 551.338C1287.06 551.338 1284.3 583.875 1280.04 594.026C1275.79 604.176 1251.25 645.899 1251.25 645.899C1251.25 645.899 1310.87 682.452 1369.2 677.098C1369.2 677.098 1385.63 592.551 1390.26 584.432C1394.89 576.313 1439.34 536.092 1439.34 536.092L1417.74 501.197L1380.43 521.871C1380.43 521.871 1312.28 510.858 1309 507.604C1305.72 504.349 1281.34 476.643 1281.34 476.643Z" fill="#F7CC7F"/>
<path d="M1358.24 413.389C1358.24 413.389 1335.23 401.207 1327.36 421.392C1327.36 421.392 1306.69 419.3 1310.25 440.708C1310.25 440.708 1289.46 451.171 1302.63 478.124C1302.63 478.124 1296.84 503.473 1326.5 505.076C1326.5 505.076 1330.93 514.058 1344.47 511.965C1358.01 509.873 1361.45 506.306 1361.45 506.306C1361.45 506.306 1385.44 513.317 1392.7 491.658C1392.7 491.658 1409.19 487.717 1398.13 466.519C1398.13 466.519 1412.53 439.077 1387.18 430.829C1387.16 430.863 1384.21 402.803 1358.24 413.389Z" fill="#F47458"/>
<path d="M1367.52 472.838C1365.65 478.056 1366.99 483.314 1370.52 484.578C1374.04 485.842 1378.42 482.635 1380.29 477.417C1382.17 472.199 1380.82 466.947 1377.29 465.684C1373.77 464.42 1369.41 467.627 1367.52 472.838Z" fill="#F7A491"/>
<path d="M1305.48 460.031C1305.21 465.568 1308.03 470.222 1311.78 470.378C1315.52 470.534 1318.77 466.206 1319.03 460.669C1319.28 455.132 1316.47 450.478 1312.73 450.328C1308.98 450.179 1305.74 454.493 1305.48 460.031Z" fill="#F7A491"/>
<path d="M1331.79 496.685C1331.79 497.045 1328.8 509.893 1327.22 516.687C1326.93 517.917 1327.07 519.209 1327.63 520.342C1328.19 521.475 1329.12 522.379 1330.27 522.897C1336.6 525.785 1349.04 529.814 1357.64 522.021C1358.02 521.668 1358.33 521.236 1358.53 520.753C1358.73 520.271 1358.83 519.751 1358.81 519.228L1357.75 488.56L1331.79 496.685Z" fill="#F7A491"/>
<path d="M1330.16 503.9C1336.86 507.298 1345.28 507.345 1354.72 501.808C1355.89 501.123 1357.03 500.377 1358.12 499.573L1357.74 488.58L1331.78 496.733C1331.79 496.882 1331.09 499.98 1330.16 503.9Z" fill="#F48C7F"/>
<path d="M1350.21 425.897C1357.68 428.281 1364.06 433.253 1368.2 439.92C1374.86 450.947 1378.53 482.818 1354.76 496.76C1330.98 510.701 1313.68 489.11 1314.13 468.686C1314.58 448.263 1323.65 422.153 1350.21 425.897Z" fill="#F7A491"/>
<path d="M1311.41 508.636C1300.46 516.918 1288.99 559.341 1284.66 570.422L1281.17 590.764L1325.72 512.067C1325.72 512.067 1313.77 506.876 1311.41 508.636Z" fill="#466EB6"/>
<path d="M1365.48 519.378C1365.48 519.378 1364.13 571.652 1368.09 589.616C1372.05 607.58 1382.35 613.864 1382.35 613.864L1387.41 592.959C1387.41 592.959 1382.35 546.758 1380.48 521.871C1380.17 518.087 1365.48 519.378 1365.48 519.378Z" fill="#466EB6"/>
<path d="M1309.64 893.805C1304.59 893.166 1313.32 875.637 1316.12 872.831L1353.32 877.832C1353.32 877.832 1371.23 886.141 1375.47 890.387C1376.48 891.393 1376.61 893.159 1372.24 893.784C1358.2 895.897 1320.85 895.225 1309.64 893.805Z" fill="#13375B"/>
<path d="M1126.75 800.514C1131.12 803.136 1139.06 786.063 1139.52 782.115L1109.48 758.465C1109.48 758.465 1086.3 751.813 1081.63 756.494C1077.38 760.741 1116.85 794.555 1126.75 800.514Z" fill="#13375B"/>
<path d="M679.266 108.969L657.67 136.784L704.184 144.964L679.266 108.969Z" fill="#96D9C9"/>
<path d="M478.047 44.064L531.572 117.536L567.013 78.7686L478.047 44.064Z" fill="#466EB6"/>
<path d="M571.809 58.4676L567.013 78.7686L478.047 44.064L571.809 58.4676Z" fill="#9BC1F9"/>
<path d="M567.013 86.5276L478.047 44.064L560.736 117.536L567.013 86.5276Z" fill="#9BC1F9"/>
<path d="M621.047 174.567C620.368 174.506 604.743 172.895 584.934 160.557C565.124 148.219 557.597 126.545 557.597 123.074C557.591 122.438 557.837 121.825 558.283 121.371C558.728 120.917 559.335 120.658 559.971 120.651C560.607 120.645 561.22 120.892 561.674 121.337C562.128 121.782 562.387 122.39 562.393 123.026C562.611 125.343 568.969 144.958 587.474 156.481C606.258 168.18 621.353 169.777 621.502 169.79C622.091 169.9 622.618 170.227 622.978 170.705C623.338 171.184 623.506 171.78 623.449 172.376C623.392 172.973 623.114 173.526 622.669 173.928C622.225 174.329 621.646 174.55 621.047 174.546V174.567Z" fill="#F7CC7F"/>
<path d="M718.281 196.301C690.461 190.703 663.796 180.41 639.43 165.863C619.179 153.81 602.848 135.432 582.189 125.227C581.619 124.945 581.184 124.448 580.98 123.845C580.776 123.243 580.82 122.584 581.102 122.013C581.384 121.443 581.881 121.008 582.484 120.804C583.086 120.6 583.745 120.644 584.315 120.926C605.701 131.484 621.903 149.842 641.889 161.739C665.784 176.02 691.937 186.127 719.225 191.626C729.225 193.631 741.072 194.344 754.435 193.814C754.755 193.79 755.077 193.831 755.382 193.934C755.686 194.037 755.967 194.2 756.207 194.414C756.447 194.627 756.642 194.887 756.78 195.177C756.918 195.468 756.996 195.783 757.009 196.104C757.023 196.425 756.972 196.746 756.859 197.047C756.747 197.348 756.575 197.623 756.354 197.856C756.132 198.089 755.867 198.276 755.572 198.404C755.277 198.533 754.96 198.601 754.639 198.604C742.764 199.1 729.986 198.645 718.281 196.301Z" fill="#F7CC7F"/>
<path d="M555.573 517.299C556.768 517.217 565.81 531.818 571.469 554.218C577.128 576.619 589.186 617.961 589.186 617.961C589.186 617.961 608.751 657.469 614.043 662.755C619.335 668.041 624.464 662.578 629.797 664.236C631.441 664.746 636.516 669.155 636.516 669.155C636.516 669.155 645.666 688.96 644.314 690.319C642.962 691.678 628.812 695.489 618.968 692.289C609.125 689.089 563.351 635.429 563.351 635.429C563.351 635.429 526.035 519.283 555.573 517.299Z" fill="#F48C7F"/>
<path d="M734.381 535.12L729.952 530.527C729.952 530.527 721.8 545.107 712.479 565.782C703.159 586.456 691.929 611.935 688.111 615.746C684.293 619.558 652.181 663.733 642.46 668.061C632.739 672.389 635.748 670.487 627.942 669.549C622.08 668.87 622.725 673.089 626.536 675.052C628.132 675.744 629.653 676.598 631.074 677.6C635.714 680.895 639.695 685.577 642.623 688.308C643.751 689.361 641.4 691.291 640.075 689.966C638.751 688.641 634.084 681.453 632.148 681.453C630.211 681.453 631.468 686.344 632.331 687.914C633.194 689.483 631.319 689.021 629.654 685.149C627.99 681.276 626.794 677.39 624.396 677.947C622.46 678.395 623.642 683.756 624.179 685.814C623.622 683.851 622.087 678.959 620.612 678.959C618.765 678.959 617.936 679.149 617.936 682.791C617.936 686.433 619.227 690.346 623.472 693.56C627.718 696.773 639.6 694.626 644.484 692.683C647.827 691.324 651.149 685.93 654.491 684.129C669.436 676.072 684.762 666.465 703.763 641.122C727.017 610.107 736.086 582.421 736.086 582.421L734.381 535.12Z" fill="#F4C0B8"/>
<path d="M725.774 886.983C724.296 879.425 724.296 871.652 725.774 864.094C728.233 851.538 741.527 787.544 741.527 774.254C741.527 760.965 747.92 741.52 747.92 741.52L708.79 731.675L704.857 769.825C704.857 769.825 702.764 858.828 699.198 862.368C695.631 865.908 680.537 871.201 675.815 871.201C670.53 871.201 662.154 871.561 662.154 874.224C662.128 875.718 662.379 877.204 662.894 878.606L725.774 886.983Z" fill="#F4C0B8"/>
<path d="M772.363 735.908L777.206 768.839C777.206 768.839 788.755 865.316 786.038 868.034C783.32 870.752 771.316 878.47 765.78 879.081C760.243 879.693 752.451 883.443 752.451 886.392C752.451 892.364 814.712 887.52 814.712 887.52C814.712 887.52 816.682 883.07 814.712 876.547C812.742 870.025 812.742 860.798 812.742 859.317C812.742 857.836 812.865 859.073 812.865 856.735V853.658C812.865 853.658 820.337 807.634 812.376 778.589L809.543 722.197L772.363 735.908Z" fill="#F4C0B8"/>
<path d="M513.454 413.864C513.454 413.864 499.052 413.694 489.086 419.299C479.12 424.905 476.491 438.275 476.301 448.725C476.05 462.356 480.5 475.657 488.903 486.392C497.333 496.998 512.163 501.767 512.163 501.767L553.895 475.161C553.895 475.161 558.854 462.768 555.349 446.15C551.843 429.531 552.767 411.275 513.454 413.864Z" fill="#184655"/>
<path d="M583.772 844.126C583.772 844.126 597.556 863.938 598.541 866.642C599.526 869.346 606.292 887.35 606.292 887.35L659.206 861.634L618.724 849.303L610.572 831.584L583.772 844.126Z" fill="#F48C7F"/>
<path d="M514.378 703.86L557.563 793.944L585.987 850.798C585.987 850.798 611.217 841.082 617.487 834.804L597.067 763.18L573.806 680.237L524.894 675.787L514.378 703.86Z" fill="#355389"/>
<path d="M473.645 853.264C473.645 853.264 475.615 866.553 475.615 867.416C475.615 868.279 472.66 881.072 472.17 884.517C471.869 886.558 471.869 888.632 472.17 890.673L522.312 878.674C522.312 878.674 514.84 873.816 508.223 870.12C501.606 866.424 500.594 848.834 500.594 848.834L473.645 853.264Z" fill="#F48C7F"/>
<path d="M466.634 680.237C466.634 680.237 475.221 734.264 474.011 752.35C472.286 778.31 465.404 788.284 470.323 856.362H505.268C505.268 856.362 507.734 819.789 513.141 791.484C518.549 763.18 530.369 715.675 530.369 715.675L549.812 671.853L466.634 680.237Z" fill="#86B1F2"/>
<path d="M486.851 477.091C488.536 482.37 492.795 485.726 496.362 484.564C499.928 483.403 501.457 478.226 499.758 472.94C498.06 467.654 493.814 464.304 490.248 465.466C486.681 466.628 485.166 471.812 486.851 477.091Z" fill="#F48C7F"/>
<path d="M546.205 465.819C546.673 471.343 550.084 475.562 553.813 475.243C557.543 474.924 560.192 470.195 559.723 464.671C559.255 459.148 555.851 454.928 552.115 455.241C548.378 455.553 545.722 460.296 546.205 465.819Z" fill="#F48C7F"/>
<path d="M1059.1 482.716C1067 474.169 1083.63 438.554 1089.25 428.472C1089.13 427.466 1088.68 421.569 1093.1 412.94C1096.22 406.825 1097.02 394.385 1100.41 397.089C1103.8 399.793 1098.91 410.678 1102.01 409.998C1105.12 409.319 1116.78 387.367 1119.85 389.82C1122.92 392.272 1110.61 412.24 1113.39 411.676C1116.17 411.112 1125.5 391.572 1129.84 395.037C1134.18 398.502 1116.87 416.922 1119.2 418.776C1121.53 420.631 1132.16 408.728 1135.65 411.513C1139.14 414.299 1120.41 427.045 1122.06 426.705C1123.72 426.365 1135.37 423.308 1135.94 425.734C1136.62 428.451 1107.63 439.539 1104.93 445.111C1099.79 460.166 1090.77 487.588 1078.85 501.441C1064.27 518.426 1022.33 565.395 1022.33 565.395L1004.91 532.341C1004.91 532.341 1049.75 492.853 1059.1 482.716Z" fill="#966259"/>
<path d="M1103.2 415.889C1104.25 417.345 1105.01 418.993 1105.43 420.74C1105.43 421.039 1107.29 426.576 1103.61 431.943C1104.67 428.016 1105.84 423.654 1103.2 415.889Z" fill="#6B4744"/>
<path d="M469.929 527.103C469.929 527.103 474.005 631.869 469.929 651.436C465.853 671.003 464.005 683.702 464.005 683.702C464.005 683.702 520.132 694.633 574.057 680.237C574.057 680.237 565.905 643.684 562.251 605.657C558.596 567.63 555.607 517.333 555.607 517.333C555.607 517.333 535.165 515.804 519.425 517.251C483.611 520.499 469.929 527.103 469.929 527.103Z" fill="#FAE0B2"/>
<path d="M503.298 490.652L501.722 519.316C501.722 519.316 504.439 535.14 520.098 536.064C535.756 536.988 531.171 503.207 531.171 503.207L530.247 490.652H503.298Z" fill="#F48C7F"/>
<path d="M530.668 512.251C531.042 512.251 531.422 512.251 531.789 512.251C531.747 509.236 531.54 506.227 531.171 503.235L530.247 490.679H503.298L503.067 494.987C506.443 500.714 516.395 512.251 530.668 512.251Z" fill="#F27A6A"/>
<path d="M473.122 873.966C473.122 873.966 474.969 872.125 481.43 872.675C487.89 873.225 520.281 876.826 521.667 876.826C523.053 876.826 541.585 890.904 542.414 893.458C543.243 896.013 502.381 894.341 502.381 894.341H471.26C471.26 894.341 468.325 885.04 473.122 873.966Z" fill="#3C8F7C"/>
<path d="M601.496 873.286C601.496 873.286 599.601 874.563 599.601 876.289C599.601 877.431 601.53 885.21 603.758 890.74C604.065 891.498 604.529 892.182 605.119 892.748C605.709 893.314 606.412 893.748 607.181 894.024C607.951 894.299 608.77 894.408 609.585 894.345C610.4 894.281 611.192 894.046 611.91 893.655L668.037 862.708C668.037 862.708 672.113 859.161 645.66 857.49L601.496 873.286Z" fill="#3C8F7C"/>
<path d="M469.929 527.103C469.929 527.103 461.967 530.588 457.28 541.418C452.592 552.248 437.579 601.207 447.68 630.517C447.68 630.517 452.225 652.781 475.608 668.041C498.991 683.301 539.751 686.969 542.061 684.666C544.371 682.363 544.459 678.354 544.459 675.786C544.459 673.218 549.812 671.927 549.812 668.421C549.812 664.916 540.77 664.297 530.369 664.297C530.369 664.297 528.528 664.114 530.804 662.388C533.08 660.662 535.967 658.515 535.478 655.254C534.989 651.993 532.863 652.143 530.865 654.147C528.868 656.151 522.251 661.525 516.959 659.99C511.667 658.454 480.411 632.813 475.248 624.66C475.248 624.667 477.306 528.842 469.929 527.103Z" fill="#F48C7F"/>
<path d="M729.958 530.527C729.958 530.527 746.799 521.179 764.679 519.079C782.559 516.98 808.218 523.699 808.218 523.699L823.007 737.301C823.007 737.301 756.568 768.867 706.732 737.301C706.732 737.301 720.115 647.618 720.115 635.001V622.378L729.958 530.527Z" fill="#50BFA5"/>
<path d="M662.188 876.086C661.322 875.983 660.448 876.177 659.707 876.636C658.967 877.095 658.404 877.792 658.112 878.613C657.743 879.472 657.648 880.424 657.839 881.339C658.03 882.254 658.497 883.088 659.178 883.729C661.821 886.372 707.995 893.92 724.116 893.581C725.828 893.54 728.267 888.458 725.746 886.983C721.833 884.673 674.361 877.465 662.188 876.086Z" fill="#13375B"/>
<path d="M675.815 871.207L679.633 878.98L688.118 881.324C688.118 881.324 684.185 867.416 680.74 868.028C679.746 868.193 678.796 868.56 677.948 869.107C677.101 869.654 676.375 870.369 675.815 871.207Z" fill="#13375B"/>
<path d="M752.472 886.861C751.681 886.857 750.91 887.103 750.267 887.562C749.625 888.022 749.143 888.673 748.892 889.422C748.484 890.666 748.348 892.086 749.279 893.01C751.242 894.98 817.369 893.628 817.369 893.628C817.369 893.628 818.965 888.709 816.085 887.717C814.183 887.065 763.973 886.895 752.472 886.861Z" fill="#13375B"/>
<path d="M772.424 876.269C771.826 875.195 767.268 876.337 765.834 879.055L771.697 887.486H778.592L772.424 876.269Z" fill="#13375B"/>
<path d="M919.589 833.574C919.589 833.574 916.919 856.708 912.591 866.798C908.264 876.887 893.991 883.26 881.444 885.733C868.896 888.206 873.068 890.19 874.909 892.025C876.75 893.859 931.151 895.109 940.75 893.383C940.75 893.383 937.061 874.441 937.061 871.486C937.061 868.53 952.074 822.017 952.074 822.017L919.589 833.574Z" fill="#966259"/>
<path d="M940.75 893.37C940.75 893.37 939.996 889.518 939.174 885.006C928.678 886.419 904.663 883.96 892.639 882.56C888.95 883.919 884.487 884.368 880.798 885.095C868.244 887.568 869.188 890.856 872.334 893.146C874.44 894.681 931.151 895.109 940.75 893.37Z" fill="#F47458"/>
<path d="M1026.62 828.152C1026.62 828.152 1025.15 856.586 1028.2 866.798C1031.34 877.322 1035.83 879.129 1048.16 882.56C1060.26 885.957 1055.63 891.311 1053.83 893.146C1052.02 894.98 1009.67 895.109 1000.04 893.37C1000.04 893.37 1003.73 874.428 1003.73 871.472C1003.73 868.517 999.248 820.713 999.248 820.713L1026.62 828.152Z" fill="#966259"/>
<path d="M1000.04 893.37C1000.04 893.37 1000.8 889.518 1001.62 885.006C1012.11 886.419 1036.13 883.96 1048.16 882.56C1051.95 883.399 1055.69 884.458 1059.36 885.733C1071.37 890.122 1070.3 891.311 1068.46 893.146C1066.62 894.98 1009.64 895.109 1000.04 893.37Z" fill="#F47458"/>
<path d="M808.218 523.699C808.218 523.699 793.823 540.684 801.201 569.104C808.578 597.524 826.431 642.821 848.455 668.034C852.022 672.111 860.269 680.726 863.958 683.185C867.646 685.645 883.278 687.37 883.278 687.37C883.278 687.37 890.167 666.206 888.196 664.27C886.226 662.334 869.678 662.116 865.187 657.625C860.697 653.134 817.077 523.699 808.218 523.699Z" fill="#F4C0B8"/>
<path d="M947.469 523.325C947.469 523.325 943.325 525.914 940.376 533.516C937.428 541.119 922.102 603.904 919.887 613.008C918.175 620.04 902.639 640.688 894.929 650.634C892.653 653.57 890.9 656.015 889.8 656.015C883.006 656.015 871.797 659.773 871.797 662.579C871.797 665.385 874.453 665.677 878.883 664.692C883.312 663.706 879.956 668.51 878.353 670.127C876.75 671.744 869.942 680.855 872.354 683.267C874.766 685.679 880.567 687.343 883.278 687.343C884.745 687.343 887.734 687.18 893.183 682.73C897.775 678.987 904.521 671.329 909.487 666.913C927.285 651.042 941.932 617.689 944.636 610.06C947.339 602.43 947.469 523.325 947.469 523.325Z" fill="#966259"/>
<path d="M890.445 671.927C890.445 671.927 892.293 672.111 892.293 675.712C892.293 679.313 889.154 684.85 887.028 686.97C884.901 689.089 865.472 683.933 865.472 683.933C865.472 683.933 872.544 684.109 874.983 681.113C876.063 679.754 878.108 673.497 880.139 673.497C882.171 673.497 879.949 681.989 879.949 681.989C879.949 681.989 883.828 670.82 885.859 670.82C887.891 670.82 888.074 672.858 887.15 676.255C886.226 679.652 889.195 670.942 890.445 671.927Z" fill="#F4C0B8"/>
<path d="M906.063 835.871C906.063 835.871 934.853 843.623 967.523 843.623C1000.19 843.623 1064.42 827.011 1064.42 827.011C1064.42 827.011 1046.7 784.208 1040.64 751.331C1034.58 718.454 1030.12 661.994 1030.12 661.994H932.618L926.504 701.095L906.063 835.871Z" fill="#466EB6"/>
<path d="M947.469 523.325C947.469 523.325 941.11 530.71 941.11 553.6C941.11 576.49 940.003 610.827 938.182 622.642C936.362 634.457 930.777 663.822 930.777 663.822C930.777 663.822 947.013 677.301 989.098 673.605C1031.18 669.909 1033.4 664.257 1033.4 664.257C1033.4 664.257 1027.49 569.138 1027.49 559.158C1027.49 549.177 1018.46 520.356 1018.46 520.356C1018.46 520.356 994.146 517.842 983.073 518.698C971.999 519.554 947.469 523.325 947.469 523.325Z" fill="#FAE0B2"/>
<path d="M928.345 433.5C928.345 433.5 910.635 438.527 912.102 456.702C913.461 473.47 921.701 472.62 921.701 472.62C921.701 472.62 915.669 496.4 933.882 503.276C951.055 509.778 957.509 503.276 957.509 503.276C957.509 503.276 964.982 523.013 990.43 515.397C1015.88 507.78 1013.62 492.296 1013.62 492.296C1013.62 492.296 1024.48 496.57 1037.02 476.629C1049.55 456.688 1042.41 442.332 1025.82 433.5C1025.82 433.5 1031.35 408.116 1005.95 404.06C980.545 400.004 974.323 413.932 974.323 413.932C974.323 413.932 969.798 398.374 942.754 409.081C925.023 416.079 928.345 433.5 928.345 433.5Z" fill="#13375B"/>
<path d="M998.514 471.547C996.646 476.765 997.984 482.017 1001.52 483.28C1005.05 484.544 1009.42 481.337 1011.29 476.119C1013.15 470.901 1011.81 465.65 1008.28 464.386C1004.76 463.122 1000.38 466.309 998.514 471.547Z" fill="#966259"/>
<path d="M940.771 476.71C941.62 482.186 945.315 486.154 949.018 485.543C952.72 484.931 955.03 480.06 954.174 474.584C953.318 469.108 949.629 465.133 945.927 465.711C942.224 466.288 939.915 471.234 940.771 476.71Z" fill="#966259"/>
<path d="M971.137 500.68L972.122 522.218C972.122 522.218 972.611 530.588 981.347 531.696C990.083 532.803 998.079 526.043 998.079 519.262C998.079 518.406 993.779 488.872 993.779 488.872L971.137 500.68Z" fill="#966259"/>
<path d="M993.779 488.872L971.137 500.68L971.483 508.344C975.559 508.344 981.673 508.045 986.517 505.144C990.593 502.705 992.882 499.607 994.716 495.333C994.166 491.556 993.779 488.872 993.779 488.872Z" fill="#6B4744"/>
<path d="M626.543 668.958C626.543 668.958 632.059 672.525 635.334 671.744C638.608 670.963 636.991 669.284 635.456 667.742C633.921 666.2 629.797 664.236 629.797 664.236L626.543 668.958Z" fill="#F48C7F"/>
<path d="M517.53 428.906C508.596 430.224 502.048 436.557 497.292 444.282C487.883 459.602 495.533 482.159 498.121 487.33C500.709 492.5 511.028 505.789 526.361 505.789C541.694 505.789 552.387 491.759 553.677 478.103C555.403 459.813 550.512 437.019 533.107 430.659C528.133 428.821 522.787 428.22 517.53 428.906Z" fill="#F48C7F"/>
<path d="M764.102 429.368C758.541 429.369 753.053 430.63 748.049 433.058C739.558 437.134 730.699 455.383 730.699 471.621C730.699 481.514 726.324 485.59 722.893 487.248C722.464 487.456 722.089 487.76 721.796 488.137C721.504 488.514 721.303 488.953 721.208 489.421C721.113 489.888 721.128 490.372 721.251 490.833C721.373 491.293 721.601 491.72 721.915 492.079C725.264 495.883 728.749 500.062 733.145 502.623C749.795 512.312 766.568 512.604 785.29 509.173C800.345 506.414 814.556 499.661 825.242 488.518C825.71 488.028 826.059 487.436 826.261 486.789C826.463 486.141 826.513 485.456 826.407 484.786C826.302 484.116 826.043 483.48 825.651 482.927C825.259 482.373 824.745 481.918 824.149 481.595C820.609 479.7 816.445 475.609 814.862 466.818C811.907 450.41 805.82 421.433 764.102 429.368Z" fill="#13375B"/>
<path d="M786.69 474.189C785.488 479.625 787.478 484.646 791.133 485.461C794.788 486.276 798.728 482.546 799.964 477.131C801.201 471.716 799.176 466.675 795.521 465.867C791.866 465.058 787.872 468.781 786.69 474.189Z" fill="#F4C0B8"/>
<path d="M739.347 477.009C743.091 477.009 746.127 472.517 746.127 466.974C746.127 461.432 743.091 456.939 739.347 456.939C735.603 456.939 732.567 461.432 732.567 466.974C732.567 472.517 735.603 477.009 739.347 477.009Z" fill="#F4C0B8"/>
<path d="M755.549 502.651L753.708 528.007C753.708 528.007 754.571 533.788 761.459 535.018C768.348 536.248 782.994 526.036 782.994 520.621L779.55 491.332L755.549 502.651Z" fill="#F4C0B8"/>
<path d="M754.652 515.029C765.522 515.573 774.292 510.661 780.766 501.726L779.55 491.338L755.549 502.657L754.652 515.029Z" fill="#F7A491"/>
<path d="M738.634 479.945C740.291 489.361 743.063 505.932 757.832 507.638C772.6 509.343 783.646 501.36 790.684 486.963C797.722 472.566 796.037 453.549 792.158 444.16C789.081 436.686 775.786 437.033 769.258 437.141C747.37 437.488 734.952 459.1 738.634 479.945Z" fill="#F4C0B8"/>
<path d="M760.23 434.104C760.594 442.476 764.11 450.4 770.073 456.287C780.148 466.363 800.399 471.621 800.399 471.621L802.804 477.308C802.804 477.308 806.003 459.209 798.374 447.149C790.746 435.089 760.23 434.104 760.23 434.104Z" fill="#13375B"/>
<path d="M982.774 430.87C989.936 433.343 996.001 438.256 999.906 444.75C1006.32 455.567 1010.2 486.643 987.964 499.912C965.729 513.181 950.865 491.875 949.31 472.056C947.469 448.63 957.693 426.889 982.774 430.87Z" fill="#966259"/>
<path d="M1692.93 824.164C1692.93 824.164 1703.48 867.219 1711.35 873.979C1719.22 880.739 1744.87 893.682 1738.16 895.041C1731.44 896.4 1681.77 897.589 1683.13 889.3C1684.49 881.011 1685.92 875.712 1685.92 875.712L1672.78 844.961L1692.93 824.164Z" fill="#F79C8D"/>
<path d="M1741.48 896.815C1729.36 898.017 1693.98 899.295 1683.68 897.976C1683.68 897.976 1681.74 897.596 1683.11 889.307C1683.44 887.269 1683.79 885.434 1684.09 883.804C1693.45 886.256 1713.81 881.025 1721.87 879.958C1730.64 884.15 1740.51 890.415 1743.69 890.944C1748.3 891.699 1748.3 896.135 1741.48 896.815Z" fill="#13375B"/>
<path d="M1577.06 860.248C1577.06 860.248 1575.95 871.119 1575.95 875.936C1575.95 880.753 1580.42 894.28 1578.35 896.318C1576.28 898.357 1517.1 898.133 1517.1 896.189C1517.1 894.246 1527.55 888.328 1541.77 884.266C1555.98 880.203 1560.79 864.467 1557.12 855.424L1577.06 860.248Z" fill="#F79C8D"/>
<path d="M1516.15 896.345C1516.15 894.531 1525.85 888.953 1538.42 885.115C1551.81 889.64 1570.41 885.903 1577.38 884.571C1579.52 890.149 1580.2 895.442 1579.1 896.543C1577.03 898.615 1516.15 898.295 1516.15 896.345Z" fill="#13375B"/>
<path d="M1641.3 678.239L1651.91 687.649C1651.91 687.649 1663.86 720.003 1664.55 722.136C1665.52 725.105 1704.22 849.867 1704.22 849.867L1677.26 859.569C1677.26 859.569 1650.52 807.478 1646.09 789.392C1641.66 771.306 1597.36 695.632 1597.36 695.632L1641.3 678.239Z" fill="#FAE0B2"/>
<path d="M1594.42 697.433L1581.51 862.749H1551.62C1551.62 862.749 1540.92 739.027 1544.61 695.612L1594.42 697.433Z" fill="#FAE0B2"/>
<path d="M1541.98 530.928C1555.31 527.663 1568.9 525.593 1582.59 524.745C1593.78 524.127 1608.8 526.498 1608.8 526.498C1608.8 526.498 1622.46 557.14 1626.52 582.211C1630.58 607.281 1652.73 687.799 1652.73 687.799C1652.73 687.799 1607.7 722.503 1542 699.614L1541.98 530.928Z" fill="#50BFA5"/>
<path d="M1593.18 503.479C1593.18 503.479 1592.59 523.08 1594.42 524.922C1596.26 526.763 1598.84 529.814 1596.13 534.488C1593.42 539.162 1581.67 536.18 1576.19 533.51C1572.8 531.728 1569.85 529.217 1567.55 526.158L1570.26 495.109L1593.18 503.479Z" fill="#F79C8D"/>
<path d="M1585.36 511.633C1581.59 510.314 1574.99 507.767 1569.9 499.491L1570.29 495.143L1593.18 503.48C1593.18 503.48 1593.03 508.235 1593.1 513.324C1590.45 513.154 1587.84 512.584 1585.36 511.633Z" fill="#B75742"/>
<path d="M1566.26 472.953C1566.26 472.953 1565.7 461.403 1558.62 463.665C1551.54 465.928 1556.94 483.294 1562.8 482.723C1568.67 482.152 1566.26 472.953 1566.26 472.953Z" fill="#F79C8D"/>
<path d="M1588.5 435.306C1588.5 435.306 1599.57 435.062 1605.24 443.677C1610.9 452.292 1617.04 476.9 1607.7 493.886C1598.35 510.871 1586.4 506.686 1581.49 504.96C1576.57 503.235 1566.84 499.423 1561.92 483.545C1557 467.667 1560.56 431.984 1588.5 435.306Z" fill="#F79C8D"/>
<path d="M1544.1 530.405C1549.15 541.805 1561.58 566.353 1561 593.428C1560.41 621.793 1539.08 640.199 1539.08 640.199V654.215C1539.08 654.215 1562.61 650.505 1571.61 613.864C1580.6 577.223 1558.96 527.443 1558.96 527.443C1558.96 527.443 1555.87 525.241 1549.75 526.947C1545.67 528.088 1544.1 530.405 1544.1 530.405Z" fill="#355389"/>
<path d="M1595.78 524.643C1595.78 524.643 1613.44 619.843 1636.4 626.012L1632.46 609.781C1632.46 609.781 1608.83 532.762 1608.83 526.498C1608.83 520.234 1595.78 524.643 1595.78 524.643Z" fill="#355389"/>
<path d="M1643.65 687.54H1575.03V609.333L1643.65 612.383V687.54Z" fill="#F47458"/>
<path d="M1643.66 606.282H1578.12C1577.31 606.282 1576.53 606.604 1575.96 607.176C1575.39 607.748 1575.07 608.524 1575.07 609.333C1575.07 610.142 1575.39 610.918 1575.96 611.49C1576.53 612.062 1577.31 612.383 1578.12 612.383H1643.69H1643.63C1639.07 610.664 1639.09 607.974 1643.66 606.282Z" fill="#B75742"/>
<path d="M1641.78 607.186H1580.34C1579.77 607.186 1579.22 607.412 1578.82 607.814C1578.42 608.217 1578.19 608.763 1578.19 609.332C1578.19 609.615 1578.25 609.894 1578.35 610.155C1578.46 610.416 1578.62 610.653 1578.82 610.853C1579.02 611.052 1579.26 611.21 1579.52 611.318C1579.78 611.425 1580.06 611.48 1580.34 611.479H1641.78C1639.7 610.148 1639.7 608.517 1641.78 607.186Z" fill="#FAE0B2"/>
<path d="M1613.58 607.627H1609.26C1608.81 607.627 1608.38 607.804 1608.07 608.119C1607.75 608.433 1607.58 608.86 1607.57 609.306V609.469H1613.58V607.627Z" fill="#13375B"/>
<path d="M1609.43 607.634C1610.79 607.814 1612.03 608.513 1612.88 609.584L1623.13 622.296H1629.15L1619.4 610.202C1618.25 608.782 1616.22 607.627 1614.86 607.627L1609.43 607.634Z" fill="#355389"/>
<path d="M1541.98 530.928C1541.98 530.928 1547.16 536.118 1552.7 555.781C1558.23 575.443 1561.06 621.501 1565.86 626.304C1570.65 631.108 1602.04 656.083 1607.7 655.22C1613.35 654.357 1626.04 639.594 1629.96 639.594C1633.89 639.594 1633.42 643.161 1631.45 645.131C1629.48 647.101 1627.08 649.377 1628.25 650.566L1629.41 651.735C1629.41 651.735 1646.95 647.122 1649.9 648.841C1652.86 650.559 1647.07 654.629 1647.07 657.585C1647.07 660.54 1647.79 660.479 1647.44 663.733C1647.08 666.988 1646.27 669.583 1644.72 671.119C1643.17 672.654 1623.8 678.259 1604.85 675.671C1585.9 673.082 1562.76 663.978 1545.67 642.814C1528.57 621.65 1532 555.115 1532.39 548.463C1533.38 531.668 1541.98 530.928 1541.98 530.928Z" fill="#F79C8D"/>
<path d="M1529.82 315.07C1532.16 321.239 1536.27 326.575 1541.64 330.406C1547.01 334.236 1553.4 336.388 1559.99 336.589C1566.58 336.79 1573.09 335.031 1578.68 331.535C1584.27 328.039 1588.71 322.963 1591.41 316.948C1594.12 310.934 1594.99 304.251 1593.9 297.745C1592.81 291.239 1589.82 285.202 1585.3 280.398C1580.78 275.593 1574.93 272.237 1568.51 270.753C1562.08 269.27 1555.36 269.726 1549.19 272.063C1545.1 273.614 1541.35 275.957 1538.15 278.958C1534.96 281.96 1532.4 285.56 1530.6 289.554C1528.8 293.547 1527.81 297.857 1527.67 302.235C1527.54 306.613 1528.27 310.974 1529.82 315.07Z" fill="#F7CC7F"/>
<path d="M1579.54 301.876C1580.37 304.065 1580.76 306.397 1580.69 308.737C1580.62 311.078 1580.09 313.381 1579.13 315.516C1578.17 317.651 1576.79 319.576 1575.09 321.18C1573.38 322.785 1571.38 324.038 1569.19 324.867C1567 325.697 1564.67 326.088 1562.33 326.016C1559.99 325.945 1557.69 325.414 1555.55 324.452C1553.42 323.491 1551.49 322.118 1549.89 320.413C1548.28 318.707 1547.03 316.703 1546.2 314.513L1579.54 301.876Z" fill="#EFEFEF"/>
</svg>
