<svg width="16" height="19" viewBox="0 0 16 19" fill="none" xmlns="http://www.w3.org/2000/svg">
<path d="M14.1875 2.5H12.5V0.671875C12.5 0.460938 12.2891 0.25 12.0781 0.25H11.7969C11.5508 0.25 11.375 0.460938 11.375 0.671875V2.5H4.625V0.671875C4.625 0.460938 4.41406 0.25 4.20312 0.25H3.92188C3.67578 0.25 3.5 0.460938 3.5 0.671875V2.5H1.8125C0.863281 2.5 0.125 3.27344 0.125 4.1875V16.5625C0.125 17.5117 0.863281 18.25 1.8125 18.25H14.1875C15.1016 18.25 15.875 17.5117 15.875 16.5625V4.1875C15.875 3.27344 15.1016 2.5 14.1875 2.5ZM1.8125 3.625H14.1875C14.4688 3.625 14.75 3.90625 14.75 4.1875V5.875H1.25V4.1875C1.25 3.90625 1.49609 3.625 1.8125 3.625ZM14.1875 17.125H1.8125C1.49609 17.125 1.25 16.8789 1.25 16.5625V7H14.75V16.5625C14.75 16.8789 14.4688 17.125 14.1875 17.125ZM5.32812 11.5C5.53906 11.5 5.75 11.3242 5.75 11.0781V9.67188C5.75 9.46094 5.53906 9.25 5.32812 9.25H3.92188C3.67578 9.25 3.5 9.46094 3.5 9.67188V11.0781C3.5 11.3242 3.67578 11.5 3.92188 11.5H5.32812ZM8.70312 11.5C8.91406 11.5 9.125 11.3242 9.125 11.0781V9.67188C9.125 9.46094 8.91406 9.25 8.70312 9.25H7.29688C7.05078 9.25 6.875 9.46094 6.875 9.67188V11.0781C6.875 11.3242 7.05078 11.5 7.29688 11.5H8.70312ZM12.0781 11.5C12.2891 11.5 12.5 11.3242 12.5 11.0781V9.67188C12.5 9.46094 12.2891 9.25 12.0781 9.25H10.6719C10.4258 9.25 10.25 9.46094 10.25 9.67188V11.0781C10.25 11.3242 10.4258 11.5 10.6719 11.5H12.0781ZM8.70312 14.875C8.91406 14.875 9.125 14.6992 9.125 14.4531V13.0469C9.125 12.8359 8.91406 12.625 8.70312 12.625H7.29688C7.05078 12.625 6.875 12.8359 6.875 13.0469V14.4531C6.875 14.6992 7.05078 14.875 7.29688 14.875H8.70312ZM5.32812 14.875C5.53906 14.875 5.75 14.6992 5.75 14.4531V13.0469C5.75 12.8359 5.53906 12.625 5.32812 12.625H3.92188C3.67578 12.625 3.5 12.8359 3.5 13.0469V14.4531C3.5 14.6992 3.67578 14.875 3.92188 14.875H5.32812ZM12.0781 14.875C12.2891 14.875 12.5 14.6992 12.5 14.4531V13.0469C12.5 12.8359 12.2891 12.625 12.0781 12.625H10.6719C10.4258 12.625 10.25 12.8359 10.25 13.0469V14.4531C10.25 14.6992 10.4258 14.875 10.6719 14.875H12.0781Z" fill="black"/>
</svg>
