<svg width="26" height="17" viewBox="0 0 26 17" fill="none" xmlns="http://www.w3.org/2000/svg">
<path d="M21.7937 7.5402C22.5316 7.02166 23.0203 6.15908 23.0203 5.18682C23.0203 3.59629 21.7339 2.30991 20.1433 2.30991C18.5528 2.30991 17.2664 3.59629 17.2664 5.18682C17.2664 6.15908 17.7501 7.02166 18.493 7.5402C17.8598 7.75958 17.2814 8.09863 16.7928 8.53739C16.1197 7.96401 15.3269 7.52524 14.4593 7.26597C15.5114 6.62777 16.2194 5.46603 16.2194 4.14475C16.2194 2.13041 14.589 0.5 12.5746 0.5C10.5603 0.5 8.92988 2.1354 8.92988 4.14475C8.92988 5.46603 9.63291 6.62777 10.6899 7.26597C9.83235 7.52524 9.04955 7.95902 8.38143 8.52244C7.8928 8.09364 7.3244 7.75958 6.70115 7.54519C7.43908 7.02664 7.9277 6.16407 7.9277 5.1918C7.9277 3.60128 6.64132 2.3149 5.05079 2.3149C3.46027 2.3149 2.17389 3.60128 2.17389 5.1918C2.17389 6.16407 2.65753 7.02664 3.40044 7.54519C1.421 8.22826 0 10.108 0 12.3168V12.6458C0 12.6558 0.00997195 12.6658 0.0199439 12.6658H6.11779C6.08289 12.94 6.06295 13.2242 6.06295 13.5084V13.8475C6.06295 15.3133 7.24961 16.5 8.71549 16.5H16.4438C17.9096 16.5 19.0963 15.3133 19.0963 13.8475V13.5084C19.0963 13.2242 19.0763 12.94 19.0414 12.6658H25.1792C25.1892 12.6658 25.1991 12.6558 25.1991 12.6458V12.3168C25.1892 10.103 23.7731 8.22328 21.7937 7.5402ZM18.0642 5.18183C18.0642 4.03506 18.9966 3.10268 20.1433 3.10268C21.2901 3.10268 22.2225 4.03506 22.2225 5.18183C22.2225 6.31365 21.3101 7.23606 20.1832 7.26099C20.1683 7.26099 20.1583 7.26099 20.1433 7.26099C20.1284 7.26099 20.1184 7.26099 20.1035 7.26099C18.9716 7.24104 18.0642 6.31863 18.0642 5.18183ZM9.71767 4.14475C9.71767 2.57417 10.9941 1.29776 12.5647 1.29776C14.1352 1.29776 15.4117 2.57417 15.4117 4.14475C15.4117 5.66049 14.22 6.90199 12.7292 6.98676C12.6744 6.98676 12.6195 6.98676 12.5647 6.98676C12.5098 6.98676 12.455 6.98676 12.4001 6.98676C10.9093 6.90199 9.71767 5.66049 9.71767 4.14475ZM2.95668 5.18183C2.95668 4.03506 3.88906 3.10268 5.03584 3.10268C6.18261 3.10268 7.11499 4.03506 7.11499 5.18183C7.11499 6.31365 6.20256 7.23606 5.07572 7.26099C5.06077 7.26099 5.05079 7.26099 5.03584 7.26099C5.02088 7.26099 5.01091 7.26099 4.99595 7.26099C3.86912 7.24104 2.95668 6.31863 2.95668 5.18183ZM6.2574 11.863H0.807728C1.0321 9.73902 2.82705 8.0737 5.00592 8.05874C5.01589 8.05874 5.02586 8.05874 5.03584 8.05874C5.04581 8.05874 5.05578 8.05874 5.06575 8.05874C6.10284 8.06373 7.05017 8.44765 7.78311 9.07089C7.06513 9.84871 6.53163 10.806 6.2574 11.863ZM18.2886 13.8475C18.2886 14.8696 17.4559 15.7022 16.4338 15.7022H8.70552C7.68339 15.7022 6.85073 14.8696 6.85073 13.8475V13.5084C6.85073 10.4121 9.32378 7.87925 12.4001 7.7895C12.455 7.79448 12.5148 7.79448 12.5696 7.79448C12.6245 7.79448 12.6843 7.79448 12.7392 7.7895C15.8155 7.87925 18.2886 10.4121 18.2886 13.5084V13.8475V13.8475ZM18.8819 11.863C18.6077 10.811 18.0841 9.86865 17.3711 9.09084C18.1091 8.45263 19.0664 8.06871 20.1134 8.05874C20.1234 8.05874 20.1334 8.05874 20.1433 8.05874C20.1533 8.05874 20.1633 8.05874 20.1733 8.05874C22.3521 8.0737 24.1471 9.73902 24.3715 11.863H18.8819Z" fill="#D5DAEA"/>
</svg>
