<svg width="20" height="21" viewBox="0 0 20 21" fill="none" xmlns="http://www.w3.org/2000/svg">
<path d="M15.75 2.2207H2.25C0.984375 2.2207 0 3.24023 0 4.4707V14.5957C0 15.8613 0.984375 16.8457 2.25 16.8457H5.625V19.7988C5.625 20.0801 5.80078 20.2207 6.04688 20.2207C6.11719 20.2207 6.1875 20.2207 6.29297 20.1504L10.6875 16.8457H15.75C16.9805 16.8457 18 15.8613 18 14.5957V4.4707C18 3.24023 16.9805 2.2207 15.75 2.2207ZM16.875 14.5957C16.875 15.2285 16.3477 15.7207 15.75 15.7207H10.3008L9.98438 15.9668L6.75 18.3926V15.7207H2.25C1.61719 15.7207 1.125 15.2285 1.125 14.5957V4.4707C1.125 3.87305 1.61719 3.3457 2.25 3.3457H15.75C16.3477 3.3457 16.875 3.87305 16.875 4.4707V14.5957ZM4.5 8.68945C4.00781 8.68945 3.65625 9.07617 3.65625 9.5332C3.65625 10.0254 4.00781 10.377 4.5 10.377C4.95703 10.377 5.34375 10.0254 5.34375 9.5332C5.34375 9.07617 4.95703 8.68945 4.5 8.68945ZM9 8.68945C8.50781 8.68945 8.15625 9.07617 8.15625 9.5332C8.15625 10.0254 8.50781 10.377 9 10.377C9.45703 10.377 9.84375 10.0254 9.84375 9.5332C9.84375 9.07617 9.45703 8.68945 9 8.68945ZM13.5 8.68945C13.0078 8.68945 12.6562 9.07617 12.6562 9.5332C12.6562 10.0254 13.0078 10.377 13.5 10.377C13.957 10.377 14.3438 10.0254 14.3438 9.5332C14.3438 9.07617 13.957 8.68945 13.5 8.68945Z" fill="#202224"/>
<path fill-rule="evenodd" clip-rule="evenodd" d="M16.5 7.005C18.433 7.005 20 5.43688 20 3.5025C20 1.56812 18.433 0 16.5 0C14.567 0 13 1.56812 13 3.5025C13 5.43688 14.567 7.005 16.5 7.005Z" fill="white"/>
<path fill-rule="evenodd" clip-rule="evenodd" d="M16.5 6.61583C18.2182 6.61583 19.6111 5.22194 19.6111 3.50249C19.6111 1.78305 18.2182 0.38916 16.5 0.38916C14.7818 0.38916 13.3889 1.78305 13.3889 3.50249C13.3889 5.22194 14.7818 6.61583 16.5 6.61583Z" fill="#007AFF"/>
</svg>
