<svg width="16" height="16" viewBox="0 0 16 16" fill="none" xmlns="http://www.w3.org/2000/svg">
<path d="M14.5938 2.51904H1.40625C0.630844 2.51904 0 3.14989 0 3.92529V12.0747C0 12.8501 0.630844 13.481 1.40625 13.481H14.5938C15.3692 13.481 16 12.8501 16 12.0747V3.92529C16 3.14989 15.3692 2.51904 14.5938 2.51904ZM14.4102 3.45654L14.2225 3.61282L8.55794 8.32973C8.23462 8.59892 7.76531 8.59892 7.44206 8.32973L1.77747 3.61282L1.58978 3.45654H14.4102ZM0.9375 4.13336L5.55288 7.97657L0.9375 11.0482V4.13336ZM14.5938 12.5435H1.40625C1.17975 12.5435 0.990313 12.382 0.946906 12.1681L6.30456 8.60248L6.84219 9.05017C7.17762 9.32948 7.58884 9.46914 8.00003 9.46914C8.41122 9.46914 8.82241 9.32948 9.15788 9.05017L9.6955 8.60248L15.0531 12.1681C15.0097 12.382 14.8202 12.5435 14.5938 12.5435ZM15.0625 11.0482L10.4471 7.97661L15.0625 4.13336V11.0482Z" fill="#D5DAEA"/>
</svg>
