<svg width="23" height="22" viewBox="0 0 23 22" fill="none" xmlns="http://www.w3.org/2000/svg">
<path d="M11.5 1.46875C16.5703 1.46875 20.7812 5.63672 20.7812 10.75C20.7812 15.9062 16.6133 20.0312 11.5 20.0312C6.34373 20.0312 2.21873 15.9062 2.21873 10.75C2.21873 5.63672 6.34373 1.46875 11.5 1.46875ZM11.5 0.09375C5.61326 0.09375 0.843733 4.90625 0.843733 10.75C0.843733 16.6367 5.61326 21.4062 11.5 21.4062C17.3437 21.4062 22.1562 16.6367 22.1562 10.75C22.1562 4.90625 17.3437 0.09375 11.5 0.09375ZM9.95311 14.875C9.65233 14.875 9.43748 15.1328 9.43748 15.3906V15.7344C9.43748 16.0352 9.65233 16.25 9.95311 16.25H13.0469C13.3047 16.25 13.5625 16.0352 13.5625 15.7344V15.3906C13.5625 15.1328 13.3047 14.875 13.0469 14.875H12.5312V8.85938C12.5312 8.60156 12.2734 8.34375 12.0156 8.34375H9.95311C9.65233 8.34375 9.43748 8.60156 9.43748 8.85938V9.20312C9.43748 9.50391 9.65233 9.71875 9.95311 9.71875H10.4687V14.875H9.95311ZM11.5 4.5625C10.7265 4.5625 10.125 5.20703 10.125 5.9375C10.125 6.71094 10.7265 7.3125 11.5 7.3125C12.2305 7.3125 12.875 6.71094 12.875 5.9375C12.875 5.20703 12.2305 4.5625 11.5 4.5625Z" fill="white"/>
</svg>
