<svg width="16" height="17" viewBox="0 0 16 17" fill="none" xmlns="http://www.w3.org/2000/svg">
<g clip-path="url(#clip0)">
<path d="M15.9671 10.431L14.717 7.931C14.6641 7.82513 14.5559 7.75825 14.4375 7.75825H12.9903L8.6629 3.43086C8.56068 3.32865 8.44056 3.25508 8.31253 3.21005V2.53124H9.87502C9.98962 2.53124 10.095 2.46855 10.1496 2.36784C10.2043 2.26712 10.1995 2.14459 10.1371 2.04849L9.79096 1.51562L10.1371 0.982717C10.1995 0.886623 10.2043 0.764093 10.1496 0.663374C10.095 0.562719 9.98962 0.5 9.87502 0.5H8.00003C7.82747 0.5 7.68753 0.639906 7.68753 0.812499V3.21002C7.5595 3.25508 7.43938 3.32865 7.33716 3.43083L3.00977 7.75825H1.56259C1.44421 7.75825 1.33602 7.82513 1.28309 7.931L0.0330296 10.431C-0.0154077 10.5279 -0.0102514 10.6429 0.0467171 10.735C0.103686 10.8271 0.204248 10.8832 0.31256 10.8832H0.62509V15.5625C0.62509 15.7351 0.765027 15.875 0.937589 15.875H3.71052V16.1875C3.71052 16.3601 3.85045 16.5 4.02301 16.5H11.9771C12.1496 16.5 12.2896 16.3601 12.2896 16.1875V15.875H12.2896H15.0625C15.2351 15.875 15.375 15.7351 15.375 15.5625V10.8832H15.6875C15.7958 10.8832 15.8964 10.8272 15.9534 10.735C16.0103 10.6429 16.0155 10.5278 15.9671 10.431ZM8.31253 1.125H9.2994L9.15624 1.3454C9.08903 1.44893 9.08903 1.58234 9.15624 1.68587L9.2994 1.90624H8.31253V1.125ZM15.1819 10.2582H12.2896V9.44109C12.3321 9.44693 12.3753 9.45009 12.419 9.45009C12.6694 9.45009 12.9048 9.35256 13.0819 9.17553C13.2589 8.9985 13.3564 8.76306 13.3564 8.51266C13.3564 8.46897 13.3533 8.42578 13.3474 8.38325H14.2444L15.1819 10.2582ZM1.75574 8.38325H2.65268C2.64683 8.42578 2.64368 8.46897 2.64368 8.51266C2.64368 8.76306 2.74118 8.99847 2.91824 9.17553C3.0953 9.35259 3.3307 9.45009 3.58111 9.45009C3.6248 9.45009 3.66798 9.44693 3.71052 9.44109V10.2582H0.818183L1.75574 8.38325ZM3.71052 10.8832V13.9999H1.25006V10.8832H3.71052ZM1.25006 15.25V14.6249H3.71048V15.25H1.25006ZM6.12501 15.25H9.87502V15.875H6.12504L6.12501 15.25ZM6.90625 12.125H7.68753V14.6249H6.90628L6.90625 12.125ZM9.09377 14.625H8.31253V12.125H9.09377V14.625C9.09377 14.6249 9.09377 14.6249 9.09377 14.625ZM10.5 15.875V15.25C10.5 14.9053 10.2196 14.625 9.87505 14.625H9.71877V12.125C9.71877 11.7804 9.4384 11.5 9.09377 11.5H6.90625C6.56166 11.5 6.28129 11.7804 6.28129 12.125V14.625H6.12501C5.78041 14.625 5.50004 14.9053 5.50004 15.25V15.875H4.33548V9.084L5.23807 8.18144C5.3601 8.05941 5.3601 7.86153 5.23807 7.73947C5.11604 7.61747 4.91823 7.61744 4.7961 7.73947L3.80198 8.73356C3.74298 8.79259 3.66455 8.82506 3.58108 8.82506C3.49761 8.82506 3.41914 8.79256 3.36017 8.73356C3.30114 8.67456 3.26864 8.59612 3.26864 8.51266C3.26864 8.42922 3.30114 8.35075 3.36017 8.29175L7.77912 3.8728C7.83812 3.81377 7.91656 3.7813 8.00003 3.7813C8.0835 3.7813 8.16197 3.8138 8.22093 3.8728L12.6399 8.29172C12.6989 8.35072 12.7314 8.42919 12.7314 8.51262C12.7314 8.59609 12.6989 8.67453 12.6399 8.73353C12.5809 8.79256 12.5024 8.82503 12.419 8.82503C12.3355 8.82503 12.257 8.79253 12.198 8.73353L8.221 4.75655C8.09894 4.63452 7.90112 4.63452 7.77903 4.75655L6.78482 5.75076C6.66278 5.87279 6.66278 6.07067 6.78482 6.19273C6.90688 6.31476 7.10469 6.31476 7.22678 6.19273L8.00003 5.41945L11.6646 9.084V15.875H10.5ZM14.75 15.25H12.2896H12.2896V14.6249H12.2896H14.75V15.25ZM14.75 10.8832V13.9999H12.2896H12.2896V10.8832H14.75Z" fill="#D5DAEA"/>
<path d="M8.00006 8.7388C8.56009 8.7388 9.01569 8.28318 9.01569 7.72314C9.01569 7.16314 8.56009 6.70752 8.00006 6.70752C7.44003 6.70752 6.98444 7.16311 6.98444 7.72314C6.98444 8.28318 7.44003 8.7388 8.00006 8.7388ZM8.00006 7.33255C8.21547 7.33255 8.39069 7.50777 8.39069 7.72318C8.39069 7.93858 8.21547 8.1138 8.00006 8.1138C7.78465 8.1138 7.60944 7.93855 7.60944 7.72318C7.60944 7.50777 7.78469 7.33255 8.00006 7.33255Z" fill="#D5DAEA"/>
<path d="M9.40624 10.2583H6.59378C6.42122 10.2583 6.28128 10.3982 6.28128 10.5708C6.28128 10.7434 6.42122 10.8833 6.59378 10.8833H9.40624C9.5788 10.8833 9.71873 10.7434 9.71873 10.5708C9.71873 10.3982 9.57883 10.2583 9.40624 10.2583Z" fill="#D5DAEA"/>
<path d="M6.01151 6.65356H6.01129C5.83873 6.65356 5.69891 6.79347 5.69891 6.96606C5.69891 7.13866 5.83891 7.27856 6.01151 7.27856C6.1841 7.27856 6.32401 7.13866 6.32401 6.96606C6.32401 6.79347 6.1841 6.65356 6.01151 6.65356Z" fill="#D5DAEA"/>
</g>
<defs>
<clipPath id="clip0">
<rect width="16" height="16" fill="white" transform="translate(0 0.5)"/>
</clipPath>
</defs>
</svg>
