<svg width="18" height="19" viewBox="0 0 18 19" fill="none" xmlns="http://www.w3.org/2000/svg">
<g clip-path="url(#clip0)">
<path d="M8.99993 3.22967C6.83661 3.22967 5.07654 4.98967 5.07654 7.15299C5.07654 9.31632 6.83661 11.0763 8.99993 11.0763C11.1633 11.0763 12.9233 9.31632 12.9233 7.15299C12.9233 4.98967 11.1633 3.22967 8.99993 3.22967ZM8.99993 10.021C7.41849 10.021 6.13182 8.73437 6.13182 7.15292C6.13182 5.57148 7.41849 4.28495 8.99993 4.28495C10.5814 4.28495 11.868 5.57155 11.868 7.15299C11.868 8.73444 10.5814 10.021 8.99993 10.021Z" fill="black"/>
<path d="M8.99996 0.5C5.33152 0.5 2.34705 3.48448 2.34705 7.15291C2.34705 9.26854 4.12133 12.4205 5.17893 14.111C5.87478 15.2232 6.62255 16.2817 7.28443 17.0915C8.34681 18.3912 8.72706 18.4999 9.00003 18.4999C9.27708 18.4999 9.63608 18.3911 10.6952 17.0907C11.3585 16.2761 12.1066 15.2182 12.8018 14.1119C13.8666 12.4172 15.6529 9.25961 15.6529 7.15284C15.6529 3.48448 12.6685 0.5 8.99996 0.5ZM12.0702 13.2902C10.7056 15.5051 9.45289 17.0018 8.9937 17.3839C8.53212 17.0135 7.29969 15.5525 5.91608 13.2972C4.31859 10.6931 3.4024 8.45358 3.4024 7.15291C3.40233 4.06636 5.9134 1.55528 8.99996 1.55528C12.0865 1.55528 14.5976 4.06636 14.5976 7.15291C14.5977 8.44613 13.6764 10.683 12.0702 13.2902Z" fill="black"/>
</g>
<defs>
<clipPath id="clip0">
<rect width="18" height="18" fill="white" transform="translate(0 0.5)"/>
</clipPath>
</defs>
</svg>
