<svg width="16" height="15" viewBox="0 0 16 15" fill="none" xmlns="http://www.w3.org/2000/svg">
<path d="M0.6875 2.89062H15.3125C15.5938 2.89062 15.875 2.64453 15.875 2.32812V0.921875C15.875 0.640625 15.5938 0.359375 15.3125 0.359375H0.6875C0.371094 0.359375 0.125 0.640625 0.125 0.921875V2.32812C0.125 2.64453 0.371094 2.89062 0.6875 2.89062ZM0.6875 8.51562H15.3125C15.5938 8.51562 15.875 8.26953 15.875 7.95312V6.54688C15.875 6.26562 15.5938 5.98438 15.3125 5.98438H0.6875C0.371094 5.98438 0.125 6.26562 0.125 6.54688V7.95312C0.125 8.26953 0.371094 8.51562 0.6875 8.51562ZM0.6875 14.1406H15.3125C15.5938 14.1406 15.875 13.8945 15.875 13.5781V12.1719C15.875 11.8906 15.5938 11.6094 15.3125 11.6094H0.6875C0.371094 11.6094 0.125 11.8906 0.125 12.1719V13.5781C0.125 13.8945 0.371094 14.1406 0.6875 14.1406Z" fill="black"/>
</svg>
