<svg width="23" height="17" viewBox="0 0 23 17" fill="none" xmlns="http://www.w3.org/2000/svg">
<path d="M22.1875 0.375H0.8125C0.496094 0.375 0.25 0.65625 0.25 0.9375V15C0.25 15.6328 0.742188 16.125 1.375 16.125H21.625C22.2227 16.125 22.75 15.6328 22.75 15V0.9375C22.75 0.65625 22.4688 0.375 22.1875 0.375ZM21.625 15H1.375V4.875H21.625V15ZM21.625 3.75H1.375V1.5H21.625V3.75ZM3.90625 12.75H8.96875C9.10938 12.75 9.25 12.6445 9.25 12.4688V11.9062C9.25 11.7656 9.10938 11.625 8.96875 11.625H3.90625C3.73047 11.625 3.625 11.7656 3.625 11.9062V12.4688C3.625 12.6445 3.73047 12.75 3.90625 12.75ZM14.0312 12.75H19.0938C19.2344 12.75 19.375 12.6445 19.375 12.4688V11.9062C19.375 11.7656 19.2344 11.625 19.0938 11.625H14.0312C13.8555 11.625 13.75 11.7656 13.75 11.9062V12.4688C13.75 12.6445 13.8555 12.75 14.0312 12.75ZM3.90625 9.375H11.2188C11.3594 9.375 11.5 9.26953 11.5 9.09375V8.53125C11.5 8.39062 11.3594 8.25 11.2188 8.25H3.90625C3.73047 8.25 3.625 8.39062 3.625 8.53125V9.09375C3.625 9.26953 3.73047 9.375 3.90625 9.375ZM14.3125 9.375H18.8125C19.0938 9.375 19.375 9.12891 19.375 8.8125V6.5625C19.375 6.28125 19.0938 6 18.8125 6H14.3125C13.9961 6 13.75 6.28125 13.75 6.5625V8.8125C13.75 9.12891 13.9961 9.375 14.3125 9.375ZM14.875 7.125H18.25V8.25H14.875V7.125Z" fill="#202224"/>
</svg>
