<svg width="23" height="19" viewBox="0 0 23 19" fill="none" xmlns="http://www.w3.org/2000/svg">
<path d="M22.4336 2.5H19.0586H19.0234C19.2344 2.18359 19.3398 1.79688 19.3398 1.375C19.3398 0.777344 18.8125 0.25 18.2148 0.25H14.3125C11.8516 0.25 9.88281 2.21875 9.8125 4.60938C8.54688 4.29297 7.59766 3.41406 6.92969 1.9375C6.78906 1.62109 6.47266 1.41016 6.12109 1.375C5.76953 1.41016 5.48828 1.58594 5.3125 1.90234C4.92578 2.71094 4.75 3.625 4.75 4.53906C4.75 7.17578 6.71875 9.56641 9.39062 10.1992C9.56641 10.2695 9.70703 10.1641 9.74219 9.98828L9.84766 9.42578C9.88281 9.28516 9.77734 9.14453 9.63672 9.10938C7.45703 8.58203 5.875 6.64844 5.875 4.53906C5.875 3.94141 5.94531 3.37891 6.15625 2.85156C7.17578 4.85547 8.82812 5.875 10.9023 5.875L10.9375 4.75C10.9375 2.88672 12.4141 1.375 14.3125 1.375H18.2148C18.2148 1.86719 17.9336 2.25391 17.5117 2.42969L18.2148 3.30859L18.25 6.61328C18.25 6.85938 18.0742 7.07031 17.8633 7.14062L16.9492 7.45703C16.6328 7.5625 16.3867 7.35156 16.3164 7.21094L15.4375 5.875L13.75 5.3125V8.86328C13.75 9.77734 13.293 10.6211 12.625 11.1484V17.125H10.375V11.4648L6.68359 10.6562L5.55859 13.7852L6.40234 17.125H4.39844L3.625 14.0664C3.625 13.9609 3.58984 13.8906 3.58984 13.7852C3.58984 13.6797 3.625 13.5742 3.66016 13.4688L4.60938 10.1992C4.01172 9.77734 3.625 9.07422 3.625 8.26562C3.625 7.70312 3.80078 7.21094 4.11719 6.78906C3.94141 6.40234 3.80078 6.01562 3.73047 5.59375C3.44922 5.83984 3.20312 6.12109 2.99219 6.47266C1.48047 6.47266 0.25 7.73828 0.25 9.25V11.2188C0.25 11.3945 0.355469 11.5 0.53125 11.5H1.09375C1.23438 11.5 1.375 11.3945 1.375 11.2188V9.25C1.375 8.51172 1.86719 7.87891 2.53516 7.66797C2.5 7.84375 2.5 8.05469 2.5 8.26562C2.5 9.10938 2.78125 9.91797 3.34375 10.5508L2.57031 13.1523C2.46484 13.5391 2.46484 13.9258 2.53516 14.3125L3.27344 17.4062C3.41406 17.8984 3.87109 18.25 4.39844 18.25H6.40234C7.14062 18.25 7.66797 17.582 7.49219 16.8789L6.71875 13.8555L7.42188 11.957L9.25 12.3789V17.125C9.25 17.7578 9.74219 18.25 10.375 18.25H12.625C13.2227 18.25 13.75 17.7578 13.75 17.125V11.6406C14.4531 10.9023 14.875 9.91797 14.875 8.86328V7.07031L15.3672 7.84375C16.0352 8.86328 17.125 8.58203 17.3359 8.51172L18.2148 8.19531C18.8828 7.94922 19.375 7.31641 19.375 6.61328L19.3398 4.32812L22.6094 3.02734C22.8555 2.88672 22.7148 2.5 22.4336 2.5ZM16.5625 3.625C16.5625 3.34375 16.2812 3.0625 16 3.0625C15.6836 3.0625 15.4375 3.34375 15.4375 3.625C15.4375 3.94141 15.6836 4.1875 16 4.1875C16.2812 4.1875 16.5625 3.94141 16.5625 3.625Z" fill="#202224"/>
</svg>
