<svg width="23" height="15" viewBox="0 0 23 15" fill="none" xmlns="http://www.w3.org/2000/svg">
<path d="M0.8125 9.5C1.09375 9.5 1.375 9.25391 1.375 8.9375C1.375 8.62109 1.09375 8.375 0.8125 8.375C0.496094 8.375 0.25 8.62109 0.25 8.9375C0.25 9.25391 0.496094 9.5 0.8125 9.5ZM22.4688 2.75L18.4609 2.78516L16.668 1.02734C16.3516 0.710938 15.9297 0.535156 15.4727 0.535156H11.9219C11.5703 0.535156 11.2188 0.675781 10.9375 0.886719C10.6211 0.640625 10.2695 0.5 9.88281 0.5H7.45703C7 0.5 6.57812 0.675781 6.26172 0.992188L4.50391 2.75H0.53125C0.355469 2.75 0.25 2.89062 0.25 3.03125V3.59375C0.25 3.76953 0.355469 3.875 0.53125 3.875H2.5V10.625H0.53125C0.355469 10.625 0.25 10.7656 0.25 10.9062V11.4688C0.25 11.6445 0.355469 11.75 0.53125 11.75H2.5C3.09766 11.75 3.58984 11.2578 3.58984 10.6602H4.78516L7.63281 13.4023C8.6875 14.2461 10.1641 14.2109 11.1836 13.3672L11.4297 13.6133C11.7812 13.8594 12.2031 14.0352 12.625 14.0352C13.1875 14.0352 13.7148 13.7891 14.0664 13.332L14.8398 12.3828C15.4375 12.6992 16.3516 12.6992 16.9492 11.9609L17.3008 11.5391C17.5117 11.293 17.6172 10.9766 17.6523 10.6602H19.375C19.375 11.2578 19.8672 11.75 20.5 11.75H22.4688C22.6094 11.75 22.75 11.6445 22.75 11.4688V10.9062C22.75 10.7656 22.6094 10.625 22.4688 10.625H20.5V3.91016L22.4688 3.875C22.6094 3.875 22.75 3.76953 22.75 3.59375V3.03125C22.75 2.89062 22.6094 2.75 22.4688 2.75ZM16.4219 10.8359L16.0703 11.2578C15.8945 11.4688 15.543 11.5391 15.2969 11.3281L14.6641 10.8359L13.1875 12.6289C12.9414 12.9453 12.4492 12.9805 12.168 12.7344L11.0781 11.8203L10.7266 12.2773C10.1289 12.9805 9.07422 13.0859 8.37109 12.5586L5.24219 9.53516H3.625V3.875H4.96094L7.03516 1.80078C7.14062 1.69531 7.31641 1.625 7.45703 1.625H9.88281C9.91797 1.73047 9.91797 1.66016 9.91797 1.73047L7.84375 3.62891C6.85938 4.54297 6.82422 6.08984 7.70312 7.03906C8.19531 7.60156 9.77734 8.44531 11.1133 7.21484L11.9219 6.47656L16.3164 10.0625C16.5625 10.2383 16.5977 10.5898 16.4219 10.8359ZM19.375 9.53516H17.3359C17.2656 9.39453 17.1602 9.28906 17.0547 9.18359L12.7656 5.70312L13.75 4.78906C13.9961 4.57812 13.9961 4.22656 13.7852 3.98047C13.5742 3.76953 13.2227 3.73438 12.9766 3.94531L10.3398 6.37109C9.84766 6.82812 9.00391 6.79297 8.54688 6.30078C8.05469 5.77344 8.08984 4.96484 8.61719 4.47266L11.5352 1.80078C11.6406 1.69531 11.7812 1.66016 11.9219 1.66016H15.4727C15.6133 1.66016 15.7539 1.69531 15.8594 1.80078L18.0039 3.875H19.375V9.53516ZM22.1875 8.375C21.8711 8.375 21.625 8.65625 21.625 8.9375C21.625 9.25391 21.8711 9.5 22.1875 9.5C22.4688 9.5 22.75 9.25391 22.75 8.9375C22.75 8.62109 22.4688 8.375 22.1875 8.375Z" fill="#202224"/>
</svg>
