<svg width="19" height="19" viewBox="0 0 19 19" fill="none" xmlns="http://www.w3.org/2000/svg">
<path d="M17.9375 6.29688L12.8047 5.55859L10.4844 0.882812C10.0977 0.0742188 8.90234 0.0390625 8.48047 0.882812L6.19531 5.55859L1.02734 6.29688C0.113281 6.4375 -0.238281 7.5625 0.429688 8.23047L4.12109 11.8516L3.24219 16.9492C3.10156 17.8633 4.08594 18.5664 4.89453 18.1445L9.5 15.7188L14.0703 18.1445C14.8789 18.5664 15.8633 17.8633 15.7227 16.9492L14.8438 11.8516L18.5352 8.23047C19.2031 7.5625 18.8516 6.4375 17.9375 6.29688ZM13.6133 11.4297L14.5977 17.125L9.5 14.4531L4.36719 17.125L5.35156 11.4297L1.20312 7.42188L6.93359 6.57812L9.5 1.375L12.0312 6.57812L17.7617 7.42188L13.6133 11.4297Z" fill="#202224"/>
</svg>
