<svg width="19" height="18" viewBox="0 0 19 18" fill="none" xmlns="http://www.w3.org/2000/svg">
<path d="M3.14453 14.3477L3.77734 13.6445C3.88281 13.5391 3.95312 13.3633 3.95312 13.1875V13.1523V13.0469C3.95312 12.7656 3.8125 12.625 3.56641 12.625H1.5625C1.38672 12.625 1.28125 12.7656 1.28125 12.9062V13.4688C1.28125 13.6445 1.38672 13.75 1.5625 13.75H2.33594C2.19531 13.8906 2.08984 14.0312 1.94922 14.207L1.77344 14.4531C1.63281 14.6289 1.5625 14.8047 1.66797 14.9805L1.70312 15.0508C1.80859 15.2266 1.91406 15.2969 2.125 15.2969H2.30078C2.65234 15.2969 2.86328 15.4023 2.86328 15.6484C2.86328 15.7891 2.72266 15.9297 2.37109 15.9297C2.16016 15.9297 1.98438 15.8945 1.80859 15.8242C1.59766 15.6836 1.38672 15.6836 1.24609 15.9297L1.07031 16.2461C0.929688 16.457 0.964844 16.668 1.17578 16.8086C1.42188 16.9844 1.87891 17.125 2.47656 17.125C3.67188 17.125 4.16406 16.3516 4.16406 15.5781C4.16406 15.0859 3.84766 14.5586 3.14453 14.3477ZM1.42188 11.5H3.8125C3.95312 11.5 4.09375 11.3945 4.09375 11.2188V10.6562C4.09375 10.5156 3.95312 10.375 3.8125 10.375H2.44141C2.54688 10.0234 4.12891 9.74219 4.12891 8.40625C4.12891 7.38672 3.25 7 2.58203 7C1.80859 7 1.38672 7.35156 1.14062 7.66797C1 7.87891 1.03516 8.05469 1.24609 8.23047L1.5625 8.44141C1.73828 8.61719 1.94922 8.54688 2.125 8.37109C2.19531 8.30078 2.30078 8.23047 2.44141 8.23047C2.58203 8.23047 2.75781 8.30078 2.75781 8.54688C2.79297 9.00391 1 9.32031 1 10.9727V11.1133C1 11.3594 1.17578 11.5 1.42188 11.5ZM1.5625 5.875H3.8125C3.95312 5.875 4.09375 5.76953 4.09375 5.59375V5.03125C4.09375 4.89062 3.95312 4.75 3.8125 4.75H3.25V1.65625C3.25 1.51562 3.10938 1.375 2.96875 1.375H2.125C1.98438 1.41016 1.91406 1.44531 1.84375 1.55078L1.5625 2.11328C1.5625 2.14844 1.5625 2.18359 1.5625 2.21875C1.5625 2.39453 1.66797 2.5 1.84375 2.5H2.125V4.75H1.5625C1.38672 4.75 1.28125 4.89062 1.28125 5.03125V5.59375C1.28125 5.76953 1.38672 5.875 1.5625 5.875ZM18.7188 3.0625H6.90625C6.73047 3.0625 6.625 3.20312 6.625 3.34375V3.90625C6.625 4.08203 6.73047 4.1875 6.90625 4.1875H18.7188C18.8594 4.1875 19 4.08203 19 3.90625V3.34375C19 3.20312 18.8594 3.0625 18.7188 3.0625ZM18.7188 14.3125H6.90625C6.73047 14.3125 6.625 14.4531 6.625 14.5938V15.1562C6.625 15.332 6.73047 15.4375 6.90625 15.4375H18.7188C18.8594 15.4375 19 15.332 19 15.1562V14.5938C19 14.4531 18.8594 14.3125 18.7188 14.3125ZM18.7188 8.6875H6.90625C6.73047 8.6875 6.625 8.82812 6.625 8.96875V9.53125C6.625 9.70703 6.73047 9.8125 6.90625 9.8125H18.7188C18.8594 9.8125 19 9.70703 19 9.53125V8.96875C19 8.82812 18.8594 8.6875 18.7188 8.6875Z" fill="#202224"/>
</svg>
