<svg width="23" height="17" viewBox="0 0 23 17" fill="none" xmlns="http://www.w3.org/2000/svg">
<path d="M14.6289 4.13672C14.5586 4.06641 14.4883 4.06641 14.418 4.06641C14.3477 4.06641 14.2773 4.10156 14.207 4.13672L10.4453 7.93359L8.75781 6.21094C8.6875 6.14062 8.61719 6.14062 8.54688 6.14062C8.47656 6.14062 8.40625 6.14062 8.33594 6.21094L7.94922 6.59766C7.84375 6.70312 7.84375 6.87891 7.94922 7.01953L10.2344 9.30469C10.3047 9.375 10.375 9.375 10.4453 9.375C10.5156 9.375 10.5859 9.375 10.6562 9.30469L15.0156 4.94531C15.1211 4.80469 15.1211 4.62891 15.0156 4.52344L14.6289 4.13672ZM21.625 9.375H19.375V1.46484C19.375 0.867188 18.8477 0.375 18.25 0.375H4.75C4.11719 0.375 3.625 0.867188 3.625 1.46484V9.375H1.375C0.742188 9.375 0.25 9.90234 0.25 10.5V15C0.25 15.6328 0.742188 16.125 1.375 16.125H21.625C22.2227 16.125 22.75 15.6328 22.75 15V10.5C22.75 9.90234 22.2227 9.375 21.625 9.375ZM4.75 1.5H18.25V12.1875H4.75V1.5ZM21.625 15H1.375V10.5H3.625V12.1875H2.81641C2.64062 12.1875 2.5 12.3281 2.5 12.4688V13.0312C2.5 13.207 2.64062 13.3125 2.81641 13.3125H20.1484C20.3242 13.3125 20.5 13.207 20.5 13.0312V12.4688C20.5 12.3281 20.3242 12.1875 20.1484 12.1875H19.375V10.5H21.625V15Z" fill="#202224"/>
</svg>
