<svg width="18" height="19" viewBox="0 0 18 19" fill="none" xmlns="http://www.w3.org/2000/svg">
<path d="M15.75 0.25H2.25C0.984375 0.25 0 1.26953 0 2.5V12.625C0 13.8906 0.984375 14.875 2.25 14.875H5.625V17.8281C5.625 18.1094 5.80078 18.25 6.04688 18.25C6.11719 18.25 6.1875 18.25 6.29297 18.1797L10.6875 14.875H15.75C16.9805 14.875 18 13.8906 18 12.625V2.5C18 1.26953 16.9805 0.25 15.75 0.25ZM16.875 12.625C16.875 13.2578 16.3477 13.75 15.75 13.75H10.3008L9.98438 13.9961L6.75 16.4219V13.75H2.25C1.61719 13.75 1.125 13.2578 1.125 12.625V2.5C1.125 1.90234 1.61719 1.375 2.25 1.375H15.75C16.3477 1.375 16.875 1.90234 16.875 2.5V12.625ZM4.5 6.71875C4.00781 6.71875 3.65625 7.10547 3.65625 7.5625C3.65625 8.05469 4.00781 8.40625 4.5 8.40625C4.95703 8.40625 5.34375 8.05469 5.34375 7.5625C5.34375 7.10547 4.95703 6.71875 4.5 6.71875ZM9 6.71875C8.50781 6.71875 8.15625 7.10547 8.15625 7.5625C8.15625 8.05469 8.50781 8.40625 9 8.40625C9.45703 8.40625 9.84375 8.05469 9.84375 7.5625C9.84375 7.10547 9.45703 6.71875 9 6.71875ZM13.5 6.71875C13.0078 6.71875 12.6562 7.10547 12.6562 7.5625C12.6562 8.05469 13.0078 8.40625 13.5 8.40625C13.957 8.40625 14.3438 8.05469 14.3438 7.5625C14.3438 7.10547 13.957 6.71875 13.5 6.71875Z" fill="#202224"/>
</svg>
