<svg width="20" height="25" viewBox="0 0 20 25" fill="none" xmlns="http://www.w3.org/2000/svg">
<path fill-rule="evenodd" clip-rule="evenodd" d="M15.5 8.0336C17.433 8.0336 19 6.46547 19 4.5311C19 2.59672 17.433 1.02859 15.5 1.02859C13.567 1.02859 12 2.59672 12 4.5311C12 6.46547 13.567 8.0336 15.5 8.0336Z" fill="white"/>
<path d="M10 21.375C9.22656 21.375 8.625 20.7734 8.625 20H7.25C7.25 21.5469 8.45312 22.75 10 22.75C11.5039 22.75 12.75 21.5469 12.75 20H11.375C11.375 20.7734 10.7305 21.375 10 21.375ZM18.9805 15.1445C17.7773 14.0273 16.875 12.8242 16.875 8.74219C16.875 5.34766 14.125 2.55469 10.6875 2.21094V1.4375C10.6875 1.09375 10.3438 0.75 10 0.75C9.61328 0.75 9.3125 1.09375 9.3125 1.4375V2.21094C5.83203 2.55469 3.08203 5.34766 3.08203 8.74219C3.08203 12.8242 2.17969 14.0273 0.976562 15.1445C0.375 15.7461 0.203125 16.6055 0.503906 17.3789C0.804688 18.1523 1.57812 18.625 2.4375 18.625H17.5625C18.3789 18.625 19.1523 18.1523 19.4531 17.3789C19.7539 16.6055 19.582 15.7461 18.9805 15.1445ZM17.5625 17.25H2.4375C1.79297 17.25 1.49219 16.5625 1.92188 16.1328C3.42578 14.7148 4.45703 13.125 4.45703 8.74219C4.45703 5.86328 6.94922 3.5 10 3.5C13.0078 3.5 15.5 5.86328 15.5 8.74219C15.5 13.125 16.5312 14.7148 18.0352 16.1328C18.4648 16.5625 18.1641 17.25 17.5625 17.25Z" fill="#202224"/>
<path fill-rule="evenodd" clip-rule="evenodd" d="M15.5 7.64442C17.2182 7.64442 18.6111 6.25054 18.6111 4.53109C18.6111 2.81164 17.2182 1.41776 15.5 1.41776C13.7818 1.41776 12.3889 2.81164 12.3889 4.53109C12.3889 6.25054 13.7818 7.64442 15.5 7.64442Z" fill="#007AFF"/>
</svg>
