<svg width="16" height="17" viewBox="0 0 16 17" fill="none" xmlns="http://www.w3.org/2000/svg">
<g clip-path="url(#clip0)">
<path d="M7.88598 8.20726C8.94482 8.20726 9.86156 7.8275 10.6108 7.07823C11.3598 6.32909 11.7397 5.41247 11.7397 4.35351C11.7397 3.29492 11.36 2.37817 10.6107 1.62878C9.86144 0.87976 8.94469 0.5 7.88598 0.5C6.82702 0.5 5.9104 0.87976 5.16125 1.6289C4.41211 2.37805 4.03223 3.29479 4.03223 4.35351C4.03223 5.41247 4.41211 6.32921 5.16125 7.07836C5.91064 7.82738 6.82739 8.20726 7.88598 8.20726ZM5.82434 2.29187C6.39917 1.71704 7.07348 1.43762 7.88598 1.43762C8.69836 1.43762 9.37279 1.71704 9.94774 2.29187C10.5226 2.86682 10.8021 3.54125 10.8021 4.35351C10.8021 5.16601 10.5226 5.84032 9.94774 6.41527C9.37279 6.99022 8.69836 7.26964 7.88598 7.26964C7.07372 7.26964 6.39941 6.9901 5.82434 6.41527C5.24939 5.84044 4.96985 5.16601 4.96985 4.35351C4.96985 3.54125 5.24939 2.86682 5.82434 2.29187Z" fill="#D5DAEA"/>
<path d="M14.629 12.8032C14.6074 12.4914 14.5637 12.1514 14.4994 11.7922C14.4344 11.4304 14.3508 11.0884 14.2507 10.7758C14.1472 10.4526 14.0067 10.1335 13.8327 9.82776C13.6524 9.51037 13.4405 9.23401 13.2027 9.00659C12.9541 8.76868 12.6496 8.57739 12.2976 8.43787C11.9468 8.29907 11.558 8.22876 11.1421 8.22876C10.9787 8.22876 10.8208 8.29578 10.5157 8.49438C10.328 8.61682 10.1084 8.75842 9.86327 8.91504C9.65367 9.04858 9.36974 9.1737 9.01903 9.28699C8.67687 9.3977 8.32945 9.45386 7.98644 9.45386C7.64366 9.45386 7.29625 9.3977 6.95385 9.28699C6.60351 9.17383 6.31945 9.0487 6.11022 8.91516C5.86742 8.76001 5.6477 8.61841 5.45715 8.49426C5.15234 8.29565 4.99438 8.22864 4.83105 8.22864C4.41503 8.22864 4.02636 8.29907 3.67565 8.43799C3.32385 8.57727 3.01928 8.76855 2.77038 9.00671C2.53259 9.23425 2.32068 9.5105 2.1405 9.82776C1.9668 10.1335 1.82617 10.4525 1.72266 10.7759C1.62268 11.0885 1.53906 11.4304 1.47412 11.7922C1.40967 12.1509 1.36609 12.4911 1.34448 12.8036C1.32324 13.1091 1.3125 13.4271 1.3125 13.7484C1.3125 14.5836 1.578 15.2598 2.10156 15.7584C2.61865 16.2505 3.30273 16.5 4.13488 16.5H11.839C12.6709 16.5 13.355 16.2505 13.8722 15.7584C14.3959 15.2601 14.6614 14.5837 14.6614 13.7483C14.6612 13.4259 14.6504 13.1079 14.629 12.8032ZM13.2257 15.0791C12.884 15.4043 12.4304 15.5624 11.8388 15.5624H4.13488C3.54321 15.5624 3.0896 15.4043 2.74804 15.0792C2.41296 14.7602 2.25012 14.3248 2.25012 13.7484C2.25012 13.4486 2.26001 13.1526 2.27978 12.8684C2.29907 12.5896 2.3385 12.2833 2.39697 11.9579C2.45471 11.6365 2.5282 11.3348 2.6156 11.0618C2.69946 10.7999 2.81384 10.5406 2.95569 10.2909C3.09106 10.0529 3.24682 9.84863 3.4187 9.68408C3.57946 9.53015 3.7821 9.40417 4.02087 9.30969C4.24169 9.22229 4.48986 9.17444 4.75927 9.16723C4.79211 9.18469 4.85058 9.21802 4.94531 9.27978C5.13805 9.40539 5.36022 9.5487 5.60583 9.70556C5.88268 9.88208 6.23937 10.0415 6.66552 10.1791C7.10119 10.3199 7.54552 10.3915 7.98656 10.3915C8.4276 10.3915 8.87206 10.3199 9.30748 10.1792C9.73399 10.0414 10.0906 9.88208 10.3678 9.70532C10.6191 9.54468 10.8351 9.40552 11.0278 9.27978C11.1225 9.21814 11.181 9.18469 11.2138 9.16723C11.4834 9.17444 11.7315 9.22229 11.9525 9.30969C12.1911 9.40417 12.3938 9.53027 12.5545 9.68408C12.7264 9.84851 12.8822 10.0527 13.0176 10.291C13.1595 10.5406 13.274 10.8 13.3578 11.0616C13.4453 11.3351 13.5189 11.6366 13.5765 11.9578C13.6349 12.2838 13.6744 12.5902 13.6937 12.8685V12.8688C13.7136 13.1518 13.7236 13.4477 13.7237 13.7484C13.7236 14.3249 13.5608 14.7602 13.2257 15.0791Z" fill="#D5DAEA"/>
</g>
<defs>
<clipPath id="clip0">
<rect width="16" height="16" fill="white" transform="translate(0 0.5)"/>
</clipPath>
</defs>
</svg>
