<svg width="18" height="19" viewBox="0 0 18 19" fill="none" xmlns="http://www.w3.org/2000/svg">
<g clip-path="url(#clip0)">
<path d="M14.2593 0.5H11.4029C11.1953 0.5 11.007 0.621746 10.9219 0.811062C10.582 1.56689 9.82754 2.05524 8.99989 2.05524C8.17224 2.05524 7.41779 1.56685 7.07786 0.811027C6.99271 0.621746 6.80449 0.5 6.59692 0.5H3.74048C3.44924 0.5 3.21313 0.736109 3.21313 1.02734V17.9727C3.21313 18.2639 3.44924 18.5 3.74048 18.5H6.59692C6.80449 18.5 6.99271 18.3783 7.07786 18.1889C7.41779 17.4331 8.17224 16.9447 8.99989 16.9447C9.82754 16.9447 10.582 17.4331 10.9219 18.1889C11.007 18.3783 11.1953 18.5 11.4029 18.5H14.2593C14.5506 18.5 14.7867 18.2639 14.7867 17.9727V1.02734C14.7867 0.736109 14.5506 0.5 14.2593 0.5ZM4.26782 1.55469H6.27714C6.84129 2.50953 7.87552 3.10993 8.99989 3.10993C10.1243 3.10993 11.1585 2.50953 11.7226 1.55469H13.732V4.88145H4.26782V1.55469ZM13.7321 17.4453H11.7227C11.1586 16.4905 10.1243 15.8901 8.99992 15.8901C7.87556 15.8901 6.84133 16.4905 6.27718 17.4453H4.26782V5.93614H13.7321V17.4453Z" fill="black"/>
</g>
<defs>
<clipPath id="clip0">
<rect width="18" height="18" fill="white" transform="translate(0 0.5)"/>
</clipPath>
</defs>
</svg>
