<svg width="18" height="19" viewBox="0 0 18 19" fill="none" xmlns="http://www.w3.org/2000/svg">
<path d="M7.42188 1.32614C7.03125 1.71677 7.07031 2.3027 7.42188 2.69333L12.1484 7.14645H0.9375C0.390625 7.14645 0 7.57614 0 8.08395V9.33395C0 9.88083 0.390625 10.2715 0.9375 10.2715H12.1484L7.42188 14.7636C7.07031 15.1543 7.07031 15.7402 7.42188 16.1308L8.28125 16.9902C8.67188 17.3418 9.25781 17.3418 9.60938 16.9902L17.2266 9.37302C17.5781 9.02145 17.5781 8.43552 17.2266 8.04489L9.60938 0.466766C9.25781 0.115204 8.67188 0.115204 8.28125 0.466766L7.42188 1.32614Z" fill="black"/>
</svg>
