<svg width="16" height="17" viewBox="0 0 16 17" fill="none" xmlns="http://www.w3.org/2000/svg">
<path d="M15.7333 6.9H11.2V6.1C11.2 6.01467 11.1592 5.93447 11.0901 5.88427L8.26667 3.83093V2.9H11.2C11.3473 2.9 11.4667 2.7806 11.4667 2.63333V1.03333C11.4667 0.886067 11.3473 0.766667 11.2 0.766667H8.26667C8.26667 0.6194 8.14727 0.5 8 0.5C7.85273 0.5 7.73333 0.6194 7.73333 0.766667V3.83093L4.90987 5.88427C4.84083 5.93447 4.8 6.01467 4.8 6.1V6.9H0.266667C0.1194 6.9 0 7.0194 0 7.16667V16.2333C0 16.3806 0.1194 16.5 0.266667 16.5H15.7333C15.8806 16.5 16 16.3806 16 16.2333V7.16667C16 7.0194 15.8806 6.9 15.7333 6.9ZM8.26667 1.3H10.9333V2.36667H8.26667V1.3ZM4.8 15.9667H0.533333V7.43333H4.8V15.9667ZM9.06667 15.9667H6.93333V13.3H9.06667V15.9667ZM10.6667 15.9667H9.6V13.0333C9.6 12.8861 9.4806 12.7667 9.33333 12.7667H6.66667C6.5194 12.7667 6.4 12.8861 6.4 13.0333V15.9667H5.33333V6.23573L8 4.29627L10.6667 6.23573V15.9667ZM15.4667 15.9667H11.2V7.43333H15.4667V15.9667Z" fill="#D5DAEA"/>
<path d="M2.39999 8.23334H1.33333V8.76667H2.39999V8.23334Z" fill="#D5DAEA"/>
<path d="M4 8.23334H2.93333V8.76667H4V8.23334Z" fill="#D5DAEA"/>
<path d="M2.39999 9.29999H1.33333V9.83332H2.39999V9.29999Z" fill="#D5DAEA"/>
<path d="M4 9.29999H2.93333V9.83332H4V9.29999Z" fill="#D5DAEA"/>
<path d="M2.39999 10.3666H1.33333V10.9H2.39999V10.3666Z" fill="#D5DAEA"/>
<path d="M4 10.3666H2.93333V10.9H4V10.3666Z" fill="#D5DAEA"/>
<path d="M2.39999 11.4333H1.33333V11.9667H2.39999V11.4333Z" fill="#D5DAEA"/>
<path d="M4 11.4333H2.93333V11.9667H4V11.4333Z" fill="#D5DAEA"/>
<path d="M2.39999 12.5H1.33333V13.0333H2.39999V12.5Z" fill="#D5DAEA"/>
<path d="M4 12.5H2.93333V13.0333H4V12.5Z" fill="#D5DAEA"/>
<path d="M13.0667 8.23334H12V8.76667H13.0667V8.23334Z" fill="#D5DAEA"/>
<path d="M14.6667 8.23334H13.6V8.76667H14.6667V8.23334Z" fill="#D5DAEA"/>
<path d="M13.0667 9.29999H12V9.83332H13.0667V9.29999Z" fill="#D5DAEA"/>
<path d="M14.6667 9.29999H13.6V9.83332H14.6667V9.29999Z" fill="#D5DAEA"/>
<path d="M13.0667 10.3666H12V10.9H13.0667V10.3666Z" fill="#D5DAEA"/>
<path d="M14.6667 10.3666H13.6V10.9H14.6667V10.3666Z" fill="#D5DAEA"/>
<path d="M13.0667 11.4333H12V11.9667H13.0667V11.4333Z" fill="#D5DAEA"/>
<path d="M14.6667 11.4333H13.6V11.9667H14.6667V11.4333Z" fill="#D5DAEA"/>
<path d="M13.0667 12.5H12V13.0333H13.0667V12.5Z" fill="#D5DAEA"/>
<path d="M14.6667 12.5H13.6V13.0333H14.6667V12.5Z" fill="#D5DAEA"/>
<path d="M6.13333 8.50003C6.1345 9.53046 6.96956 10.3655 8 10.3667C9.03093 10.3667 9.86666 9.53096 9.86666 8.50003C9.86666 7.4691 9.03093 6.63336 8 6.63336C6.96906 6.63336 6.13333 7.4691 6.13333 8.50003ZM9.33333 8.50003C9.33333 9.2364 8.73636 9.83336 8 9.83336C7.26363 9.83336 6.66666 9.2364 6.66666 8.50003C6.66753 7.76403 7.264 7.16756 8 7.1667C8.73636 7.1667 9.33333 7.76366 9.33333 8.50003Z" fill="#D5DAEA"/>
<path d="M7.73335 8.23335H7.20001V8.76668H8.26668V7.43335H7.73335V8.23335Z" fill="#D5DAEA"/>
</svg>
