<svg width="18" height="19" viewBox="0 0 18 19" fill="none" xmlns="http://www.w3.org/2000/svg">
<g clip-path="url(#clip0)">
<path d="M12.2067 11.0894L9.69703 9.20718V5.37297C9.69703 4.98745 9.38541 4.67582 8.99988 4.67582C8.61436 4.67582 8.30273 4.98745 8.30273 5.37297V9.55579C8.30273 9.77538 8.40592 9.98245 8.58159 10.1135L11.3701 12.2049C11.4956 12.299 11.642 12.3444 11.7877 12.3444C12.0003 12.3444 12.2095 12.2488 12.3461 12.0648C12.5776 11.7573 12.5149 11.3202 12.2067 11.0894Z" fill="black"/>
<path d="M9 0.5C4.0371 0.5 0 4.5371 0 9.5C0 14.4629 4.0371 18.5 9 18.5C13.9629 18.5 18 14.4629 18 9.5C18 4.5371 13.9629 0.5 9 0.5ZM9 17.1057C4.80674 17.1057 1.39426 13.6933 1.39426 9.5C1.39426 5.30674 4.80674 1.89426 9 1.89426C13.194 1.89426 16.6057 5.30674 16.6057 9.5C16.6057 13.6933 13.1933 17.1057 9 17.1057Z" fill="black"/>
</g>
<defs>
<clipPath id="clip0">
<rect width="18" height="18" fill="white" transform="translate(0 0.5)"/>
</clipPath>
</defs>
</svg>
