<svg width="32" height="33" viewBox="0 0 32 33" fill="none" xmlns="http://www.w3.org/2000/svg">
<g clip-path="url(#clip0)">
<path d="M29 0.496765H3C1.34312 0.496765 0 1.83989 0 3.49677V29.4968C0 31.1536 1.34312 32.4968 3 32.4968H29C30.6569 32.4968 32 31.1536 32 29.4968V3.49677C32 1.83989 30.6569 0.496765 29 0.496765ZM30 29.4968C30 30.0491 29.5523 30.4968 29 30.4968H3C2.44769 30.4968 2 30.0491 2 29.4968V3.49677C2 2.94445 2.44769 2.49677 3 2.49677H29C29.5523 2.49677 30 2.94445 30 3.49677V29.4968Z" fill="#AAB1C6"/>
<path d="M21.71 17.7868C21.3199 17.399 20.6901 17.399 20.3 17.7868L18 20.0868L13.71 15.7968C13.3199 15.409 12.6901 15.409 12.3 15.7968L5.29999 22.7968C4.91337 23.1912 4.91956 23.8243 5.31393 24.2109C5.49737 24.3908 5.74306 24.4932 5.99999 24.4968H26C26.5522 24.5 27.0026 24.0549 27.0058 23.5026C27.0074 23.2339 26.9007 22.976 26.71 22.7868L21.71 17.7868Z" fill="#AAB1C6"/>
<path d="M19 14.4968C20.6569 14.4968 22 13.1536 22 11.4968C22 9.83991 20.6569 8.49677 19 8.49677C17.3431 8.49677 16 9.83991 16 11.4968C16 13.1536 17.3431 14.4968 19 14.4968Z" fill="#AAB1C6"/>
</g>
<defs>
<clipPath id="clip0">
<rect width="32" height="32" fill="white" transform="translate(0 0.496765)"/>
</clipPath>
</defs>
</svg>
